<svg xmlns="http://www.w3.org/2000/svg" width="128pt" height="45pt" viewBox="0 0 128 45" version="1.1">
<g id="#1e0f00ff">
<path fill="#1e0f00" opacity="1.00" d=" M 5.04 8.78 C 13.13 -1.05 29.86 -1.65 38.22 8.16 C 34.64 7.45 31.44 5.71 28.01 4.58 C 24.39 4.20 21.46 6.73 18.71 8.69 C 17.18 8.70 15.64 8.72 14.11 8.73 C 11.09 8.75 8.06 8.75 5.04 8.78 Z"/>
<path fill="#1e0f00" opacity="1.00" d=" M 43.37 16.32 C 44.45 20.20 43.65 24.39 43.89 28.38 C 43.74 28.42 43.45 28.52 43.30 28.57 C 43.19 28.16 42.96 27.33 42.85 26.91 C 39.21 27.17 35.55 27.23 31.90 27.21 C 35.18 24.84 37.79 21.70 39.31 17.93 C 40.21 17.99 42.01 18.09 42.91 18.14 C 43.02 17.69 43.25 16.77 43.37 16.32 Z"/>
<path fill="#1e0f00" opacity="1.00" d=" M 0.49 17.86 C 5.27 17.90 10.04 17.87 14.81 17.90 C 16.59 21.65 19.26 24.87 22.58 27.35 C 15.23 26.93 7.86 27.28 0.50 27.20 C 0.30 26.01 0.13 24.81 0.00 23.60 L 0.00 21.47 C 0.13 20.26 0.29 19.06 0.49 17.86 Z"/>
<path fill="#1e0f00" opacity="1.00" d=" M 5.10 36.31 C 9.33 36.30 13.55 36.39 17.77 36.33 C 21.54 36.29 25.31 36.34 29.08 36.36 C 32.37 36.34 35.66 36.31 38.95 36.32 C 30.58 46.43 13.46 46.45 5.10 36.31 Z"/>
</g>
<g id="#443f3cff">
<path fill="#443f3c" opacity="1.00" d=" M 18.71 8.69 C 21.46 6.73 24.39 4.20 28.01 4.58 C 31.44 5.71 34.64 7.45 38.22 8.16 C 38.42 8.35 38.81 8.75 39.01 8.94 C 38.31 8.91 36.91 8.83 36.22 8.79 C 32.19 8.67 28.16 8.68 24.14 8.68 C 22.33 8.69 20.52 8.68 18.71 8.69 Z"/>
</g>
<g id="#fea739ff">
<path fill="#fea739" opacity="1.00" d=" M 0.49 17.86 C 1.37 14.56 2.93 11.47 5.04 8.78 C 8.06 8.75 11.09 8.75 14.11 8.73 C 14.50 9.12 15.29 9.91 15.68 10.30 C 15.45 12.41 15.14 14.50 14.92 16.61 C 15.14 16.94 15.60 17.59 15.82 17.92 L 14.81 17.90 C 10.04 17.87 5.27 17.90 0.49 17.86 Z"/>
</g>
<g id="#ffc559ff">
<path fill="#ffc559" opacity="1.00" d=" M 14.11 8.73 C 15.64 8.72 17.18 8.70 18.71 8.69 C 20.52 8.68 22.33 8.69 24.14 8.68 C 23.17 11.25 22.21 13.81 21.23 16.37 C 22.18 16.96 23.14 17.54 24.12 18.07 C 21.66 18.03 19.19 17.99 16.72 17.94 L 15.82 17.92 C 15.60 17.59 15.14 16.94 14.92 16.61 C 15.14 14.50 15.45 12.41 15.68 10.30 C 15.29 9.91 14.50 9.12 14.11 8.73 Z"/>
</g>
<g id="#ffdc6aff">
<path fill="#ffdc6a" opacity="1.00" d=" M 24.14 8.68 C 28.16 8.68 32.19 8.67 36.22 8.79 C 36.98 11.79 37.55 14.84 38.01 17.90 L 37.31 17.91 C 32.91 17.99 28.52 18.28 24.12 18.07 C 23.14 17.54 22.18 16.96 21.23 16.37 C 22.21 13.81 23.17 11.25 24.14 8.68 Z"/>
</g>
<g id="#ffe133ff">
<path fill="#ffe133" opacity="1.00" d=" M 36.22 8.79 C 36.91 8.83 38.31 8.91 39.01 8.94 C 40.95 11.08 42.12 13.76 43.37 16.32 C 43.25 16.77 43.02 17.69 42.91 18.14 C 42.01 18.09 40.21 17.99 39.31 17.93 L 38.01 17.90 C 37.55 14.84 36.98 11.79 36.22 8.79 Z"/>
</g>
<g id="#ffffffff">
<path fill="black" opacity="1.00" d=" M 54.20 13.85 C 57.37 14.03 60.95 13.15 63.78 14.97 C 65.96 16.69 65.55 19.86 63.90 21.79 C 66.01 23.64 66.67 27.21 64.55 29.29 C 61.63 31.63 57.60 30.49 54.17 30.71 C 54.21 25.09 54.17 19.47 54.20 13.85 M 56.56 16.13 C 56.55 17.71 56.55 19.29 56.56 20.87 C 58.79 20.72 63.16 21.68 62.73 18.11 C 62.33 15.21 58.58 16.46 56.56 16.13 M 56.56 23.14 C 56.55 24.93 56.55 26.73 56.54 28.52 C 58.74 28.26 61.66 29.21 63.16 27.07 C 63.38 25.82 63.47 23.77 61.92 23.40 C 60.15 23.06 58.34 23.19 56.56 23.14 Z"/>
<path fill="black" opacity="1.00" d=" M 90.44 15.07 C 89.86 13.51 93.30 13.13 92.68 15.06 C 92.78 20.28 92.67 25.50 92.72 30.72 C 92.14 30.72 91.00 30.72 90.43 30.72 C 90.45 25.50 90.38 20.29 90.44 15.07 Z"/>
<path fill="black" opacity="1.00" d=" M 96.41 14.40 C 98.05 14.05 98.95 16.79 96.88 16.95 C 95.11 17.43 94.65 14.67 96.41 14.40 Z"/>
<path fill="black" opacity="1.00" d=" M 67.81 21.97 C 68.76 18.92 72.68 18.46 75.19 19.70 C 77.27 21.14 76.78 23.94 76.99 26.12 C 74.48 26.13 71.98 26.13 69.48 26.20 C 70.22 29.76 74.07 28.69 76.70 28.64 C 77.08 31.49 73.58 30.77 71.89 30.89 C 67.36 30.97 66.79 25.28 67.81 21.97 M 69.47 24.18 C 71.33 24.08 73.20 23.94 75.06 23.75 C 74.35 22.51 73.89 20.66 72.04 21.20 C 70.28 21.10 70.13 23.04 69.47 24.18 Z"/>
<path fill="black" opacity="1.00" d=" M 79.18 22.06 C 80.07 18.83 84.47 18.30 86.93 19.97 C 88.53 21.61 88.21 24.03 88.39 26.12 C 85.85 26.13 83.30 26.12 80.76 26.27 C 81.72 29.79 85.58 28.62 88.29 28.70 C 87.84 31.72 84.25 30.86 82.09 30.74 C 78.47 29.77 78.23 25.03 79.18 22.06 M 80.94 24.11 C 82.58 23.70 85.34 25.11 86.18 23.13 C 85.49 19.82 80.84 21.05 80.94 24.11 Z"/>
<path fill="black" opacity="1.00" d=" M 95.48 19.34 C 96.05 19.32 97.20 19.27 97.78 19.25 C 97.81 23.10 97.82 26.95 97.76 30.80 C 97.19 30.76 96.05 30.70 95.48 30.66 C 95.49 26.89 95.49 23.11 95.48 19.34 Z"/>
<path fill="black" opacity="1.00" d=" M 100.42 19.13 C 100.95 19.25 102.00 19.48 102.53 19.60 C 104.78 18.95 108.47 18.53 109.25 21.48 C 109.59 24.53 109.34 27.62 109.40 30.69 C 108.83 30.71 107.69 30.76 107.12 30.78 C 107.11 27.60 107.16 24.41 106.82 21.24 C 105.45 21.25 104.08 21.37 102.71 21.45 C 102.70 24.54 102.72 27.63 102.72 30.72 C 102.13 30.71 100.96 30.70 100.37 30.70 C 100.39 26.84 100.35 22.99 100.42 19.13 Z"/>
<path fill="black" opacity="1.00" d=" M 112.64 29.53 C 109.90 25.96 111.27 17.99 117.05 19.12 C 120.74 19.03 121.10 23.36 120.93 26.12 C 118.43 26.13 115.93 26.13 113.44 26.20 C 114.26 29.58 117.67 28.80 120.39 28.59 C 120.41 29.07 120.44 30.04 120.46 30.52 C 117.90 30.76 114.62 31.70 112.64 29.53 M 113.55 24.09 C 115.27 24.09 116.99 24.14 118.72 24.12 C 118.41 23.00 118.52 21.26 116.93 21.17 C 114.91 20.62 113.91 22.45 113.55 24.09 Z"/>
<path fill="black" opacity="1.00" d=" M 123.09 19.53 C 124.72 19.51 126.36 19.59 128.00 19.50 L 128.00 20.95 C 126.50 20.25 124.81 19.92 123.16 20.16 L 123.09 19.53 Z"/>
</g>
<g id="#372d22ff">
<path fill="#372d22" opacity="1.00" d=" M 14.81 17.90 L 15.82 17.92 L 16.72 17.94 C 19.27 21.82 22.79 26.08 28.02 25.29 C 32.64 25.38 35.38 21.55 37.31 17.91 L 38.01 17.90 L 39.31 17.93 C 37.79 21.70 35.18 24.84 31.90 27.21 C 28.79 27.22 25.68 27.09 22.58 27.35 C 19.26 24.87 16.59 21.65 14.81 17.90 Z"/>
</g>
<g id="#524d48ff">
<path fill="#524d48" opacity="1.00" d=" M 16.72 17.94 C 19.19 17.99 21.66 18.03 24.12 18.07 C 28.52 18.28 32.91 17.99 37.31 17.91 C 35.38 21.55 32.64 25.38 28.02 25.29 C 22.79 26.08 19.27 21.82 16.72 17.94 Z"/>
</g>
<g id="#40404040">
<path fill="#404040" opacity="0.25" d=" M 123.16 20.16 C 124.81 19.92 126.50 20.25 128.00 20.95 L 128.00 21.48 C 126.56 22.22 124.73 22.25 123.34 21.35 C 123.30 21.05 123.21 20.46 123.16 20.16 Z"/>
</g>
<g id="#0b0b0b0b">
<path fill="#0b0b0b" opacity="0.04" d=" M 80.94 24.11 C 80.84 21.05 85.49 19.82 86.18 23.13 C 85.34 25.11 82.58 23.70 80.94 24.11 Z"/>
<path fill="#0b0b0b" opacity="0.04" d=" M 113.55 24.09 C 113.91 22.45 114.91 20.62 116.93 21.17 C 118.52 21.26 118.41 23.00 118.72 24.12 C 116.99 24.14 115.27 24.09 113.55 24.09 Z"/>
</g>
<g id="#ffad38ff">
<path fill="#ffad38" opacity="1.00" d=" M 0.50 27.20 C 7.86 27.28 15.23 26.93 22.58 27.35 L 21.70 27.50 C 21.05 27.62 19.76 27.87 19.12 28.00 C 20.08 28.81 21.03 29.63 22.00 30.43 C 22.33 33.41 20.40 35.38 17.77 36.33 C 13.55 36.39 9.33 36.30 5.10 36.31 C 2.95 33.63 1.39 30.52 0.50 27.20 Z"/>
</g>
<g id="#ffdd2eff">
<path fill="#ffdd2e" opacity="1.00" d=" M 22.58 27.35 C 25.68 27.09 28.79 27.22 31.90 27.21 C 35.55 27.23 39.21 27.17 42.85 26.91 C 42.96 27.33 43.19 28.16 43.30 28.57 C 42.14 31.30 40.81 33.99 38.95 36.32 C 35.66 36.31 32.37 36.34 29.08 36.36 C 31.50 34.86 33.26 32.17 31.69 29.35 C 28.69 27.58 25.05 27.69 21.70 27.50 L 22.58 27.35 Z"/>
</g>
<g id="#ffc833ff">
<path fill="#ffc833" opacity="1.00" d=" M 19.12 28.00 C 19.76 27.87 21.05 27.62 21.70 27.50 C 25.05 27.69 28.69 27.58 31.69 29.35 C 33.26 32.17 31.50 34.86 29.08 36.36 C 25.31 36.34 21.54 36.29 17.77 36.33 C 20.40 35.38 22.33 33.41 22.00 30.43 C 21.03 29.63 20.08 28.81 19.12 28.00 Z"/>
</g>
</svg>