<?xml version="1.0" encoding="UTF-8" ?>
<!DOCTYPE svg PUBLIC "-//W3C//DTD SVG 1.1//EN" "http://www.w3.org/Graphics/SVG/1.1/DTD/svg11.dtd">
<svg width="1240pt" height="802pt" viewBox="0 0 1240 802" version="1.1" xmlns="http://www.w3.org/2000/svg">
<g xmlns="http://www.w3.org/2000/svg" id="#ffffffff">
<path fill="#fff" opacity="1.00" d=" M 499.43 12.62 C 510.91 11.48 522.47 12.01 534.00 11.95 C 600.68 12.09 667.36 11.94 734.03 11.99 C 743.83 11.20 752.35 17.54 759.17 23.84 C 767.32 31.62 769.49 43.15 769.06 53.98 C 768.87 202.33 769.14 350.69 768.93 499.04 C 769.59 515.76 756.83 530.56 741.35 535.29 C 731.28 536.50 721.11 536.00 711.00 536.07 C 642.65 535.88 574.31 536.07 505.97 536.01 C 496.17 536.80 487.64 530.45 480.83 524.16 C 472.68 516.38 470.50 504.84 470.94 494.02 C 471.13 345.67 470.86 197.31 471.07 48.96 C 470.41 32.14 483.55 16.74 499.43 12.62 M 495.65 36.66 C 488.43 43.70 490.68 54.95 489.58 63.99 C 576.45 64.01 663.33 64.00 750.20 64.00 C 749.42 55.02 751.57 44.46 744.85 37.16 C 739.64 30.61 730.77 29.67 723.01 29.90 C 654.67 30.14 586.32 29.90 517.98 30.01 C 510.29 29.95 501.06 30.23 495.65 36.66 M 490.00 83.00 C 490.00 193.00 490.00 303.00 490.00 413.00 C 576.67 413.00 663.33 413.00 750.00 413.00 C 750.00 303.00 750.00 193.00 750.00 83.00 C 663.33 83.00 576.67 83.00 490.00 83.00 M 490.00 432.00 C 490.22 453.33 489.51 474.67 490.19 496.00 C 489.89 502.73 492.68 509.73 498.28 513.69 C 503.39 518.01 510.66 518.07 516.99 518.10 C 583.66 517.92 650.33 517.98 717.01 518.07 C 725.65 517.63 735.77 519.14 742.85 512.86 C 749.02 507.90 750.24 499.46 750.09 492.03 C 750.19 472.02 749.86 452.01 750.00 432.00 C 663.33 432.00 576.67 432.00 490.00 432.00 Z"/>
<path fill="#fff" opacity="1.00" d=" M 583.43 37.62 C 594.92 36.44 606.51 36.69 618.05 36.94 C 621.43 37.01 625.01 38.05 627.29 40.72 C 632.94 45.45 628.55 55.97 621.61 56.49 C 609.75 57.49 597.83 57.36 585.96 57.00 C 581.23 56.81 575.95 53.64 575.43 48.62 C 573.78 43.25 578.54 38.49 583.43 37.62 Z"/>
<path fill="#fff" opacity="1.00" d=" M 644.43 37.50 C 650.23 36.50 657.03 35.85 661.71 40.27 C 666.02 43.69 665.55 51.02 661.29 54.28 C 657.58 58.01 651.63 56.73 646.96 57.10 C 641.39 56.73 635.46 52.30 636.93 45.95 C 636.69 41.67 640.45 38.25 644.43 37.50 Z"/>
<path fill="#fff" opacity="1.00" d=" M 392.32 48.26 C 398.99 46.87 406.93 55.51 402.65 61.68 C 397.41 69.09 390.72 75.45 386.46 83.55 C 371.57 110.92 373.17 146.82 392.19 171.85 C 395.60 177.29 401.45 181.16 403.62 187.34 C 404.29 192.86 399.54 198.68 393.78 198.46 C 388.36 198.21 384.81 193.24 381.35 189.68 C 370.29 175.96 362.14 159.67 358.69 142.34 C 357.52 130.05 357.45 117.62 358.44 105.32 C 361.62 88.43 369.74 72.66 379.97 58.99 C 383.61 55.06 386.92 49.86 392.32 48.26 Z"/>
<path fill="#fff" opacity="1.00" d=" M 844.99 48.15 C 851.20 47.64 855.21 53.99 859.17 57.82 C 869.82 71.54 877.94 87.53 881.30 104.66 C 882.47 116.69 882.47 128.83 881.73 140.89 C 877.97 159.35 869.57 176.98 857.25 191.26 C 853.97 194.57 850.08 199.23 844.86 198.33 C 838.08 197.97 832.95 188.50 838.60 183.53 C 849.67 171.15 859.07 156.52 861.75 139.86 C 865.96 120.64 862.59 100.07 853.20 82.86 C 849.22 75.17 842.67 69.35 837.60 62.46 C 833.48 56.81 838.94 49.28 844.99 48.15 Z"/>
<path fill="#fff" opacity="1.00" d=" M 423.20 69.18 C 426.27 65.81 431.66 65.52 435.64 67.37 C 439.34 69.31 440.12 74.07 439.87 77.85 C 437.81 81.91 434.32 85.03 431.79 88.78 C 421.19 103.07 418.63 122.47 423.53 139.39 C 426.50 149.97 434.83 157.71 439.90 167.20 C 440.25 171.81 437.14 175.36 435.26 179.22 C 430.08 178.55 424.56 177.18 421.15 172.86 C 402.47 152.30 395.33 120.65 406.72 94.81 C 410.82 85.49 416.11 76.55 423.20 69.18 Z"/>
<path fill="#fff" opacity="1.00" d=" M 804.76 67.91 C 809.06 68.81 814.41 68.75 817.61 72.37 C 828.94 84.89 837.05 100.83 838.35 117.85 C 840.94 139.54 831.81 161.46 817.11 177.13 C 813.02 182.49 803.17 181.84 800.93 175.04 C 797.64 168.99 803.83 164.35 806.73 159.75 C 820.38 142.97 822.76 118.19 812.93 99.01 C 809.68 92.28 804.09 87.02 800.50 80.50 C 798.76 75.57 802.85 71.90 804.76 67.91 Z"/>
<path fill="#fff" opacity="1.00" d=" M 613.44 439.55 C 624.42 437.38 636.41 440.61 644.29 448.69 C 660.35 462.84 659.08 491.97 640.92 503.88 C 627.97 513.82 608.27 512.74 596.31 501.65 C 581.48 489.37 580.54 464.51 593.75 450.75 C 598.81 444.96 605.71 440.53 613.44 439.55 M 614.44 459.51 C 608.08 460.90 604.51 467.41 603.33 473.34 C 602.37 482.17 609.89 491.20 618.98 491.11 C 630.90 492.84 641.00 478.42 634.92 468.02 C 632.03 459.93 622.16 457.00 614.44 459.51 Z"/>












</g>
</svg>
