<?xml version="1.0" encoding="UTF-8" ?>
<!DOCTYPE svg PUBLIC "-//W3C//DTD SVG 1.1//EN" "http://www.w3.org/Graphics/SVG/1.1/DTD/svg11.dtd">
<svg width="1240pt" height="802pt" viewBox="0 0 1240 802" version="1.1" xmlns="http://www.w3.org/2000/svg">
    <g  id="#ffffffff">
<path fill="#ffffff" opacity="1.00" d=" M 728.44 17.56 C 738.18 16.42 748.06 16.52 757.84 17.30 C 763.84 19.23 766.42 25.19 767.11 30.88 C 778.42 30.98 789.73 30.69 801.06 30.95 C 806.71 30.82 811.67 35.63 813.19 40.85 C 814.47 47.82 814.22 54.99 814.02 62.04 C 813.79 69.60 806.93 76.88 799.01 75.82 C 788.10 76.35 777.19 76.04 766.30 75.98 C 766.68 81.81 766.96 87.65 767.25 93.50 C 781.10 98.80 792.80 108.67 801.19 120.81 C 817.26 121.03 834.22 119.67 849.21 126.74 C 865.65 134.81 877.97 151.15 880.51 169.38 C 881.72 184.24 880.62 199.16 880.92 214.05 C 877.70 223.47 890.81 224.10 891.64 232.17 C 892.43 240.76 892.45 249.43 892.00 258.05 C 891.47 263.57 887.61 268.88 881.82 269.60 C 860.22 270.56 838.57 270.04 816.95 269.92 C 810.42 270.73 803.28 266.70 802.37 259.82 C 801.61 250.92 801.36 241.91 802.12 233.01 C 802.88 227.52 807.67 224.28 811.73 221.23 C 811.82 212.60 812.61 203.88 811.64 195.29 C 810.86 191.22 805.48 191.62 802.59 190.67 C 790.78 211.32 768.12 225.72 744.01 225.09 C 719.73 226.08 696.90 211.62 684.45 191.26 C 652.97 190.48 621.47 191.53 590.00 190.82 C 583.53 191.44 575.57 187.46 574.52 180.61 C 573.49 164.25 573.40 147.77 574.60 131.42 C 575.90 124.25 584.33 120.73 591.00 121.16 C 622.56 120.56 654.14 121.35 685.72 120.88 C 694.24 108.76 705.78 98.89 719.63 93.38 C 719.89 87.58 720.12 81.77 720.53 75.97 C 708.99 76.01 697.46 76.40 685.94 75.92 C 680.26 75.37 674.66 71.18 673.64 65.36 C 672.67 58.01 672.48 50.50 673.18 43.11 C 674.44 36.79 679.77 29.96 686.99 31.16 C 697.71 30.67 708.45 30.94 719.20 30.87 C 721.24 25.97 723.03 19.58 728.44 17.56 Z"/>
<path fill="#ffffff" opacity="1.00" d=" M 405.66 206.50 C 420.42 201.13 436.40 201.43 451.84 202.34 C 487.49 206.89 519.43 231.77 533.13 264.93 C 548.37 300.22 541.53 344.09 515.63 372.66 C 508.09 380.79 500.17 389.35 489.69 393.60 C 484.69 394.27 482.56 388.45 482.49 384.40 C 509.21 368.26 528.50 338.73 528.00 307.01 C 529.91 275.57 512.71 244.27 485.99 227.98 C 457.20 209.45 417.80 209.53 389.01 228.00 C 374.60 237.42 362.60 250.66 355.32 266.31 C 341.85 295.51 344.80 332.00 364.07 357.94 C 370.25 367.34 379.18 374.28 387.95 381.10 C 389.58 382.55 392.02 383.98 392.48 386.38 C 393.52 397.22 393.02 408.13 393.01 419.01 C 396.76 419.00 404.27 418.97 408.02 418.96 C 404.38 386.86 401.13 354.71 397.69 322.60 C 392.72 319.63 387.54 316.70 383.77 312.23 C 376.16 301.49 380.14 284.80 391.95 278.93 C 396.88 275.83 403.04 275.69 408.65 276.44 C 412.89 277.79 416.72 280.22 420.58 282.41 C 425.71 279.50 430.83 275.73 437.03 275.99 C 443.79 275.06 449.59 279.23 454.97 282.69 C 463.08 275.81 476.24 272.60 484.98 280.04 C 494.65 285.90 498.09 299.30 493.32 309.33 C 490.17 315.78 483.12 318.41 478.39 323.36 C 476.97 326.57 477.06 330.22 476.53 333.66 C 473.88 362.12 470.42 390.50 467.83 418.96 C 476.23 418.90 484.63 418.76 493.04 418.95 C 500.24 418.08 508.27 422.06 510.90 429.01 C 513.79 435.55 513.26 443.14 510.43 449.62 C 507.90 454.32 511.63 458.98 512.20 463.71 C 513.91 470.47 512.47 478.36 507.29 483.29 C 501.68 489.83 491.68 488.38 484.02 489.06 C 455.26 488.86 426.49 489.48 397.74 488.47 C 402.64 495.55 407.46 502.69 412.14 509.93 C 429.06 510.06 445.98 509.99 462.90 509.96 C 465.76 505.88 468.66 501.82 471.55 497.77 C 475.02 499.26 482.62 500.77 479.72 506.74 C 475.72 513.10 472.70 524.12 462.97 522.67 C 460.47 522.82 457.99 523.13 455.55 523.60 C 455.25 525.94 454.65 530.61 454.35 532.95 C 499.58 533.01 544.80 533.04 590.03 533.01 C 595.56 532.58 604.55 533.95 607.13 527.24 C 608.50 518.27 608.03 509.11 608.56 500.07 C 597.19 498.97 584.01 502.98 573.83 496.40 C 574.32 466.25 573.70 436.10 574.02 405.96 C 573.98 403.07 573.75 397.61 577.64 396.70 C 589.74 395.24 602.00 396.10 614.17 395.99 C 613.92 388.90 613.97 381.81 613.36 374.74 C 601.94 374.00 590.48 374.52 579.09 373.73 C 574.72 373.09 573.07 367.84 575.19 364.29 C 587.51 336.22 599.90 308.17 612.02 280.01 C 613.72 274.77 617.26 270.18 622.74 268.49 C 624.95 272.24 627.34 275.92 629.05 279.95 C 637.37 298.70 645.37 317.58 653.71 336.32 C 654.35 303.67 653.81 271.01 654.05 238.35 C 646.91 237.55 639.72 237.25 632.57 236.77 C 632.12 242.11 635.00 250.62 628.56 253.38 C 611.34 256.39 593.89 258.32 576.46 259.77 C 575.44 256.09 574.52 252.38 573.66 248.67 C 568.13 248.64 557.45 250.27 557.01 242.00 C 557.04 234.78 566.46 236.71 571.02 235.79 C 575.99 236.54 572.95 229.22 574.61 226.74 C 568.94 225.56 561.04 227.21 557.15 221.68 C 556.80 219.08 557.23 214.34 560.66 213.82 C 564.77 213.14 568.99 212.96 573.17 212.60 C 574.05 208.88 575.17 205.21 576.54 201.64 C 591.61 202.22 606.56 204.33 621.49 206.32 C 625.09 206.97 631.06 207.12 632.22 211.66 C 632.74 215.64 632.63 219.70 632.74 223.72 C 639.27 223.94 645.83 223.97 652.34 224.75 C 660.86 226.00 667.61 234.30 666.91 242.95 C 667.13 284.65 667.01 326.37 666.99 368.07 C 667.50 372.55 662.02 374.77 658.32 373.82 C 655.50 372.18 654.04 369.08 652.74 366.22 C 649.17 357.77 645.58 349.33 641.93 340.92 C 627.75 339.92 613.52 339.89 599.33 340.07 C 596.36 347.37 593.30 354.64 590.12 361.85 C 601.09 363.17 615.58 358.12 623.38 368.65 C 628.59 376.37 626.40 386.52 627.23 395.32 C 634.05 396.88 641.19 398.05 647.34 401.63 C 659.99 409.30 667.80 424.18 667.02 438.97 C 666.56 450.14 669.31 462.10 664.60 472.69 C 661.00 482.17 653.94 490.21 645.10 495.14 C 638.00 499.68 629.14 499.38 621.10 500.41 C 621.02 509.22 621.45 518.08 620.74 526.89 C 619.10 534.81 612.86 541.51 605.32 544.24 C 598.61 545.31 591.76 544.99 585.00 545.12 C 536.66 544.89 488.31 545.00 439.97 545.10 C 435.50 545.29 430.64 545.02 427.05 541.93 C 420.79 538.04 420.51 530.05 419.53 523.52 C 414.79 522.58 408.96 524.36 404.89 521.13 C 397.28 511.34 391.82 499.98 383.72 490.54 C 381.15 488.56 377.76 487.84 375.39 485.57 C 372.54 482.75 374.34 476.99 378.38 476.51 C 416.57 475.04 454.84 476.64 493.06 475.96 C 495.57 475.94 498.25 474.94 499.63 472.72 C 499.67 468.71 499.53 464.74 499.34 460.77 C 460.26 458.86 421.10 460.80 382.00 459.82 C 373.95 460.31 366.13 455.23 363.41 447.61 C 363.00 441.15 361.37 433.86 365.00 428.00 C 367.49 421.96 374.32 420.32 379.84 418.17 C 379.78 409.21 380.79 400.15 379.69 391.25 C 373.96 385.35 366.82 380.87 361.29 374.72 C 338.06 349.18 327.73 311.28 337.81 277.91 C 346.53 244.76 372.97 216.87 405.66 206.50 M 587.02 214.89 C 587.01 225.31 587.01 235.72 587.02 246.14 C 598.01 244.82 609.01 243.47 619.98 241.96 C 619.99 234.34 619.97 226.73 619.96 219.12 C 608.99 217.62 598.00 216.30 587.02 214.89 M 401.63 288.53 C 393.89 289.70 390.31 299.18 394.27 305.72 C 398.01 308.77 403.11 309.43 407.20 311.94 C 410.29 313.96 409.93 318.40 410.60 321.50 C 413.77 353.95 417.46 386.35 420.52 418.80 C 431.96 419.05 443.40 418.98 454.85 419.01 C 458.18 386.68 461.71 354.37 464.96 322.03 C 465.94 318.74 464.73 312.77 469.06 311.33 C 473.93 309.53 481.03 308.46 482.32 302.31 C 485.27 293.98 475.86 286.02 468.13 289.11 C 461.41 291.38 462.45 300.45 457.68 304.70 C 455.50 306.53 452.10 305.64 450.31 303.71 C 447.45 299.80 448.04 294.07 444.26 290.76 C 440.66 287.66 435.29 288.29 431.29 290.25 C 425.73 294.08 428.42 304.39 420.91 305.89 C 415.50 306.09 414.31 299.36 413.12 295.51 C 412.04 290.54 406.44 287.51 401.63 288.53 M 605.13 326.94 C 615.49 327.37 625.86 327.88 636.24 328.01 C 631.00 316.01 625.62 304.07 620.64 291.96 C 615.52 303.64 610.62 315.42 605.13 326.94 M 587.00 408.00 C 586.99 434.32 587.00 460.65 587.00 486.98 C 600.32 486.97 613.66 487.38 626.99 486.80 C 636.99 487.16 646.83 481.09 651.07 472.06 C 655.34 463.73 653.73 453.97 654.19 444.99 C 653.77 437.42 654.59 429.17 650.64 422.34 C 645.91 414.21 636.78 409.04 627.44 408.56 C 613.98 407.47 600.47 408.04 587.00 408.00 M 379.61 431.62 C 374.29 432.16 374.73 439.49 375.75 443.17 C 376.71 448.30 383.45 446.91 386.98 447.16 C 424.43 446.47 461.92 447.95 499.34 446.23 C 498.97 441.22 502.43 432.98 495.70 431.44 C 475.50 430.19 455.23 431.35 435.00 431.01 C 416.54 431.30 398.03 430.13 379.61 431.62 M 431.95 523.01 C 432.79 525.89 433.21 528.89 434.42 531.68 C 437.04 533.09 440.00 533.13 442.82 534.06 C 442.87 531.29 442.97 525.75 443.02 522.98 C 440.25 522.99 434.72 523.01 431.95 523.01 Z"/>
<path fill="#ffffff" opacity="1.00" d=" M 436.40 224.47 C 453.26 223.35 470.14 229.71 484.03 238.97 C 490.29 244.15 497.61 249.12 501.45 256.51 C 504.51 261.42 500.12 266.16 495.32 265.63 C 487.25 260.21 481.66 251.69 473.07 246.92 C 462.20 239.59 448.81 238.12 436.16 236.44 C 433.48 236.02 431.61 233.43 431.13 230.91 C 431.06 227.91 433.48 225.05 436.40 224.47 Z"/>
<path fill="#ffffff" opacity="1.00" d=" M 841.40 286.37 C 847.87 284.28 854.90 286.96 857.88 293.05 C 863.89 307.53 867.22 322.92 872.41 337.69 C 876.05 349.66 881.39 361.85 879.61 374.66 C 876.06 389.92 861.15 402.84 845.01 401.11 C 828.64 402.00 814.07 387.46 812.44 371.60 C 810.71 363.39 814.62 355.60 816.68 347.86 C 821.90 331.61 826.68 315.22 832.06 299.03 C 833.61 294.10 836.08 288.13 841.40 286.37 Z"/>
<path fill="#ffffff" opacity="1.00" d=" M 362.32 304.29 C 365.17 303.55 368.35 305.75 369.09 308.53 C 371.43 318.22 372.73 328.43 377.80 337.22 C 381.46 344.25 387.17 349.82 391.87 356.12 C 394.42 359.09 391.35 363.20 388.38 364.44 C 385.67 365.88 382.78 363.99 380.81 362.19 C 367.57 348.70 358.80 330.73 357.28 311.82 C 356.87 308.49 359.11 305.21 362.32 304.29 Z"/>
</g>
</svg>
