<svg xmlns="http://www.w3.org/2000/svg" width="300pt" height="219pt" viewBox="0 0 300 219" version="1.1">
<g id="#4c4c4cff">
<path fill="#4c4c4c" opacity="1.00" d=" M 147.33 0.00 L 152.66 0.00 C 157.59 0.32 162.52 0.90 167.35 1.95 C 165.31 4.44 162.25 5.39 159.37 6.52 C 158.29 7.82 158.91 9.80 158.65 11.38 C 158.20 11.08 157.76 10.78 157.31 10.49 L 156.57 10.00 C 156.36 9.52 155.94 8.58 155.73 8.11 C 156.37 8.40 157.65 8.97 158.29 9.26 C 157.97 8.34 157.65 7.41 157.33 6.49 C 157.37 6.18 157.45 5.57 157.49 5.26 C 155.99 4.55 154.36 5.15 153.02 5.92 L 152.23 6.30 C 151.37 6.81 150.54 7.36 149.74 7.95 C 149.74 7.38 149.73 6.25 149.73 5.68 C 149.00 6.34 148.26 7.00 147.56 7.69 C 146.76 7.46 145.17 6.99 144.38 6.76 C 143.57 6.60 142.75 6.61 141.94 6.61 C 141.51 6.67 140.65 6.79 140.22 6.84 C 139.76 6.93 138.83 7.10 138.37 7.19 C 137.57 8.40 136.82 9.65 136.06 10.89 C 136.08 10.04 136.12 8.34 136.15 7.48 C 135.51 7.71 134.24 8.16 133.61 8.39 L 133.49 8.25 C 132.99 8.35 131.98 8.56 131.47 8.66 C 130.93 8.77 129.85 8.98 129.31 9.09 C 129.85 10.55 130.38 12.03 130.38 13.61 C 128.56 12.92 128.42 11.16 128.26 9.52 C 127.69 9.68 126.53 9.99 125.95 10.15 C 126.67 11.49 127.39 12.82 128.10 14.16 C 128.83 14.08 130.29 13.91 131.02 13.83 C 131.23 14.41 131.67 15.56 131.88 16.13 C 130.61 16.03 129.34 15.93 128.07 15.83 C 128.37 16.40 128.96 17.54 129.26 18.10 C 129.46 18.48 129.88 19.22 130.08 19.59 C 131.57 18.95 133.03 18.24 134.48 17.52 C 135.31 17.82 136.15 18.12 136.98 18.42 C 130.93 22.59 123.12 23.45 117.40 28.27 C 117.07 28.98 116.41 30.39 116.07 31.09 C 115.01 31.93 113.93 32.73 112.81 33.49 C 111.47 33.80 109.87 33.63 108.86 34.75 C 104.94 37.91 102.07 42.10 98.51 45.60 C 97.06 47.20 96.23 44.51 95.41 43.67 C 96.26 42.19 97.76 40.92 98.02 39.17 C 97.18 38.26 96.30 37.38 95.39 36.54 C 95.46 35.47 95.47 34.40 95.57 33.33 C 97.24 34.61 98.55 36.26 99.76 37.96 C 100.20 37.46 101.08 36.47 101.51 35.97 C 100.33 35.52 99.26 34.90 98.30 34.11 C 98.66 33.55 99.40 32.44 99.76 31.88 C 100.53 32.97 101.30 34.06 102.06 35.16 C 103.53 33.66 105.07 32.24 106.71 30.92 C 105.48 30.07 104.90 28.89 104.99 27.38 C 106.23 27.94 107.27 28.75 108.13 29.81 C 108.62 29.37 109.60 28.50 110.09 28.07 C 108.47 27.26 106.88 26.40 105.39 25.38 C 105.97 25.26 107.14 25.04 107.73 24.93 C 107.19 23.93 106.64 22.94 106.13 21.93 C 106.28 21.61 106.57 20.96 106.72 20.63 C 108.46 22.72 109.87 25.06 110.82 27.61 C 112.90 26.42 110.58 24.21 110.39 22.56 C 112.66 21.89 113.26 24.08 113.64 25.82 C 114.42 25.10 115.21 24.39 116.00 23.67 C 117.59 23.37 119.17 22.98 120.74 22.55 C 119.98 19.87 118.63 17.12 119.48 14.29 C 121.07 16.25 121.76 18.67 121.97 21.15 C 123.62 20.23 125.28 19.31 126.91 18.36 C 125.46 16.05 124.23 13.61 123.35 11.02 C 121.82 11.75 120.29 12.48 118.76 13.19 L 118.22 12.33 C 119.96 10.14 122.87 9.88 125.41 9.23 C 126.50 7.39 127.37 5.40 127.43 3.22 C 133.89 1.29 140.61 0.37 147.33 0.00 Z"/>
</g>
<g id="#2e2e2eff">
<path fill="#2e2e2e" opacity="1.00" d=" M 167.35 1.95 C 170.82 2.69 174.23 3.72 177.57 4.93 C 174.84 7.37 171.31 7.64 167.84 7.79 C 167.24 9.08 166.84 10.45 166.39 11.80 C 166.00 11.27 165.22 10.20 164.83 9.67 C 165.28 9.19 166.18 8.23 166.63 7.75 C 164.64 8.08 163.12 9.42 161.52 10.53 C 161.91 9.79 162.69 8.30 163.08 7.55 C 162.25 7.36 161.43 7.18 160.61 6.99 C 160.99 9.92 159.93 12.68 159.39 15.49 C 159.40 16.19 159.41 17.58 159.42 18.28 C 155.28 19.28 150.97 19.13 146.74 19.24 C 147.62 18.37 148.52 17.51 149.41 16.65 C 149.06 16.23 148.35 15.40 147.99 14.98 C 148.65 14.91 149.96 14.75 150.62 14.67 C 150.09 12.47 149.75 10.22 149.74 7.95 C 150.54 7.36 151.37 6.81 152.23 6.30 C 152.07 8.53 154.24 8.00 155.73 8.11 C 155.94 8.58 156.36 9.52 156.57 10.00 C 155.37 9.65 154.18 9.31 152.98 8.99 C 153.03 10.98 152.74 12.95 152.20 14.87 C 153.93 14.98 155.65 15.09 157.38 15.21 C 157.50 14.24 157.60 13.27 157.69 12.29 C 156.98 12.81 155.55 13.84 154.84 14.36 C 154.60 13.50 154.36 12.64 154.12 11.78 C 155.18 11.35 156.25 10.92 157.31 10.49 C 157.76 10.78 158.20 11.08 158.65 11.38 C 158.91 9.80 158.29 7.82 159.37 6.52 C 162.25 5.39 165.31 4.44 167.35 1.95 Z"/>
</g>
<g id="#575758ff">
<path fill="#575758" opacity="1.00" d=" M 74.11 53.35 C 82.51 29.38 102.99 10.13 127.43 3.22 C 127.37 5.40 126.50 7.39 125.41 9.23 C 122.87 9.88 119.96 10.14 118.22 12.33 L 118.76 13.19 C 118.94 13.47 119.30 14.02 119.48 14.29 C 118.63 17.12 119.98 19.87 120.74 22.55 C 119.17 22.98 117.59 23.37 116.00 23.67 C 116.00 21.59 114.33 19.94 112.26 20.01 C 111.93 19.29 111.28 17.86 110.95 17.15 C 109.50 18.26 108.04 19.37 106.72 20.63 C 106.57 20.96 106.28 21.61 106.13 21.93 C 106.64 22.94 107.19 23.93 107.73 24.93 C 107.14 25.04 105.97 25.26 105.39 25.38 C 104.32 24.68 103.31 23.91 102.28 23.17 C 101.22 24.69 102.10 26.24 102.82 27.69 C 102.34 28.51 101.86 29.34 101.39 30.16 C 100.57 29.36 99.74 28.56 98.91 27.77 L 98.63 29.07 C 98.33 28.72 97.72 28.03 97.42 27.68 C 97.10 28.12 96.46 29.00 96.14 29.44 C 97.11 30.06 98.07 30.69 98.95 31.42 C 98.50 31.93 97.60 32.95 97.16 33.46 C 96.52 32.39 95.89 31.31 95.27 30.23 C 94.79 30.71 93.83 31.67 93.35 32.16 C 94.09 32.54 94.83 32.93 95.57 33.33 C 95.47 34.40 95.46 35.47 95.39 36.54 C 94.74 36.98 94.09 37.42 93.45 37.88 C 93.09 37.73 92.36 37.42 92.00 37.27 L 91.45 37.91 C 91.17 37.49 90.61 36.66 90.33 36.24 C 89.81 36.96 89.29 37.69 88.77 38.41 C 89.43 38.73 90.77 39.35 91.43 39.67 C 90.49 40.35 89.53 41.03 88.57 41.69 C 88.25 41.47 87.60 41.04 87.28 40.82 C 86.57 41.93 85.86 43.03 85.16 44.14 L 84.93 42.39 C 83.48 43.80 83.17 45.74 83.08 47.67 C 80.44 49.98 78.14 53.94 74.11 53.35 Z"/>
<path fill="#575758" opacity="1.00" d=" M 207.68 67.39 C 210.48 76.79 209.61 86.87 207.21 96.26 C 203.08 111.86 192.33 125.58 178.04 133.13 C 163.30 141.13 145.14 142.41 129.40 136.62 C 116.31 131.94 105.15 122.42 98.19 110.40 C 98.30 109.96 98.53 109.08 98.64 108.64 C 102.11 115.01 107.02 120.49 112.56 125.14 C 132.08 141.86 162.96 142.92 183.67 127.75 C 191.85 121.79 198.80 114.02 203.07 104.80 C 208.52 93.84 209.49 81.24 207.68 69.27 C 207.68 68.80 207.68 67.86 207.68 67.39 Z"/>
</g>
<g id="#1c1d42ff">
<path fill="#1c1d42" opacity="1.00" d=" M 153.02 5.92 C 154.36 5.15 155.99 4.55 157.49 5.26 C 157.45 5.57 157.37 6.18 157.33 6.49 C 155.85 6.61 154.42 6.42 153.02 5.92 Z"/>
</g>
<g id="#101010ff">
<path fill="#101010" opacity="1.00" d=" M 177.57 4.93 C 183.60 7.09 189.32 10.07 194.65 13.62 C 194.05 14.90 193.46 16.19 192.86 17.47 C 191.26 16.88 189.65 16.30 188.03 15.75 C 188.58 16.36 189.14 16.98 189.71 17.58 C 188.54 20.33 186.92 22.86 184.66 24.83 C 185.19 25.14 186.24 25.77 186.77 26.08 C 187.40 24.58 188.25 20.99 189.98 23.92 C 189.54 24.65 188.65 26.12 188.21 26.85 L 188.37 27.06 C 188.77 28.37 189.13 29.68 189.50 31.00 C 189.15 31.22 188.44 31.66 188.08 31.88 C 185.61 30.56 183.26 27.56 180.17 28.90 C 169.19 22.77 156.46 19.58 143.88 20.78 C 143.42 20.43 142.49 19.73 142.03 19.38 C 143.60 19.32 145.17 19.27 146.74 19.24 C 150.97 19.13 155.28 19.28 159.42 18.28 C 159.41 17.58 159.40 16.19 159.39 15.49 C 159.93 15.62 161.02 15.87 161.56 16.00 C 161.41 14.25 161.35 12.48 163.01 11.39 C 163.20 13.40 163.10 15.57 164.42 17.26 C 164.69 15.66 164.87 14.04 165.07 12.43 C 164.69 11.90 163.94 10.83 163.56 10.30 L 164.83 9.67 C 165.22 10.20 166.00 11.27 166.39 11.80 C 166.84 10.45 167.24 9.08 167.84 7.79 C 171.31 7.64 174.84 7.37 177.57 4.93 M 166.20 16.70 C 167.99 16.96 170.02 18.74 171.72 17.69 C 171.88 16.20 171.78 14.69 171.77 13.20 C 170.32 12.97 169.63 12.08 169.70 10.52 C 171.19 10.77 172.34 11.54 173.16 12.85 C 173.35 12.22 173.72 10.96 173.91 10.33 C 172.13 9.68 170.33 9.05 168.54 8.43 C 168.93 11.39 167.84 14.27 166.20 16.70 M 175.71 10.96 C 176.33 13.95 174.47 16.60 172.83 18.90 C 173.71 19.28 174.59 19.67 175.47 20.05 C 175.48 19.51 175.48 18.42 175.48 17.88 C 175.42 14.94 178.56 18.07 179.38 16.51 C 179.95 15.62 180.50 14.72 181.03 13.81 C 179.48 12.48 177.62 11.64 175.71 10.96 M 179.15 21.17 C 180.49 22.21 181.91 23.15 183.42 23.93 C 183.83 22.98 184.24 22.03 184.66 21.08 C 183.33 21.56 181.81 22.64 180.94 20.90 C 181.62 19.25 182.46 17.67 183.44 16.19 C 185.17 15.23 185.26 18.04 185.87 18.91 C 186.24 18.29 186.99 17.06 187.36 16.44 C 186.05 15.73 184.75 15.00 183.45 14.28 C 181.63 16.32 180.39 18.77 179.15 21.17 Z"/>
<path fill="#101010" opacity="1.00" d=" M 170.40 16.44 C 168.68 15.68 168.65 14.79 170.30 13.79 C 171.42 14.59 171.46 15.48 170.40 16.44 Z"/>
</g>
<g id="#fffc4bff">
<path fill="#fffc4b" opacity="1.00" d=" M 141.94 6.61 C 142.75 6.61 143.57 6.60 144.38 6.76 L 145.48 8.62 C 144.95 9.36 144.40 10.09 143.84 10.80 C 144.32 12.21 144.82 13.60 145.33 15.00 C 144.67 15.00 143.36 15.01 142.71 15.01 C 142.99 12.19 143.36 9.21 141.94 6.61 Z"/>
<path fill="#fffc4b" opacity="1.00" d=" M 147.56 7.69 C 148.26 7.00 149.00 6.34 149.73 5.68 C 149.73 6.25 149.74 7.38 149.74 7.95 C 149.75 10.22 150.09 12.47 150.62 14.67 C 149.96 14.75 148.65 14.91 147.99 14.98 C 148.22 14.14 148.68 12.45 148.91 11.60 C 147.57 11.89 146.22 12.06 144.86 12.13 C 146.10 11.57 147.36 11.03 148.62 10.54 C 148.20 10.53 147.36 10.50 146.94 10.49 C 147.10 9.79 147.40 8.39 147.56 7.69 Z"/>
<path fill="#fffc4b" opacity="1.00" d=" M 152.23 6.30 L 153.02 5.92 C 154.42 6.42 155.85 6.61 157.33 6.49 C 157.65 7.41 157.97 8.34 158.29 9.26 C 157.65 8.97 156.37 8.40 155.73 8.11 C 154.24 8.00 152.07 8.53 152.23 6.30 Z"/>
<path fill="#fffc4b" opacity="1.00" d=" M 138.37 7.19 C 138.83 7.10 139.76 6.93 140.22 6.84 C 139.42 7.85 138.64 8.86 137.87 9.89 C 139.83 11.33 140.62 13.56 141.17 15.83 C 140.74 15.60 139.89 15.15 139.46 14.92 C 138.90 13.44 138.40 11.82 136.66 11.37 C 136.99 12.91 137.39 14.44 137.81 15.96 C 137.20 16.04 135.98 16.22 135.37 16.30 C 135.36 14.27 135.30 12.24 135.06 10.22 C 134.69 9.76 133.97 8.84 133.61 8.39 C 134.24 8.16 135.51 7.71 136.15 7.48 C 136.12 8.34 136.08 10.04 136.06 10.89 C 136.82 9.65 137.57 8.40 138.37 7.19 Z"/>
<path fill="#fffc4b" opacity="1.00" d=" M 129.31 9.09 C 129.85 8.98 130.93 8.77 131.47 8.66 C 131.77 11.36 133.00 14.00 132.85 16.72 C 131.72 17.36 130.47 17.70 129.26 18.10 C 128.96 17.54 128.37 16.40 128.07 15.83 C 129.34 15.93 130.61 16.03 131.88 16.13 C 131.67 15.56 131.23 14.41 131.02 13.83 C 130.29 13.91 128.83 14.08 128.10 14.16 C 127.39 12.82 126.67 11.49 125.95 10.15 C 126.53 9.99 127.69 9.68 128.26 9.52 C 128.42 11.16 128.56 12.92 130.38 13.61 C 130.38 12.03 129.85 10.55 129.31 9.09 Z"/>
<path fill="#fffc4b" opacity="1.00" d=" M 118.76 13.19 C 120.29 12.48 121.82 11.75 123.35 11.02 C 124.23 13.61 125.46 16.05 126.91 18.36 C 125.28 19.31 123.62 20.23 121.97 21.15 C 121.76 18.67 121.07 16.25 119.48 14.29 C 119.30 14.02 118.94 13.47 118.76 13.19 M 121.56 13.31 C 121.07 14.88 121.65 15.44 123.31 14.97 C 123.81 13.39 123.23 12.83 121.56 13.31 M 123.08 16.39 C 122.04 17.22 123.26 19.36 124.46 18.52 C 125.52 17.68 124.31 15.57 123.08 16.39 Z"/>
<path fill="#fffc4b" opacity="1.00" d=" M 106.72 20.63 C 108.04 19.37 109.50 18.26 110.95 17.15 C 111.28 17.86 111.93 19.29 112.26 20.01 C 112.93 21.69 114.21 23.16 116.00 23.67 C 115.21 24.39 114.42 25.10 113.64 25.82 C 113.26 24.08 112.66 21.89 110.39 22.56 C 110.58 24.21 112.90 26.42 110.82 27.61 C 109.87 25.06 108.46 22.72 106.72 20.63 M 109.09 20.12 C 108.70 21.54 109.20 22.03 110.59 21.60 C 110.97 20.18 110.47 19.68 109.09 20.12 Z"/>
<path fill="#fffc4b" opacity="1.00" d=" M 102.82 27.69 C 102.10 26.24 101.22 24.69 102.28 23.17 C 103.31 23.91 104.32 24.68 105.39 25.38 C 106.88 26.40 108.47 27.26 110.09 28.07 C 109.60 28.50 108.62 29.37 108.13 29.81 C 107.27 28.75 106.23 27.94 104.99 27.38 C 104.90 28.89 105.48 30.07 106.71 30.92 C 105.07 32.24 103.53 33.66 102.06 35.16 C 101.30 34.06 100.53 32.97 99.76 31.88 C 99.40 32.44 98.66 33.55 98.30 34.11 C 99.26 34.90 100.33 35.52 101.51 35.97 C 101.08 36.47 100.20 37.46 99.76 37.96 C 98.55 36.26 97.24 34.61 95.57 33.33 C 94.83 32.93 94.09 32.54 93.35 32.16 C 93.83 31.67 94.79 30.71 95.27 30.23 C 95.89 31.31 96.52 32.39 97.16 33.46 C 97.60 32.95 98.50 31.93 98.95 31.42 C 98.07 30.69 97.11 30.06 96.14 29.44 C 96.46 29.00 97.10 28.12 97.42 27.68 C 97.72 28.03 98.33 28.72 98.63 29.07 C 100.25 30.53 101.84 33.60 104.42 32.59 C 104.35 30.83 103.53 29.25 102.82 27.69 M 104.08 26.51 C 104.72 27.01 104.72 27.01 104.08 26.51 Z"/>
<path fill="#fffc4b" opacity="1.00" d=" M 88.77 38.41 C 89.29 37.69 89.81 36.96 90.33 36.24 C 90.61 36.66 91.17 37.49 91.45 37.91 L 91.91 38.58 C 92.29 38.41 93.06 38.05 93.45 37.88 C 94.09 37.42 94.74 36.98 95.39 36.54 C 96.30 37.38 97.18 38.26 98.02 39.17 C 97.76 40.92 96.26 42.19 95.41 43.67 C 94.34 42.10 92.99 40.75 91.43 39.67 C 90.77 39.35 89.43 38.73 88.77 38.41 M 94.41 38.88 C 94.09 40.26 94.64 40.78 96.03 40.45 C 96.37 39.05 95.83 38.53 94.41 38.88 Z"/>
<path fill="#fffc4b" opacity="1.00" d=" M 87.28 40.82 C 87.60 41.04 88.25 41.47 88.57 41.69 C 90.47 43.10 92.61 44.14 94.87 44.82 C 94.47 45.37 93.67 46.45 93.27 46.99 C 91.42 45.07 89.16 43.64 86.69 42.66 C 86.63 46.48 92.47 46.57 92.22 50.55 C 90.91 49.50 89.64 48.38 88.34 47.32 C 87.21 46.34 85.71 46.04 84.35 45.53 C 84.55 45.19 84.96 44.49 85.16 44.14 C 85.86 43.03 86.57 41.93 87.28 40.82 Z"/>
<path fill="#fffc4b" opacity="1.00" d=" M 81.09 50.89 C 83.44 49.92 85.92 50.75 88.32 50.97 C 88.92 51.02 90.10 51.12 90.70 51.17 C 90.56 51.73 90.27 52.84 90.13 53.39 C 88.71 52.67 87.15 52.05 86.07 53.70 C 86.82 54.05 88.31 54.75 89.06 55.10 C 88.85 55.69 88.42 56.89 88.20 57.48 C 86.89 56.16 85.55 54.88 84.10 53.71 C 83.06 52.81 82.07 51.85 81.09 50.89 M 84.99 52.23 C 85.57 52.84 85.57 52.84 84.99 52.23 Z"/>
<path fill="#fffc4b" opacity="1.00" d=" M 109.55 60.16 C 116.87 60.44 124.21 60.08 131.54 60.38 C 123.84 62.82 116.62 66.47 109.52 70.28 C 109.47 66.90 109.45 63.53 109.55 60.16 Z"/>
</g>
<g id="#3e3e3eff">
<path fill="#3e3e3e" opacity="1.00" d=" M 140.22 6.84 C 140.65 6.79 141.51 6.67 141.94 6.61 C 143.36 9.21 142.99 12.19 142.71 15.01 C 143.36 15.01 144.67 15.00 145.33 15.00 C 144.82 13.60 144.32 12.21 143.84 10.80 C 144.40 10.09 144.95 9.36 145.48 8.62 L 144.38 6.76 C 145.17 6.99 146.76 7.46 147.56 7.69 C 147.40 8.39 147.10 9.79 146.94 10.49 C 147.36 10.50 148.20 10.53 148.62 10.54 C 147.36 11.03 146.10 11.57 144.86 12.13 C 146.22 12.06 147.57 11.89 148.91 11.60 C 148.68 12.45 148.22 14.14 147.99 14.98 C 148.35 15.40 149.06 16.23 149.41 16.65 C 148.52 17.51 147.62 18.37 146.74 19.24 C 145.17 19.27 143.60 19.32 142.03 19.38 C 142.49 19.73 143.42 20.43 143.88 20.78 C 134.05 22.39 124.36 25.41 116.07 31.09 C 116.41 30.39 117.07 28.98 117.40 28.27 C 123.12 23.45 130.93 22.59 136.98 18.42 C 136.15 18.12 135.31 17.82 134.48 17.52 C 133.03 18.24 131.57 18.95 130.08 19.59 C 129.88 19.22 129.46 18.48 129.26 18.10 C 130.47 17.70 131.72 17.36 132.85 16.72 C 133.00 14.00 131.77 11.36 131.47 8.66 C 131.98 8.56 132.99 8.35 133.49 8.25 L 133.61 8.39 C 133.97 8.84 134.69 9.76 135.06 10.22 C 135.30 12.24 135.36 14.27 135.37 16.30 C 135.98 16.22 137.20 16.04 137.81 15.96 C 137.39 14.44 136.99 12.91 136.66 11.37 C 138.40 11.82 138.90 13.44 139.46 14.92 C 139.89 15.15 140.74 15.60 141.17 15.83 C 140.62 13.56 139.83 11.33 137.87 9.89 C 138.64 8.86 139.42 7.85 140.22 6.84 Z"/>
<path fill="#3e3e3e" opacity="1.00" d=" M 171.36 39.50 C 177.34 38.61 183.78 39.37 189.21 36.22 C 192.17 38.75 194.84 41.63 197.07 44.83 C 194.79 45.67 192.49 46.51 190.06 46.81 C 178.10 48.24 166.24 50.54 154.53 53.37 C 149.08 54.87 143.44 55.78 138.21 58.00 C 137.85 58.10 137.13 58.30 136.77 58.40 C 126.86 57.71 116.89 57.92 106.97 58.20 L 106.50 58.55 C 106.42 59.92 106.41 61.29 106.42 62.66 C 103.20 62.90 100.22 64.10 97.29 65.34 C 95.79 66.09 94.40 64.62 93.03 64.24 C 94.24 59.79 96.18 55.58 98.27 51.49 C 99.16 52.30 100.06 53.10 100.95 53.91 C 112.58 48.94 125.24 47.53 137.42 44.57 C 148.65 42.33 160.09 41.51 171.36 39.50 Z"/>
</g>
<g id="#fffa08ff">
<path fill="#fffa08" opacity="1.00" d=" M 160.61 6.99 C 161.43 7.18 162.25 7.36 163.08 7.55 C 162.69 8.30 161.91 9.79 161.52 10.53 C 163.12 9.42 164.64 8.08 166.63 7.75 C 166.18 8.23 165.28 9.19 164.83 9.67 L 163.56 10.30 C 163.94 10.83 164.69 11.90 165.07 12.43 C 164.87 14.04 164.69 15.66 164.42 17.26 C 163.10 15.57 163.20 13.40 163.01 11.39 C 161.35 12.48 161.41 14.25 161.56 16.00 C 161.02 15.87 159.93 15.62 159.39 15.49 C 159.93 12.68 160.99 9.92 160.61 6.99 Z"/>
<path fill="#fffa08" opacity="1.00" d=" M 131.54 60.38 C 136.01 60.16 140.49 60.40 144.97 60.27 C 145.06 63.74 145.05 67.22 144.95 70.70 C 137.29 70.60 129.64 70.64 121.99 70.65 C 121.78 70.66 121.37 70.68 121.17 70.70 C 120.94 72.42 120.80 74.16 120.64 75.89 C 120.38 75.28 119.87 74.06 119.61 73.45 C 116.84 73.50 114.07 73.73 111.33 74.19 C 110.78 72.99 110.23 71.80 109.67 70.61 L 109.52 70.28 C 116.62 66.47 123.84 62.82 131.54 60.38 Z"/>
</g>
<g id="#fde620ff">
<path fill="#fde620" opacity="1.00" d=" M 152.98 8.99 C 154.18 9.31 155.37 9.65 156.57 10.00 L 157.31 10.49 C 156.25 10.92 155.18 11.35 154.12 11.78 C 154.36 12.64 154.60 13.50 154.84 14.36 C 155.55 13.84 156.98 12.81 157.69 12.29 C 157.60 13.27 157.50 14.24 157.38 15.21 C 155.65 15.09 153.93 14.98 152.20 14.87 C 152.74 12.95 153.03 10.98 152.98 8.99 Z"/>
<path fill="#fde620" opacity="1.00" d=" M 79.21 56.47 C 79.45 56.44 79.94 56.39 80.19 56.36 C 82.54 57.67 85.14 58.43 87.82 58.69 C 87.65 59.27 87.30 60.43 87.13 61.01 C 86.11 60.45 85.08 59.92 84.03 59.43 C 83.71 60.01 83.07 61.18 82.75 61.76 C 84.12 61.92 85.50 62.07 86.88 62.21 C 86.53 62.97 86.20 63.74 85.85 64.50 C 83.44 62.88 80.62 62.10 77.71 62.11 C 78.17 61.50 79.09 60.28 79.55 59.67 C 81.67 63.17 83.43 57.56 79.63 58.91 C 79.50 58.10 79.36 57.28 79.21 56.47 Z"/>
<path fill="#fde620" opacity="1.00" d=" M 191.81 79.18 C 193.30 82.95 192.72 87.06 192.77 91.01 C 192.74 93.78 192.05 96.88 189.72 98.63 C 187.23 100.50 183.96 100.75 180.95 100.76 C 172.43 100.74 163.90 100.76 155.38 100.76 C 155.39 97.16 155.41 93.57 155.33 89.98 C 163.62 89.79 171.93 90.23 180.21 89.76 C 181.52 89.04 182.54 87.55 184.16 87.57 C 186.26 87.38 188.54 87.56 190.34 86.25 C 191.33 84.03 191.35 81.53 191.81 79.18 Z"/>
<path fill="#fde620" opacity="1.00" d=" M 189.20 100.80 C 190.79 99.11 192.44 97.46 194.16 95.89 C 192.99 97.80 191.70 100.71 189.20 100.80 Z"/>
</g>
<g id="#fdfd00ff">
<path fill="#fdfd00" opacity="1.00" d=" M 166.20 16.70 C 167.84 14.27 168.93 11.39 168.54 8.43 C 170.33 9.05 172.13 9.68 173.91 10.33 C 173.72 10.96 173.35 12.22 173.16 12.85 C 172.34 11.54 171.19 10.77 169.70 10.52 C 169.63 12.08 170.32 12.97 171.77 13.20 C 171.78 14.69 171.88 16.20 171.72 17.69 C 170.02 18.74 167.99 16.96 166.20 16.70 M 170.40 16.44 C 171.46 15.48 171.42 14.59 170.30 13.79 C 168.65 14.79 168.68 15.68 170.40 16.44 Z"/>
<path fill="#fdfd00" opacity="1.00" d=" M 175.71 10.96 C 177.62 11.64 179.48 12.48 181.03 13.81 C 180.50 14.72 179.95 15.62 179.38 16.51 C 178.56 18.07 175.42 14.94 175.48 17.88 C 175.48 18.42 175.48 19.51 175.47 20.05 C 174.59 19.67 173.71 19.28 172.83 18.90 C 174.47 16.60 176.33 13.95 175.71 10.96 M 177.15 13.50 C 176.61 15.19 177.14 15.76 178.74 15.23 C 179.26 13.56 178.72 12.99 177.15 13.50 Z"/>
<path fill="#fdfd00" opacity="1.00" d=" M 179.15 21.17 C 180.39 18.77 181.63 16.32 183.45 14.28 C 184.75 15.00 186.05 15.73 187.36 16.44 C 186.99 17.06 186.24 18.29 185.87 18.91 C 185.26 18.04 185.17 15.23 183.44 16.19 C 182.46 17.67 181.62 19.25 180.94 20.90 C 181.81 22.64 183.33 21.56 184.66 21.08 C 184.24 22.03 183.83 22.98 183.42 23.93 C 181.91 23.15 180.49 22.21 179.15 21.17 Z"/>
<path fill="#fdfd00" opacity="1.00" d=" M 184.66 24.83 C 186.92 22.86 188.54 20.33 189.71 17.58 C 190.14 18.04 191.01 18.96 191.44 19.42 C 190.89 19.81 189.77 20.60 189.21 20.99 C 190.00 21.92 190.79 22.85 191.56 23.80 C 190.87 25.10 190.05 26.38 189.92 27.88 C 193.33 28.45 195.67 25.20 198.44 23.76 C 199.75 27.40 195.40 30.09 196.16 33.81 C 198.72 32.53 200.84 30.60 202.91 28.67 C 204.11 29.93 205.31 31.18 206.52 32.43 C 203.96 33.81 201.66 35.71 200.27 38.33 C 199.67 37.68 199.07 37.03 198.48 36.38 C 199.54 35.34 203.35 34.87 200.85 32.89 C 199.58 33.42 198.45 34.22 197.31 34.98 C 196.10 33.78 194.85 32.62 193.59 31.48 C 194.11 31.06 195.14 30.21 195.66 29.79 C 195.23 29.32 194.37 28.39 193.94 27.93 C 193.59 28.57 192.89 29.84 192.54 30.48 C 191.15 29.34 189.76 28.20 188.37 27.06 L 188.21 26.85 C 188.65 26.12 189.54 24.65 189.98 23.92 C 188.25 20.99 187.40 24.58 186.77 26.08 C 186.24 25.77 185.19 25.14 184.66 24.83 M 195.39 26.95 C 195.34 30.30 198.44 25.33 195.39 26.95 M 201.85 31.16 C 201.38 32.78 201.98 33.29 203.63 32.69 C 204.09 31.07 203.50 30.56 201.85 31.16 Z"/>
<path fill="#fdfd00" opacity="1.00" d=" M 190.47 21.34 C 190.85 19.76 194.88 19.60 193.69 21.57 C 192.35 22.37 191.28 22.29 190.47 21.34 Z"/>
<path fill="#fdfd00" opacity="1.00" d=" M 211.64 39.59 C 212.09 40.22 212.54 40.86 212.99 41.49 C 212.22 41.94 210.67 42.84 209.90 43.29 C 211.93 42.56 214.27 42.72 214.93 45.05 C 214.13 44.80 212.53 44.28 211.73 44.02 C 210.81 46.26 209.10 48.02 207.09 49.32 C 206.38 47.21 208.45 46.35 209.67 45.13 C 209.23 42.11 206.96 45.32 205.95 46.02 C 205.17 45.44 204.78 44.52 204.24 43.76 C 207.23 43.65 209.68 41.68 211.64 39.59 Z"/>
<path fill="#fdfd00" opacity="1.00" d=" M 209.01 50.27 C 211.07 48.96 213.29 47.66 215.71 47.18 C 216.65 48.39 217.33 49.77 218.07 51.11 C 215.80 52.67 213.32 53.82 210.85 54.99 C 210.15 53.58 207.98 51.94 209.01 50.27 M 209.94 51.29 C 210.24 51.77 210.85 52.72 211.15 53.20 C 212.93 52.38 214.69 51.54 216.43 50.63 C 215.33 47.14 211.94 50.56 209.94 51.29 Z"/>
<path fill="#fdfd00" opacity="1.00" d=" M 218.84 53.93 C 221.26 56.04 217.67 57.85 216.31 59.22 C 218.43 59.47 221.48 58.96 221.72 61.93 C 219.03 61.17 216.68 62.79 214.32 63.78 C 212.72 64.48 213.15 62.08 212.68 61.21 C 214.45 62.31 216.23 61.82 217.91 60.70 C 216.92 60.51 214.95 60.14 213.96 59.95 C 214.73 59.09 216.26 57.35 217.03 56.49 C 215.80 57.17 213.34 58.52 212.11 59.20 C 211.74 58.27 211.36 57.35 210.99 56.42 C 213.77 56.58 216.85 56.03 218.84 53.93 Z"/>
<path fill="#fdfd00" opacity="1.00" d=" M 214.05 65.62 C 216.88 66.40 219.67 65.28 222.26 64.23 C 222.61 66.44 222.98 68.65 223.32 70.86 C 221.45 70.51 219.42 70.27 218.04 68.81 C 218.99 68.80 220.88 68.78 221.83 68.77 C 221.66 68.21 221.34 67.10 221.17 66.54 C 218.88 67.02 216.04 66.67 214.68 69.00 C 216.15 69.54 217.63 70.14 219.03 70.87 C 218.03 71.05 216.02 71.41 215.02 71.60 C 214.55 69.67 214.48 67.58 214.05 65.62 Z"/>
<path fill="#fdfd00" opacity="1.00" d=" M 215.19 72.85 C 216.45 73.35 217.71 73.85 218.99 74.31 C 219.53 74.96 220.07 75.62 220.61 76.28 L 218.50 76.69 C 219.18 76.77 220.54 76.95 221.21 77.03 C 221.02 76.30 220.63 74.83 220.44 74.10 C 221.35 74.24 225.89 75.92 223.01 77.07 C 220.51 78.03 217.90 78.73 215.51 79.98 C 215.49 79.26 215.44 77.83 215.41 77.12 C 216.08 77.24 217.41 77.49 218.07 77.61 C 218.06 76.95 218.04 75.63 218.03 74.97 C 217.11 75.25 216.20 75.54 215.29 75.83 C 215.26 75.08 215.21 73.60 215.19 72.85 Z"/>
<path fill="#fdfd00" opacity="1.00" d=" M 215.44 81.08 C 218.17 82.04 221.14 82.44 223.91 81.34 C 223.89 82.08 223.87 83.55 223.85 84.28 C 222.92 83.87 221.96 83.54 220.99 83.28 C 220.14 82.92 219.91 86.05 221.08 85.83 C 221.73 85.64 223.02 85.25 223.67 85.06 L 223.71 87.88 C 220.98 86.63 217.99 86.70 215.14 87.43 C 215.10 86.44 215.30 85.54 215.73 84.72 C 216.57 84.81 218.26 84.99 219.10 85.08 C 220.05 82.30 216.89 83.10 215.45 83.78 C 215.45 83.10 215.44 81.75 215.44 81.08 Z"/>
<path fill="#fdfd00" opacity="1.00" d=" M 76.79 92.20 C 79.32 90.81 82.12 89.90 84.40 88.08 C 84.57 88.70 84.92 89.94 85.10 90.56 C 82.92 90.96 80.94 91.94 78.97 92.89 C 81.07 92.82 83.26 93.04 85.28 92.29 C 85.41 93.00 85.68 94.41 85.81 95.12 C 83.00 94.21 80.05 93.96 77.13 93.67 C 77.04 93.31 76.88 92.57 76.79 92.20 Z"/>
<path fill="#fdfd00" opacity="1.00" d=" M 218.87 94.30 C 218.41 91.67 213.84 91.74 214.83 88.85 C 217.44 90.11 220.36 90.64 223.24 90.20 C 223.17 90.84 223.02 92.14 222.95 92.79 C 221.32 92.21 219.67 91.67 218.01 91.22 C 219.17 92.81 220.73 94.00 222.67 94.41 C 222.47 95.19 222.27 95.97 222.08 96.75 C 219.71 94.91 216.61 95.04 213.77 94.81 C 213.98 94.22 214.38 93.04 214.59 92.45 C 215.94 93.24 217.36 93.85 218.87 94.30 Z"/>
<path fill="#fdfd00" opacity="1.00" d=" M 78.01 98.36 C 80.91 98.62 83.67 97.57 86.07 96.02 C 86.31 96.86 86.55 97.71 86.80 98.55 C 85.59 98.79 83.10 98.09 83.02 99.94 C 83.94 102.18 85.91 100.35 87.12 99.47 C 87.31 100.19 87.68 101.63 87.87 102.34 C 84.90 101.62 82.12 103.14 79.68 104.63 C 79.49 103.52 78.32 100.80 80.88 101.89 L 82.44 101.98 C 82.31 101.41 82.06 100.28 81.93 99.71 C 80.66 99.53 79.63 100.51 78.49 100.92 C 78.37 100.28 78.13 99.00 78.01 98.36 Z"/>
<path fill="#fdfd00" opacity="1.00" d=" M 213.24 96.20 C 215.31 97.54 217.62 98.34 220.01 98.91 C 222.49 99.99 220.00 102.85 219.82 104.68 C 218.07 103.25 215.88 102.66 213.76 102.00 C 213.30 102.14 212.38 102.40 211.93 102.53 C 212.15 101.48 212.38 100.42 212.62 99.37 C 213.58 100.26 216.13 102.55 216.60 99.82 C 215.26 98.84 212.96 98.31 213.24 96.20 M 217.37 100.26 C 216.07 101.76 218.70 103.30 219.64 101.73 C 220.95 100.24 218.29 98.67 217.37 100.26 Z"/>
<path fill="#fdfd00" opacity="1.00" d=" M 190.95 136.28 C 189.28 136.24 188.29 133.05 190.27 132.92 C 191.36 135.93 194.20 137.92 195.79 140.69 C 195.20 141.24 194.62 141.79 194.04 142.34 C 194.09 140.10 192.47 138.46 191.39 136.67 C 190.54 137.09 189.69 137.52 188.85 137.96 C 189.63 138.69 191.18 140.15 191.96 140.88 C 191.43 141.48 190.39 142.74 189.76 141.45 C 188.21 139.80 186.94 137.93 186.02 135.86 C 187.61 136.44 189.28 136.43 190.95 136.28 Z"/>
<path fill="#fdfd00" opacity="1.00" d=" M 177.01 139.93 C 178.57 139.35 180.05 137.55 181.80 138.20 C 180.98 139.76 178.50 139.98 178.89 142.17 C 180.10 141.96 181.22 141.51 182.24 140.82 C 183.26 142.07 184.12 143.45 184.90 144.87 C 183.29 146.56 180.22 148.31 179.17 145.12 C 180.29 145.23 183.49 146.07 182.96 143.93 C 182.24 141.82 180.38 143.38 179.05 143.90 C 178.38 142.57 177.69 141.25 177.01 139.93 Z"/>
<path fill="#fdfd00" opacity="1.00" d=" M 171.06 142.40 C 172.62 142.12 174.66 139.74 175.97 141.29 C 174.86 142.04 170.94 144.10 174.00 144.68 C 174.52 144.46 175.55 144.01 176.07 143.79 C 177.29 144.95 177.92 146.49 178.43 148.06 C 177.09 148.75 175.89 149.96 174.31 150.00 C 173.91 149.47 173.10 148.39 172.70 147.86 C 174.08 147.98 175.46 148.04 176.85 148.05 C 176.63 147.41 176.20 146.13 175.98 145.49 C 175.17 145.72 173.56 146.17 172.75 146.40 C 172.19 145.07 171.62 143.73 171.06 142.40 Z"/>
<path fill="#fdfd00" opacity="1.00" d=" M 187.20 142.28 C 188.52 142.96 188.52 143.63 187.21 144.30 C 185.91 143.60 185.90 142.93 187.20 142.28 Z"/>
<path fill="#fdfd00" opacity="1.00" d=" M 131.05 151.89 C 132.76 149.46 131.60 143.82 135.62 144.01 C 134.39 146.70 132.96 149.61 133.58 152.64 C 132.74 152.39 131.89 152.14 131.05 151.89 Z"/>
<path fill="#fdfd00" opacity="1.00" d=" M 162.15 143.88 C 165.21 145.46 164.30 149.91 165.82 152.65 C 165.26 152.74 164.15 152.92 163.59 153.02 C 163.99 149.84 162.41 146.96 162.15 143.88 Z"/>
<path fill="#fdfd00" opacity="1.00" d=" M 166.12 147.98 C 167.13 146.94 168.27 145.39 169.96 146.05 C 170.81 147.58 171.40 149.23 172.13 150.83 C 170.76 151.27 169.39 151.72 168.02 152.17 C 167.68 151.17 167.35 150.17 167.04 149.16 C 167.82 149.18 171.24 146.77 168.53 147.20 L 167.58 148.44 L 166.12 147.98 M 169.28 150.20 C 169.78 150.83 169.78 150.83 169.28 150.20 Z"/>
<path fill="#fdfd00" opacity="1.00" d=" M 135.84 152.96 C 135.92 151.09 135.40 147.82 137.90 147.56 C 141.51 147.35 140.46 151.55 139.22 153.41 C 138.07 153.66 136.95 153.10 135.84 152.96 M 137.45 149.23 C 136.08 150.07 137.00 153.20 138.66 151.81 C 139.89 150.95 139.08 147.78 137.45 149.23 Z"/>
<path fill="#fdfd00" opacity="1.00" d=" M 142.25 148.22 C 144.13 148.28 145.98 148.65 146.27 150.84 C 145.61 150.64 144.28 150.24 143.61 150.03 C 143.87 151.38 144.14 152.72 144.44 154.07 C 143.51 154.01 142.58 153.96 141.66 153.92 C 142.36 152.08 142.66 150.16 142.25 148.22 Z"/>
<path fill="#fdfd00" opacity="1.00" d=" M 147.20 148.72 C 149.47 148.80 151.83 148.32 154.04 148.95 C 154.62 150.68 154.78 152.53 155.14 154.32 C 152.61 154.66 153.28 151.46 153.00 149.88 L 151.78 149.84 C 151.86 151.55 152.06 153.29 151.75 154.99 C 149.97 153.45 151.38 150.31 148.94 149.48 C 148.93 151.13 149.13 152.77 149.52 154.39 C 148.90 154.36 147.67 154.32 147.05 154.30 C 147.95 152.51 147.73 150.58 147.20 148.72 Z"/>
<path fill="#fdfd00" opacity="1.00" d=" M 156.03 148.07 C 156.48 148.26 157.38 148.63 157.83 148.82 C 157.46 150.92 158.16 152.19 159.91 152.62 C 159.59 150.97 159.22 149.33 158.80 147.70 C 161.65 147.96 160.68 151.43 161.83 153.29 C 160.49 153.54 159.15 153.79 157.81 154.06 C 157.07 152.11 156.43 150.12 156.03 148.07 Z"/>
<path fill="#fdfd00" opacity="1.00" d=" M 127.90 150.08 C 130.85 148.48 128.04 153.44 127.90 150.08 Z"/>
</g>
<g id="#0a0a31ff">
<path fill="#0a0a31" opacity="1.00" d=" M 121.56 13.31 C 123.23 12.83 123.81 13.39 123.31 14.97 C 121.65 15.44 121.07 14.88 121.56 13.31 Z"/>
<path fill="#0a0a31" opacity="1.00" d=" M 123.08 16.39 C 124.31 15.57 125.52 17.68 124.46 18.52 C 123.26 19.36 122.04 17.22 123.08 16.39 Z"/>
<path fill="#0a0a31" opacity="1.00" d=" M 109.09 20.12 C 110.47 19.68 110.97 20.18 110.59 21.60 C 109.20 22.03 108.70 21.54 109.09 20.12 Z"/>
<path fill="#0a0a31" opacity="1.00" d=" M 112.26 20.01 C 114.33 19.94 116.00 21.59 116.00 23.67 C 114.21 23.16 112.93 21.69 112.26 20.01 Z"/>
<path fill="#0a0a31" opacity="1.00" d=" M 92.00 37.27 C 92.36 37.42 93.09 37.73 93.45 37.88 C 93.06 38.05 92.29 38.41 91.91 38.58 L 91.45 37.91 L 92.00 37.27 Z"/>
<path fill="#0a0a31" opacity="1.00" d=" M 94.41 38.88 C 95.83 38.53 96.37 39.05 96.03 40.45 C 94.64 40.78 94.09 40.26 94.41 38.88 Z"/>
<path fill="#0a0a31" opacity="1.00" d=" M 79.63 58.91 C 83.43 57.56 81.67 63.17 79.55 59.67 L 79.63 58.91 Z"/>
<path fill="#0a0a31" opacity="1.00" d=" M 77.97 68.64 C 77.62 65.15 81.80 67.10 83.71 67.39 C 83.87 67.90 84.18 68.90 84.34 69.41 C 82.20 69.30 80.08 68.99 77.97 68.64 Z"/>
<path fill="#0a0a31" opacity="1.00" d=" M 76.61 69.76 C 78.35 70.20 80.10 70.62 81.87 70.94 C 82.36 71.49 83.33 72.57 83.81 73.12 C 81.26 73.28 78.68 73.22 76.27 72.26 C 76.36 71.64 76.52 70.39 76.61 69.76 Z"/>
<path fill="#0a0a31" opacity="1.00" d=" M 75.55 81.27 C 75.40 79.55 74.73 77.74 75.46 76.05 C 75.52 76.76 75.63 78.16 75.69 78.86 C 78.43 78.30 81.31 78.22 83.97 79.22 C 83.73 79.67 83.24 80.58 82.99 81.04 C 80.60 81.98 78.02 81.62 75.55 81.27 Z"/>
<path fill="#0a0a31" opacity="1.00" d=" M 76.13 83.80 C 78.40 83.34 80.72 83.13 83.04 82.99 C 83.03 83.52 83.02 84.58 83.02 85.11 C 80.96 85.20 78.90 85.29 76.84 85.20 L 76.13 83.80 Z"/>
</g>
<g id="#030303ff">
<path fill="#030303" opacity="1.00" d=" M 177.15 13.50 C 178.72 12.99 179.26 13.56 178.74 15.23 C 177.14 15.76 176.61 15.19 177.15 13.50 Z"/>
<path fill="#030303" opacity="1.00" d=" M 152.35 57.17 C 165.84 56.80 179.36 56.75 192.85 57.12 L 192.97 58.00 C 179.65 57.97 166.32 57.98 153.00 57.99 C 152.98 65.99 153.02 74.00 152.95 82.01 C 152.93 83.92 153.06 85.83 153.55 87.68 C 153.08 92.65 153.03 97.65 153.37 102.63 C 162.23 102.87 171.10 102.64 179.97 102.76 C 182.56 102.57 185.44 103.02 187.73 101.52 C 180.54 102.94 173.20 102.01 165.93 102.26 C 161.87 102.07 157.59 103.00 153.72 101.36 C 153.83 97.12 153.21 92.76 154.49 88.64 C 161.59 89.83 168.86 89.37 176.02 89.26 C 178.14 89.51 179.10 87.81 179.36 85.99 C 171.23 85.72 163.10 85.84 154.97 85.94 C 154.22 82.32 154.31 78.62 154.40 74.95 C 154.55 69.68 154.07 64.37 154.95 59.14 C 167.18 59.39 179.42 59.07 191.66 59.32 C 191.73 63.51 191.76 67.69 191.81 71.88 C 184.18 72.09 176.54 71.95 168.91 72.00 C 168.98 72.72 169.11 74.18 169.18 74.91 C 174.80 75.24 180.45 74.66 186.06 75.27 C 189.73 75.66 192.89 78.56 193.64 82.16 C 194.50 86.88 193.89 91.71 193.10 96.39 L 194.82 95.47 C 195.25 90.98 195.06 86.46 195.04 81.97 C 195.14 78.03 191.45 75.04 187.89 74.24 C 182.32 73.21 176.64 73.64 171.01 73.52 C 178.42 73.67 185.80 72.88 193.20 73.03 L 193.25 72.14 C 193.73 67.89 193.90 63.61 193.95 59.34 C 197.24 61.39 201.83 61.56 204.70 58.64 C 206.05 62.07 207.16 65.61 207.68 69.27 C 209.49 81.24 208.52 93.84 203.07 104.80 C 198.80 114.02 191.85 121.79 183.67 127.75 C 183.95 126.46 184.23 125.18 184.51 123.90 C 163.01 123.58 141.50 123.95 119.99 123.72 C 117.42 123.57 114.92 124.18 112.56 125.14 C 107.02 120.49 102.11 115.01 98.64 108.64 C 97.01 104.81 95.13 101.07 93.92 97.08 C 92.23 91.94 91.85 86.52 91.12 81.20 C 91.12 80.71 91.12 79.75 91.12 79.26 C 96.54 77.88 101.21 74.56 105.93 71.69 C 107.07 68.87 106.27 65.64 106.42 62.66 C 106.41 61.29 106.42 59.92 106.50 58.55 L 106.97 58.20 C 106.91 62.76 107.03 67.31 107.06 71.87 C 107.30 76.93 106.11 82.26 107.76 87.13 C 106.27 92.27 107.24 97.69 107.12 102.96 C 118.03 103.10 128.94 102.98 139.85 103.05 C 139.90 102.71 139.99 102.03 140.04 101.69 C 129.62 102.35 119.17 101.81 108.74 102.06 C 107.80 97.70 108.03 93.23 108.59 88.85 C 116.00 89.65 123.50 89.42 130.93 89.15 C 132.90 89.36 132.93 87.31 133.34 85.96 C 125.23 85.72 117.11 85.87 109.00 85.91 C 107.75 80.97 108.44 75.84 108.27 70.81 C 108.45 67.04 108.45 63.27 108.58 59.51 C 117.60 58.94 126.73 60.08 135.69 58.73 C 139.25 58.51 142.82 58.73 146.38 58.99 C 146.68 63.37 146.67 67.77 146.40 72.14 C 138.69 72.28 130.98 72.16 123.28 72.37 C 123.35 72.89 123.49 73.93 123.56 74.45 C 129.54 75.02 135.60 74.15 141.53 75.27 C 144.80 75.83 147.83 78.55 148.08 81.97 C 148.42 86.24 148.54 90.58 147.85 94.82 C 147.26 98.20 144.01 100.01 141.44 101.75 C 144.97 101.31 147.62 98.11 148.47 94.83 C 149.04 90.58 148.88 86.27 148.65 82.00 C 148.76 78.12 145.08 75.26 141.55 74.65 C 135.88 73.82 130.11 74.80 124.44 73.96 C 126.02 72.62 128.14 72.84 130.06 72.78 C 135.73 72.79 141.39 72.88 147.06 72.81 C 147.39 68.05 147.24 63.28 147.28 58.51 C 147.62 58.54 148.29 58.60 148.63 58.63 C 148.93 59.11 149.53 60.06 149.83 60.54 C 150.20 60.59 150.94 60.70 151.31 60.75 C 151.65 59.56 152.00 58.36 152.35 57.17 M 109.55 60.16 C 109.45 63.53 109.47 66.90 109.52 70.28 L 109.67 70.61 C 109.50 75.23 109.65 79.86 109.54 84.48 C 117.81 84.75 126.08 84.43 134.35 84.64 C 134.35 86.36 134.33 88.09 134.29 89.81 C 126.06 90.04 117.82 89.97 109.59 89.89 C 109.58 93.55 109.54 97.20 109.67 100.86 C 118.79 100.58 127.91 100.88 137.03 100.71 C 140.11 100.53 143.84 99.79 145.32 96.75 L 145.46 95.84 L 145.72 95.95 C 147.70 91.67 146.89 86.75 146.77 82.19 C 146.60 78.39 142.81 76.62 139.50 76.26 C 133.67 75.69 127.79 76.26 121.94 75.91 C 121.95 74.16 121.96 72.40 121.99 70.65 C 129.64 70.64 137.29 70.60 144.95 70.70 C 145.05 67.22 145.06 63.74 144.97 60.27 C 140.49 60.40 136.01 60.16 131.54 60.38 C 124.21 60.08 116.87 60.44 109.55 60.16 M 155.37 60.29 C 155.38 68.39 155.36 76.49 155.42 84.60 C 163.67 84.60 171.92 84.52 180.17 84.64 C 180.19 86.34 180.21 88.05 180.21 89.76 C 171.93 90.23 163.62 89.79 155.33 89.98 C 155.41 93.57 155.39 97.16 155.38 100.76 C 163.90 100.76 172.43 100.74 180.95 100.76 C 183.96 100.75 187.23 100.50 189.72 98.63 C 192.05 96.88 192.74 93.78 192.77 91.01 C 192.72 87.06 193.30 82.95 191.81 79.18 C 185.15 73.71 175.86 76.95 168.01 75.93 C 168.00 74.16 168.01 72.39 168.05 70.62 C 175.66 70.71 183.27 70.56 190.89 70.71 C 190.96 67.78 190.92 64.86 191.10 61.94 C 191.01 61.53 190.83 60.72 190.74 60.32 C 178.95 60.24 167.16 60.31 155.37 60.29 M 189.20 100.80 C 191.70 100.71 192.99 97.80 194.16 95.89 C 192.44 97.46 190.79 99.11 189.20 100.80 Z"/>
</g>
<g id="#000000ff">
<path fill="#000000" opacity="1.00" d=" M 194.65 13.62 C 211.35 24.73 223.58 42.30 228.13 61.84 C 232.66 80.84 230.00 101.48 220.59 118.62 C 212.26 134.05 198.73 146.57 182.72 153.69 C 167.80 160.44 150.79 162.30 134.73 159.26 C 118.98 156.29 104.21 148.44 92.93 137.07 C 81.40 125.57 73.48 110.49 70.69 94.44 C 74.11 92.19 77.30 89.61 80.36 86.89 C 81.76 86.79 83.16 86.90 84.57 86.96 C 84.50 86.28 84.37 84.92 84.30 84.23 C 86.15 83.33 88.00 82.42 89.85 81.52 C 90.52 91.56 92.56 101.88 98.19 110.40 C 105.15 122.42 116.31 131.94 129.40 136.62 C 145.14 142.41 163.30 141.13 178.04 133.13 C 192.33 125.58 203.08 111.86 207.21 96.26 C 209.61 86.87 210.48 76.79 207.68 67.39 C 204.18 51.55 194.26 37.12 180.17 28.90 C 183.26 27.56 185.61 30.56 188.08 31.88 C 188.44 31.66 189.15 31.22 189.50 31.00 C 189.13 29.68 188.77 28.37 188.37 27.06 C 189.76 28.20 191.15 29.34 192.54 30.48 C 192.89 29.84 193.59 28.57 193.94 27.93 C 194.37 28.39 195.23 29.32 195.66 29.79 C 195.14 30.21 194.11 31.06 193.59 31.48 C 194.85 32.62 196.10 33.78 197.31 34.98 C 198.45 34.22 199.58 33.42 200.85 32.89 C 203.35 34.87 199.54 35.34 198.48 36.38 C 199.07 37.03 199.67 37.68 200.27 38.33 C 201.66 35.71 203.96 33.81 206.52 32.43 C 205.31 31.18 204.11 29.93 202.91 28.67 C 200.84 30.60 198.72 32.53 196.16 33.81 C 195.40 30.09 199.75 27.40 198.44 23.76 C 195.67 25.20 193.33 28.45 189.92 27.88 C 190.05 26.38 190.87 25.10 191.56 23.80 C 190.79 22.85 190.00 21.92 189.21 20.99 C 189.77 20.60 190.89 19.81 191.44 19.42 C 191.01 18.96 190.14 18.04 189.71 17.58 C 189.14 16.98 188.58 16.36 188.03 15.75 C 189.65 16.30 191.26 16.88 192.86 17.47 C 193.46 16.19 194.05 14.90 194.65 13.62 M 190.47 21.34 C 191.28 22.29 192.35 22.37 193.69 21.57 C 194.88 19.60 190.85 19.76 190.47 21.34 M 211.64 39.59 C 209.68 41.68 207.23 43.65 204.24 43.76 C 204.78 44.52 205.17 45.44 205.95 46.02 C 206.96 45.32 209.23 42.11 209.67 45.13 C 208.45 46.35 206.38 47.21 207.09 49.32 C 209.10 48.02 210.81 46.26 211.73 44.02 C 212.53 44.28 214.13 44.80 214.93 45.05 C 214.27 42.72 211.93 42.56 209.90 43.29 C 210.67 42.84 212.22 41.94 212.99 41.49 C 212.54 40.86 212.09 40.22 211.64 39.59 M 209.01 50.27 C 207.98 51.94 210.15 53.58 210.85 54.99 C 213.32 53.82 215.80 52.67 218.07 51.11 C 217.33 49.77 216.65 48.39 215.71 47.18 C 213.29 47.66 211.07 48.96 209.01 50.27 M 218.84 53.93 C 216.85 56.03 213.77 56.58 210.99 56.42 C 211.36 57.35 211.74 58.27 212.11 59.20 C 213.34 58.52 215.80 57.17 217.03 56.49 C 216.26 57.35 214.73 59.09 213.96 59.95 C 214.95 60.14 216.92 60.51 217.91 60.70 C 216.23 61.82 214.45 62.31 212.68 61.21 C 213.15 62.08 212.72 64.48 214.32 63.78 C 216.68 62.79 219.03 61.17 221.72 61.93 C 221.48 58.96 218.43 59.47 216.31 59.22 C 217.67 57.85 221.26 56.04 218.84 53.93 M 214.05 65.62 C 214.48 67.58 214.55 69.67 215.02 71.60 C 216.02 71.41 218.03 71.05 219.03 70.87 C 217.63 70.14 216.15 69.54 214.68 69.00 C 216.04 66.67 218.88 67.02 221.17 66.54 C 221.34 67.10 221.66 68.21 221.83 68.77 C 220.88 68.78 218.99 68.80 218.04 68.81 C 219.42 70.27 221.45 70.51 223.32 70.86 C 222.98 68.65 222.61 66.44 222.26 64.23 C 219.67 65.28 216.88 66.40 214.05 65.62 M 215.19 72.85 C 215.21 73.60 215.26 75.08 215.29 75.83 C 216.20 75.54 217.11 75.25 218.03 74.97 C 218.04 75.63 218.06 76.95 218.07 77.61 C 217.41 77.49 216.08 77.24 215.41 77.12 C 215.44 77.83 215.49 79.26 215.51 79.98 C 217.90 78.73 220.51 78.03 223.01 77.07 C 225.89 75.92 221.35 74.24 220.44 74.10 C 220.63 74.83 221.02 76.30 221.21 77.03 C 220.54 76.95 219.18 76.77 218.50 76.69 L 220.61 76.28 C 220.07 75.62 219.53 74.96 218.99 74.31 C 217.71 73.85 216.45 73.35 215.19 72.85 M 215.44 81.08 C 215.44 81.75 215.45 83.10 215.45 83.78 C 216.89 83.10 220.05 82.30 219.10 85.08 C 218.26 84.99 216.57 84.81 215.73 84.72 C 215.30 85.54 215.10 86.44 215.14 87.43 C 217.99 86.70 220.98 86.63 223.71 87.88 L 223.67 85.06 C 223.02 85.25 221.73 85.64 221.08 85.83 C 219.91 86.05 220.14 82.92 220.99 83.28 C 221.96 83.54 222.92 83.87 223.85 84.28 C 223.87 83.55 223.89 82.08 223.91 81.34 C 221.14 82.44 218.17 82.04 215.44 81.08 M 76.79 92.20 C 76.88 92.57 77.04 93.31 77.13 93.67 C 80.05 93.96 83.00 94.21 85.81 95.12 C 85.68 94.41 85.41 93.00 85.28 92.29 C 83.26 93.04 81.07 92.82 78.97 92.89 C 80.94 91.94 82.92 90.96 85.10 90.56 C 84.92 89.94 84.57 88.70 84.40 88.08 C 82.12 89.90 79.32 90.81 76.79 92.20 M 218.87 94.30 C 217.36 93.85 215.94 93.24 214.59 92.45 C 214.38 93.04 213.98 94.22 213.77 94.81 C 216.61 95.04 219.71 94.91 222.08 96.75 C 222.27 95.97 222.47 95.19 222.67 94.41 C 220.73 94.00 219.17 92.81 218.01 91.22 C 219.67 91.67 221.32 92.21 222.95 92.79 C 223.02 92.14 223.17 90.84 223.24 90.20 C 220.36 90.64 217.44 90.11 214.83 88.85 C 213.84 91.74 218.41 91.67 218.87 94.30 M 78.01 98.36 C 78.13 99.00 78.37 100.28 78.49 100.92 C 79.63 100.51 80.66 99.53 81.93 99.71 C 82.06 100.28 82.31 101.41 82.44 101.98 L 80.88 101.89 C 78.32 100.80 79.49 103.52 79.68 104.63 C 82.12 103.14 84.90 101.62 87.87 102.34 C 87.68 101.63 87.31 100.19 87.12 99.47 C 85.91 100.35 83.94 102.18 83.02 99.94 C 83.10 98.09 85.59 98.79 86.80 98.55 C 86.55 97.71 86.31 96.86 86.07 96.02 C 83.67 97.57 80.91 98.62 78.01 98.36 M 213.24 96.20 C 212.96 98.31 215.26 98.84 216.60 99.82 C 216.13 102.55 213.58 100.26 212.62 99.37 C 212.38 100.42 212.15 101.48 211.93 102.53 C 212.38 102.40 213.30 102.14 213.76 102.00 C 215.88 102.66 218.07 103.25 219.82 104.68 C 220.00 102.85 222.49 99.99 220.01 98.91 C 217.62 98.34 215.31 97.54 213.24 96.20 M 190.95 136.28 C 189.28 136.43 187.61 136.44 186.02 135.86 C 186.94 137.93 188.21 139.80 189.76 141.45 C 190.39 142.74 191.43 141.48 191.96 140.88 C 191.18 140.15 189.63 138.69 188.85 137.96 C 189.69 137.52 190.54 137.09 191.39 136.67 C 192.47 138.46 194.09 140.10 194.04 142.34 C 194.62 141.79 195.20 141.24 195.79 140.69 C 194.20 137.92 191.36 135.93 190.27 132.92 C 188.29 133.05 189.28 136.24 190.95 136.28 M 105.98 140.96 C 107.17 140.29 108.34 139.61 109.51 138.92 C 108.82 140.13 108.54 141.40 108.66 142.73 C 110.16 141.72 111.59 140.63 112.99 139.49 C 113.47 140.07 113.93 140.66 114.38 141.26 C 114.26 142.57 113.07 143.99 113.70 145.35 C 114.44 144.90 115.93 144.01 116.67 143.56 C 116.55 144.46 116.30 146.25 116.18 147.14 C 118.11 146.04 119.31 143.66 121.61 143.33 C 121.49 145.17 121.31 147.00 121.28 148.85 C 123.11 150.06 125.49 143.93 124.19 148.76 L 123.93 150.32 C 126.20 149.49 127.46 147.26 128.85 145.42 C 127.36 144.87 126.14 145.46 125.20 147.20 C 125.35 146.34 125.64 144.62 125.79 143.76 C 124.69 144.43 123.70 145.22 122.80 146.14 C 122.88 145.34 123.02 143.73 123.10 142.93 C 122.57 142.99 121.50 143.10 120.97 143.16 L 120.96 141.72 C 119.62 142.21 118.47 143.00 117.51 144.08 C 117.70 143.15 118.07 141.29 118.26 140.36 C 117.49 140.95 115.95 142.13 115.18 142.72 L 116.05 140.04 C 115.63 139.88 114.79 139.57 114.37 139.42 C 114.15 138.94 113.71 137.97 113.49 137.49 C 112.70 138.04 111.11 139.14 110.32 139.69 C 110.55 138.79 111.00 136.99 111.23 136.10 C 110.41 136.63 108.77 137.69 107.95 138.22 C 108.25 137.41 108.85 135.79 109.15 134.98 C 105.94 133.89 107.00 139.13 105.98 140.96 M 177.01 139.93 C 177.69 141.25 178.38 142.57 179.05 143.90 C 180.38 143.38 182.24 141.82 182.96 143.93 C 183.49 146.07 180.29 145.23 179.17 145.12 C 180.22 148.31 183.29 146.56 184.90 144.87 C 184.12 143.45 183.26 142.07 182.24 140.82 C 181.22 141.51 180.10 141.96 178.89 142.17 C 178.50 139.98 180.98 139.76 181.80 138.20 C 180.05 137.55 178.57 139.35 177.01 139.93 M 171.06 142.40 C 171.62 143.73 172.19 145.07 172.75 146.40 C 173.56 146.17 175.17 145.72 175.98 145.49 C 176.20 146.13 176.63 147.41 176.85 148.05 C 175.46 148.04 174.08 147.98 172.70 147.86 C 173.10 148.39 173.91 149.47 174.31 150.00 C 175.89 149.96 177.09 148.75 178.43 148.06 C 177.92 146.49 177.29 144.95 176.07 143.79 C 175.55 144.01 174.52 144.46 174.00 144.68 C 170.94 144.10 174.86 142.04 175.97 141.29 C 174.66 139.74 172.62 142.12 171.06 142.40 M 187.20 142.28 C 185.90 142.93 185.91 143.60 187.21 144.30 C 188.52 143.63 188.52 142.96 187.20 142.28 M 131.05 151.89 C 131.89 152.14 132.74 152.39 133.58 152.64 C 132.96 149.61 134.39 146.70 135.62 144.01 C 131.60 143.82 132.76 149.46 131.05 151.89 M 162.15 143.88 C 162.41 146.96 163.99 149.84 163.59 153.02 C 164.15 152.92 165.26 152.74 165.82 152.65 C 164.30 149.91 165.21 145.46 162.15 143.88 M 166.12 147.98 L 167.58 148.44 L 168.53 147.20 C 171.24 146.77 167.82 149.18 167.04 149.16 C 167.35 150.17 167.68 151.17 168.02 152.17 C 169.39 151.72 170.76 151.27 172.13 150.83 C 171.40 149.23 170.81 147.58 169.96 146.05 C 168.27 145.39 167.13 146.94 166.12 147.98 M 135.84 152.96 C 136.95 153.10 138.07 153.66 139.22 153.41 C 140.46 151.55 141.51 147.35 137.90 147.56 C 135.40 147.82 135.92 151.09 135.84 152.96 M 142.25 148.22 C 142.66 150.16 142.36 152.08 141.66 153.92 C 142.58 153.96 143.51 154.01 144.44 154.07 C 144.14 152.72 143.87 151.38 143.61 150.03 C 144.28 150.24 145.61 150.64 146.27 150.84 C 145.98 148.65 144.13 148.28 142.25 148.22 M 147.20 148.72 C 147.73 150.58 147.95 152.51 147.05 154.30 C 147.67 154.32 148.90 154.36 149.52 154.39 C 149.13 152.77 148.93 151.13 148.94 149.48 C 151.38 150.31 149.97 153.45 151.75 154.99 C 152.06 153.29 151.86 151.55 151.78 149.84 L 153.00 149.88 C 153.28 151.46 152.61 154.66 155.14 154.32 C 154.78 152.53 154.62 150.68 154.04 148.95 C 151.83 148.32 149.47 148.80 147.20 148.72 M 156.03 148.07 C 156.43 150.12 157.07 152.11 157.81 154.06 C 159.15 153.79 160.49 153.54 161.83 153.29 C 160.68 151.43 161.65 147.96 158.80 147.70 C 159.22 149.33 159.59 150.97 159.91 152.62 C 158.16 152.19 157.46 150.92 157.83 148.82 C 157.38 148.63 156.48 148.26 156.03 148.07 M 127.90 150.08 C 128.04 153.44 130.85 148.48 127.90 150.08 Z"/>
<path fill="#000000" opacity="1.00" d=" M 195.39 26.95 C 198.44 25.33 195.34 30.30 195.39 26.95 Z"/>
<path fill="#000000" opacity="1.00" d=" M 201.85 31.16 C 203.50 30.56 204.09 31.07 203.63 32.69 C 201.98 33.29 201.38 32.78 201.85 31.16 Z"/>
<path fill="#000000" opacity="1.00" d=" M 209.94 51.29 C 211.94 50.56 215.33 47.14 216.43 50.63 C 214.69 51.54 212.93 52.38 211.15 53.20 C 210.85 52.72 210.24 51.77 209.94 51.29 Z"/>
<path fill="#000000" opacity="1.00" d=" M 217.37 100.26 C 218.29 98.67 220.95 100.24 219.64 101.73 C 218.70 103.30 216.07 101.76 217.37 100.26 Z"/>
<path fill="#000000" opacity="1.00" d=" M 137.45 149.23 C 139.08 147.78 139.89 150.95 138.66 151.81 C 137.00 153.20 136.08 150.07 137.45 149.23 Z"/>
<path fill="#000000" opacity="1.00" d=" M 169.28 150.20 C 169.78 150.83 169.78 150.83 169.28 150.20 Z"/>
</g>
<g id="#ffffffff">
<path fill="black" opacity="1.00" d=" M 143.88 20.78 C 156.46 19.58 169.19 22.77 180.17 28.90 C 194.26 37.12 204.18 51.55 207.68 67.39 C 207.68 67.86 207.68 68.80 207.68 69.27 C 207.16 65.61 206.05 62.07 204.70 58.64 C 202.75 53.74 200.19 49.09 197.07 44.83 C 194.84 41.63 192.17 38.75 189.21 36.22 C 186.59 34.00 183.87 31.89 180.93 30.10 C 175.59 26.81 169.75 24.31 163.62 22.99 C 145.22 18.26 124.53 23.64 110.47 36.36 C 107.59 39.22 104.54 41.96 102.20 45.31 C 100.80 47.31 99.46 49.36 98.27 51.49 C 96.18 55.58 94.24 59.79 93.03 64.24 C 91.73 69.14 90.88 74.18 91.12 79.26 C 91.12 79.75 91.12 80.71 91.12 81.20 C 89.81 70.67 93.37 60.13 98.17 50.89 C 101.79 44.15 107.01 38.43 112.81 33.49 C 113.93 32.73 115.01 31.93 116.07 31.09 C 124.36 25.41 134.05 22.39 143.88 20.78 Z"/>
<path fill="black" opacity="1.00" d=" M 0.00 182.07 C 7.44 181.65 14.90 182.00 22.34 181.88 C 22.35 185.35 22.35 188.81 22.34 192.28 C 20.58 192.27 18.82 192.26 17.06 192.25 C 17.07 190.42 17.08 188.58 17.09 186.75 C 14.29 186.74 11.49 186.74 8.69 186.72 C 8.70 190.18 8.69 193.63 8.70 197.09 C 11.85 197.09 14.99 197.08 18.13 197.03 C 18.18 198.61 18.23 200.18 18.29 201.76 C 15.09 201.86 11.90 201.84 8.70 201.81 C 8.70 205.73 8.70 209.65 8.69 213.58 C 9.95 213.52 11.21 213.47 12.47 213.42 C 12.48 215.07 12.49 216.72 12.49 218.37 C 8.33 218.33 4.16 218.34 0.00 218.34 L 0.00 213.55 C 1.11 213.53 2.22 213.51 3.33 213.50 C 3.29 204.58 3.31 195.66 3.31 186.74 C 2.49 186.74 0.83 186.74 0.00 186.74 L 0.00 182.07 Z"/>
<path fill="black" opacity="1.00" d=" M 28.40 182.51 C 31.16 181.49 34.17 181.99 37.04 181.87 C 39.91 181.96 43.25 181.45 45.57 183.54 C 47.43 185.52 47.19 188.46 47.23 190.98 C 47.13 198.34 47.36 205.70 47.12 213.05 C 47.09 215.83 44.74 218.11 41.99 218.22 C 38.02 218.43 34.02 218.45 30.06 218.21 C 27.37 218.03 25.10 215.74 25.10 213.03 C 24.69 205.38 25.03 197.71 24.92 190.05 C 24.85 187.24 25.36 183.63 28.40 182.51 M 30.47 189.95 C 30.52 197.17 30.40 204.39 30.52 211.61 C 30.65 214.41 34.26 213.29 36.09 213.54 C 37.84 213.26 40.45 214.26 41.51 212.39 C 41.91 207.30 41.55 202.18 41.67 197.09 C 41.55 193.67 42.08 190.18 41.16 186.84 C 38.10 186.75 35.04 186.60 31.99 186.82 C 30.39 186.94 30.50 188.82 30.47 189.95 Z"/>
<path fill="black" opacity="1.00" d=" M 50.22 181.88 C 56.50 181.94 62.78 181.79 69.06 181.94 C 72.25 181.86 74.62 184.92 74.23 187.99 C 73.89 191.82 75.48 196.55 72.08 199.41 C 76.43 202.71 73.79 208.92 74.51 213.57 C 75.34 213.55 76.99 213.49 77.82 213.46 C 77.82 215.09 77.83 216.72 77.84 218.35 C 73.93 218.34 70.03 218.34 66.12 218.35 C 66.12 216.73 66.12 215.11 66.11 213.50 C 66.89 213.50 68.45 213.52 69.23 213.53 C 69.09 210.05 69.47 206.53 69.02 203.07 C 66.53 200.53 62.12 202.37 58.85 201.84 C 58.86 205.73 58.86 209.62 58.84 213.52 C 59.60 213.51 61.12 213.47 61.88 213.46 C 61.91 215.08 61.93 216.71 61.95 218.34 C 58.04 218.34 54.13 218.33 50.22 218.36 C 50.22 216.72 50.23 215.09 50.23 213.46 C 51.04 213.48 52.65 213.54 53.46 213.57 C 53.45 204.61 53.46 195.65 53.45 186.69 C 52.65 186.72 51.05 186.79 50.25 186.82 C 50.23 185.17 50.22 183.52 50.22 181.88 M 58.84 186.75 C 58.86 190.19 58.85 193.63 58.86 197.08 C 61.98 196.77 65.60 197.82 68.42 196.40 C 69.29 193.60 68.99 190.23 68.60 187.29 C 65.55 186.11 62.06 187.00 58.84 186.75 Z"/>
<path fill="blakc" opacity="1.00" d=" M 80.13 181.88 C 83.40 181.88 86.68 181.88 89.95 181.90 C 92.47 188.38 95.38 194.71 97.70 201.28 C 99.05 200.23 99.31 198.41 100.04 196.96 C 102.21 191.90 104.29 186.80 106.64 181.82 C 109.72 181.91 112.81 181.89 115.89 181.88 C 115.88 183.53 115.85 185.18 115.82 186.84 C 115.03 186.80 113.44 186.73 112.65 186.69 C 112.66 195.66 112.62 204.63 112.66 213.60 C 113.46 213.56 115.05 213.48 115.85 213.44 C 115.87 215.07 115.88 216.71 115.88 218.36 C 111.83 218.34 107.77 218.32 103.71 218.37 C 103.70 216.73 103.70 215.10 103.69 213.47 C 104.91 213.50 106.14 213.53 107.36 213.57 C 107.36 206.67 107.39 199.78 107.41 192.88 C 104.51 198.12 102.67 203.95 100.12 209.40 C 98.71 209.39 97.30 209.40 95.89 209.40 C 93.32 203.97 91.51 198.11 88.58 192.90 C 88.64 199.79 88.62 206.68 88.66 213.57 C 89.89 213.54 91.11 213.51 92.34 213.48 C 92.33 215.11 92.32 216.74 92.31 218.37 C 88.25 218.32 84.19 218.35 80.13 218.35 C 80.13 216.74 80.13 215.14 80.12 213.53 C 81.23 213.51 82.33 213.48 83.44 213.46 C 83.27 204.54 83.40 195.61 83.37 186.69 C 82.57 186.73 80.98 186.80 80.19 186.83 C 80.16 185.18 80.14 183.53 80.13 181.88 Z"/>
<path fill="black" opacity="1.00" d=" M 118.43 181.87 C 122.41 181.89 126.40 181.90 130.39 181.86 C 130.43 183.49 130.45 185.12 130.48 186.75 C 129.34 186.75 128.21 186.76 127.07 186.76 C 127.15 195.56 126.97 204.36 127.17 213.16 C 130.07 213.67 133.03 213.59 135.96 213.45 C 138.04 213.84 137.72 211.25 137.78 210.01 C 137.66 202.25 137.95 194.48 137.64 186.73 C 136.83 186.75 135.22 186.80 134.42 186.83 C 134.39 185.18 134.37 183.52 134.36 181.88 C 138.35 181.89 142.34 181.90 146.34 181.87 C 146.33 184.17 147.38 188.35 143.40 186.66 C 143.04 195.45 143.47 204.26 143.19 213.05 C 143.10 215.83 140.73 218.09 137.99 218.23 C 134.34 218.43 130.68 218.42 127.03 218.24 C 124.22 218.16 121.69 215.82 121.63 212.97 C 121.40 204.20 121.62 195.43 121.53 186.66 C 120.78 186.72 119.27 186.85 118.51 186.91 C 118.47 185.23 118.44 183.55 118.43 181.87 Z"/>
<path fill="black" opacity="1.00" d=" M 148.82 181.88 C 152.93 181.89 157.04 181.89 161.15 181.88 C 161.16 183.51 161.17 185.14 161.18 186.77 C 159.97 186.75 158.77 186.73 157.58 186.71 C 157.49 195.62 157.75 204.53 157.44 213.43 C 160.08 213.57 162.73 213.52 165.38 213.55 C 165.38 211.58 165.37 209.62 165.36 207.65 C 167.09 207.64 168.83 207.64 170.56 207.63 C 170.56 211.21 170.53 214.80 170.51 218.38 C 163.27 218.30 156.04 218.35 148.81 218.35 C 148.80 216.75 148.79 215.14 148.78 213.54 C 149.90 213.52 151.02 213.50 152.15 213.48 C 152.11 204.57 152.12 195.67 152.14 186.76 C 151.03 186.76 149.91 186.76 148.80 186.76 C 148.80 185.14 148.81 183.51 148.82 181.88 Z"/>
<path fill="black" opacity="1.00" d=" M 184.18 181.91 C 186.56 181.88 188.93 181.88 191.31 181.87 C 194.04 192.44 196.40 203.10 199.28 213.63 C 200.08 213.57 201.68 213.44 202.48 213.38 C 202.50 215.04 202.52 216.71 202.53 218.37 C 198.52 218.33 194.51 218.33 190.51 218.37 C 190.52 216.71 190.53 215.05 190.56 213.40 C 191.33 213.45 192.86 213.55 193.63 213.61 C 193.03 211.16 192.43 208.71 191.76 206.28 C 188.83 206.33 185.90 206.34 182.97 206.28 C 182.33 208.71 181.68 211.14 181.14 213.59 C 181.91 213.55 183.45 213.48 184.22 213.44 C 184.22 215.08 184.23 216.72 184.23 218.36 C 180.21 218.32 176.18 218.36 172.16 218.33 C 172.20 216.67 172.23 215.00 172.30 213.34 C 173.06 213.44 174.58 213.63 175.34 213.73 C 178.67 203.24 181.20 192.51 184.18 181.91 M 184.20 201.53 C 186.32 201.51 188.45 201.52 190.57 201.55 C 189.43 197.36 188.68 193.06 187.24 188.96 C 186.23 193.15 185.28 197.36 184.20 201.53 Z"/>
<path fill="black" opacity="1.00" d=" M 205.76 181.88 C 212.33 181.87 218.91 181.94 225.49 181.83 C 225.55 183.48 225.59 185.12 225.62 186.77 C 220.64 186.73 215.65 186.75 210.66 186.72 C 210.69 190.05 210.69 193.38 210.65 196.71 C 214.76 196.92 219.06 196.03 223.02 197.37 C 226.76 198.97 225.98 203.70 226.10 206.98 C 225.88 210.28 226.68 214.42 223.89 216.87 C 221.26 218.54 217.97 218.24 214.99 218.34 C 212.10 218.23 208.86 218.47 206.37 216.74 C 203.69 214.55 204.43 210.75 204.33 207.72 C 206.05 207.71 207.78 207.71 209.50 207.71 C 209.57 209.48 209.65 211.26 209.79 213.03 C 213.20 213.29 217.46 214.39 220.38 212.44 C 220.59 208.93 221.18 204.95 220.04 201.63 C 215.28 201.33 210.51 201.60 205.74 201.52 C 205.77 194.97 205.75 188.43 205.76 181.88 Z"/>
<path fill="black" opacity="1.00" d=" M 230.83 181.88 C 237.45 181.91 244.06 181.84 250.68 181.92 C 250.66 183.55 250.65 185.18 250.63 186.81 C 245.67 186.69 240.71 186.76 235.75 186.73 C 235.77 190.06 235.76 193.39 235.75 196.72 C 240.32 197.15 245.73 195.34 249.64 198.42 C 252.05 201.36 250.86 205.52 251.16 209.00 C 251.27 212.29 251.00 216.93 247.01 217.77 C 242.25 218.53 237.12 218.82 232.48 217.35 C 228.76 215.70 229.41 211.03 229.41 207.71 C 231.14 207.71 232.87 207.72 234.61 207.72 C 234.65 209.47 234.71 211.22 234.83 212.96 C 238.30 213.41 242.31 214.27 245.51 212.52 C 245.56 208.96 246.40 204.88 245.05 201.60 C 240.31 201.35 235.55 201.61 230.80 201.49 C 230.85 194.96 230.81 188.42 230.83 181.88 Z"/>
<path fill="black" opacity="1.00" d=" M 259.44 181.88 C 267.76 181.89 276.09 181.89 284.41 181.88 C 284.41 185.34 284.41 188.81 284.42 192.28 C 282.71 192.27 281.00 192.27 279.29 192.27 C 279.29 190.42 279.30 188.58 279.31 186.73 C 277.75 186.73 276.20 186.72 274.65 186.72 C 274.67 195.67 274.67 204.62 274.65 213.57 C 275.98 213.52 277.32 213.46 278.66 213.42 C 278.67 215.08 278.66 216.75 278.62 218.41 C 274.14 218.29 269.67 218.35 265.19 218.36 C 265.19 216.74 265.19 215.11 265.19 213.50 C 266.54 213.49 267.89 213.49 269.24 213.49 C 269.18 204.58 269.22 195.66 269.22 186.74 C 267.66 186.73 266.12 186.72 264.57 186.70 C 264.56 188.56 264.56 190.41 264.57 192.27 C 262.86 192.27 261.15 192.27 259.44 192.28 C 259.43 188.81 259.43 185.34 259.44 181.88 Z"/>
<path fill="black" opacity="1.00" d=" M 287.32 181.88 C 291.45 181.89 295.58 181.89 299.71 181.88 C 299.70 183.53 299.69 185.19 299.67 186.85 C 298.88 186.80 297.29 186.71 296.50 186.67 C 296.42 195.12 296.53 203.57 296.46 212.01 C 296.60 214.78 294.70 217.44 291.99 218.05 C 289.39 218.55 286.73 218.29 284.12 218.37 C 284.10 216.75 284.08 215.13 284.07 213.51 C 286.25 213.14 291.08 214.84 290.84 211.09 C 290.73 202.98 291.16 194.79 290.62 186.74 C 289.80 186.75 288.17 186.78 287.35 186.79 C 287.33 185.15 287.32 183.52 287.32 181.88 Z"/>
<path fill="black" opacity="1.00" d=" M 255.76 219.00 C 252.67 217.55 253.56 212.75 257.00 212.72 C 260.31 212.83 260.85 217.29 258.39 219.00 L 255.76 219.00 Z"/>
</g>
<g id="#757575ff">
<path fill="#757575" opacity="1.00" d=" M 110.47 36.36 C 124.53 23.64 145.22 18.26 163.62 22.99 C 154.44 27.16 144.48 28.94 134.89 31.86 C 127.57 34.40 119.90 35.81 112.65 38.58 C 111.92 37.84 111.19 37.10 110.47 36.36 Z"/>
</g>
<g id="#616161ff">
<path fill="#616161" opacity="1.00" d=" M 134.89 31.86 C 144.48 28.94 154.44 27.16 163.62 22.99 C 169.75 24.31 175.59 26.81 180.93 30.10 C 176.77 33.97 170.91 32.61 165.83 33.72 C 155.16 35.77 144.28 36.43 133.62 38.48 C 124.01 40.87 114.25 42.91 105.06 46.70 C 104.34 46.35 102.91 45.66 102.20 45.31 C 104.54 41.96 107.59 39.22 110.47 36.36 C 111.19 37.10 111.92 37.84 112.65 38.58 C 119.90 35.81 127.57 34.40 134.89 31.86 Z"/>
</g>
<g id="#494956ff">
<path fill="#494956" opacity="1.00" d=" M 104.08 26.51 C 104.72 27.01 104.72 27.01 104.08 26.51 Z"/>
</g>
<g id="#3a3a56ff">
<path fill="#3a3a56" opacity="1.00" d=" M 98.91 27.77 C 99.74 28.56 100.57 29.36 101.39 30.16 C 101.86 29.34 102.34 28.51 102.82 27.69 C 103.53 29.25 104.35 30.83 104.42 32.59 C 101.84 33.60 100.25 30.53 98.63 29.07 L 98.91 27.77 Z"/>
</g>
<g id="#505050ff">
<path fill="#505050" opacity="1.00" d=" M 165.83 33.72 C 170.91 32.61 176.77 33.97 180.93 30.10 C 183.87 31.89 186.59 34.00 189.21 36.22 C 183.78 39.37 177.34 38.61 171.36 39.50 C 160.09 41.51 148.65 42.33 137.42 44.57 C 125.24 47.53 112.58 48.94 100.95 53.91 C 100.06 53.10 99.16 52.30 98.27 51.49 C 99.46 49.36 100.80 47.31 102.20 45.31 C 102.91 45.66 104.34 46.35 105.06 46.70 C 114.25 42.91 124.01 40.87 133.62 38.48 C 144.28 36.43 155.16 35.77 165.83 33.72 Z"/>
</g>
<g id="#343434ff">
<path fill="#343434" opacity="1.00" d=" M 108.86 34.75 C 109.87 33.63 111.47 33.80 112.81 33.49 C 107.01 38.43 101.79 44.15 98.17 50.89 C 93.37 60.13 89.81 70.67 91.12 81.20 C 91.85 86.52 92.23 91.94 93.92 97.08 C 95.13 101.07 97.01 104.81 98.64 108.64 C 98.53 109.08 98.30 109.96 98.19 110.40 C 92.56 101.88 90.52 91.56 89.85 81.52 C 88.00 82.42 86.15 83.33 84.30 84.23 C 84.25 83.76 84.15 82.80 84.10 82.33 C 84.61 81.95 85.63 81.20 86.14 80.82 C 85.76 80.77 84.99 80.65 84.61 80.59 C 84.21 80.71 83.40 80.93 82.99 81.04 C 83.24 80.58 83.73 79.67 83.97 79.22 C 84.68 77.44 83.06 76.82 81.79 76.09 L 82.59 75.72 C 82.96 75.54 83.69 75.18 84.06 75.00 C 84.27 74.62 84.71 73.86 84.93 73.48 C 84.65 73.39 84.09 73.21 83.81 73.12 C 83.33 72.57 82.36 71.49 81.87 70.94 C 82.61 70.94 84.09 70.94 84.83 70.93 C 85.06 69.33 85.24 67.72 85.26 66.11 C 82.85 65.64 80.45 65.09 78.00 64.92 C 76.74 66.20 76.95 68.13 76.61 69.76 C 76.52 70.39 76.36 71.64 76.27 72.26 C 76.20 72.81 76.05 73.89 75.97 74.43 C 77.80 74.86 79.40 75.80 80.63 77.23 C 78.89 76.91 77.18 76.48 75.46 76.05 C 74.73 77.74 75.40 79.55 75.55 81.27 C 75.78 82.11 75.87 82.97 76.13 83.80 L 76.84 85.20 L 75.91 85.17 C 75.93 85.76 75.96 86.93 75.97 87.52 C 77.43 87.26 78.88 87.02 80.36 86.89 C 77.30 89.61 74.11 92.19 70.69 94.44 C 68.81 84.03 69.05 73.28 71.33 62.96 C 71.78 63.55 72.68 64.74 73.13 65.34 C 75.82 63.07 77.03 59.74 78.37 56.60 L 79.21 56.47 C 79.36 57.28 79.50 58.10 79.63 58.91 L 79.55 59.67 C 79.09 60.28 78.17 61.50 77.71 62.11 C 80.62 62.10 83.44 62.88 85.85 64.50 C 86.20 63.74 86.53 62.97 86.88 62.21 C 85.50 62.07 84.12 61.92 82.75 61.76 C 83.07 61.18 83.71 60.01 84.03 59.43 C 85.08 59.92 86.11 60.45 87.13 61.01 C 87.30 60.43 87.65 59.27 87.82 58.69 C 85.14 58.43 82.54 57.67 80.19 56.36 C 81.08 56.24 82.88 56.01 83.78 55.89 C 83.55 55.29 83.11 54.11 82.88 53.51 L 84.10 53.71 C 85.55 54.88 86.89 56.16 88.20 57.48 C 88.42 56.89 88.85 55.69 89.06 55.10 C 88.31 54.75 86.82 54.05 86.07 53.70 C 87.15 52.05 88.71 52.67 90.13 53.39 C 90.27 52.84 90.56 51.73 90.70 51.17 C 90.10 51.12 88.92 51.02 88.32 50.97 C 88.34 49.75 88.35 48.53 88.34 47.32 C 89.64 48.38 90.91 49.50 92.22 50.55 C 92.47 46.57 86.63 46.48 86.69 42.66 C 89.16 43.64 91.42 45.07 93.27 46.99 C 93.67 46.45 94.47 45.37 94.87 44.82 C 92.61 44.14 90.47 43.10 88.57 41.69 C 89.53 41.03 90.49 40.35 91.43 39.67 C 92.99 40.75 94.34 42.10 95.41 43.67 C 96.23 44.51 97.06 47.20 98.51 45.60 C 102.07 42.10 104.94 37.91 108.86 34.75 Z"/>
</g>
<g id="#474749ff">
<path fill="#474749" opacity="1.00" d=" M 83.08 47.67 C 83.17 45.74 83.48 43.80 84.93 42.39 L 85.16 44.14 C 84.96 44.49 84.55 45.19 84.35 45.53 C 85.71 46.04 87.21 46.34 88.34 47.32 C 88.35 48.53 88.34 49.75 88.32 50.97 C 85.92 50.75 83.44 49.92 81.09 50.89 C 82.07 51.85 83.06 52.81 84.10 53.71 L 82.88 53.51 C 83.11 54.11 83.55 55.29 83.78 55.89 C 82.88 56.01 81.08 56.24 80.19 56.36 C 79.94 56.39 79.45 56.44 79.21 56.47 L 78.37 56.60 C 77.03 59.74 75.82 63.07 73.13 65.34 C 72.68 64.74 71.78 63.55 71.33 62.96 C 72.07 59.70 72.97 56.48 74.11 53.35 C 78.14 53.94 80.44 49.98 83.08 47.67 Z"/>
</g>
<g id="#171717ff">
<path fill="#171717" opacity="1.00" d=" M 190.06 46.81 C 192.49 46.51 194.79 45.67 197.07 44.83 C 200.19 49.09 202.75 53.74 204.70 58.64 C 201.83 61.56 197.24 61.39 193.95 59.34 C 193.90 63.61 193.73 67.89 193.25 72.14 C 193.30 67.43 193.43 62.70 192.97 58.00 L 192.85 57.12 C 179.36 56.75 165.84 56.80 152.35 57.17 C 152.00 58.36 151.65 59.56 151.31 60.75 C 150.94 60.70 150.20 60.59 149.83 60.54 C 149.53 60.06 148.93 59.11 148.63 58.63 C 148.29 58.60 147.62 58.54 147.28 58.51 C 144.25 58.36 141.23 58.21 138.21 58.00 C 143.44 55.78 149.08 54.87 154.53 53.37 C 166.24 50.54 178.10 48.24 190.06 46.81 Z"/>
</g>
<g id="#2c2c44ff">
<path fill="#2c2c44" opacity="1.00" d=" M 84.99 52.23 C 85.57 52.84 85.57 52.84 84.99 52.23 Z"/>
</g>
<g id="#909042ff">
<path fill="#909042" opacity="1.00" d=" M 106.97 58.20 C 116.89 57.92 126.86 57.71 136.77 58.40 L 135.69 58.73 C 126.73 60.08 117.60 58.94 108.58 59.51 C 108.45 63.27 108.45 67.04 108.27 70.81 L 107.06 71.87 C 107.03 67.31 106.91 62.76 106.97 58.20 Z"/>
</g>
<g id="#feef13ff">
<path fill="#feef13" opacity="1.00" d=" M 136.77 58.40 C 137.13 58.30 137.85 58.10 138.21 58.00 C 141.23 58.21 144.25 58.36 147.28 58.51 C 147.24 63.28 147.39 68.05 147.06 72.81 C 141.39 72.88 135.73 72.79 130.06 72.78 C 128.14 72.84 126.02 72.62 124.44 73.96 C 130.11 74.80 135.88 73.82 141.55 74.65 C 145.08 75.26 148.76 78.12 148.65 82.00 C 148.88 86.27 149.04 90.58 148.47 94.83 C 147.62 98.11 144.97 101.31 141.44 101.75 C 144.01 100.01 147.26 98.20 147.85 94.82 C 148.54 90.58 148.42 86.24 148.08 81.97 C 147.83 78.55 144.80 75.83 141.53 75.27 C 135.60 74.15 129.54 75.02 123.56 74.45 C 123.49 73.93 123.35 72.89 123.28 72.37 C 130.98 72.16 138.69 72.28 146.40 72.14 C 146.67 67.77 146.68 63.37 146.38 58.99 C 142.82 58.73 139.25 58.51 135.69 58.73 L 136.77 58.40 Z"/>
<path fill="#feef13" opacity="1.00" d=" M 155.37 60.29 C 167.16 60.31 178.95 60.24 190.74 60.32 C 190.83 60.72 191.01 61.53 191.10 61.94 C 179.75 61.92 168.40 61.73 157.06 61.99 C 157.09 65.40 156.35 69.08 157.75 72.29 C 160.66 73.86 165.46 71.73 166.95 75.74 C 166.98 74.03 167.03 72.32 167.09 70.61 C 167.33 70.61 167.81 70.62 168.05 70.62 C 168.01 72.39 168.00 74.16 168.01 75.93 C 175.86 76.95 185.15 73.71 191.81 79.18 C 191.35 81.53 191.33 84.03 190.34 86.25 C 188.54 87.56 186.26 87.38 184.16 87.57 C 182.54 87.55 181.52 89.04 180.21 89.76 C 180.21 88.05 180.19 86.34 180.17 84.64 C 171.92 84.52 163.67 84.60 155.42 84.60 C 155.36 76.49 155.38 68.39 155.37 60.29 Z"/>
<path fill="#feef13" opacity="1.00" d=" M 76.61 69.76 C 76.95 68.13 76.74 66.20 78.00 64.92 C 80.45 65.09 82.85 65.64 85.26 66.11 C 85.24 67.72 85.06 69.33 84.83 70.93 C 84.09 70.94 82.61 70.94 81.87 70.94 C 80.10 70.62 78.35 70.20 76.61 69.76 M 77.97 68.64 C 80.08 68.99 82.20 69.30 84.34 69.41 C 84.18 68.90 83.87 67.90 83.71 67.39 C 81.80 67.10 77.62 65.15 77.97 68.64 Z"/>
<path fill="#feef13" opacity="1.00" d=" M 76.27 72.26 C 78.68 73.22 81.26 73.28 83.81 73.12 C 84.09 73.21 84.65 73.39 84.93 73.48 C 84.71 73.86 84.27 74.62 84.06 75.00 C 83.69 75.18 82.96 75.54 82.59 75.72 C 82.11 75.50 81.15 75.06 80.67 74.84 C 80.95 75.15 81.51 75.78 81.79 76.09 C 83.06 76.82 84.68 77.44 83.97 79.22 C 81.31 78.22 78.43 78.30 75.69 78.86 C 75.63 78.16 75.52 76.76 75.46 76.05 C 77.18 76.48 78.89 76.91 80.63 77.23 C 79.40 75.80 77.80 74.86 75.97 74.43 C 76.05 73.89 76.20 72.81 76.27 72.26 Z"/>
<path fill="#feef13" opacity="1.00" d=" M 84.61 80.59 C 84.99 80.65 85.76 80.77 86.14 80.82 C 85.63 81.20 84.61 81.95 84.10 82.33 C 84.15 82.80 84.25 83.76 84.30 84.23 C 84.37 84.92 84.50 86.28 84.57 86.96 C 83.16 86.90 81.76 86.79 80.36 86.89 C 78.88 87.02 77.43 87.26 75.97 87.52 C 75.96 86.93 75.93 85.76 75.91 85.17 L 76.84 85.20 C 78.90 85.29 80.96 85.20 83.02 85.11 C 83.02 84.58 83.03 83.52 83.04 82.99 C 80.72 83.13 78.40 83.34 76.13 83.80 C 75.87 82.97 75.78 82.11 75.55 81.27 C 78.02 81.62 80.60 81.98 82.99 81.04 C 83.40 80.93 84.21 80.71 84.61 80.59 Z"/>
</g>
<g id="#4a4704ff">
<path fill="#4a4704" opacity="1.00" d=" M 153.00 57.99 C 166.32 57.98 179.65 57.97 192.97 58.00 C 193.43 62.70 193.30 67.43 193.25 72.14 L 193.20 73.03 C 185.80 72.88 178.42 73.67 171.01 73.52 C 176.64 73.64 182.32 73.21 187.89 74.24 C 191.45 75.04 195.14 78.03 195.04 81.97 C 195.06 86.46 195.25 90.98 194.82 95.47 L 193.10 96.39 C 193.89 91.71 194.50 86.88 193.64 82.16 C 192.89 78.56 189.73 75.66 186.06 75.27 C 180.45 74.66 174.80 75.24 169.18 74.91 C 169.11 74.18 168.98 72.72 168.91 72.00 C 176.54 71.95 184.18 72.09 191.81 71.88 C 191.76 67.69 191.73 63.51 191.66 59.32 C 179.42 59.07 167.18 59.39 154.95 59.14 C 154.07 64.37 154.55 69.68 154.40 74.95 C 154.31 78.62 154.22 82.32 154.97 85.94 C 163.10 85.84 171.23 85.72 179.36 85.99 C 179.10 87.81 178.14 89.51 176.02 89.26 C 168.86 89.37 161.59 89.83 154.49 88.64 C 154.26 88.40 153.79 87.92 153.55 87.68 C 153.06 85.83 152.93 83.92 152.95 82.01 C 153.02 74.00 152.98 65.99 153.00 57.99 Z"/>
<path fill="#4a4704" opacity="1.00" d=" M 107.06 71.87 L 108.27 70.81 C 108.44 75.84 107.75 80.97 109.00 85.91 C 117.11 85.87 125.23 85.72 133.34 85.96 C 132.93 87.31 132.90 89.36 130.93 89.15 C 123.50 89.42 116.00 89.65 108.59 88.85 C 108.38 88.42 107.97 87.56 107.76 87.13 C 106.11 82.26 107.30 76.93 107.06 71.87 Z"/>
</g>
<g id="#fff908ff">
<path fill="#fff908" opacity="1.00" d=" M 157.06 61.99 C 168.40 61.73 179.75 61.92 191.10 61.94 C 190.92 64.86 190.96 67.78 190.89 70.71 C 183.27 70.56 175.66 70.71 168.05 70.62 C 167.81 70.62 167.33 70.61 167.09 70.61 C 167.03 72.32 166.98 74.03 166.95 75.74 C 165.46 71.73 160.66 73.86 157.75 72.29 C 156.35 69.08 157.09 65.40 157.06 61.99 Z"/>
</g>
<g id="#323232ff">
<path fill="#323232" opacity="1.00" d=" M 97.29 65.34 C 100.22 64.10 103.20 62.90 106.42 62.66 C 106.27 65.64 107.07 68.87 105.93 71.69 C 101.21 74.56 96.54 77.88 91.12 79.26 C 90.88 74.18 91.73 69.14 93.03 64.24 C 94.40 64.62 95.79 66.09 97.29 65.34 Z"/>
</g>
<g id="#feef12ff">
<path fill="#feef12" opacity="1.00" d=" M 121.17 70.70 C 121.37 70.68 121.78 70.66 121.99 70.65 C 121.96 72.40 121.95 74.16 121.94 75.91 C 127.79 76.26 133.67 75.69 139.50 76.26 C 142.81 76.62 146.60 78.39 146.77 82.19 C 146.89 86.75 147.70 91.67 145.72 95.95 L 145.46 95.84 C 145.26 93.29 145.00 90.75 144.74 88.21 C 140.89 88.29 136.72 88.17 134.35 84.64 C 126.08 84.43 117.81 84.75 109.54 84.48 C 109.65 79.86 109.50 75.23 109.67 70.61 C 110.23 71.80 110.78 72.99 111.33 74.19 C 114.07 73.73 116.84 73.50 119.61 73.45 C 119.87 74.06 120.38 75.28 120.64 75.89 C 120.80 74.16 120.94 72.42 121.17 70.70 Z"/>
</g>
<g id="#00002fff">
<path fill="#00002f" opacity="1.00" d=" M 80.67 74.84 C 81.15 75.06 82.11 75.50 82.59 75.72 L 81.79 76.09 C 81.51 75.78 80.95 75.15 80.67 74.84 Z"/>
</g>
<g id="#fde61eff">
<path fill="#fde61e" opacity="1.00" d=" M 134.35 84.64 C 136.72 88.17 140.89 88.29 144.74 88.21 C 145.00 90.75 145.26 93.29 145.46 95.84 L 145.32 96.75 C 143.84 99.79 140.11 100.53 137.03 100.71 C 127.91 100.88 118.79 100.58 109.67 100.86 C 109.54 97.20 109.58 93.55 109.59 89.89 C 117.82 89.97 126.06 90.04 134.29 89.81 C 134.33 88.09 134.35 86.36 134.35 84.64 Z"/>
<path fill="#fde61e" opacity="1.00" d=" M 153.37 102.63 C 153.03 97.65 153.08 92.65 153.55 87.68 C 153.79 87.92 154.26 88.40 154.49 88.64 C 153.21 92.76 153.83 97.12 153.72 101.36 C 157.59 103.00 161.87 102.07 165.93 102.26 C 173.20 102.01 180.54 102.94 187.73 101.52 C 185.44 103.02 182.56 102.57 179.97 102.76 C 171.10 102.64 162.23 102.87 153.37 102.63 Z"/>
</g>
<g id="#75700cff">
<path fill="#75700c" opacity="1.00" d=" M 107.12 102.96 C 107.24 97.69 106.27 92.27 107.76 87.13 C 107.97 87.56 108.38 88.42 108.59 88.85 C 108.03 93.23 107.80 97.70 108.74 102.06 C 119.17 101.81 129.62 102.35 140.04 101.69 C 139.99 102.03 139.90 102.71 139.85 103.05 C 128.94 102.98 118.03 103.10 107.12 102.96 Z"/>
</g>
<g id="#181818ff">
<path fill="#181818" opacity="1.00" d=" M 112.56 125.14 C 114.92 124.18 117.42 123.57 119.99 123.72 C 141.50 123.95 163.01 123.58 184.51 123.90 C 184.23 125.18 183.95 126.46 183.67 127.75 C 162.96 142.92 132.08 141.86 112.56 125.14 Z"/>
</g>
<g id="#d2ce00ff">
<path fill="#d2ce00" opacity="1.00" d=" M 105.98 140.96 C 107.00 139.13 105.94 133.89 109.15 134.98 C 108.85 135.79 108.25 137.41 107.95 138.22 C 108.77 137.69 110.41 136.63 111.23 136.10 C 111.00 136.99 110.55 138.79 110.32 139.69 C 111.11 139.14 112.70 138.04 113.49 137.49 C 113.71 137.97 114.15 138.94 114.37 139.42 C 114.79 139.57 115.63 139.88 116.05 140.04 L 115.18 142.72 C 115.95 142.13 117.49 140.95 118.26 140.36 C 118.07 141.29 117.70 143.15 117.51 144.08 C 118.47 143.00 119.62 142.21 120.96 141.72 L 120.97 143.16 C 121.50 143.10 122.57 142.99 123.10 142.93 C 123.02 143.73 122.88 145.34 122.80 146.14 C 123.70 145.22 124.69 144.43 125.79 143.76 C 125.64 144.62 125.35 146.34 125.20 147.20 C 126.14 145.46 127.36 144.87 128.85 145.42 C 127.46 147.26 126.20 149.49 123.93 150.32 L 124.19 148.76 C 125.49 143.93 123.11 150.06 121.28 148.85 C 121.31 147.00 121.49 145.17 121.61 143.33 C 119.31 143.66 118.11 146.04 116.18 147.14 C 116.30 146.25 116.55 144.46 116.67 143.56 C 115.93 144.01 114.44 144.90 113.70 145.35 C 113.07 143.99 114.26 142.57 114.38 141.26 C 113.93 140.66 113.47 140.07 112.99 139.49 C 111.59 140.63 110.16 141.72 108.66 142.73 C 108.54 141.40 108.82 140.13 109.51 138.92 C 108.34 139.61 107.17 140.29 105.98 140.96 Z"/>
</g>
</svg>