<?xml version="1.0" encoding="UTF-8" ?>
<!DOCTYPE svg PUBLIC "-//W3C//DTD SVG 1.1//EN" "http://www.w3.org/Graphics/SVG/1.1/DTD/svg11.dtd">
<svg width="1240pt" height="802pt" viewBox="0 0 1240 802" version="1.1" xmlns="http://www.w3.org/2000/svg">
<g id="#ffffffff">
<path xmlns="http://www.w3.org/2000/svg" fill="#ffffff" opacity="1.00" d=" M 494.45 56.62 C 487.78 45.80 498.04 30.88 510.02 30.94 C 517.95 29.26 524.26 35.97 527.93 42.06 C 550.79 78.41 572.39 115.52 595.11 151.95 C 609.03 152.02 622.95 152.00 636.88 151.96 C 657.15 119.69 676.24 86.72 696.40 54.38 C 700.93 47.39 704.51 39.49 710.99 34.01 C 715.10 30.64 720.85 30.65 725.89 31.12 C 732.66 33.89 738.99 39.86 739.52 47.58 C 740.30 52.76 737.53 57.68 734.95 61.95 C 716.12 91.65 698.70 122.22 679.87 151.93 C 733.25 152.21 786.64 151.74 840.03 152.10 C 856.76 151.57 872.82 163.12 878.10 178.88 C 879.76 190.83 878.87 202.97 879.05 215.00 C 878.96 313.35 878.96 411.69 879.07 510.04 C 879.95 518.89 874.45 526.64 868.97 532.97 C 862.47 539.13 854.14 544.19 844.98 544.63 C 830.00 545.56 814.99 544.88 800.00 545.00 C 665.00 545.05 529.99 544.90 394.99 545.08 C 377.46 546.99 360.25 535.15 354.05 519.00 C 352.75 513.79 353.17 508.31 352.91 503.01 C 353.07 398.00 353.03 292.99 352.93 187.97 C 351.85 174.91 361.65 163.62 372.08 157.10 C 380.64 151.78 391.31 152.25 400.99 151.93 C 451.36 152.00 501.74 152.07 552.12 151.94 C 539.32 131.02 526.09 110.35 513.92 89.05 C 507.70 78.08 499.90 68.01 494.45 56.62 M 433.43 217.56 C 424.40 218.05 416.41 225.86 415.99 234.94 C 416.05 309.97 415.87 385.01 416.09 460.04 C 415.16 470.91 425.26 480.59 436.00 479.82 C 520.99 480.32 606.01 479.75 691.01 480.09 C 698.30 479.44 707.02 481.47 712.97 475.96 C 721.15 470.76 720.72 459.50 721.06 451.02 C 720.97 382.67 720.96 314.32 721.07 245.98 C 721.14 237.33 720.68 227.51 713.72 221.32 C 707.63 217.17 700.12 216.76 693.02 216.96 C 619.68 217.01 546.34 217.03 473.00 216.97 C 459.81 217.04 446.59 216.49 433.43 217.56 M 794.43 244.44 C 784.37 246.36 774.10 251.70 769.10 261.04 C 759.22 276.21 763.94 298.95 779.19 308.80 C 787.59 314.85 798.37 314.92 808.19 313.27 C 824.01 309.05 835.49 292.37 833.13 276.05 C 832.21 257.22 812.94 241.81 794.43 244.44 M 791.44 383.53 C 779.98 385.30 769.84 394.16 766.14 405.09 C 760.60 419.26 765.27 437.26 778.04 445.94 C 785.94 451.75 796.34 454.75 806.02 451.97 C 825.33 448.79 838.16 426.42 831.88 408.05 C 828.17 390.57 808.72 379.13 791.44 383.53 Z"/>
</g>
</svg>
