<?xml version="1.0" encoding="UTF-8" ?>
<!DOCTYPE svg PUBLIC "-//W3C//DTD SVG 1.1//EN" "http://www.w3.org/Graphics/SVG/1.1/DTD/svg11.dtd">
<svg width="1240pt" height="802pt" viewBox="0 0 1240 802" version="1.1" xmlns="http://www.w3.org/2000/svg">
<g  id="#ffffffff">
<path fill="#ffffff" opacity="1.00" d=" M 753.45 53.57 C 772.97 52.28 792.53 53.41 812.03 54.66 C 827.87 55.71 844.05 55.57 859.28 60.67 C 888.55 68.76 915.40 92.01 921.33 122.66 C 922.17 133.71 923.80 145.55 918.96 155.98 C 914.08 166.22 907.32 175.46 900.25 184.26 C 895.02 189.06 886.86 186.22 880.64 185.45 C 866.51 181.84 852.69 175.95 841.34 166.63 C 837.85 163.73 833.97 159.56 834.71 154.63 C 838.93 143.58 847.76 134.88 851.64 123.64 C 853.02 118.17 847.08 113.89 842.31 112.80 C 819.69 109.26 796.74 111.70 774.00 112.03 C 753.09 112.43 732.20 110.08 711.29 111.22 C 705.31 111.93 698.79 112.02 693.73 115.72 C 691.13 117.65 689.17 121.13 690.58 124.35 C 694.57 134.74 702.25 143.13 706.83 153.22 C 708.97 157.65 704.91 162.12 702.28 165.26 C 691.03 175.43 676.63 181.35 662.16 185.27 C 654.67 186.62 644.34 189.59 639.49 181.59 C 632.37 170.49 621.84 160.34 620.49 146.57 C 619.43 135.67 619.11 124.37 622.84 113.90 C 633.82 82.95 664.73 61.83 696.67 57.60 C 715.49 55.18 734.52 54.86 753.45 53.57 Z"/>
<path fill="#ffffff" opacity="1.00" d=" M 716.78 134.12 C 751.97 133.91 787.18 133.94 822.38 134.10 C 820.20 143.08 815.78 151.87 817.48 161.40 C 819.37 169.31 824.74 175.98 830.88 181.12 C 844.20 191.74 860.30 198.44 876.78 202.39 C 878.78 233.41 880.73 264.43 882.41 295.47 C 884.40 305.91 876.59 318.30 865.05 316.93 C 801.68 317.12 738.30 316.95 674.94 317.02 C 667.77 316.83 661.42 310.95 660.07 304.00 C 658.72 295.76 659.99 287.39 660.24 279.12 C 661.94 253.54 663.03 227.91 665.10 202.35 C 681.42 198.64 697.23 191.83 710.46 181.49 C 718.27 175.39 725.29 166.36 724.86 155.97 C 725.67 147.72 720.49 140.94 716.78 134.12 M 730.10 206.06 C 713.99 226.73 718.34 259.87 739.34 275.63 C 756.41 290.55 782.78 289.93 801.12 277.67 C 797.17 273.69 793.18 269.76 789.18 265.85 C 782.53 269.08 775.12 271.57 767.62 270.40 C 751.56 268.89 736.79 254.51 737.03 238.00 C 735.27 222.77 745.89 207.87 760.13 203.12 C 777.14 196.63 798.14 207.00 803.90 224.13 C 807.54 233.89 805.52 244.63 801.33 253.87 C 805.16 257.67 808.96 261.51 812.76 265.37 C 821.79 252.63 824.52 236.08 819.92 221.10 C 815.98 207.52 806.05 195.66 793.01 190.01 C 771.88 179.33 743.48 186.40 730.10 206.06 Z"/>
<path fill="#ffffff" opacity="1.00" d=" M 510.81 226.82 C 533.26 218.09 557.51 212.76 581.69 215.35 C 592.26 216.80 602.67 222.51 607.86 232.09 C 614.50 242.00 615.55 254.40 615.12 266.01 C 615.33 277.44 611.22 288.26 608.04 299.06 C 606.39 303.74 610.60 307.72 612.10 311.81 C 624.34 335.12 626.20 362.15 625.02 388.00 C 559.31 388.03 493.60 387.95 427.90 388.03 C 429.24 406.51 437.12 425.45 452.99 436.01 C 471.56 450.37 498.61 451.29 518.83 439.87 C 528.71 434.36 536.25 425.55 542.29 416.13 C 567.62 415.90 592.94 415.94 618.27 416.09 C 602.59 463.06 560.40 499.98 511.57 508.55 C 484.28 513.61 455.29 510.62 430.09 498.79 C 427.27 497.78 424.16 495.47 421.10 497.06 C 402.49 505.38 382.75 512.97 361.99 512.09 C 344.85 513.24 325.63 503.99 320.17 486.87 C 317.12 475.26 317.69 463.01 318.24 451.13 C 324.32 411.74 342.00 375.01 364.48 342.43 C 380.47 320.09 398.89 299.45 419.37 281.14 C 399.50 290.35 382.10 304.27 367.24 320.24 C 361.43 326.00 356.73 332.74 350.94 338.52 C 361.64 291.22 399.65 251.70 445.99 237.96 C 461.45 232.88 477.86 232.26 493.98 231.57 C 499.98 231.66 505.34 228.85 510.81 226.82 M 539.03 242.31 C 564.87 252.74 586.51 271.57 602.47 294.21 C 606.51 280.58 610.02 266.21 607.06 251.98 C 604.39 241.10 593.69 234.02 582.90 233.15 C 567.70 232.18 553.12 237.27 539.03 242.31 M 440.96 317.99 C 433.30 327.05 430.29 338.65 427.97 350.00 C 466.76 349.97 505.55 350.08 544.34 349.94 C 542.04 333.22 534.42 316.60 519.93 307.09 C 496.35 288.77 458.83 294.21 440.96 317.99 M 340.12 466.04 C 340.05 474.12 340.12 483.10 345.13 489.93 C 349.38 497.09 357.82 501.04 366.02 500.91 C 382.51 502.37 398.28 496.60 413.25 490.42 C 386.96 473.75 365.48 448.55 355.41 418.92 C 348.55 433.94 341.81 449.44 340.12 466.04 Z"/>
</g>
</svg>
