<svg width="640" height="480" xmlns="http://www.w3.org/2000/svg">
 <style type="text/css">.st0{fill:#ff8800;}</style>

 <g>
  <title>background</title>
  <rect fill="none" id="canvas_background" height="482" width="642" y="-1" x="-1"/>
 </g>
 <g>
  <title>Layer 1</title>
  <g stroke="null" id="svg_1">
   <g stroke="null" id="Icon-Search">
    <path stroke="null" id="Fill-1" d="m80.428572,261.957147c-18.342858,0 -33.428572,-14.914286 -33.428572,-33.428572c0,-18.342858 14.914286,-33.428572 33.428572,-33.428572s33.428572,14.914286 33.428572,33.428572c-0.171429,18.514286 -15.085715,33.428572 -33.428572,33.428572l0,0zm0,-61.885716c-15.771429,0 -28.628572,12.857143 -28.628572,28.628572c0,15.771429 12.857143,28.628572 28.628572,28.628572s28.628572,-12.857143 28.628572,-28.628572c-0.171429,-15.771429 -13.028572,-28.628572 -28.628572,-28.628572l0,0z" class="st0"/>
    <polyline stroke="null" points="125.00001525878906,276.8714294433594 101.68572235107422,253.72857666015625 105.45714569091797,249.9571533203125 128.60000610351562,273.2714538574219 125.00001525878906,276.8714294433594 " id="Fill-2" class="st0"/>
   </g>
  </g>
  <text style="cursor: move;" stroke="#ff8800" transform="matrix(2.6033602573337618,0,0,4.333548903465271,-102.43449247463424,-770.6308193914592) " xml:space="preserve" text-anchor="start" font-family="Georgia, Times, 'Times New Roman', serif" font-size="24" id="svg_2" y="240.104316" x="99.017421" stroke-width="0" fill="#ff8800">ПОИСК  УСЛУГ</text>
 </g>
</svg>