<?xml version="1.0" encoding="UTF-8" ?>
<!DOCTYPE svg PUBLIC "-//W3C//DTD SVG 1.1//EN" "http://www.w3.org/Graphics/SVG/1.1/DTD/svg11.dtd">
<svg width="256pt" height="174pt" viewBox="0 0 256 174" version="1.1" xmlns="http://www.w3.org/2000/svg">
<g id="#1f1f1fb4">
<path fill="#1f1f1f" opacity="0.71" d=" M 173.56 32.71 C 175.14 31.56 177.00 30.89 178.97 31.00 C 187.32 30.99 195.68 30.99 204.03 31.00 C 206.01 30.90 207.91 31.57 209.48 32.75 C 203.77 31.28 197.83 32.01 192.01 31.91 C 185.86 32.05 179.62 31.37 173.56 32.71 Z" />
<path fill="#1f1f1f" opacity="0.71" d=" M 237.85 134.86 C 237.94 133.80 238.53 133.07 239.59 132.70 C 240.10 134.32 239.52 135.05 237.85 134.86 Z" />
</g>
<g id="#000000ff">
<path fill="#000000" opacity="1.00" d=" M 173.56 32.71 C 179.62 31.37 185.86 32.05 192.01 31.91 C 197.83 32.01 203.77 31.28 209.48 32.75 C 210.09 33.30 210.67 33.88 211.21 34.50 C 212.84 40.54 211.74 46.83 211.98 52.99 C 211.76 58.81 212.77 64.77 211.23 70.48 C 210.70 71.08 210.13 71.65 209.52 72.19 C 204.15 73.68 198.54 73.14 193.04 73.20 C 187.12 73.22 181.21 73.28 175.29 73.09 C 173.97 72.47 172.81 71.54 171.77 70.51 C 170.15 64.45 171.20 58.14 171.03 51.96 C 171.22 46.16 170.27 40.24 171.74 34.54 C 172.31 33.89 172.91 33.28 173.56 32.71 M 179.80 40.78 C 175.88 43.95 173.85 48.85 173.24 53.77 C 175.88 54.53 175.37 51.60 175.97 50.01 C 178.11 41.28 188.50 35.97 196.87 39.21 C 203.18 41.25 207.36 47.45 207.89 53.93 C 208.36 53.82 209.30 53.61 209.77 53.50 C 209.06 48.41 206.79 43.40 202.59 40.27 C 196.14 35.01 186.01 35.23 179.80 40.78 M 177.20 51.89 C 175.91 57.45 178.64 63.16 182.92 66.66 C 189.11 70.81 198.21 69.90 202.86 63.87 C 207.41 58.45 206.95 50.16 202.44 44.86 C 199.56 42.22 195.97 40.08 191.94 40.16 C 185.01 39.72 178.38 45.08 177.20 51.89 Z" />
<path fill="#000000" opacity="1.00" d=" M 13.54 39.00 C 15.03 39.00 16.51 39.00 18.00 39.00 C 18.00 44.76 18.00 50.51 18.00 56.26 C 19.67 56.26 21.33 56.26 23.00 56.26 C 23.00 50.49 23.00 44.72 23.00 38.94 C 24.52 39.01 26.04 39.08 27.56 39.16 C 27.39 44.88 27.47 50.60 27.49 56.32 C 29.01 55.92 31.39 56.98 32.44 55.66 C 32.73 50.11 32.42 44.55 32.55 38.99 C 34.03 39.00 35.51 39.00 37.00 39.00 C 37.00 46.00 37.00 53.00 37.00 60.00 C 29.19 60.01 21.38 59.99 13.56 60.01 C 13.50 53.01 13.54 46.00 13.54 39.00 Z" />
<path fill="#000000" opacity="1.00" d=" M 141.04 40.01 C 150.03 40.00 159.01 39.99 168.00 40.02 C 167.98 48.41 168.02 56.81 167.98 65.20 C 164.14 65.18 159.73 65.98 156.74 62.94 C 156.59 62.43 156.28 61.40 156.13 60.88 C 156.00 59.81 155.42 59.10 154.39 58.74 C 154.08 58.27 153.45 57.35 153.14 56.89 C 152.99 55.83 152.42 55.11 151.41 54.72 C 151.06 54.29 150.35 53.41 149.99 52.97 C 149.78 51.83 149.14 51.17 148.10 50.99 L 147.90 49.89 C 147.82 48.41 146.49 47.55 145.47 46.70 C 144.07 45.44 142.94 43.91 141.95 42.32 C 141.72 41.74 141.27 40.59 141.04 40.01 Z" />
<path fill="#000000" opacity="1.00" d=" M 215.00 40.02 C 223.98 39.99 232.97 40.00 241.96 40.01 C 241.78 40.58 241.42 41.72 241.24 42.29 C 240.83 42.65 240.00 43.38 239.58 43.74 C 238.58 44.15 238.00 44.89 237.83 45.94 C 237.37 47.85 236.03 49.40 234.70 50.77 C 233.85 51.32 233.28 52.08 233.01 53.05 C 232.66 53.47 231.97 54.29 231.62 54.71 C 230.61 55.11 230.03 55.84 229.87 56.89 C 229.54 57.36 228.88 58.30 228.56 58.77 C 227.37 59.09 226.84 59.80 226.98 60.91 L 227.08 61.75 C 225.74 62.86 224.57 64.26 222.97 65.01 C 220.33 65.40 217.66 65.21 215.01 65.19 C 214.96 56.80 215.01 48.41 215.00 40.02 Z" />
<path fill="#000000" opacity="1.00" d=" M 41.19 46.04 C 44.82 45.03 50.13 43.89 52.27 48.00 C 53.70 51.83 52.72 56.08 53.07 60.08 C 51.60 59.68 49.05 60.86 48.67 58.63 C 46.90 59.41 44.96 60.40 42.99 59.66 C 40.44 59.02 39.21 55.81 40.49 53.56 C 41.93 50.42 45.85 50.35 48.74 49.65 C 47.02 47.14 43.98 48.40 41.53 48.76 C 41.44 48.08 41.27 46.72 41.19 46.04 M 44.79 53.85 C 44.12 55.06 44.37 56.81 46.04 56.97 C 48.32 57.19 48.56 54.69 48.91 53.07 C 47.53 53.24 46.00 53.01 44.79 53.85 Z" />
<path fill="#000000" opacity="1.00" d=" M 55.09 45.14 C 56.76 45.06 58.43 44.99 60.10 44.93 C 60.84 46.26 61.56 47.62 62.41 48.89 C 64.25 48.94 64.29 46.22 65.20 45.06 C 66.84 45.04 68.49 45.02 70.14 45.01 C 68.58 47.39 66.99 49.75 65.38 52.10 C 66.98 54.73 68.59 57.35 70.20 59.97 C 68.50 59.98 66.81 59.99 65.11 59.99 C 64.22 58.33 63.33 56.67 62.43 55.02 C 61.63 56.69 60.82 58.36 60.01 60.02 C 58.34 60.00 56.68 59.98 55.01 59.95 C 56.52 57.31 58.79 54.98 59.72 52.08 C 58.42 49.62 56.65 47.44 55.09 45.14 Z" />
<path fill="#000000" opacity="1.00" d=" M 72.55 44.87 C 74.17 45.07 76.45 44.51 76.65 46.77 C 78.71 45.55 81.21 44.22 83.61 45.41 C 88.95 48.05 88.76 56.98 83.41 59.51 C 81.30 60.62 79.02 59.62 76.99 58.88 C 77.00 61.25 77.00 63.62 77.00 66.00 C 75.51 66.00 74.03 66.00 72.54 66.00 C 72.53 58.96 72.52 51.92 72.55 44.87 M 78.14 49.13 C 75.77 51.47 76.66 57.76 80.98 56.48 C 84.94 54.64 82.82 46.55 78.14 49.13 Z" />
<path fill="#000000" opacity="1.00" d=" M 90.00 45.01 C 91.42 45.00 92.84 45.00 94.27 45.00 C 94.29 48.41 94.22 51.82 94.21 55.24 C 95.87 51.90 96.77 48.15 98.96 45.10 C 100.72 44.94 102.49 44.98 104.26 44.96 C 104.27 49.97 104.27 54.98 104.26 60.00 C 102.84 60.00 101.42 60.00 100.00 60.00 C 99.92 56.34 99.98 52.68 100.43 49.05 C 98.58 52.53 97.16 56.22 95.64 59.85 C 93.76 59.93 91.88 59.99 90.00 60.05 C 90.00 55.03 90.00 50.02 90.00 45.01 Z" />
<path fill="#000000" opacity="1.00" d=" M 16.00 63.00 C 20.53 63.03 25.06 62.87 29.58 63.16 C 29.55 64.35 29.53 65.53 29.50 66.72 C 26.45 66.66 23.39 66.68 20.36 67.01 C 20.39 68.18 20.42 69.35 20.44 70.52 C 23.26 70.51 26.34 70.43 28.69 72.23 C 31.99 74.57 31.67 80.13 28.28 82.25 C 24.66 84.53 20.14 84.00 16.07 83.83 C 15.93 76.89 16.03 69.94 16.00 63.00 M 20.48 73.81 C 20.47 76.10 20.47 78.39 20.49 80.68 C 22.97 80.71 26.43 80.10 26.38 76.90 C 25.95 73.98 22.71 74.06 20.48 73.81 Z" />
<path fill="#000000" opacity="1.00" d=" M 35.15 71.18 C 37.81 68.37 43.04 68.23 45.48 71.41 C 47.02 73.22 46.86 75.73 47.13 77.95 C 43.71 77.99 40.28 77.96 36.87 78.15 C 38.90 81.32 42.76 80.54 45.95 80.22 C 45.67 81.28 46.57 83.24 45.00 83.52 C 41.67 84.35 37.64 84.43 34.97 81.95 C 32.21 79.07 32.37 74.00 35.15 71.18 M 36.78 74.77 C 38.94 74.97 41.12 74.98 43.28 74.81 C 42.43 73.65 41.75 71.94 40.02 71.94 C 38.43 72.16 37.65 73.62 36.78 74.77 Z" />
<path fill="#000000" opacity="1.00" d=" M 47.86 69.02 C 49.58 69.01 51.30 69.00 53.01 68.99 C 53.82 70.56 54.63 72.14 55.44 73.71 C 56.36 72.17 57.23 70.60 58.03 68.99 C 59.67 69.02 61.32 69.05 62.96 69.09 C 61.39 71.38 59.63 73.56 58.32 76.02 C 59.48 78.87 61.44 81.30 62.98 83.95 C 61.29 83.98 59.61 84.00 57.93 84.03 C 57.02 82.38 56.12 80.73 55.18 79.10 C 54.38 80.70 53.60 82.32 52.82 83.94 C 51.14 83.97 49.46 83.99 47.78 84.00 C 49.34 81.41 51.25 79.03 52.57 76.31 C 51.22 73.75 49.43 71.45 47.86 69.02 Z" />
<path fill="#000000" opacity="1.00" d=" M 65.97 72.61 C 64.50 69.51 67.80 69.42 69.89 69.14 C 72.82 68.66 76.41 69.84 77.21 73.01 C 77.75 76.71 77.37 80.48 77.52 84.20 C 75.88 83.98 74.25 83.71 72.65 83.28 C 70.34 83.75 67.39 84.52 65.58 82.51 C 63.50 80.44 64.57 76.62 67.02 75.33 C 68.97 74.33 71.21 74.14 73.31 73.60 C 71.45 71.19 68.50 72.49 65.97 72.61 M 68.99 79.12 C 68.49 80.57 70.61 81.59 71.68 80.77 C 73.46 80.23 72.84 78.12 73.15 76.76 C 71.81 77.27 68.66 76.92 68.99 79.12 Z" />
<path fill="#000000" opacity="1.00" d=" M 78.77 68.99 C 83.12 69.00 87.47 68.96 91.82 69.07 C 91.77 70.23 91.73 71.39 91.68 72.55 C 90.31 72.49 88.94 72.44 87.57 72.38 C 87.42 76.26 87.47 80.14 87.44 84.01 C 85.96 84.01 84.48 84.00 83.00 84.00 C 83.02 80.12 83.05 76.24 82.88 72.37 C 81.50 72.41 80.11 72.45 78.73 72.49 C 78.74 71.61 78.76 69.87 78.77 68.99 Z" />
<path fill="#000000" opacity="1.00" d=" M 94.16 70.06 C 97.79 69.02 103.11 67.89 105.27 71.98 C 106.70 75.82 105.71 80.08 106.07 84.09 C 104.57 83.72 102.17 84.75 101.58 82.68 C 99.37 83.85 96.34 84.63 94.31 82.72 C 92.05 80.70 92.93 76.80 95.43 75.40 C 97.36 74.31 99.63 74.16 101.75 73.64 C 100.02 71.15 97.02 72.37 94.60 72.81 C 94.49 72.12 94.27 70.74 94.16 70.06 M 97.59 78.50 C 96.72 79.91 98.69 81.59 100.05 80.81 C 101.64 80.30 101.44 78.38 101.94 77.11 C 100.52 77.35 98.15 76.69 97.59 78.50 Z" />
<path fill="#000000" opacity="1.00" d=" M 110.01 68.87 C 111.68 69.09 114.03 68.54 114.27 70.86 C 116.18 69.45 118.65 68.30 121.01 69.35 C 126.47 71.95 126.35 81.31 120.67 83.58 C 118.62 84.52 116.43 83.56 114.40 83.11 C 114.45 85.41 114.47 87.71 114.46 90.01 C 112.97 90.01 111.49 90.00 110.00 90.00 C 110.00 82.95 109.99 75.91 110.01 68.87 M 116.07 72.97 C 113.94 74.08 114.30 76.98 114.70 78.95 C 115.66 81.16 119.15 81.16 120.05 78.89 C 121.72 76.25 119.56 71.31 116.07 72.97 Z" />
<path fill="#000000" opacity="1.00" d=" M 174.21 77.32 C 174.71 76.56 175.43 76.12 176.38 75.98 C 186.32 76.00 196.26 75.81 206.19 76.06 C 207.33 76.03 208.20 76.45 208.81 77.32 C 209.53 78.52 210.39 79.83 211.90 80.07 L 211.93 80.59 C 212.07 91.55 212.04 102.53 211.92 113.50 L 211.90 113.92 C 210.40 114.17 209.55 115.48 208.81 116.66 C 208.18 117.54 207.29 117.96 206.14 117.93 C 196.23 118.13 186.31 117.98 176.39 118.00 C 175.47 117.84 174.75 117.40 174.24 116.67 C 173.46 115.50 172.59 114.23 171.11 113.96 L 171.09 113.50 C 170.85 102.50 170.98 91.49 171.11 80.48 L 171.12 80.06 C 172.61 79.81 173.48 78.51 174.21 77.32 M 173.65 98.94 C 174.03 98.60 174.78 97.93 175.16 97.59 C 175.96 93.54 177.54 89.49 180.84 86.81 C 187.00 81.08 197.58 81.57 203.21 87.80 C 206.07 90.47 207.07 94.31 207.97 97.97 L 209.51 98.76 C 209.70 90.11 202.61 82.19 194.08 81.13 C 183.79 79.27 172.88 88.34 173.65 98.94 M 177.10 96.92 C 176.05 102.17 178.65 107.38 182.50 110.83 C 185.12 112.33 187.94 113.76 191.05 113.72 C 197.91 114.11 204.50 108.90 205.79 102.17 C 206.93 97.63 205.16 92.99 202.49 89.35 C 199.39 86.46 195.37 84.33 191.02 84.59 C 184.20 84.68 178.01 90.16 177.10 96.92 Z" />
<path fill="#000000" opacity="1.00" d=" M 141.38 84.65 C 150.25 84.47 159.12 84.46 167.99 84.67 C 167.98 92.89 168.00 101.10 167.98 109.32 C 164.58 109.46 161.17 109.43 157.79 109.02 C 157.59 108.52 157.20 107.52 157.00 107.02 C 156.73 106.03 156.15 105.30 155.23 104.81 C 154.92 104.35 154.30 103.43 153.99 102.97 C 153.77 101.83 153.14 101.17 152.09 100.99 L 152.06 99.84 C 152.07 98.73 151.49 98.03 150.34 97.73 C 150.04 97.25 149.42 96.29 149.11 95.81 C 148.94 94.76 148.35 94.04 147.34 93.66 C 147.00 93.25 146.33 92.44 145.99 92.04 C 145.70 91.06 145.12 90.31 144.25 89.78 C 143.95 89.43 143.34 88.72 143.04 88.37 C 142.47 87.14 141.91 85.90 141.38 84.65 Z" />
<path fill="#000000" opacity="1.00" d=" M 215.00 84.67 C 223.87 84.46 232.74 84.49 241.61 84.65 C 241.08 85.90 240.53 87.14 239.97 88.37 C 239.67 88.73 239.07 89.45 238.77 89.81 C 237.88 90.31 237.29 91.05 237.02 92.02 C 236.67 92.44 235.97 93.28 235.63 93.70 C 234.61 94.08 234.02 94.80 233.87 95.85 C 233.55 96.33 232.92 97.29 232.60 97.77 C 231.50 98.11 230.91 98.82 230.84 99.91 L 230.71 100.93 C 229.31 101.27 228.10 102.41 228.09 103.92 L 227.91 105.03 C 226.84 105.16 226.19 105.79 225.97 106.94 C 225.75 107.47 225.29 108.54 225.07 109.08 C 221.73 109.33 218.38 109.41 215.03 109.31 C 214.99 101.10 215.03 92.88 215.00 84.67 Z" />
<path fill="#000000" opacity="1.00" d=" M 29.87 103.16 C 35.14 101.61 40.27 99.37 45.80 98.93 C 52.28 98.65 58.77 98.76 65.24 98.94 C 75.78 100.30 86.45 103.40 95.22 109.57 C 94.80 109.58 93.96 109.59 93.55 109.60 C 85.05 105.40 75.98 102.18 66.54 100.84 C 59.26 99.53 51.70 99.58 44.40 100.73 C 39.61 101.23 35.29 103.53 31.53 106.45 C 31.50 106.47 31.44 106.52 31.41 106.54 C 30.52 107.24 29.63 107.95 28.76 108.68 C 36.03 109.81 43.27 111.48 50.04 114.42 C 51.06 114.86 52.20 114.78 53.29 114.88 C 53.22 115.43 53.10 116.52 53.03 117.06 C 53.99 118.20 55.08 119.22 56.09 120.31 C 53.41 120.23 51.08 118.94 50.42 116.19 C 42.50 112.94 34.03 111.34 25.61 109.98 L 26.31 109.24 C 27.66 107.83 29.07 106.46 30.66 105.31 C 31.23 104.96 32.37 104.27 32.94 103.92 C 32.17 103.73 30.64 103.35 29.87 103.16 Z" />
<path fill="#000000" opacity="1.00" d=" M 171.76 123.45 C 173.02 122.27 174.39 120.97 176.21 120.81 C 185.15 121.18 194.11 121.04 203.05 120.91 C 205.18 120.88 207.31 121.16 209.39 121.65 C 210.04 122.22 210.65 122.83 211.23 123.48 C 212.83 129.53 211.85 135.84 212.00 142.01 C 211.73 147.85 212.88 153.84 211.17 159.54 C 210.61 160.15 210.03 160.73 209.41 161.28 C 203.71 162.71 197.79 161.73 191.99 161.99 C 185.87 161.84 179.64 162.73 173.63 161.29 C 172.97 160.71 172.34 160.09 171.76 159.44 C 170.43 153.40 171.01 147.17 170.87 141.04 C 171.09 135.18 170.39 129.21 171.76 123.45 M 173.60 143.33 C 173.99 143.05 174.76 142.47 175.15 142.19 C 175.94 138.23 177.38 134.24 180.53 131.54 C 185.90 126.45 194.82 125.85 200.81 130.20 C 205.05 133.02 207.35 137.93 207.88 142.88 C 208.35 142.79 209.30 142.60 209.77 142.50 C 208.99 133.79 201.82 125.98 192.92 125.49 C 182.97 124.40 173.05 133.21 173.60 143.33 M 180.77 133.80 C 174.77 139.91 176.14 150.62 182.90 155.62 C 189.11 159.74 198.18 158.88 202.85 152.85 C 207.39 147.47 206.95 139.19 202.50 133.90 C 196.94 127.75 186.28 127.42 180.77 133.80 Z" />
<path fill="#000000" opacity="1.00" d=" M 97.88 125.99 C 98.39 125.69 99.41 125.09 99.93 124.79 C 105.26 127.01 110.89 128.25 116.56 129.25 C 119.83 130.07 123.30 130.42 126.51 129.14 L 127.69 128.78 C 128.95 130.09 129.81 131.69 130.52 133.35 L 129.02 132.83 C 128.11 132.39 127.33 131.42 126.27 131.47 C 125.88 132.55 126.51 133.65 126.92 134.63 C 121.75 136.11 116.12 136.78 110.84 135.60 C 108.76 134.79 106.53 134.65 104.33 134.95 C 103.39 134.88 101.50 134.75 100.55 134.68 C 100.77 134.57 101.21 134.34 101.43 134.23 C 102.89 134.09 104.35 134.01 105.81 133.99 C 106.67 133.98 108.37 133.98 109.22 133.97 C 110.88 134.36 112.22 131.59 110.53 130.83 C 109.31 130.03 108.04 129.31 106.71 128.71 C 105.88 128.67 105.06 128.67 104.24 128.72 L 104.13 128.66 C 103.40 128.29 102.67 127.91 101.94 127.54 C 100.66 126.84 99.32 126.22 97.88 125.99 Z" />
<path fill="#000000" opacity="1.00" d=" M 141.04 128.80 C 150.06 128.68 159.07 128.70 168.08 128.77 C 168.08 137.16 168.09 145.55 168.07 153.94 C 164.88 153.94 161.69 153.98 158.52 154.26 C 158.40 153.92 158.15 153.25 158.03 152.92 C 157.81 151.77 157.16 151.14 156.07 151.04 L 156.08 149.89 C 156.11 148.80 155.55 148.08 154.42 147.73 C 154.07 147.32 153.36 146.49 153.01 146.08 C 152.72 145.10 152.13 144.35 151.25 143.85 C 150.94 143.40 150.32 142.51 150.01 142.07 C 149.73 141.10 149.17 140.34 148.32 139.80 C 146.99 138.39 145.63 136.83 145.16 134.90 C 144.97 133.85 144.38 133.12 143.38 132.70 C 143.00 132.29 142.23 131.48 141.84 131.07 C 141.64 130.50 141.24 129.36 141.04 128.80 Z" />
<path fill="#000000" opacity="1.00" d=" M 214.93 128.77 C 223.94 128.70 232.95 128.69 241.96 128.78 C 241.76 129.35 241.36 130.50 241.16 131.08 C 240.77 131.48 239.99 132.29 239.59 132.70 C 238.53 133.07 237.94 133.80 237.85 134.86 L 237.71 135.90 C 236.33 136.29 235.11 137.40 235.07 138.91 L 234.89 139.97 C 233.84 140.15 233.21 140.81 233.01 141.95 C 232.66 142.39 231.96 143.26 231.61 143.70 C 230.59 144.08 230.01 144.80 229.87 145.86 C 229.54 146.34 228.90 147.29 228.58 147.76 C 227.44 148.11 226.89 148.83 226.92 149.93 L 226.92 151.02 C 225.82 151.12 225.17 151.74 224.98 152.90 C 224.87 153.24 224.65 153.90 224.55 154.24 C 221.34 153.97 218.13 153.94 214.93 153.95 C 214.90 145.55 214.90 137.16 214.93 128.77 Z" />
<path fill="#000000" opacity="1.00" d=" M 21.64 130.66 C 22.04 130.59 22.83 130.44 23.22 130.37 C 23.18 131.60 23.16 132.82 23.17 134.05 C 21.55 132.55 19.39 130.97 17.55 133.23 C 17.58 132.75 17.64 131.80 17.67 131.32 C 19.00 131.13 20.32 130.91 21.64 130.66 Z" />
<path fill="#000000" opacity="1.00" d=" M 63.86 132.84 C 67.09 130.10 72.00 131.41 74.67 134.31 C 79.98 139.75 81.73 148.39 79.11 155.52 C 80.19 155.76 81.28 156.00 82.37 156.23 C 88.01 157.42 93.86 157.18 99.52 156.27 C 104.75 155.81 109.87 154.58 115.07 153.96 C 115.40 154.15 116.06 154.53 116.38 154.72 C 108.16 157.12 99.59 158.33 91.02 158.19 C 87.63 157.95 85.40 161.33 82.08 161.58 C 77.78 162.03 73.38 162.16 69.09 161.63 C 64.42 160.33 62.27 155.66 60.02 151.83 C 57.15 149.63 53.63 148.47 50.54 146.62 C 51.03 146.47 52.03 146.18 52.53 146.03 C 54.95 146.72 57.20 147.92 59.54 148.87 C 58.69 143.32 59.09 136.59 63.86 132.84 M 65.41 133.28 C 60.01 136.57 59.97 143.59 60.74 149.13 C 61.92 153.69 64.51 158.52 69.11 160.35 C 72.14 161.53 75.56 159.79 77.06 157.05 C 80.60 150.53 79.31 142.06 74.83 136.31 C 72.72 133.56 68.76 131.33 65.41 133.28 Z" />
<path fill="#000000" opacity="1.00" d=" M 67.56 134.60 C 70.89 134.49 73.63 137.11 75.14 139.85 C 77.43 143.62 77.60 148.35 76.42 152.52 C 75.56 155.66 72.52 158.53 69.07 157.75 C 64.06 156.69 61.77 151.06 61.23 146.48 C 60.40 141.84 62.44 135.65 67.56 134.60 M 66.62 136.10 C 66.22 139.03 67.60 143.36 71.35 142.95 C 70.13 140.74 69.28 138.36 69.19 135.82 C 68.55 135.89 67.26 136.03 66.62 136.10 M 62.94 140.83 C 62.61 142.32 62.30 143.81 61.99 145.31 C 63.90 146.32 67.01 145.40 67.93 147.81 C 67.75 149.89 65.09 150.75 64.64 152.82 C 65.49 154.09 66.52 155.20 67.74 156.16 C 66.30 151.56 72.25 148.51 69.92 144.00 C 69.26 144.09 67.93 144.28 67.27 144.37 C 66.55 142.45 64.62 141.68 62.94 140.83 M 72.58 142.02 C 71.82 143.41 75.61 147.76 75.22 144.30 C 75.15 143.11 74.02 140.69 72.58 142.02 M 71.38 144.37 C 71.67 144.65 71.67 144.65 71.38 144.37 M 71.29 148.26 C 71.86 150.31 73.76 147.49 73.22 146.43 C 72.21 145.33 71.13 147.37 71.29 148.26 M 70.45 150.60 C 70.85 152.54 71.31 154.47 71.83 156.39 C 72.71 155.59 73.57 154.79 74.43 153.97 C 73.75 152.67 73.09 151.36 72.45 150.04 C 71.95 150.18 70.95 150.46 70.45 150.60 Z" />
<path fill="#000000" opacity="1.00" d=" M 94.62 139.07 C 95.07 139.11 95.98 139.20 96.43 139.25 C 100.33 139.97 104.29 140.19 108.25 139.94 C 111.12 139.95 113.98 139.88 116.85 139.88 C 118.48 140.12 120.10 140.43 121.73 140.72 C 114.07 141.71 106.37 140.94 98.69 141.00 C 98.98 141.25 99.57 141.75 99.86 142.00 C 100.75 142.80 101.63 143.63 102.53 144.43 L 102.60 144.48 C 104.89 146.24 107.60 147.40 110.38 148.16 C 114.09 149.04 117.95 148.95 121.67 149.78 C 114.55 150.83 106.92 150.20 101.06 145.65 L 100.37 145.96 C 100.22 146.46 99.94 147.45 99.79 147.95 L 98.95 147.29 C 97.33 144.86 96.26 142.08 94.85 139.52 L 94.62 139.07 Z" />
</g>
<g id="#232323b7">
<path fill="#232323" opacity="0.72" d=" M 169.99 40.00 C 169.86 38.00 170.59 36.14 171.74 34.54 C 170.27 40.24 171.22 46.16 171.03 51.96 C 171.20 58.14 170.15 64.45 171.77 70.51 C 170.58 68.90 169.86 66.99 169.99 64.96 C 169.99 56.64 169.99 48.32 169.99 40.00 Z" />
<path fill="#232323" opacity="0.72" d=" M 169.99 128.97 C 169.86 126.95 170.61 125.07 171.76 123.45 C 170.39 129.21 171.09 135.18 170.87 141.04 C 171.01 147.17 170.43 153.40 171.76 159.44 C 170.53 157.88 169.88 155.97 169.99 153.98 C 169.99 145.64 170.00 137.31 169.99 128.97 Z" />
</g>
<g id="#242424b6">
<path fill="#242424" opacity="0.71" d=" M 211.21 34.50 C 212.47 36.05 213.10 37.97 213.00 39.96 C 213.01 48.31 213.01 56.65 213.01 65.00 C 213.10 67.00 212.47 68.92 211.23 70.48 C 212.77 64.77 211.76 58.81 211.98 52.99 C 211.74 46.83 212.84 40.54 211.21 34.50 Z" />
<path fill="#242424" opacity="0.71" d=" M 211.23 123.48 C 212.41 125.06 213.13 126.93 213.01 128.94 C 213.01 137.28 213.01 145.63 213.01 153.98 C 213.10 156.01 212.44 157.97 211.17 159.54 C 212.88 153.84 211.73 147.85 212.00 142.01 C 211.85 135.84 212.83 129.53 211.23 123.48 Z" />
</g>
<g id="#ffffffff">
<path fill="#ffffff" opacity="1.00" d=" M 179.80 40.78 C 186.01 35.23 196.14 35.01 202.59 40.27 C 206.79 43.40 209.06 48.41 209.77 53.50 C 209.30 53.61 208.36 53.82 207.89 53.93 C 207.36 47.45 203.18 41.25 196.87 39.21 C 188.50 35.97 178.11 41.28 175.97 50.01 C 175.37 51.60 175.88 54.53 173.24 53.77 C 173.85 48.85 175.88 43.95 179.80 40.78 Z" />
<path fill="#ffffff" opacity="1.00" d=" M 173.65 98.94 C 172.88 88.34 183.79 79.27 194.08 81.13 C 202.61 82.19 209.70 90.11 209.51 98.76 L 207.97 97.97 C 207.07 94.31 206.07 90.47 203.21 87.80 C 197.58 81.57 187.00 81.08 180.84 86.81 C 177.54 89.49 175.96 93.54 175.16 97.59 C 174.78 97.93 174.03 98.60 173.65 98.94 Z" />
<path fill="#ffffff" opacity="1.00" d=" M 18.33 123.54 C 18.52 123.46 18.89 123.30 19.07 123.22 C 19.46 123.21 20.25 123.20 20.65 123.20 L 21.44 123.05 C 20.00 124.45 19.88 126.39 19.78 128.27 C 19.26 127.16 18.75 126.06 18.23 124.96 C 18.26 124.60 18.31 123.90 18.33 123.54 Z" />
<path fill="#ffffff" opacity="1.00" d=" M 88.22 126.47 C 90.11 126.22 92.01 126.06 93.91 125.98 C 95.50 127.18 98.67 127.96 98.50 130.31 C 95.88 131.83 92.84 130.50 90.43 129.23 C 89.65 128.34 88.92 127.42 88.22 126.47 Z" />
<path fill="#ffffff" opacity="1.00" d=" M 173.60 143.33 C 173.05 133.21 182.97 124.40 192.92 125.49 C 201.82 125.98 208.99 133.79 209.77 142.50 C 209.30 142.60 208.35 142.79 207.88 142.88 C 207.35 137.93 205.05 133.02 200.81 130.20 C 194.82 125.85 185.90 126.45 180.53 131.54 C 177.38 134.24 175.94 138.23 175.15 142.19 C 174.76 142.47 173.99 143.05 173.60 143.33 Z" />
<path fill="#ffffff" opacity="1.00" d=" M 100.43 128.80 C 101.66 128.71 102.90 128.66 104.13 128.66 L 104.24 128.72 C 105.09 129.76 105.91 130.83 106.71 131.92 C 106.03 131.97 104.66 132.06 103.98 132.11 C 102.52 131.64 101.12 130.98 99.79 130.22 L 100.43 128.80 Z" />
<path fill="#ffffff" opacity="1.00" d=" M 65.41 133.28 C 68.76 131.33 72.72 133.56 74.83 136.31 C 79.31 142.06 80.60 150.53 77.06 157.05 C 75.56 159.79 72.14 161.53 69.11 160.35 C 64.51 158.52 61.92 153.69 60.74 149.13 C 59.97 143.59 60.01 136.57 65.41 133.28 M 67.56 134.60 C 62.44 135.65 60.40 141.84 61.23 146.48 C 61.77 151.06 64.06 156.69 69.07 157.75 C 72.52 158.53 75.56 155.66 76.42 152.52 C 77.60 148.35 77.43 143.62 75.14 139.85 C 73.63 137.11 70.89 134.49 67.56 134.60 Z" />
<path fill="#ffffff" opacity="1.00" d=" M 62.94 140.83 C 64.62 141.68 66.55 142.45 67.27 144.37 C 67.93 144.28 69.26 144.09 69.92 144.00 C 72.25 148.51 66.30 151.56 67.74 156.16 C 66.52 155.20 65.49 154.09 64.64 152.82 C 65.09 150.75 67.75 149.89 67.93 147.81 C 67.01 145.40 63.90 146.32 61.99 145.31 C 62.30 143.81 62.61 142.32 62.94 140.83 Z" />
<path fill="#ffffff" opacity="1.00" d=" M 72.58 142.02 C 74.02 140.69 75.15 143.11 75.22 144.30 C 75.61 147.76 71.82 143.41 72.58 142.02 Z" />
<path fill="#ffffff" opacity="1.00" d=" M 71.29 148.26 C 71.13 147.37 72.21 145.33 73.22 146.43 C 73.76 147.49 71.86 150.31 71.29 148.26 Z" />
<path fill="#ffffff" opacity="1.00" d=" M 70.45 150.60 C 70.95 150.46 71.95 150.18 72.45 150.04 C 73.09 151.36 73.75 152.67 74.43 153.97 C 73.57 154.79 72.71 155.59 71.83 156.39 C 71.31 154.47 70.85 152.54 70.45 150.60 Z" />
</g>
<g id="#24242463">
<path fill="#242424" opacity="0.39" d=" M 139.65 39.03 C 149.32 39.00 159.01 38.80 168.69 39.16 C 168.82 47.99 168.76 56.83 168.70 65.67 C 164.71 65.12 158.81 67.73 156.74 62.94 C 159.73 65.98 164.14 65.18 167.98 65.20 C 168.02 56.81 167.98 48.41 168.00 40.02 C 159.01 39.99 150.03 40.00 141.04 40.01 C 141.27 40.59 141.72 41.74 141.95 42.32 C 140.83 41.49 139.99 40.39 139.65 39.03 Z" />
</g>
<g id="#24242462">
<path fill="#242424" opacity="0.38" d=" M 214.29 39.17 C 223.97 38.76 233.67 39.04 243.35 39.03 C 242.99 40.32 242.18 41.36 241.24 42.29 C 241.42 41.72 241.78 40.58 241.96 40.01 C 232.97 40.00 223.98 39.99 215.00 40.02 C 215.01 48.41 214.96 56.80 215.01 65.19 C 217.66 65.21 220.33 65.40 222.97 65.01 C 224.57 64.26 225.74 62.86 227.08 61.75 C 226.34 63.28 225.46 65.01 223.73 65.61 C 220.60 65.95 217.43 65.68 214.29 65.68 C 214.24 56.84 214.16 48.00 214.29 39.17 Z" />
</g>
<g id="#ff3f3eff">
<path fill="#ff3f3e" opacity="1.00" d=" M 177.20 51.89 C 178.38 45.08 185.01 39.72 191.94 40.16 C 195.97 40.08 199.56 42.22 202.44 44.86 C 193.45 49.35 186.27 57.14 182.92 66.66 C 178.64 63.16 175.91 57.45 177.20 51.89 Z" />
</g>
<g id="#202020b6">
<path fill="#202020" opacity="0.71" d=" M 237.83 45.94 C 238.00 44.89 238.58 44.15 239.58 43.74 C 240.09 45.43 239.50 46.16 237.83 45.94 Z" />
</g>
<g id="#af1b1bff">
<path fill="#af1b1b" opacity="1.00" d=" M 202.44 44.86 C 206.95 50.16 207.41 58.45 202.86 63.87 C 198.21 69.90 189.11 70.81 182.92 66.66 C 186.27 57.14 193.45 49.35 202.44 44.86 Z" />
</g>
<g id="#19191981">
<path fill="#191919" opacity="0.51" d=" M 145.47 46.70 C 146.49 47.55 147.82 48.41 147.90 49.89 C 146.30 50.77 144.42 48.07 145.47 46.70 Z" />
</g>
<g id="#1d1d1d4c">
<path fill="#1d1d1d" opacity="0.30" d=" M 148.10 50.99 C 149.14 51.17 149.78 51.83 149.99 52.97 C 148.35 53.29 147.72 52.63 148.10 50.99 Z" />
</g>
<g id="#1f1f1f4d">
<path fill="#1f1f1f" opacity="0.30" d=" M 233.01 53.05 C 233.28 52.08 233.85 51.32 234.70 50.77 C 235.34 52.52 234.78 53.28 233.01 53.05 Z" />
</g>
<g id="#1f1f1fab">
<path fill="#1f1f1f" opacity="0.67" d=" M 151.41 54.72 C 152.42 55.11 152.99 55.83 153.14 56.89 C 151.46 57.11 150.88 56.39 151.41 54.72 Z" />
</g>
<g id="#1f1f1fad">
<path fill="#1f1f1f" opacity="0.68" d=" M 229.87 56.89 C 230.03 55.84 230.61 55.11 231.62 54.71 C 232.12 56.40 231.53 57.12 229.87 56.89 Z" />
</g>
<g id="#1f1f1fb6">
<path fill="#1f1f1f" opacity="0.71" d=" M 154.39 58.74 C 155.42 59.10 156.00 59.81 156.13 60.88 C 154.47 61.11 153.89 60.40 154.39 58.74 Z" />
</g>
<g id="#1f1f1fb7">
<path fill="#1f1f1f" opacity="0.72" d=" M 226.98 60.91 C 226.84 59.80 227.37 59.09 228.56 58.77 C 229.08 60.32 228.55 61.04 226.98 60.91 Z" />
</g>
<g id="#111111b4">
<path fill="#111111" opacity="0.71" d=" M 193.04 73.20 C 198.54 73.14 204.15 73.68 209.52 72.19 C 207.94 73.46 205.97 74.08 203.95 74.00 C 196.30 74.05 188.64 73.94 180.99 74.03 C 179.05 74.00 177.00 74.18 175.29 73.09 C 181.21 73.28 187.12 73.22 193.04 73.20 Z" />
</g>
<g id="#17171753">
<path fill="#171717" opacity="0.33" d=" M 176.38 75.98 C 176.77 75.78 177.56 75.38 177.96 75.17 C 187.35 74.90 196.76 75.20 206.17 75.08 L 206.19 76.06 C 196.26 75.81 186.32 76.00 176.38 75.98 Z" />
</g>
<g id="#0000001c">
<path fill="#000000" opacity="0.11" d=" M 68.99 79.12 C 68.66 76.92 71.81 77.27 73.15 76.76 C 72.84 78.12 73.46 80.23 71.68 80.77 C 70.61 81.59 68.49 80.57 68.99 79.12 Z" />
</g>
<g id="#1c1c1c7f">
<path fill="#1c1c1c" opacity="0.50" d=" M 171.12 80.06 C 170.38 78.49 172.73 76.39 174.21 77.32 C 173.48 78.51 172.61 79.81 171.12 80.06 Z" />
</g>
<g id="#1b1b1b80">
<path fill="#1b1b1b" opacity="0.50" d=" M 208.81 77.32 C 210.29 76.40 212.60 78.50 211.90 80.07 C 210.39 79.83 209.53 78.52 208.81 77.32 Z" />
<path fill="#1b1b1b" opacity="0.50" d=" M 114.43 153.56 C 118.63 152.52 122.71 150.95 127.00 150.25 C 123.87 152.46 120.15 154.22 116.38 154.72 C 116.06 154.53 115.40 154.15 115.07 153.96 L 114.43 153.56 Z" />
</g>
<g id="#242424c8">
<path fill="#242424" opacity="0.78" d=" M 169.97 86.97 C 170.00 84.77 169.79 82.39 171.11 80.48 C 170.98 91.49 170.85 102.50 171.09 113.50 C 170.33 112.10 169.91 110.54 169.99 108.94 C 169.97 101.62 170.04 94.29 169.97 86.97 Z" />
</g>
<g id="#272727c6">
<path fill="#272727" opacity="0.78" d=" M 211.93 80.59 C 212.76 81.89 213.06 83.41 213.01 84.94 C 213.03 92.30 212.96 99.65 213.03 107.00 C 213.01 109.20 213.17 111.56 211.92 113.50 C 212.04 102.53 212.07 91.55 211.93 80.59 Z" />
</g>
<g id="#1919199c">
<path fill="#191919" opacity="0.61" d=" M 139.74 83.99 C 149.40 83.99 159.08 83.68 168.74 84.15 C 169.14 92.72 169.16 101.30 168.69 109.86 C 165.15 109.70 160.84 111.21 157.79 109.02 C 161.17 109.43 164.58 109.46 167.98 109.32 C 168.00 101.10 167.98 92.89 167.99 84.67 C 159.12 84.46 150.25 84.47 141.38 84.65 C 141.91 85.90 142.47 87.14 143.04 88.37 C 141.75 87.06 140.70 85.55 139.74 83.99 Z" />
</g>
<g id="#1919199d">
<path fill="#191919" opacity="0.62" d=" M 214.10 84.22 C 223.80 83.58 233.55 84.06 243.28 83.96 C 242.31 85.53 241.28 87.07 239.97 88.37 C 240.53 87.14 241.08 85.90 241.61 84.65 C 232.74 84.49 223.87 84.46 215.00 84.67 C 215.03 92.88 214.99 101.10 215.03 109.31 C 218.38 109.41 221.73 109.33 225.07 109.08 L 225.02 109.90 C 221.38 110.15 217.71 110.21 214.08 109.77 C 213.96 101.25 213.94 92.73 214.10 84.22 Z" />
</g>
<g id="#fbd42fff">
<path fill="#fbd42f" opacity="1.00" d=" M 177.10 96.92 C 178.01 90.16 184.20 84.68 191.02 84.59 C 195.37 84.33 199.39 86.46 202.49 89.35 C 198.04 91.76 193.77 94.63 190.42 98.48 C 187.02 102.08 185.30 106.81 182.50 110.83 C 178.65 107.38 176.05 102.17 177.10 96.92 Z" />
</g>
<g id="#1e1e1e50">
<path fill="#1e1e1e" opacity="0.31" d=" M 144.25 89.78 C 145.12 90.31 145.70 91.06 145.99 92.04 C 144.23 92.28 143.65 91.53 144.25 89.78 Z" />
</g>
<g id="#d3aa00ff">
<path fill="#d3aa00" opacity="1.00" d=" M 190.42 98.48 C 193.77 94.63 198.04 91.76 202.49 89.35 C 205.16 92.99 206.93 97.63 205.79 102.17 C 204.50 108.90 197.91 114.11 191.05 113.72 C 187.94 113.76 185.12 112.33 182.50 110.83 C 185.30 106.81 187.02 102.08 190.42 98.48 Z" />
</g>
<g id="#20202051">
<path fill="#202020" opacity="0.32" d=" M 237.02 92.02 C 237.29 91.05 237.88 90.31 238.77 89.81 C 239.35 91.56 238.77 92.30 237.02 92.02 Z" />
</g>
<g id="#1f1f1faf">
<path fill="#1f1f1f" opacity="0.69" d=" M 147.34 93.66 C 148.35 94.04 148.94 94.76 149.11 95.81 C 147.44 96.06 146.85 95.34 147.34 93.66 Z" />
</g>
<g id="#1d1d1db1">
<path fill="#1d1d1d" opacity="0.69" d=" M 233.87 95.85 C 234.02 94.80 234.61 94.08 235.63 93.70 C 236.11 95.39 235.53 96.11 233.87 95.85 Z" />
</g>
<g id="#19191989">
<path fill="#191919" opacity="0.54" d=" M 45.80 98.93 C 52.12 97.51 58.93 97.49 65.24 98.94 C 58.77 98.76 52.28 98.65 45.80 98.93 Z" />
</g>
<g id="#1e1e1eba">
<path fill="#1e1e1e" opacity="0.73" d=" M 150.34 97.73 C 151.49 98.03 152.07 98.73 152.06 99.84 C 150.47 100.05 149.90 99.35 150.34 97.73 Z" />
<path fill="#1e1e1e" opacity="0.73" d=" M 230.84 99.91 C 230.91 98.82 231.50 98.11 232.60 97.77 C 233.07 99.39 232.48 100.10 230.84 99.91 Z" />
</g>
<g id="#1111114c">
<path fill="#111111" opacity="0.30" d=" M 44.40 100.73 C 51.70 99.58 59.26 99.53 66.54 100.84 C 59.16 100.78 51.77 100.94 44.40 100.73 Z" />
</g>
<g id="#1e1e1e46">
<path fill="#1e1e1e" opacity="0.27" d=" M 152.09 100.99 C 153.14 101.17 153.77 101.83 153.99 102.97 C 152.32 103.27 151.69 102.61 152.09 100.99 Z" />
</g>
<g id="#1a1a1a85">
<path fill="#1a1a1a" opacity="0.52" d=" M 228.09 103.92 C 228.10 102.41 229.31 101.27 230.71 100.93 C 231.40 102.29 229.55 104.60 228.09 103.92 Z" />
</g>
<g id="#1f1f1f66">
<path fill="#1f1f1f" opacity="0.40" d=" M 51.51 104.96 C 50.37 104.84 49.14 102.32 50.90 102.29 C 52.17 102.40 52.70 104.40 51.51 104.96 Z" />
</g>
<g id="#5f5f5fff">
<path fill="#5f5f5f" opacity="1.00" d=" M 53.24 103.63 C 54.71 101.42 57.54 103.70 58.28 105.28 L 58.06 105.75 C 57.06 105.12 56.19 104.32 55.45 103.38 C 54.90 103.44 53.79 103.57 53.24 103.63 Z" />
<path fill="#5f5f5f" opacity="1.00" d=" M 21.44 123.05 C 22.21 124.30 23.02 125.57 23.37 127.03 C 23.34 127.86 23.26 129.54 23.22 130.37 C 22.83 130.44 22.04 130.59 21.64 130.66 C 19.66 129.34 16.94 127.85 18.23 124.96 C 18.75 126.06 19.26 127.16 19.78 128.27 C 19.88 126.39 20.00 124.45 21.44 123.05 Z" />
<path fill="#5f5f5f" opacity="1.00" d=" M 140.00 128.63 C 149.44 128.51 158.89 128.58 168.34 128.58 C 168.30 137.20 168.32 145.81 168.32 154.42 C 165.05 154.45 161.78 154.55 158.52 154.26 C 161.69 153.98 164.88 153.94 168.07 153.94 C 168.09 145.55 168.08 137.16 168.08 128.77 C 159.07 128.70 150.06 128.68 141.04 128.80 C 141.24 129.36 141.64 130.50 141.84 131.07 C 141.21 130.26 140.60 129.45 140.00 128.63 Z" />
<path fill="#5f5f5f" opacity="1.00" d=" M 214.66 128.59 C 224.10 128.57 233.54 128.53 242.97 128.61 C 242.38 129.44 241.77 130.26 241.16 131.08 C 241.36 130.50 241.76 129.35 241.96 128.78 C 232.95 128.69 223.94 128.70 214.93 128.77 C 214.90 137.16 214.90 145.55 214.93 153.95 C 218.13 153.94 221.34 153.97 224.55 154.24 C 221.26 154.56 217.96 154.45 214.67 154.42 C 214.67 145.81 214.69 137.20 214.66 128.59 Z" />
</g>
<g id="#1c1c1c92">
<path fill="#1c1c1c" opacity="0.57" d=" M 24.49 106.43 C 26.22 105.23 28.02 104.15 29.87 103.16 C 30.64 103.35 32.17 103.73 32.94 103.92 C 32.37 104.27 31.23 104.96 30.66 105.31 C 29.05 105.77 27.45 106.24 25.80 106.53 C 25.47 106.51 24.82 106.46 24.49 106.43 Z" />
</g>
<g id="#13131338">
<path fill="#131313" opacity="0.22" d=" M 25.80 106.53 C 27.45 106.24 29.05 105.77 30.66 105.31 C 29.07 106.46 27.66 107.83 26.31 109.24 C 25.19 108.46 24.11 107.58 23.49 106.34 L 24.49 106.43 C 24.82 106.46 25.47 106.51 25.80 106.53 Z" />
</g>
<g id="#121212ff">
<path fill="#121212" opacity="1.00" d=" M 53.16 106.08 C 52.80 104.97 55.00 104.19 55.10 105.89 C 56.94 107.69 58.65 109.60 60.28 111.59 C 59.69 111.40 58.52 111.01 57.93 110.81 C 56.18 109.41 54.74 107.66 53.16 106.08 Z" />
<path fill="#121212" opacity="1.00" d=" M 63.00 111.46 C 62.41 109.75 59.13 108.16 59.78 106.57 C 61.48 107.33 62.91 108.57 64.46 109.59 C 65.67 111.68 67.42 113.72 70.02 113.87 C 80.11 114.37 90.27 113.38 100.32 114.82 C 98.38 112.69 95.80 111.35 93.55 109.60 C 93.96 109.59 94.80 109.58 95.22 109.57 C 98.59 110.81 100.41 114.53 103.99 115.45 C 105.12 116.04 106.40 116.19 107.66 116.11 C 114.17 116.68 121.24 118.35 126.18 122.89 L 125.60 122.93 C 114.97 117.59 102.91 116.68 91.23 115.85 C 83.85 114.83 76.39 115.36 68.97 115.10 C 67.48 114.97 65.41 114.22 65.27 112.49 C 65.14 111.34 64.25 110.45 63.36 109.81 C 63.27 110.22 63.09 111.04 63.00 111.44 L 63.00 111.46 Z" />
<path fill="#121212" opacity="1.00" d=" M 32.96 116.69 C 36.61 118.07 40.18 119.89 43.11 122.51 C 44.23 123.68 45.38 124.81 46.58 125.90 C 49.26 128.79 51.35 132.41 52.10 136.30 C 51.92 136.62 51.55 137.25 51.37 137.56 C 49.53 132.79 47.14 128.07 43.23 124.65 C 40.44 121.90 36.87 120.23 33.63 118.15 L 32.96 116.69 Z" />
<path fill="#121212" opacity="1.00" d=" M 60.40 123.21 C 66.09 122.61 72.39 122.17 77.41 125.46 C 81.75 128.29 85.19 133.02 85.94 138.17 C 86.17 138.64 86.63 139.58 86.86 140.05 C 86.93 140.86 87.07 142.46 87.14 143.27 C 86.91 143.76 86.46 144.75 86.24 145.25 C 85.26 136.53 80.76 126.69 71.36 124.66 C 67.73 124.03 64.03 123.89 60.40 123.21 Z" />
<path fill="#121212" opacity="1.00" d=" M 94.46 123.19 C 96.26 123.78 98.09 124.29 99.93 124.79 C 99.41 125.09 98.39 125.69 97.88 125.99 C 97.67 126.12 97.26 126.38 97.05 126.51 C 98.15 128.09 100.33 128.93 101.94 127.54 C 102.67 127.91 103.40 128.29 104.13 128.66 C 102.90 128.66 101.66 128.71 100.43 128.80 L 99.79 130.22 C 98.91 131.19 97.95 132.09 97.01 133.00 C 98.71 132.94 100.42 132.88 102.12 132.73 L 101.43 134.23 C 101.21 134.34 100.77 134.57 100.55 134.68 C 96.93 134.35 93.39 133.36 89.81 132.70 C 91.14 132.59 92.46 132.49 93.79 132.39 C 92.65 131.35 91.47 130.37 90.43 129.23 C 92.84 130.50 95.88 131.83 98.50 130.31 C 98.67 127.96 95.50 127.18 93.91 125.98 L 94.15 125.71 C 94.27 124.87 94.37 124.03 94.46 123.19 Z" />
<path fill="#121212" opacity="1.00" d=" M 23.37 127.03 C 24.15 129.81 23.79 132.72 24.25 135.53 C 27.89 136.91 31.66 137.95 35.30 139.35 C 34.74 139.59 33.62 140.07 33.06 140.31 C 31.72 139.89 30.38 139.49 29.03 139.09 C 26.26 140.41 23.21 140.78 20.31 139.64 C 22.34 138.45 23.63 136.48 23.17 134.05 C 23.16 132.82 23.18 131.60 23.22 130.37 C 23.26 129.54 23.34 127.86 23.37 127.03 Z" />
</g>
<g id="#1f1f1f51">
<path fill="#1f1f1f" opacity="0.32" d=" M 155.23 104.81 C 156.15 105.30 156.73 106.03 157.00 107.02 C 155.24 107.28 154.66 106.54 155.23 104.81 Z" />
</g>
<g id="#1e1e1e52">
<path fill="#1e1e1e" opacity="0.32" d=" M 225.97 106.94 C 226.19 105.79 226.84 105.16 227.91 105.03 C 228.24 106.67 227.59 107.31 225.97 106.94 Z" />
</g>
<g id="#3030307a">
<path fill="#303030" opacity="0.48" d=" M 31.41 106.54 C 31.44 106.52 31.50 106.47 31.53 106.45 C 31.50 106.47 31.44 106.52 31.41 106.54 Z" />
</g>
<g id="#161616cc">
<path fill="#161616" opacity="0.80" d=" M 21.13 110.19 C 20.23 109.52 20.14 107.17 21.76 107.71 C 23.22 108.42 23.66 110.53 22.97 111.90 C 22.46 111.21 21.85 110.64 21.13 110.19 Z" />
</g>
<g id="#1818185f">
<path fill="#181818" opacity="0.37" d=" M 21.13 110.19 C 21.85 110.64 22.46 111.21 22.97 111.90 C 22.33 113.23 21.40 113.51 20.17 112.74 C 20.16 112.33 20.14 111.52 20.12 111.12 C 20.38 110.88 20.88 110.42 21.13 110.19 Z" />
</g>
<g id="#101010c3">
<path fill="#101010" opacity="0.76" d=" M 63.36 109.81 C 64.25 110.45 65.14 111.34 65.27 112.49 C 64.83 112.46 63.97 112.40 63.54 112.37 L 63.00 111.44 C 63.09 111.04 63.27 110.22 63.36 109.81 Z" />
</g>
<g id="#1f1f1f84">
<path fill="#1f1f1f" opacity="0.52" d=" M 17.28 116.20 C 17.82 114.36 16.98 109.83 20.12 111.12 C 20.14 111.52 20.16 112.33 20.17 112.74 C 19.42 114.05 18.44 115.22 17.28 116.20 Z" />
</g>
<g id="#111111dd">
<path fill="#111111" opacity="0.87" d=" M 57.93 110.81 C 58.52 111.01 59.69 111.40 60.28 111.59 C 60.31 111.60 60.36 111.63 60.39 111.64 C 61.49 112.94 62.35 114.41 63.26 115.85 C 65.72 116.34 68.19 116.81 70.66 117.24 C 69.43 117.58 68.19 117.90 66.94 118.18 C 65.08 118.15 63.23 117.96 61.37 117.83 L 61.19 117.06 C 60.83 114.66 59.09 112.85 57.93 110.81 Z" />
</g>
<g id="#2222223b">
<path fill="#222222" opacity="0.23" d=" M 60.28 111.59 C 60.31 111.60 60.36 111.63 60.39 111.64 C 60.36 111.63 60.31 111.60 60.28 111.59 Z" />
</g>
<g id="#19191961">
<path fill="#191919" opacity="0.38" d=" M 50.04 114.42 C 50.41 111.94 56.04 112.81 53.29 114.88 C 52.20 114.78 51.06 114.86 50.04 114.42 Z" />
</g>
<g id="#1c1c1c7b">
<path fill="#1c1c1c" opacity="0.48" d=" M 171.11 113.96 C 172.59 114.23 173.46 115.50 174.24 116.67 C 172.76 117.65 170.36 115.54 171.11 113.96 Z" />
</g>
<g id="#1c1c1c7c">
<path fill="#1c1c1c" opacity="0.49" d=" M 208.81 116.66 C 209.55 115.48 210.40 114.17 211.90 113.92 C 212.68 115.48 210.29 117.56 208.81 116.66 Z" />
</g>
<g id="#1d1d1d80">
<path fill="#1d1d1d" opacity="0.50" d=" M 27.75 115.09 C 29.44 115.45 31.90 115.02 32.96 116.69 L 33.63 118.15 C 31.35 117.84 29.36 116.68 27.75 115.09 Z" />
</g>
<g id="#171717a2">
<path fill="#171717" opacity="0.64" d=" M 68.97 115.10 C 76.39 115.36 83.85 114.83 91.23 115.85 C 83.78 115.97 76.33 115.73 68.88 115.80 L 68.97 115.10 Z" />
</g>
<g id="#1c1c1c78">
<path fill="#1c1c1c" opacity="0.47" d=" M 103.99 115.45 C 104.77 114.17 107.99 114.24 107.66 116.11 C 106.40 116.19 105.12 116.04 103.99 115.45 Z" />
</g>
<g id="#090909eb">
<path fill="#090909" opacity="0.92" d=" M 18.93 117.40 C 20.06 117.08 21.39 116.69 22.33 117.68 C 25.61 120.38 26.69 124.86 27.14 128.91 C 27.15 130.78 27.09 132.73 26.20 134.44 C 26.18 133.76 26.14 132.39 26.11 131.71 C 26.23 130.45 25.85 129.24 25.38 128.09 C 24.15 124.72 23.95 120.46 20.61 118.35 C 20.19 118.11 19.35 117.63 18.93 117.40 Z" />
</g>
<g id="#1b1b1b85">
<path fill="#1b1b1b" opacity="0.52" d=" M 53.03 117.06 C 55.59 118.70 58.55 118.19 61.19 117.06 L 61.37 117.83 C 60.47 119.96 58.03 120.01 56.09 120.31 C 55.08 119.22 53.99 118.20 53.03 117.06 Z" />
</g>
<g id="#19191976">
<path fill="#191919" opacity="0.46" d=" M 70.66 117.24 C 72.32 117.73 73.82 118.58 75.06 119.79 C 72.30 119.60 69.56 119.10 66.94 118.18 C 68.19 117.90 69.43 117.58 70.66 117.24 Z" />
</g>
<g id="#20202066">
<path fill="#202020" opacity="0.40" d=" M 16.54 120.62 C 16.00 119.22 17.52 117.52 18.93 117.40 C 19.35 117.63 20.19 118.11 20.61 118.35 C 19.31 119.08 17.99 120.41 16.54 120.62 Z" />
</g>
<g id="#1919194d">
<path fill="#191919" opacity="0.30" d=" M 176.39 118.00 C 186.31 117.98 196.23 118.13 206.14 117.93 L 206.14 119.05 C 197.76 119.14 189.38 118.99 181.00 119.10 C 179.42 119.02 177.58 119.31 176.39 118.00 Z" />
</g>
<g id="#272727bd">
<path fill="#272727" opacity="0.74" d=" M 175.23 120.40 C 182.79 119.56 190.42 120.20 198.01 119.99 C 201.82 120.14 206.07 119.27 209.39 121.65 C 207.31 121.16 205.18 120.88 203.05 120.91 C 194.11 121.04 185.15 121.18 176.21 120.81 L 175.23 120.40 Z" />
</g>
<g id="#20202090">
<path fill="#202020" opacity="0.56" d=" M 19.13 122.36 L 19.97 121.95 C 20.14 122.26 20.48 122.89 20.65 123.20 C 20.25 123.20 19.46 123.21 19.07 123.22 L 19.13 122.36 Z" />
</g>
<g id="#12121232">
<path fill="#121212" opacity="0.20" d=" M 43.11 122.51 C 45.08 120.95 48.08 123.90 46.58 125.90 C 45.38 124.81 44.23 123.68 43.11 122.51 Z" />
</g>
<g id="#16161651">
<path fill="#161616" opacity="0.32" d=" M 55.99 125.64 C 56.62 123.88 58.63 122.97 60.40 123.21 C 64.03 123.89 67.73 124.03 71.36 124.66 C 66.21 124.39 61.08 124.88 55.99 125.64 Z" />
</g>
<g id="#151515b1">
<path fill="#151515" opacity="0.69" d=" M 82.80 125.82 C 85.65 122.46 90.50 122.79 94.46 123.19 C 94.37 124.03 94.27 124.87 94.15 125.71 C 92.76 125.21 91.36 124.71 89.97 124.22 C 89.73 124.32 89.25 124.54 89.01 124.64 C 86.99 125.26 84.89 125.55 82.80 125.82 Z" />
</g>
<g id="#22222273">
<path fill="#222222" opacity="0.45" d=" M 125.60 122.93 L 126.18 122.89 C 127.45 122.91 129.01 124.38 128.50 125.68 C 127.12 126.13 124.91 124.40 125.60 122.93 Z" />
</g>
<g id="#7b7b7bff">
<path fill="#7b7b7b" opacity="1.00" d=" M 20.31 139.64 C 16.45 135.60 14.71 128.11 18.33 123.54 C 18.31 123.90 18.26 124.60 18.23 124.96 C 16.94 127.85 19.66 129.34 21.64 130.66 C 20.32 130.91 19.00 131.13 17.67 131.32 C 17.64 131.80 17.58 132.75 17.55 133.23 C 19.39 130.97 21.55 132.55 23.17 134.05 C 23.63 136.48 22.34 138.45 20.31 139.64 Z" />
</g>
<g id="#2e2e2ea1">
<path fill="#2e2e2e" opacity="0.63" d=" M 89.01 124.64 C 89.25 124.54 89.73 124.32 89.97 124.22 C 91.36 124.71 92.76 125.21 94.15 125.71 L 93.91 125.98 C 92.01 126.06 90.11 126.22 88.22 126.47 C 88.92 127.42 89.65 128.34 90.43 129.23 C 91.47 130.37 92.65 131.35 93.79 132.39 C 92.46 132.49 91.14 132.59 89.81 132.70 L 88.88 132.78 C 89.23 132.28 89.91 131.27 90.26 130.76 C 88.27 129.28 86.86 126.75 89.01 124.64 Z" />
</g>
<g id="#0a0a0a2d">
<path fill="#0a0a0a" opacity="0.18" d=" M 97.05 126.51 C 97.26 126.38 97.67 126.12 97.88 125.99 C 99.32 126.22 100.66 126.84 101.94 127.54 C 100.33 128.93 98.15 128.09 97.05 126.51 Z" />
</g>
<g id="#21212191">
<path fill="#212121" opacity="0.57" d=" M 127.08 128.10 C 128.00 127.69 128.92 127.28 129.84 126.88 C 130.09 129.03 130.30 131.19 130.52 133.35 C 129.81 131.69 128.95 130.09 127.69 128.78 L 127.08 128.10 Z" />
</g>
<g id="#1e1e1e72">
<path fill="#1e1e1e" opacity="0.45" d=" M 25.38 128.09 C 25.85 129.24 26.23 130.45 26.11 131.71 C 24.24 132.09 24.04 128.85 25.38 128.09 Z" />
</g>
<g id="#1f1f1faa">
<path fill="#1f1f1f" opacity="0.67" d=" M 104.24 128.72 C 105.06 128.67 105.88 128.67 106.71 128.71 C 106.96 129.36 107.47 130.65 107.73 131.30 C 107.09 132.19 106.45 133.09 105.81 133.99 C 104.35 134.01 102.89 134.09 101.43 134.23 L 102.12 132.73 C 102.59 132.57 103.52 132.26 103.98 132.11 C 104.66 132.06 106.03 131.97 106.71 131.92 C 105.91 130.83 105.09 129.76 104.24 128.72 Z" />
<path fill="#1f1f1f" opacity="0.67" d=" M 229.87 145.86 C 230.01 144.80 230.59 144.08 231.61 143.70 C 232.11 145.39 231.53 146.11 229.87 145.86 Z" />
</g>
<g id="#1b1b1b6f">
<path fill="#1b1b1b" opacity="0.44" d=" M 27.14 128.91 C 27.44 130.45 27.76 132.00 28.09 133.54 C 29.69 134.16 31.19 134.97 32.52 136.06 C 30.31 135.85 28.13 135.46 25.97 135.01 L 26.20 134.44 C 27.09 132.73 27.15 130.78 27.14 128.91 Z" />
</g>
<g id="#0808081a">
<path fill="#080808" opacity="0.10" d=" M 106.71 128.71 C 108.04 129.31 109.31 130.03 110.53 130.83 C 109.77 131.74 109.33 132.78 109.22 133.97 C 108.37 133.98 106.67 133.98 105.81 133.99 C 106.45 133.09 107.09 132.19 107.73 131.30 C 107.47 130.65 106.96 129.36 106.71 128.71 Z" />
</g>
<g id="#161616a1">
<path fill="#161616" opacity="0.63" d=" M 116.56 129.25 C 119.87 129.06 123.19 129.07 126.51 129.14 C 123.30 130.42 119.83 130.07 116.56 129.25 Z" />
</g>
<g id="#01ad7bff">
<path fill="#01ad7b" opacity="1.00" d=" M 180.77 133.80 C 186.28 127.42 196.94 127.75 202.50 133.90 C 193.35 138.14 186.37 146.21 182.90 155.62 C 176.14 150.62 174.77 139.91 180.77 133.80 Z" />
</g>
<g id="#20202098">
<path fill="#202020" opacity="0.60" d=" M 110.53 130.83 C 112.22 131.59 110.88 134.36 109.22 133.97 C 109.33 132.78 109.77 131.74 110.53 130.83 Z" />
</g>
<g id="#323232da">
<path fill="#323232" opacity="0.85" d=" M 126.27 131.47 C 127.33 131.42 128.11 132.39 129.02 132.83 C 128.83 134.03 128.13 134.63 126.92 134.63 C 126.51 133.65 125.88 132.55 126.27 131.47 Z" />
</g>
<g id="#1f1f1fb3">
<path fill="#1f1f1f" opacity="0.70" d=" M 143.38 132.70 C 144.38 133.12 144.97 133.85 145.16 134.90 C 143.48 135.13 142.89 134.40 143.38 132.70 Z" />
</g>
<g id="#007a63ff">
<path fill="#007a63" opacity="1.00" d=" M 202.50 133.90 C 206.95 139.19 207.39 147.47 202.85 152.85 C 198.18 158.88 189.11 159.74 182.90 155.62 C 186.37 146.21 193.35 138.14 202.50 133.90 Z" />
</g>
<g id="#1616169b">
<path fill="#161616" opacity="0.61" d=" M 104.33 134.95 C 106.53 134.65 108.76 134.79 110.84 135.60 C 109.06 136.54 105.29 136.96 104.33 134.95 Z" />
</g>
<g id="#1919198b">
<path fill="#191919" opacity="0.55" d=" M 116.85 139.88 C 121.86 139.11 127.15 138.64 130.99 134.92 C 130.37 136.25 130.20 138.08 128.72 138.79 C 126.40 139.48 124.13 140.38 121.73 140.72 C 120.10 140.43 118.48 140.12 116.85 139.88 Z" />
</g>
<g id="#2222228f">
<path fill="#222222" opacity="0.56" d=" M 52.10 136.30 L 52.49 135.68 C 53.12 138.48 54.24 141.39 53.38 144.27 C 52.50 142.47 51.78 140.58 51.33 138.62 C 51.33 138.58 51.32 138.49 51.31 138.45 L 51.37 137.56 C 51.55 137.25 51.92 136.62 52.10 136.30 Z" />
</g>
<g id="#f6f6f6ff">
<path fill="#f6f6f6" opacity="1.00" d=" M 66.62 136.10 C 67.26 136.03 68.55 135.89 69.19 135.82 C 69.28 138.36 70.13 140.74 71.35 142.95 C 67.60 143.36 66.22 139.03 66.62 136.10 Z" />
</g>
<g id="#1a1a1a80">
<path fill="#1a1a1a" opacity="0.50" d=" M 235.07 138.91 C 235.11 137.40 236.33 136.29 237.71 135.90 C 238.41 137.29 236.55 139.59 235.07 138.91 Z" />
</g>
<g id="#2a2a2a72">
<path fill="#2a2a2a" opacity="0.45" d=" M 51.31 138.45 C 51.32 138.49 51.33 138.58 51.33 138.62 C 51.33 138.58 51.32 138.49 51.31 138.45 Z" />
</g>
<g id="#23232373">
<path fill="#232323" opacity="0.45" d=" M 85.94 138.17 L 86.83 138.29 L 87.31 139.25 L 86.86 140.05 C 86.63 139.58 86.17 138.64 85.94 138.17 Z" />
</g>
<g id="#1e1e1e88">
<path fill="#1e1e1e" opacity="0.53" d=" M 35.30 139.35 L 35.62 139.21 C 41.09 141.89 47.14 143.19 52.53 146.03 C 52.03 146.18 51.03 146.47 50.54 146.62 C 49.26 146.63 48.09 145.77 46.92 145.33 C 42.52 143.08 37.71 141.89 33.06 140.31 C 33.62 140.07 34.74 139.59 35.30 139.35 Z" />
</g>
<g id="#2e2e2e54">
<path fill="#2e2e2e" opacity="0.33" d=" M 94.85 139.52 C 94.80 139.41 94.68 139.18 94.62 139.07 L 94.85 139.52 Z" />
</g>
<g id="#14141473">
<path fill="#141414" opacity="0.45" d=" M 96.43 139.25 C 100.37 138.76 104.40 138.94 108.25 139.94 C 104.29 140.19 100.33 139.97 96.43 139.25 Z" />
</g>
<g id="#1313134b">
<path fill="#131313" opacity="0.29" d=" M 121.73 140.72 C 124.13 140.38 126.40 139.48 128.72 138.79 L 130.25 138.82 C 128.59 140.85 126.12 142.43 123.43 142.40 C 120.83 142.21 118.21 142.17 115.64 142.63 C 110.40 143.56 105.04 142.99 99.86 142.00 C 99.57 141.75 98.98 141.25 98.69 141.00 C 106.37 140.94 114.07 141.71 121.73 140.72 Z" />
</g>
<g id="#1e1e1e4a">
<path fill="#1e1e1e" opacity="0.29" d=" M 148.32 139.80 C 149.17 140.34 149.73 141.10 150.01 142.07 C 148.24 142.31 147.67 141.55 148.32 139.80 Z" />
</g>
<g id="#1f1f1f4b">
<path fill="#1f1f1f" opacity="0.29" d=" M 233.01 141.95 C 233.21 140.81 233.84 140.15 234.89 139.97 C 235.28 141.60 234.66 142.26 233.01 141.95 Z" />
</g>
<g id="#1b1b1b8f">
<path fill="#1b1b1b" opacity="0.56" d=" M 99.86 142.00 C 105.04 142.99 110.40 143.56 115.64 142.63 C 118.21 142.17 120.83 142.21 123.43 142.40 C 116.72 144.97 109.49 143.32 102.60 144.48 L 102.53 144.43 C 101.63 143.63 100.75 142.80 99.86 142.00 Z" />
</g>
<g id="#1f1f1f7a">
<path fill="#1f1f1f" opacity="0.48" d=" M 87.14 143.27 L 87.74 142.33 C 88.18 145.27 88.05 148.26 87.64 151.20 C 86.91 149.35 85.46 147.29 86.24 145.25 C 86.46 144.75 86.91 143.76 87.14 143.27 Z" />
</g>
<g id="#e8e8e8ff">
<path fill="#e8e8e8" opacity="1.00" d=" M 71.38 144.37 C 71.67 144.65 71.67 144.65 71.38 144.37 Z" />
</g>
<g id="#1e1e1e54">
<path fill="#1e1e1e" opacity="0.33" d=" M 151.25 143.85 C 152.13 144.35 152.72 145.10 153.01 146.08 C 151.25 146.34 150.67 145.60 151.25 143.85 Z" />
</g>
<g id="#1a1a1a81">
<path fill="#1a1a1a" opacity="0.51" d=" M 110.38 148.16 C 117.03 148.37 123.80 148.47 130.15 146.17 C 127.99 148.43 124.82 149.99 121.67 149.78 C 117.95 148.95 114.09 149.04 110.38 148.16 Z" />
</g>
<g id="#2323237b">
<path fill="#232323" opacity="0.48" d=" M 98.95 147.29 L 99.79 147.95 C 101.93 149.21 101.44 152.11 101.87 154.20 C 99.31 153.00 99.55 149.63 98.95 147.29 Z" />
</g>
<g id="#1d1d1db4">
<path fill="#1d1d1d" opacity="0.71" d=" M 154.42 147.73 C 155.55 148.08 156.11 148.80 156.08 149.89 C 154.46 150.04 153.91 149.32 154.42 147.73 Z" />
</g>
<g id="#1f1f1fb5">
<path fill="#1f1f1f" opacity="0.71" d=" M 226.92 149.93 C 226.89 148.83 227.44 148.11 228.58 147.76 C 229.07 149.36 228.52 150.08 226.92 149.93 Z" />
</g>
<g id="#1c1c1c41">
<path fill="#1c1c1c" opacity="0.25" d=" M 156.07 151.04 C 157.16 151.14 157.81 151.77 158.03 152.92 C 156.40 153.28 155.74 152.65 156.07 151.04 Z" />
</g>
<g id="#1c1c1c42">
<path fill="#1c1c1c" opacity="0.26" d=" M 224.98 152.90 C 225.17 151.74 225.82 151.12 226.92 151.02 C 227.25 152.62 226.60 153.25 224.98 152.90 Z" />
</g>
<g id="#161616a4">
<path fill="#161616" opacity="0.64" d=" M 82.37 156.23 C 88.08 155.95 93.81 156.10 99.52 156.27 C 93.86 157.18 88.01 157.42 82.37 156.23 Z" />
</g>
<g id="#262626aa">
<path fill="#262626" opacity="0.67" d=" M 173.63 161.29 C 179.64 162.73 185.87 161.84 191.99 161.99 C 197.79 161.73 203.71 162.71 209.41 161.28 C 207.87 162.45 206.00 163.06 204.06 163.00 C 196.72 163.06 189.38 162.94 182.05 163.04 C 179.18 163.03 175.97 163.28 173.63 161.29 Z" />
</g>
</svg>
