<?xml version="1.0" encoding="UTF-8" ?>
<!DOCTYPE svg PUBLIC "-//W3C//DTD SVG 1.1//EN" "http://www.w3.org/Graphics/SVG/1.1/DTD/svg11.dtd">
<svg width="1280pt" height="720pt" viewBox="0 0 1280 720" version="1.1" xmlns="http://www.w3.org/2000/svg">
<g id="#ffffffff">
<path fill="#ffffff" opacity="1.00" d=" M 78.40 272.65 C 86.05 272.60 93.70 272.64 101.35 272.63 C 101.38 274.21 101.37 275.79 101.35 277.37 C 95.50 277.36 89.65 277.39 83.81 277.36 C 83.81 280.95 83.80 284.55 83.81 288.14 C 89.06 287.88 94.77 287.66 99.40 290.59 C 106.91 295.24 106.19 308.44 98.01 312.00 C 91.91 314.92 84.92 314.46 78.38 313.80 C 78.46 300.09 78.42 286.37 78.40 272.65 M 83.83 292.17 C 83.78 298.14 83.81 304.11 83.81 310.09 C 87.66 310.27 91.85 310.42 95.22 308.21 C 99.70 305.38 100.31 298.18 96.30 294.69 C 92.85 291.83 88.06 291.82 83.83 292.17 Z" />
<path fill="#ffffff" opacity="1.00" d=" M 105.35 284.39 C 107.36 284.41 109.36 284.42 111.37 284.44 C 114.04 292.24 117.09 299.91 119.53 307.79 C 121.89 299.93 124.57 292.17 127.16 284.39 C 129.07 284.41 130.99 284.42 132.91 284.43 C 128.65 295.08 125.18 306.05 120.44 316.49 C 118.11 321.71 113.95 326.04 108.54 328.04 C 108.05 326.47 107.55 324.91 107.07 323.34 C 111.29 321.22 115.42 317.83 116.42 312.99 C 113.06 303.34 109.01 293.93 105.35 284.39 Z" />
<path fill="#ffffff" opacity="1.00" d=" M 138.19 284.38 C 139.99 284.40 141.80 284.41 143.60 284.42 C 143.57 288.87 143.47 293.33 143.76 297.78 C 148.02 293.65 151.70 288.97 155.51 284.43 C 157.75 284.42 159.98 284.41 162.21 284.41 C 158.14 288.87 153.98 293.25 149.70 297.50 C 157.57 299.20 159.47 307.73 162.34 314.02 C 160.38 313.99 158.42 313.96 156.46 313.90 C 155.00 310.61 153.98 307.07 151.84 304.14 C 149.93 301.56 146.54 301.24 143.63 300.70 C 143.54 305.13 143.57 309.55 143.60 313.98 C 141.80 313.99 140.00 314.00 138.20 314.01 C 138.18 304.13 138.21 294.26 138.19 284.38 Z" />
<path fill="#ffffff" opacity="1.00" d=" M 166.66 284.54 C 168.82 284.31 171.02 284.24 173.16 284.65 C 176.08 292.05 178.49 299.66 181.07 307.20 C 183.62 299.56 186.39 292.00 189.11 284.42 C 191.32 284.42 193.52 284.41 195.72 284.36 C 196.50 294.25 197.10 304.14 197.81 314.03 C 196.07 314.00 194.34 313.98 192.61 313.96 C 192.31 305.87 191.94 297.80 191.39 289.72 C 188.79 297.86 185.71 305.82 182.68 313.80 C 181.34 313.79 180.00 313.78 178.67 313.77 C 175.89 305.78 172.96 297.84 170.68 289.69 C 170.34 297.79 169.63 305.86 169.55 313.97 C 167.84 313.98 166.12 313.99 164.40 314.02 C 165.29 304.20 165.73 294.35 166.66 284.54 Z" />
<path fill="#ffffff" opacity="1.00" d=" M 205.05 291.04 C 208.05 284.05 217.99 281.41 224.02 286.03 C 228.18 289.29 228.87 294.95 228.92 299.89 C 221.96 300.18 215.00 299.79 208.04 300.16 C 208.71 303.28 209.39 306.86 212.31 308.71 C 216.53 311.61 221.91 310.22 226.47 309.00 C 226.66 310.33 226.86 311.66 227.06 312.99 C 221.17 314.73 214.25 315.71 208.85 312.07 C 202.36 307.42 201.90 297.79 205.05 291.04 M 210.99 290.03 C 209.51 291.78 208.93 294.05 208.19 296.16 C 213.45 296.22 218.70 296.20 223.95 296.17 C 223.31 293.70 222.99 290.85 220.92 289.10 C 218.08 286.67 213.38 287.22 210.99 290.03 Z" />
<path fill="#ffffff" opacity="1.00" d=" M 235.18 284.38 C 236.99 284.40 238.79 284.41 240.60 284.42 C 240.57 288.87 240.47 293.33 240.76 297.79 C 245.02 293.65 248.70 288.98 252.51 284.43 C 254.74 284.42 256.98 284.41 259.21 284.41 C 255.14 288.87 250.98 293.25 246.70 297.50 C 254.57 299.20 256.47 307.73 259.34 314.02 C 257.38 313.99 255.42 313.96 253.46 313.90 C 252.00 310.61 250.98 307.07 248.84 304.14 C 246.93 301.56 243.54 301.24 240.63 300.70 C 240.54 305.13 240.57 309.55 240.60 313.98 C 238.79 313.99 237.00 314.00 235.20 314.01 C 235.18 304.13 235.21 294.26 235.18 284.38 Z" />
<path fill="#ffffff" opacity="1.00" d=" M 263.05 291.04 C 266.05 284.05 275.99 281.41 282.01 286.02 C 286.18 289.29 286.87 294.95 286.92 299.89 C 279.96 300.18 273.00 299.79 266.04 300.16 C 266.71 303.28 267.39 306.85 270.30 308.70 C 274.53 311.61 279.91 310.22 284.47 309.00 C 284.66 310.33 284.86 311.66 285.06 312.99 C 279.17 314.73 272.25 315.71 266.86 312.07 C 260.36 307.43 259.89 297.79 263.05 291.04 M 268.99 290.02 C 267.51 291.77 266.93 294.04 266.19 296.16 C 271.45 296.22 276.70 296.20 281.95 296.17 C 281.31 293.70 280.99 290.85 278.92 289.10 C 276.07 286.67 271.38 287.22 268.99 290.02 Z" />
<path fill="#ffffff" opacity="1.00" d=" M 293.00 284.42 C 294.60 284.41 296.19 284.39 297.79 284.37 C 297.86 285.92 297.93 287.46 298.01 289.01 C 300.16 286.65 302.70 284.37 306.00 283.92 C 312.16 282.40 318.43 286.92 319.94 292.88 C 321.96 299.83 320.77 309.06 314.03 313.07 C 309.09 316.12 302.61 314.88 298.50 311.01 C 298.63 316.01 298.59 321.01 298.55 326.01 C 296.75 325.99 294.96 325.98 293.16 325.98 C 293.13 312.12 293.40 298.26 293.00 284.42 M 305.37 288.22 C 301.40 289.11 298.73 292.99 298.60 296.94 C 298.54 300.52 297.97 304.62 300.42 307.60 C 303.35 311.46 309.84 311.66 312.88 307.83 C 316.08 303.36 316.30 296.98 313.71 292.18 C 312.19 289.24 308.61 287.43 305.37 288.22 Z" />
<path fill="#ffffff" opacity="1.00" d=" M 330.97 286.95 C 335.83 283.25 342.39 283.60 348.00 285.12 C 347.71 286.60 347.41 288.08 347.09 289.56 C 343.41 288.37 339.15 287.59 335.58 289.53 C 328.83 293.61 328.72 305.28 335.81 309.06 C 339.44 311.10 343.64 309.94 347.37 308.90 C 347.54 310.22 347.75 311.56 347.82 312.90 C 342.73 315.12 336.38 315.38 331.54 312.41 C 323.07 306.95 323.11 292.93 330.97 286.95 Z" />
<path fill="#ffffff" opacity="1.00" d=" M 354.19 284.38 C 355.99 284.40 357.79 284.41 359.60 284.42 C 359.57 288.87 359.47 293.33 359.76 297.78 C 364.02 293.65 367.70 288.98 371.51 284.43 C 373.74 284.42 375.98 284.41 378.22 284.41 C 374.14 288.87 369.98 293.25 365.70 297.50 C 373.57 299.20 375.47 307.73 378.34 314.02 C 376.37 313.99 374.42 313.96 372.46 313.90 C 371.00 310.61 369.98 307.07 367.84 304.14 C 365.93 301.56 362.54 301.24 359.63 300.70 C 359.54 305.13 359.57 309.55 359.60 313.98 C 357.79 313.99 355.99 314.00 354.20 314.01 C 354.18 304.13 354.21 294.26 354.19 284.38 Z" />
<path fill="#ffffff" opacity="1.00" d=" M 383.03 286.04 C 387.80 284.02 393.37 282.51 398.33 284.79 C 401.88 286.36 403.53 290.39 403.72 294.06 C 404.06 300.71 403.43 307.40 404.18 314.03 C 402.57 314.00 400.96 313.96 399.35 313.92 C 399.30 313.12 399.19 311.53 399.13 310.73 C 395.71 314.06 390.53 316.07 385.91 314.06 C 379.79 311.65 379.36 302.20 384.56 298.60 C 388.64 295.61 393.91 295.38 398.77 295.05 C 398.46 292.36 397.58 289.13 394.71 288.17 C 391.10 286.98 387.42 288.61 384.05 289.83 C 383.70 288.56 383.36 287.30 383.03 286.04 M 386.36 305.01 C 385.39 310.16 391.98 312.23 395.49 309.48 C 399.24 307.28 398.66 302.52 398.68 298.84 C 394.20 299.24 387.20 299.28 386.36 305.01 Z" />
<path fill="#ffffff" opacity="1.00" d=" M 415.80 285.96 C 421.71 283.36 428.34 284.35 434.58 284.75 C 434.59 294.49 434.56 304.24 434.60 313.98 C 432.79 313.99 430.99 314.00 429.20 314.01 C 429.19 309.84 429.20 305.67 429.19 301.51 C 425.99 301.62 422.11 301.03 419.87 303.90 C 417.69 306.85 416.94 310.57 415.54 313.91 C 413.56 313.97 411.58 313.99 409.61 314.01 C 412.29 309.12 412.90 302.41 418.52 299.79 C 416.12 298.96 413.39 298.05 412.20 295.58 C 410.11 292.14 412.16 287.35 415.80 285.96 M 419.75 288.84 C 417.37 289.71 416.04 293.07 417.88 295.07 C 420.67 298.31 425.39 297.49 429.18 297.70 C 429.20 294.44 429.19 291.19 429.20 287.94 C 426.03 287.85 422.71 287.50 419.75 288.84 Z" />
<path fill="#ffffff" opacity="1.00" d=" M 455.19 284.38 C 456.99 284.40 458.79 284.41 460.60 284.42 C 460.57 288.87 460.47 293.33 460.76 297.79 C 465.02 293.65 468.70 288.97 472.51 284.43 C 474.74 284.42 476.97 284.41 479.21 284.41 C 475.14 288.87 470.98 293.25 466.70 297.50 C 474.57 299.20 476.47 307.73 479.34 314.02 C 477.37 313.99 475.42 313.96 473.46 313.90 C 472.00 310.62 470.98 307.07 468.84 304.14 C 466.93 301.56 463.54 301.24 460.63 300.70 C 460.54 305.13 460.57 309.55 460.60 313.98 C 458.79 313.99 456.99 314.00 455.20 314.01 C 455.18 304.13 455.21 294.26 455.19 284.38 Z" />
<path fill="#ffffff" opacity="1.00" d=" M 492.31 284.35 C 497.99 282.57 505.01 284.49 508.14 289.78 C 511.41 295.33 511.44 302.70 508.22 308.28 C 503.89 315.75 492.13 317.07 486.26 310.74 C 479.02 303.08 481.37 287.26 492.31 284.35 M 493.43 288.40 C 486.95 291.46 486.07 300.79 489.45 306.46 C 491.53 310.61 497.41 311.97 501.05 309.03 C 505.93 304.86 506.36 297.10 503.25 291.75 C 501.36 288.46 496.94 286.80 493.43 288.40 Z" />
<path fill="#ffffff" opacity="1.00" d=" M 517.66 284.54 C 519.81 284.32 522.02 284.23 524.17 284.66 C 527.07 292.07 529.52 299.66 532.04 307.21 C 534.65 299.58 537.37 292.00 540.11 284.42 C 542.31 284.42 544.52 284.41 546.72 284.36 C 547.50 294.25 548.10 304.14 548.81 314.03 C 547.07 314.00 545.34 313.98 543.61 313.96 C 543.31 305.88 542.94 297.80 542.39 289.73 C 539.79 297.86 536.70 305.81 533.69 313.79 C 532.34 313.78 531.00 313.78 529.67 313.78 C 526.90 305.78 523.96 297.85 521.68 289.70 C 521.34 297.79 520.63 305.86 520.56 313.97 C 518.83 313.98 517.11 313.99 515.40 314.02 C 516.29 304.20 516.72 294.35 517.66 284.54 Z" />
<path fill="#ffffff" opacity="1.00" d=" M 555.17 284.38 C 563.23 284.46 571.29 284.42 579.35 284.40 C 579.40 294.27 579.37 304.14 579.36 314.00 C 577.56 313.99 575.77 313.99 573.99 314.00 C 574.01 305.60 573.99 297.20 574.00 288.81 C 569.53 288.80 565.06 288.80 560.59 288.80 C 560.58 297.20 560.56 305.59 560.60 313.98 C 558.79 313.99 556.99 314.00 555.20 314.01 C 555.18 304.13 555.22 294.26 555.17 284.38 Z" />
<path fill="#ffffff" opacity="1.00" d=" M 587.03 286.04 C 591.80 284.02 597.37 282.51 602.33 284.79 C 605.88 286.36 607.53 290.39 607.72 294.06 C 608.06 300.71 607.43 307.40 608.18 314.03 C 606.57 313.99 604.96 313.96 603.35 313.92 C 603.30 313.13 603.19 311.53 603.13 310.74 C 599.70 314.06 594.52 316.07 589.91 314.06 C 583.79 311.65 583.36 302.19 588.57 298.60 C 592.65 295.61 597.91 295.38 602.77 295.05 C 602.44 292.36 601.59 289.13 598.71 288.17 C 595.09 286.98 591.42 288.61 588.05 289.83 C 587.70 288.56 587.36 287.30 587.03 286.04 M 592.40 301.33 C 589.48 303.35 589.61 308.56 592.86 310.17 C 596.57 311.74 601.39 309.53 602.38 305.55 C 602.79 303.34 602.61 301.07 602.68 298.84 C 599.21 299.27 595.30 299.09 592.40 301.33 Z" />
<path fill="#ffffff" opacity="1.00" d=" M 616.19 284.38 C 617.98 284.40 619.79 284.41 621.60 284.42 C 621.56 288.34 621.57 292.27 621.59 296.20 C 626.12 296.19 630.65 296.20 635.19 296.19 C 635.19 292.25 635.20 288.31 635.19 284.38 C 636.98 284.40 638.79 284.41 640.60 284.42 C 640.56 294.27 640.57 304.12 640.60 313.98 C 638.79 313.99 636.99 314.00 635.20 314.01 C 635.19 309.53 635.19 305.06 635.20 300.59 C 630.65 300.57 626.12 300.58 621.58 300.58 C 621.57 305.05 621.57 309.51 621.60 313.98 C 619.79 313.99 617.99 314.00 616.20 314.01 C 616.18 304.13 616.21 294.26 616.19 284.38 Z" />
<path fill="#ffffff" opacity="1.00" d=" M 667.78 284.72 C 669.79 284.27 671.88 284.41 673.94 284.31 C 674.08 294.20 673.96 304.10 674.00 314.00 C 672.32 313.99 670.66 313.99 669.00 314.00 C 668.93 306.07 669.08 298.15 669.08 290.22 C 664.69 298.13 660.28 306.03 655.52 313.71 C 653.44 314.14 651.30 314.00 649.20 314.08 C 649.16 304.19 649.26 294.31 649.15 284.43 C 650.88 284.41 652.61 284.41 654.36 284.44 C 654.34 292.47 654.57 300.50 653.99 308.51 C 658.24 300.39 662.85 292.45 667.78 284.72 Z" />
<path fill="#ffffff" opacity="1.00" d=" M 685.80 285.96 C 691.71 283.36 698.34 284.35 704.58 284.75 C 704.59 294.49 704.55 304.24 704.60 313.98 C 702.79 313.99 700.99 314.00 699.20 314.01 C 699.19 309.84 699.19 305.67 699.19 301.51 C 695.99 301.62 692.11 301.03 689.88 303.89 C 687.69 306.84 686.94 310.56 685.54 313.91 C 683.56 313.97 681.58 313.99 679.61 314.01 C 682.29 309.13 682.90 302.41 688.52 299.79 C 686.12 298.96 683.39 298.05 682.20 295.58 C 680.11 292.14 682.16 287.36 685.80 285.96 M 689.75 288.84 C 687.38 289.71 686.04 293.06 687.88 295.07 C 690.66 298.31 695.39 297.49 699.18 297.70 C 699.20 294.44 699.19 291.19 699.19 287.94 C 696.03 287.85 692.71 287.50 689.75 288.84 Z" />
<path fill="#ffffff" opacity="1.00" d=" M 888.47 342.62 C 891.65 342.53 894.83 342.56 898.01 342.52 C 900.21 342.55 902.41 342.58 904.62 342.60 C 905.54 343.57 906.48 344.53 907.44 345.48 C 907.45 368.99 907.44 392.49 907.45 416.00 C 907.26 425.03 907.84 434.08 907.16 443.09 C 900.99 443.86 894.73 443.60 888.55 443.25 C 887.91 442.66 887.27 442.08 886.64 441.50 C 886.54 409.18 886.54 376.86 886.64 344.54 C 887.25 343.90 887.86 343.26 888.47 342.62 Z" />
<path fill="#ffffff" opacity="1.00" d=" M 401.65 345.50 C 402.78 343.67 404.82 342.27 407.06 342.53 C 428.73 342.55 450.40 342.58 472.06 342.53 C 474.30 342.45 476.43 343.21 478.55 343.84 C 478.58 347.23 478.48 350.63 478.60 354.02 C 478.51 356.37 480.38 358.86 482.91 358.55 C 487.66 358.64 492.41 358.68 497.16 358.51 C 497.47 358.14 498.10 357.40 498.42 357.03 C 498.67 353.11 498.47 349.18 498.51 345.25 C 499.45 344.35 500.39 343.45 501.33 342.54 C 515.77 342.57 530.21 342.54 544.65 342.55 C 545.58 343.48 546.52 344.39 547.48 345.31 C 547.51 348.79 547.71 352.28 547.46 355.76 C 547.58 357.59 545.53 358.63 543.94 358.53 C 529.28 358.62 514.62 358.35 499.97 358.62 C 499.62 358.94 498.93 359.60 498.58 359.93 C 498.34 365.98 498.51 372.04 498.46 378.09 C 498.16 380.43 499.87 382.72 502.02 383.49 C 515.14 383.76 528.30 383.20 541.41 383.67 C 545.70 385.76 544.45 390.95 544.47 394.81 C 544.52 397.56 541.66 399.95 538.95 399.54 C 526.93 399.54 514.92 399.48 502.91 399.50 C 500.13 399.22 498.15 402.40 498.44 404.95 C 498.54 411.31 498.37 417.67 498.52 424.03 C 498.45 425.57 500.01 426.50 501.02 427.44 C 515.78 427.78 530.60 427.21 545.36 427.66 C 548.42 430.47 549.15 435.01 548.09 438.88 C 547.26 441.40 544.89 443.77 542.07 443.46 C 522.69 443.38 503.31 443.42 483.94 443.45 C 481.43 443.59 478.20 441.62 478.46 438.83 C 478.49 413.55 478.50 388.26 478.47 362.98 C 478.74 361.10 477.30 359.76 476.03 358.65 C 469.33 358.35 462.63 358.59 455.93 358.48 C 453.45 358.26 450.05 360.09 450.49 362.91 C 450.47 388.59 450.51 414.26 450.48 439.94 C 450.88 442.07 448.58 443.23 446.80 443.37 C 441.79 443.63 436.77 443.35 431.75 443.46 C 431.05 441.39 430.30 439.30 430.43 437.09 C 430.56 412.70 430.41 388.30 430.52 363.91 C 430.92 361.53 429.15 359.30 426.99 358.61 C 420.32 358.30 413.64 358.65 406.97 358.58 C 404.82 358.75 403.18 357.20 401.46 356.18 C 401.59 352.62 401.31 349.05 401.65 345.50 Z" />
<path fill="#ffffff" opacity="1.00" d=" M 666.36 342.58 C 672.24 342.54 678.13 342.55 684.02 342.53 C 685.50 342.67 687.40 342.17 688.39 343.64 C 693.04 349.02 695.26 355.93 698.76 362.04 C 703.26 370.87 707.70 379.73 712.21 388.56 C 716.57 396.80 720.06 405.50 725.05 413.40 C 726.19 411.65 727.42 409.92 728.23 407.97 C 729.03 403.67 727.31 399.45 727.52 395.14 C 727.56 379.26 727.56 363.38 727.52 347.50 C 727.08 344.39 730.18 342.48 732.95 342.57 C 737.47 342.55 742.52 341.72 746.37 344.70 C 746.80 364.45 746.42 384.23 746.55 404.00 C 746.40 416.43 746.83 428.88 746.36 441.30 C 744.25 442.83 741.68 443.71 739.06 443.48 C 734.30 443.23 729.48 443.86 724.77 443.18 C 719.89 440.72 717.84 435.35 715.64 430.71 C 708.37 416.34 700.73 402.15 693.63 387.69 C 691.24 383.24 690.51 377.46 685.57 374.92 C 684.56 376.82 684.17 378.91 684.27 381.04 C 684.41 401.34 684.41 421.64 684.33 441.93 C 677.76 444.80 670.13 445.41 663.63 441.99 C 663.53 409.81 663.58 377.63 663.60 345.45 C 664.52 344.50 665.44 343.54 666.36 342.58 Z" />
<path fill="#ffffff" opacity="1.00" d=" M 767.51 343.92 C 773.01 341.93 778.88 342.58 784.61 342.57 C 785.53 343.51 786.47 344.46 787.42 345.39 C 787.47 377.14 787.45 408.88 787.43 440.62 C 786.47 441.55 785.52 442.48 784.59 443.44 C 779.85 443.47 775.11 443.48 770.37 443.41 C 769.40 442.50 768.44 441.60 767.47 440.71 C 767.52 408.45 767.43 376.18 767.51 343.92 Z" />
<path fill="#ffffff" opacity="1.00" d=" M 830.34 342.24 C 839.22 340.86 848.43 341.15 857.27 342.79 C 859.47 343.42 862.24 343.73 863.50 345.93 C 863.69 349.21 863.87 352.56 863.34 355.83 C 861.93 358.26 858.90 360.04 856.10 359.04 C 849.96 357.56 843.46 355.25 837.21 357.42 C 830.82 358.87 825.59 365.22 826.46 371.90 C 826.26 375.72 829.77 378.38 832.79 380.05 C 842.88 385.29 854.39 388.22 863.01 395.99 C 873.55 405.76 873.00 424.06 863.08 434.07 C 857.11 440.38 848.50 443.53 840.01 444.44 C 830.16 444.74 820.02 444.96 810.64 441.49 C 809.20 440.89 807.72 439.68 807.61 438.03 C 807.18 433.78 807.45 429.27 809.63 425.48 C 815.43 424.26 820.29 428.90 826.02 428.53 C 830.43 428.50 834.89 428.82 839.27 428.22 C 843.57 426.71 847.39 423.49 849.38 419.37 C 850.08 415.33 849.70 410.56 846.00 408.06 C 836.15 401.39 823.91 398.96 814.52 391.49 C 807.83 386.27 804.85 377.35 805.66 369.08 C 806.57 364.09 807.29 358.73 810.58 354.66 C 815.40 348.36 822.46 343.59 830.34 342.24 Z" />
<path fill="#ffffff" opacity="1.00" d=" M 1069.98 342.51 C 1088.98 342.61 1107.99 342.52 1127.00 342.55 C 1132.87 342.66 1138.86 341.98 1144.58 343.65 C 1145.78 347.45 1145.73 351.50 1145.38 355.42 C 1144.51 357.10 1142.86 358.76 1140.83 358.53 C 1134.20 358.71 1127.57 358.32 1120.94 358.55 C 1118.54 358.31 1116.05 360.43 1116.46 362.94 C 1116.46 389.15 1116.56 415.37 1116.42 441.59 C 1115.77 442.18 1115.14 442.77 1114.53 443.38 C 1109.18 443.46 1103.83 443.51 1098.49 443.37 C 1097.55 442.39 1096.61 441.43 1095.67 440.48 C 1095.59 414.98 1095.61 389.48 1095.68 363.99 C 1095.73 362.06 1095.30 360.18 1094.42 358.48 C 1087.26 358.53 1080.10 358.53 1072.95 358.56 C 1070.51 358.91 1068.53 356.96 1067.65 354.89 C 1067.04 350.59 1067.34 346.11 1069.98 342.51 Z" />
<path fill="#ffffff" opacity="1.00" d=" M 172.44 343.34 C 173.72 342.32 175.42 342.59 176.93 342.52 C 192.31 342.59 207.68 342.53 223.05 342.54 C 225.82 342.38 228.83 345.06 228.59 347.91 C 228.37 351.44 229.75 355.97 226.38 358.41 C 215.70 358.81 204.99 358.29 194.31 358.55 C 192.74 358.49 191.67 359.78 190.68 360.80 C 190.00 365.18 190.94 369.68 189.91 374.03 C 188.91 377.46 190.08 381.98 193.56 383.50 C 196.34 385.11 199.44 383.23 202.41 383.51 C 209.04 383.63 215.68 383.27 222.30 383.65 C 227.92 386.66 228.05 396.35 222.41 399.36 C 213.11 399.83 203.77 399.32 194.45 399.49 C 191.64 399.36 190.20 402.70 189.55 404.98 C 190.17 409.29 191.09 413.70 189.91 418.04 C 188.82 421.43 190.23 425.05 192.78 427.39 C 203.97 427.87 215.23 427.17 226.43 427.63 C 230.45 429.39 229.53 434.10 229.49 437.65 C 229.59 440.84 226.45 443.85 223.24 443.48 C 207.13 443.34 191.02 443.47 174.91 443.43 C 171.62 443.45 169.43 440.14 169.56 437.09 C 169.40 431.36 170.95 425.75 170.45 420.00 C 171.04 414.28 168.73 408.66 169.98 402.99 C 170.72 399.03 170.36 394.99 170.42 391.00 C 170.35 380.00 170.55 368.99 170.34 358.00 C 170.00 353.23 167.59 346.58 172.44 343.34 Z" />
<path fill="#ffffff" opacity="1.00" d=" M 278.91 343.92 C 284.28 341.43 290.38 342.93 296.09 342.53 C 299.45 342.14 302.04 344.89 302.92 347.88 C 308.50 363.35 314.54 378.64 320.58 393.93 C 326.93 407.73 331.67 422.19 337.91 436.03 C 338.77 438.01 338.55 440.22 338.78 442.33 C 333.65 443.94 328.23 443.45 322.93 443.44 C 320.93 443.67 319.40 442.16 318.25 440.74 C 315.12 436.54 314.06 431.31 312.42 426.44 C 311.10 422.23 306.53 418.77 302.04 419.69 C 295.78 421.01 289.34 420.29 282.99 420.46 C 279.62 420.60 276.36 419.09 273.00 419.69 C 270.69 420.58 268.41 422.01 267.31 424.32 C 264.11 430.50 263.75 438.62 257.88 443.11 C 252.13 443.75 246.10 443.83 240.40 442.62 C 241.43 435.25 245.20 428.62 247.78 421.71 C 253.23 407.27 259.23 393.03 264.73 378.61 C 267.12 370.44 270.51 362.62 273.83 354.79 C 275.57 351.19 276.51 347.17 278.91 343.92 M 287.96 367.49 C 283.55 376.47 282.11 386.68 277.47 395.61 C 276.24 398.25 275.33 402.41 277.92 404.47 C 285.62 404.63 293.36 404.67 301.06 404.43 C 303.56 402.30 302.69 398.26 301.41 395.65 C 296.93 387.36 295.52 377.88 291.79 369.30 C 291.24 367.55 289.68 366.68 287.96 367.49 Z" />
<path fill="#ffffff" opacity="1.00" d=" M 353.53 346.89 C 353.41 344.40 355.94 343.17 358.01 342.69 C 363.11 342.16 368.28 342.45 373.22 343.85 C 373.86 370.20 373.25 396.59 373.51 422.96 C 373.66 424.53 374.36 425.99 374.85 427.48 C 385.24 427.60 395.63 427.46 406.03 427.51 C 408.49 427.46 410.85 428.83 412.44 430.64 C 412.68 433.76 412.72 436.92 412.37 440.03 C 411.19 442.75 407.79 443.57 405.08 443.47 C 390.02 443.40 374.97 443.38 359.91 443.48 C 356.93 443.65 352.98 441.53 353.50 438.08 C 353.55 407.69 353.48 377.29 353.53 346.89 Z" />
<path fill="#ffffff" opacity="1.00" d=" M 1175.33 343.09 C 1180.80 342.01 1187.23 341.83 1192.29 344.77 C 1192.76 367.16 1192.34 389.60 1192.48 412.01 C 1192.31 417.17 1193.23 422.58 1191.10 427.48 C 1188.30 436.38 1180.25 443.22 1171.03 444.60 C 1165.83 446.26 1160.50 444.76 1155.27 444.23 C 1153.12 443.77 1150.33 443.19 1149.89 440.62 C 1148.99 436.45 1147.01 431.10 1150.56 427.63 C 1151.52 426.14 1153.43 426.68 1154.93 426.56 C 1158.56 426.43 1162.31 427.16 1165.87 426.21 C 1169.98 422.81 1172.93 417.51 1172.54 412.07 C 1172.42 390.68 1172.51 369.30 1172.48 347.91 C 1172.12 345.82 1173.54 344.00 1175.33 343.09 Z" />
<path fill="#ffffff" opacity="1.00" d=" M 80.67 345.02 C 81.62 342.84 84.10 343.56 85.98 343.39 C 97.67 343.43 109.36 343.42 121.05 343.45 C 127.19 343.25 132.94 346.00 138.37 348.56 C 150.31 355.74 153.28 374.36 143.75 384.69 C 141.20 388.25 137.20 390.23 133.22 391.76 C 133.10 397.42 138.10 401.15 140.01 406.14 C 144.23 416.23 147.83 426.62 152.82 436.38 C 154.10 438.78 154.22 442.60 150.97 443.39 C 146.63 443.60 142.28 443.42 137.93 443.47 C 135.38 443.82 133.40 441.74 132.25 439.71 C 128.38 433.01 126.73 425.36 123.58 418.34 C 121.48 411.93 118.66 404.90 112.25 401.71 C 109.09 401.29 105.85 401.26 102.69 401.68 C 101.53 402.53 100.22 403.59 100.50 405.22 C 100.39 416.50 100.57 427.79 100.49 439.07 C 100.50 442.23 96.76 443.58 94.09 443.47 C 89.61 443.22 84.13 444.71 80.71 440.92 C 80.21 437.30 80.51 433.63 80.47 430.00 C 80.49 405.33 80.49 380.67 80.47 356.00 C 80.51 352.34 80.22 348.66 80.67 345.02 M 103.11 358.72 C 101.92 359.86 100.27 361.03 100.49 362.91 C 100.45 369.29 100.46 375.68 100.47 382.06 C 100.42 384.26 102.86 385.88 104.93 385.55 C 110.87 385.49 117.39 386.38 122.53 382.70 C 129.78 378.97 130.76 367.59 124.32 362.65 C 118.30 358.03 110.31 358.05 103.11 358.72 Z" />
<path fill="#ffffff" opacity="1.00" d=" M 561.35 346.83 C 561.45 344.70 563.95 343.19 565.98 343.40 C 571.00 343.38 576.02 343.37 581.05 343.40 C 583.90 343.12 586.09 345.49 587.43 347.73 C 596.04 365.07 604.73 382.38 613.66 399.55 C 615.88 404.10 616.40 409.92 620.98 412.93 C 622.22 414.18 624.00 413.54 625.50 413.30 C 625.86 408.14 624.11 403.18 624.38 398.05 C 624.49 380.64 624.27 363.21 624.46 345.81 C 627.42 341.81 632.90 343.89 637.09 343.34 C 639.46 342.83 642.52 344.25 642.54 346.93 C 642.58 377.31 642.51 407.70 642.58 438.08 C 642.98 440.55 640.64 443.10 638.11 442.68 C 632.12 442.38 626.10 442.98 620.14 442.37 C 618.04 440.86 616.67 438.61 615.42 436.42 C 607.26 421.54 599.75 406.32 591.85 391.32 C 589.77 384.73 586.29 378.80 583.51 372.53 C 581.88 372.62 580.25 372.65 578.63 372.56 C 578.65 394.73 578.67 416.91 578.69 439.08 C 578.95 440.67 578.05 442.87 576.11 442.61 C 572.03 442.65 567.94 442.77 563.87 442.52 C 562.66 441.74 561.21 440.62 561.38 439.00 C 561.38 408.28 561.45 377.55 561.35 346.83 Z" />
</g>
<g id="#b22c20ff">
<path fill="#b22c20" opacity="1.00" d=" M 21.03 158.90 C 25.01 156.72 29.24 154.39 33.92 154.51 C 436.64 154.58 839.36 154.50 1242.08 154.55 C 1248.42 154.97 1254.19 158.10 1259.49 161.38 C 1266.02 165.39 1269.56 172.48 1272.82 179.13 C 1275.06 183.41 1274.51 188.33 1274.53 192.99 C 1274.59 313.99 1274.56 435.00 1274.55 556.01 C 1274.53 559.77 1274.92 563.77 1273.03 567.20 C 1270.39 572.29 1267.52 577.39 1263.46 581.49 C 1259.43 585.61 1253.22 586.71 1249.65 591.38 C 1228.45 592.64 1207.22 592.15 1186.00 592.23 C 810.00 592.23 434.00 592.23 58.00 592.23 C 49.14 592.18 40.27 592.54 31.45 591.59 C 31.43 590.67 31.41 589.75 31.39 588.85 C 22.37 587.64 13.71 583.17 8.13 575.89 C 4.16 570.98 4.61 563.89 0.00 559.35 L 0.00 182.02 C 5.27 178.11 6.11 171.09 10.48 166.48 C 13.46 163.28 17.32 161.12 21.03 158.90 M 78.40 272.65 C 78.42 286.37 78.46 300.09 78.38 313.80 C 84.92 314.46 91.91 314.92 98.01 312.00 C 106.19 308.44 106.91 295.24 99.40 290.59 C 94.77 287.66 89.06 287.88 83.81 288.14 C 83.80 284.55 83.81 280.95 83.81 277.36 C 89.65 277.39 95.50 277.36 101.35 277.37 C 101.37 275.79 101.38 274.21 101.35 272.63 C 93.70 272.64 86.05 272.60 78.40 272.65 M 105.35 284.39 C 109.01 293.93 113.06 303.34 116.42 312.99 C 115.42 317.83 111.29 321.22 107.07 323.34 C 107.55 324.91 108.05 326.47 108.54 328.04 C 113.95 326.04 118.11 321.71 120.44 316.49 C 125.18 306.05 128.65 295.08 132.91 284.43 C 130.99 284.42 129.07 284.41 127.16 284.39 C 124.57 292.17 121.89 299.93 119.53 307.79 C 117.09 299.91 114.04 292.24 111.37 284.44 C 109.36 284.42 107.36 284.41 105.35 284.39 M 138.19 284.38 C 138.21 294.26 138.18 304.13 138.20 314.01 C 140.00 314.00 141.80 313.99 143.60 313.98 C 143.57 309.55 143.54 305.13 143.63 300.70 C 146.54 301.24 149.93 301.56 151.84 304.14 C 153.98 307.07 155.00 310.61 156.46 313.90 C 158.42 313.96 160.38 313.99 162.34 314.02 C 159.47 307.73 157.57 299.20 149.70 297.50 C 153.98 293.25 158.14 288.87 162.21 284.41 C 159.98 284.41 157.75 284.42 155.51 284.43 C 151.70 288.97 148.02 293.65 143.76 297.78 C 143.47 293.33 143.57 288.87 143.60 284.42 C 141.80 284.41 139.99 284.40 138.19 284.38 M 166.66 284.54 C 165.73 294.35 165.29 304.20 164.40 314.02 C 166.12 313.99 167.84 313.98 169.55 313.97 C 169.63 305.86 170.34 297.79 170.68 289.69 C 172.96 297.84 175.89 305.78 178.67 313.77 C 180.00 313.78 181.34 313.79 182.68 313.80 C 185.71 305.82 188.79 297.86 191.39 289.72 C 191.94 297.80 192.31 305.87 192.61 313.96 C 194.34 313.98 196.07 314.00 197.81 314.03 C 197.10 304.14 196.50 294.25 195.72 284.36 C 193.52 284.41 191.32 284.42 189.11 284.42 C 186.39 292.00 183.62 299.56 181.07 307.20 C 178.49 299.66 176.08 292.05 173.16 284.65 C 171.02 284.24 168.82 284.31 166.66 284.54 M 205.05 291.04 C 201.90 297.79 202.36 307.42 208.85 312.07 C 214.25 315.71 221.17 314.73 227.06 312.99 C 226.86 311.66 226.66 310.33 226.47 309.00 C 221.91 310.22 216.53 311.61 212.31 308.71 C 209.39 306.86 208.71 303.28 208.04 300.16 C 215.00 299.79 221.96 300.18 228.92 299.89 C 228.87 294.95 228.18 289.29 224.02 286.03 C 217.99 281.41 208.05 284.05 205.05 291.04 M 235.18 284.38 C 235.21 294.26 235.18 304.13 235.20 314.01 C 237.00 314.00 238.79 313.99 240.60 313.98 C 240.57 309.55 240.54 305.13 240.63 300.70 C 243.54 301.24 246.93 301.56 248.84 304.14 C 250.98 307.07 252.00 310.61 253.46 313.90 C 255.42 313.96 257.38 313.99 259.34 314.02 C 256.47 307.73 254.57 299.20 246.70 297.50 C 250.98 293.25 255.14 288.87 259.21 284.41 C 256.98 284.41 254.74 284.42 252.51 284.43 C 248.70 288.98 245.02 293.65 240.76 297.79 C 240.47 293.33 240.57 288.87 240.60 284.42 C 238.79 284.41 236.99 284.40 235.18 284.38 M 263.05 291.04 C 259.89 297.79 260.36 307.43 266.86 312.07 C 272.25 315.71 279.17 314.73 285.06 312.99 C 284.86 311.66 284.66 310.33 284.47 309.00 C 279.91 310.22 274.53 311.61 270.30 308.70 C 267.39 306.85 266.71 303.28 266.04 300.16 C 273.00 299.79 279.96 300.18 286.92 299.89 C 286.87 294.95 286.18 289.29 282.01 286.02 C 275.99 281.41 266.05 284.05 263.05 291.04 M 293.00 284.42 C 293.40 298.26 293.13 312.12 293.16 325.98 C 294.96 325.98 296.75 325.99 298.55 326.01 C 298.59 321.01 298.63 316.01 298.50 311.01 C 302.61 314.88 309.09 316.12 314.03 313.07 C 320.77 309.06 321.96 299.83 319.94 292.88 C 318.43 286.92 312.16 282.40 306.00 283.92 C 302.70 284.37 300.16 286.65 298.01 289.01 C 297.93 287.46 297.86 285.92 297.79 284.37 C 296.19 284.39 294.60 284.41 293.00 284.42 M 330.97 286.95 C 323.11 292.93 323.07 306.95 331.54 312.41 C 336.38 315.38 342.73 315.12 347.82 312.90 C 347.75 311.56 347.54 310.22 347.37 308.90 C 343.64 309.94 339.44 311.10 335.81 309.06 C 328.72 305.28 328.83 293.61 335.58 289.53 C 339.15 287.59 343.41 288.37 347.09 289.56 C 347.41 288.08 347.71 286.60 348.00 285.12 C 342.39 283.60 335.83 283.25 330.97 286.95 M 354.19 284.38 C 354.21 294.26 354.18 304.13 354.20 314.01 C 355.99 314.00 357.79 313.99 359.60 313.98 C 359.57 309.55 359.54 305.13 359.63 300.70 C 362.54 301.24 365.93 301.56 367.84 304.14 C 369.98 307.07 371.00 310.61 372.46 313.90 C 374.42 313.96 376.37 313.99 378.34 314.02 C 375.47 307.73 373.57 299.20 365.70 297.50 C 369.98 293.25 374.14 288.87 378.22 284.41 C 375.98 284.41 373.74 284.42 371.51 284.43 C 367.70 288.98 364.02 293.65 359.76 297.78 C 359.47 293.33 359.57 288.87 359.60 284.42 C 357.79 284.41 355.99 284.40 354.19 284.38 M 383.03 286.04 C 383.36 287.30 383.70 288.56 384.05 289.83 C 387.42 288.61 391.10 286.98 394.71 288.17 C 397.58 289.13 398.46 292.36 398.77 295.05 C 393.91 295.38 388.64 295.61 384.56 298.60 C 379.36 302.20 379.79 311.65 385.91 314.06 C 390.53 316.07 395.71 314.06 399.13 310.73 C 399.19 311.53 399.30 313.12 399.35 313.92 C 400.96 313.96 402.57 314.00 404.18 314.03 C 403.43 307.40 404.06 300.71 403.72 294.06 C 403.53 290.39 401.88 286.36 398.33 284.79 C 393.37 282.51 387.80 284.02 383.03 286.04 M 415.80 285.96 C 412.16 287.35 410.11 292.14 412.20 295.58 C 413.39 298.05 416.12 298.96 418.52 299.79 C 412.90 302.41 412.29 309.12 409.61 314.01 C 411.58 313.99 413.56 313.97 415.54 313.91 C 416.94 310.57 417.69 306.85 419.87 303.90 C 422.11 301.03 425.99 301.62 429.19 301.51 C 429.20 305.67 429.19 309.84 429.20 314.01 C 430.99 314.00 432.79 313.99 434.60 313.98 C 434.56 304.24 434.59 294.49 434.58 284.75 C 428.34 284.35 421.71 283.36 415.80 285.96 M 455.19 284.38 C 455.21 294.26 455.18 304.13 455.20 314.01 C 456.99 314.00 458.79 313.99 460.60 313.98 C 460.57 309.55 460.54 305.13 460.63 300.70 C 463.54 301.24 466.93 301.56 468.84 304.14 C 470.98 307.07 472.00 310.62 473.46 313.90 C 475.42 313.96 477.37 313.99 479.34 314.02 C 476.47 307.73 474.57 299.20 466.70 297.50 C 470.98 293.25 475.14 288.87 479.21 284.41 C 476.97 284.41 474.74 284.42 472.51 284.43 C 468.70 288.97 465.02 293.65 460.76 297.79 C 460.47 293.33 460.57 288.87 460.60 284.42 C 458.79 284.41 456.99 284.40 455.19 284.38 M 492.31 284.35 C 481.37 287.26 479.02 303.08 486.26 310.74 C 492.13 317.07 503.89 315.75 508.22 308.28 C 511.44 302.70 511.41 295.33 508.14 289.78 C 505.01 284.49 497.99 282.57 492.31 284.35 M 517.66 284.54 C 516.72 294.35 516.29 304.20 515.40 314.02 C 517.11 313.99 518.83 313.98 520.56 313.97 C 520.63 305.86 521.34 297.79 521.68 289.70 C 523.96 297.85 526.90 305.78 529.67 313.78 C 531.00 313.78 532.34 313.78 533.69 313.79 C 536.70 305.81 539.79 297.86 542.39 289.73 C 542.94 297.80 543.31 305.88 543.61 313.96 C 545.34 313.98 547.07 314.00 548.81 314.03 C 548.10 304.14 547.50 294.25 546.72 284.36 C 544.52 284.41 542.31 284.42 540.11 284.42 C 537.37 292.00 534.65 299.58 532.04 307.21 C 529.52 299.66 527.07 292.07 524.17 284.66 C 522.02 284.23 519.81 284.32 517.66 284.54 M 555.17 284.38 C 555.22 294.26 555.18 304.13 555.20 314.01 C 556.99 314.00 558.79 313.99 560.60 313.98 C 560.56 305.59 560.58 297.20 560.59 288.80 C 565.06 288.80 569.53 288.80 574.00 288.81 C 573.99 297.20 574.01 305.60 573.99 314.00 C 575.77 313.99 577.56 313.99 579.36 314.00 C 579.37 304.14 579.40 294.27 579.35 284.40 C 571.29 284.42 563.23 284.46 555.17 284.38 M 587.03 286.04 C 587.36 287.30 587.70 288.56 588.05 289.83 C 591.42 288.61 595.09 286.98 598.71 288.17 C 601.59 289.13 602.44 292.36 602.77 295.05 C 597.91 295.38 592.65 295.61 588.57 298.60 C 583.36 302.19 583.79 311.65 589.91 314.06 C 594.52 316.07 599.70 314.06 603.13 310.74 C 603.19 311.53 603.30 313.13 603.35 313.92 C 604.96 313.96 606.57 313.99 608.18 314.03 C 607.43 307.40 608.06 300.71 607.72 294.06 C 607.53 290.39 605.88 286.36 602.33 284.79 C 597.37 282.51 591.80 284.02 587.03 286.04 M 616.19 284.38 C 616.21 294.26 616.18 304.13 616.20 314.01 C 617.99 314.00 619.79 313.99 621.60 313.98 C 621.57 309.51 621.57 305.05 621.58 300.58 C 626.12 300.58 630.65 300.57 635.20 300.59 C 635.19 305.06 635.19 309.53 635.20 314.01 C 636.99 314.00 638.79 313.99 640.60 313.98 C 640.57 304.12 640.56 294.27 640.60 284.42 C 638.79 284.41 636.98 284.40 635.19 284.38 C 635.20 288.31 635.19 292.25 635.19 296.19 C 630.65 296.20 626.12 296.19 621.59 296.20 C 621.57 292.27 621.56 288.34 621.60 284.42 C 619.79 284.41 617.98 284.40 616.19 284.38 M 667.78 284.72 C 662.85 292.45 658.24 300.39 653.99 308.51 C 654.57 300.50 654.34 292.47 654.36 284.44 C 652.61 284.41 650.88 284.41 649.15 284.43 C 649.26 294.31 649.16 304.19 649.20 314.08 C 651.30 314.00 653.44 314.14 655.52 313.71 C 660.28 306.03 664.69 298.13 669.08 290.22 C 669.08 298.15 668.93 306.07 669.00 314.00 C 670.66 313.99 672.32 313.99 674.00 314.00 C 673.96 304.10 674.08 294.20 673.94 284.31 C 671.88 284.41 669.79 284.27 667.78 284.72 M 685.80 285.96 C 682.16 287.36 680.11 292.14 682.20 295.58 C 683.39 298.05 686.12 298.96 688.52 299.79 C 682.90 302.41 682.29 309.13 679.61 314.01 C 681.58 313.99 683.56 313.97 685.54 313.91 C 686.94 310.56 687.69 306.84 689.88 303.89 C 692.11 301.03 695.99 301.62 699.19 301.51 C 699.19 305.67 699.19 309.84 699.20 314.01 C 700.99 314.00 702.79 313.99 704.60 313.98 C 704.55 304.24 704.59 294.49 704.58 284.75 C 698.34 284.35 691.71 283.36 685.80 285.96 M 981.32 337.89 C 969.46 340.31 958.50 346.44 950.03 355.04 C 941.18 365.01 935.74 377.96 934.81 391.25 C 934.55 406.98 941.45 422.43 952.52 433.48 C 957.72 438.34 963.96 442.00 970.51 444.74 C 975.40 446.80 980.56 448.69 985.95 448.56 C 992.27 448.39 998.79 449.26 1004.91 447.19 C 1011.81 444.93 1018.63 442.01 1024.36 437.46 C 1035.04 429.73 1042.32 417.87 1045.55 405.19 C 1046.96 399.90 1046.51 394.38 1046.56 388.96 C 1046.61 383.53 1044.79 378.33 1042.95 373.30 C 1037.31 357.49 1023.62 345.21 1007.85 339.92 C 999.44 336.56 990.14 337.17 981.32 337.89 M 888.47 342.62 C 887.86 343.26 887.25 343.90 886.64 344.54 C 886.54 376.86 886.54 409.18 886.64 441.50 C 887.27 442.08 887.91 442.66 888.55 443.25 C 894.73 443.60 900.99 443.86 907.16 443.09 C 907.84 434.08 907.26 425.03 907.45 416.00 C 907.44 392.49 907.45 368.99 907.44 345.48 C 906.48 344.53 905.54 343.57 904.62 342.60 C 902.41 342.58 900.21 342.55 898.01 342.52 C 894.83 342.56 891.65 342.53 888.47 342.62 M 401.65 345.50 C 401.31 349.05 401.59 352.62 401.46 356.18 C 403.18 357.20 404.82 358.75 406.97 358.58 C 413.64 358.65 420.32 358.30 426.99 358.61 C 429.15 359.30 430.92 361.53 430.52 363.91 C 430.41 388.30 430.56 412.70 430.43 437.09 C 430.30 439.30 431.05 441.39 431.75 443.46 C 436.77 443.35 441.79 443.63 446.80 443.37 C 448.58 443.23 450.88 442.07 450.48 439.94 C 450.51 414.26 450.47 388.59 450.49 362.91 C 450.05 360.09 453.45 358.26 455.93 358.48 C 462.63 358.59 469.33 358.35 476.03 358.65 C 477.30 359.76 478.74 361.10 478.47 362.98 C 478.50 388.26 478.49 413.55 478.46 438.83 C 478.20 441.62 481.43 443.59 483.94 443.45 C 503.31 443.42 522.69 443.38 542.07 443.46 C 544.89 443.77 547.26 441.40 548.09 438.88 C 549.15 435.01 548.42 430.47 545.36 427.66 C 530.60 427.21 515.78 427.78 501.02 427.44 C 500.01 426.50 498.45 425.57 498.52 424.03 C 498.37 417.67 498.54 411.31 498.44 404.95 C 498.15 402.40 500.13 399.22 502.91 399.50 C 514.92 399.48 526.93 399.54 538.95 399.54 C 541.66 399.95 544.52 397.56 544.47 394.81 C 544.45 390.95 545.70 385.76 541.41 383.67 C 528.30 383.20 515.14 383.76 502.02 383.49 C 499.87 382.72 498.16 380.43 498.46 378.09 C 498.51 372.04 498.34 365.98 498.58 359.93 C 498.93 359.60 499.62 358.94 499.97 358.62 C 514.62 358.35 529.28 358.62 543.94 358.53 C 545.53 358.63 547.58 357.59 547.46 355.76 C 547.71 352.28 547.51 348.79 547.48 345.31 C 546.52 344.39 545.58 343.48 544.65 342.55 C 530.21 342.54 515.77 342.57 501.33 342.54 C 500.39 343.45 499.45 344.35 498.51 345.25 C 498.47 349.18 498.67 353.11 498.42 357.03 C 498.10 357.40 497.47 358.14 497.16 358.51 C 492.41 358.68 487.66 358.64 482.91 358.55 C 480.38 358.86 478.51 356.37 478.60 354.02 C 478.48 350.63 478.58 347.23 478.55 343.84 C 476.43 343.21 474.30 342.45 472.06 342.53 C 450.40 342.58 428.73 342.55 407.06 342.53 C 404.82 342.27 402.78 343.67 401.65 345.50 M 666.36 342.58 C 665.44 343.54 664.52 344.50 663.60 345.45 C 663.58 377.63 663.53 409.81 663.63 441.99 C 670.13 445.41 677.76 444.80 684.33 441.93 C 684.41 421.64 684.41 401.34 684.27 381.04 C 684.17 378.91 684.56 376.82 685.57 374.92 C 690.51 377.46 691.24 383.24 693.63 387.69 C 700.73 402.15 708.37 416.34 715.64 430.71 C 717.84 435.35 719.89 440.72 724.77 443.18 C 729.48 443.86 734.30 443.23 739.06 443.48 C 741.68 443.71 744.25 442.83 746.36 441.30 C 746.83 428.88 746.40 416.43 746.55 404.00 C 746.42 384.23 746.80 364.45 746.37 344.70 C 742.52 341.72 737.47 342.55 732.95 342.57 C 730.18 342.48 727.08 344.39 727.52 347.50 C 727.56 363.38 727.56 379.26 727.52 395.14 C 727.31 399.45 729.03 403.67 728.23 407.97 C 727.42 409.92 726.19 411.65 725.05 413.40 C 720.06 405.50 716.57 396.80 712.21 388.56 C 707.70 379.73 703.26 370.87 698.76 362.04 C 695.26 355.93 693.04 349.02 688.39 343.64 C 687.40 342.17 685.50 342.67 684.02 342.53 C 678.13 342.55 672.24 342.54 666.36 342.58 M 767.51 343.92 C 767.43 376.18 767.52 408.45 767.47 440.71 C 768.44 441.60 769.40 442.50 770.37 443.41 C 775.11 443.48 779.85 443.47 784.59 443.44 C 785.52 442.48 786.47 441.55 787.43 440.62 C 787.45 408.88 787.47 377.14 787.42 345.39 C 786.47 344.46 785.53 343.51 784.61 342.57 C 778.88 342.58 773.01 341.93 767.51 343.92 M 830.34 342.24 C 822.46 343.59 815.40 348.36 810.58 354.66 C 807.29 358.73 806.57 364.09 805.66 369.08 C 804.85 377.35 807.83 386.27 814.52 391.49 C 823.91 398.96 836.15 401.39 846.00 408.06 C 849.70 410.56 850.08 415.33 849.38 419.37 C 847.39 423.49 843.57 426.71 839.27 428.22 C 834.89 428.82 830.43 428.50 826.02 428.53 C 820.29 428.90 815.43 424.26 809.63 425.48 C 807.45 429.27 807.18 433.78 807.61 438.03 C 807.72 439.68 809.20 440.89 810.64 441.49 C 820.02 444.96 830.16 444.74 840.01 444.44 C 848.50 443.53 857.11 440.38 863.08 434.07 C 873.00 424.06 873.55 405.76 863.01 395.99 C 854.39 388.22 842.88 385.29 832.79 380.05 C 829.77 378.38 826.26 375.72 826.46 371.90 C 825.59 365.22 830.82 358.87 837.21 357.42 C 843.46 355.25 849.96 357.56 856.10 359.04 C 858.90 360.04 861.93 358.26 863.34 355.83 C 863.87 352.56 863.69 349.21 863.50 345.93 C 862.24 343.73 859.47 343.42 857.27 342.79 C 848.43 341.15 839.22 340.86 830.34 342.24 M 1069.98 342.51 C 1067.34 346.11 1067.04 350.59 1067.65 354.89 C 1068.53 356.96 1070.51 358.91 1072.95 358.56 C 1080.10 358.53 1087.26 358.53 1094.42 358.48 C 1095.30 360.18 1095.73 362.06 1095.68 363.99 C 1095.61 389.48 1095.59 414.98 1095.67 440.48 C 1096.61 441.43 1097.55 442.39 1098.49 443.37 C 1103.83 443.51 1109.18 443.46 1114.53 443.38 C 1115.14 442.77 1115.77 442.18 1116.42 441.59 C 1116.56 415.37 1116.46 389.15 1116.46 362.94 C 1116.05 360.43 1118.54 358.31 1120.94 358.55 C 1127.57 358.32 1134.20 358.71 1140.83 358.53 C 1142.86 358.76 1144.51 357.10 1145.38 355.42 C 1145.73 351.50 1145.78 347.45 1144.58 343.65 C 1138.86 341.98 1132.87 342.66 1127.00 342.55 C 1107.99 342.52 1088.98 342.61 1069.98 342.51 M 172.44 343.34 C 167.59 346.58 170.00 353.23 170.34 358.00 C 170.55 368.99 170.35 380.00 170.42 391.00 C 170.36 394.99 170.72 399.03 169.98 402.99 C 168.73 408.66 171.04 414.28 170.45 420.00 C 170.95 425.75 169.40 431.36 169.56 437.09 C 169.43 440.14 171.62 443.45 174.91 443.43 C 191.02 443.47 207.13 443.34 223.24 443.48 C 226.45 443.85 229.59 440.84 229.49 437.65 C 229.53 434.10 230.45 429.39 226.43 427.63 C 215.23 427.17 203.97 427.87 192.78 427.39 C 190.23 425.05 188.82 421.43 189.91 418.04 C 191.09 413.70 190.17 409.29 189.55 404.98 C 190.20 402.70 191.64 399.36 194.45 399.49 C 203.77 399.32 213.11 399.83 222.41 399.36 C 228.05 396.35 227.92 386.66 222.30 383.65 C 215.68 383.27 209.04 383.63 202.41 383.51 C 199.44 383.23 196.34 385.11 193.56 383.50 C 190.08 381.98 188.91 377.46 189.91 374.03 C 190.94 369.68 190.00 365.18 190.68 360.80 C 191.67 359.78 192.74 358.49 194.31 358.55 C 204.99 358.29 215.70 358.81 226.38 358.41 C 229.75 355.97 228.37 351.44 228.59 347.91 C 228.83 345.06 225.82 342.38 223.05 342.54 C 207.68 342.53 192.31 342.59 176.93 342.52 C 175.42 342.59 173.72 342.32 172.44 343.34 M 278.91 343.92 C 276.51 347.17 275.57 351.19 273.83 354.79 C 270.51 362.62 267.12 370.44 264.73 378.61 C 259.23 393.03 253.23 407.27 247.78 421.71 C 245.20 428.62 241.43 435.25 240.40 442.62 C 246.10 443.83 252.13 443.75 257.88 443.11 C 263.75 438.62 264.11 430.50 267.31 424.32 C 268.41 422.01 270.69 420.58 273.00 419.69 C 276.36 419.09 279.62 420.60 282.99 420.46 C 289.34 420.29 295.78 421.01 302.04 419.69 C 306.53 418.77 311.10 422.23 312.42 426.44 C 314.06 431.31 315.12 436.54 318.25 440.74 C 319.40 442.16 320.93 443.67 322.93 443.44 C 328.23 443.45 333.65 443.94 338.78 442.33 C 338.55 440.22 338.77 438.01 337.91 436.03 C 331.67 422.19 326.93 407.73 320.58 393.93 C 314.54 378.64 308.50 363.35 302.92 347.88 C 302.04 344.89 299.45 342.14 296.09 342.53 C 290.38 342.93 284.28 341.43 278.91 343.92 M 353.53 346.89 C 353.48 377.29 353.55 407.69 353.50 438.08 C 352.98 441.53 356.93 443.65 359.91 443.48 C 374.97 443.38 390.02 443.40 405.08 443.47 C 407.79 443.57 411.19 442.75 412.37 440.03 C 412.72 436.92 412.68 433.76 412.44 430.64 C 410.85 428.83 408.49 427.46 406.03 427.51 C 395.63 427.46 385.24 427.60 374.85 427.48 C 374.36 425.99 373.66 424.53 373.51 422.96 C 373.25 396.59 373.86 370.20 373.22 343.85 C 368.28 342.45 363.11 342.16 358.01 342.69 C 355.94 343.17 353.41 344.40 353.53 346.89 M 1175.33 343.09 C 1173.54 344.00 1172.12 345.82 1172.48 347.91 C 1172.51 369.30 1172.42 390.68 1172.54 412.07 C 1172.93 417.51 1169.98 422.81 1165.87 426.21 C 1162.31 427.16 1158.56 426.43 1154.93 426.56 C 1153.43 426.68 1151.52 426.14 1150.56 427.63 C 1147.01 431.10 1148.99 436.45 1149.89 440.62 C 1150.33 443.19 1153.12 443.77 1155.27 444.23 C 1160.50 444.76 1165.83 446.26 1171.03 444.60 C 1180.25 443.22 1188.30 436.38 1191.10 427.48 C 1193.23 422.58 1192.31 417.17 1192.48 412.01 C 1192.34 389.60 1192.76 367.16 1192.29 344.77 C 1187.23 341.83 1180.80 342.01 1175.33 343.09 M 80.67 345.02 C 80.22 348.66 80.51 352.34 80.47 356.00 C 80.49 380.67 80.49 405.33 80.47 430.00 C 80.51 433.63 80.21 437.30 80.71 440.92 C 84.13 444.71 89.61 443.22 94.09 443.47 C 96.76 443.58 100.50 442.23 100.49 439.07 C 100.57 427.79 100.39 416.50 100.50 405.22 C 100.22 403.59 101.53 402.53 102.69 401.68 C 105.85 401.26 109.09 401.29 112.25 401.71 C 118.66 404.90 121.48 411.93 123.58 418.34 C 126.73 425.36 128.38 433.01 132.25 439.71 C 133.40 441.74 135.38 443.82 137.93 443.47 C 142.28 443.42 146.63 443.60 150.97 443.39 C 154.22 442.60 154.10 438.78 152.82 436.38 C 147.83 426.62 144.23 416.23 140.01 406.14 C 138.10 401.15 133.10 397.42 133.22 391.76 C 137.20 390.23 141.20 388.25 143.75 384.69 C 153.28 374.36 150.31 355.74 138.37 348.56 C 132.94 346.00 127.19 343.25 121.05 343.45 C 109.36 343.42 97.67 343.43 85.98 343.39 C 84.10 343.56 81.62 342.84 80.67 345.02 M 561.35 346.83 C 561.45 377.55 561.38 408.28 561.38 439.00 C 561.21 440.62 562.66 441.74 563.87 442.52 C 567.94 442.77 572.03 442.65 576.11 442.61 C 578.05 442.87 578.95 440.67 578.69 439.08 C 578.67 416.91 578.65 394.73 578.63 372.56 C 580.25 372.65 581.88 372.62 583.51 372.53 C 586.29 378.80 589.77 384.73 591.85 391.32 C 599.75 406.32 607.26 421.54 615.42 436.42 C 616.67 438.61 618.04 440.86 620.14 442.37 C 626.10 442.98 632.12 442.38 638.11 442.68 C 640.64 443.10 642.98 440.55 642.58 438.08 C 642.51 407.70 642.58 377.31 642.54 346.93 C 642.52 344.25 639.46 342.83 637.09 343.34 C 632.90 343.89 627.42 341.81 624.46 345.81 C 624.27 363.21 624.49 380.64 624.38 398.05 C 624.11 403.18 625.86 408.14 625.50 413.30 C 624.00 413.54 622.22 414.18 620.98 412.93 C 616.40 409.92 615.88 404.10 613.66 399.55 C 604.73 382.38 596.04 365.07 587.43 347.73 C 586.09 345.49 583.90 343.12 581.05 343.40 C 576.02 343.37 571.00 343.38 565.98 343.40 C 563.95 343.19 561.45 344.70 561.35 346.83 Z" />
<path fill="#b22c20" opacity="1.00" d=" M 210.99 290.03 C 213.38 287.22 218.08 286.67 220.92 289.10 C 222.99 290.85 223.31 293.70 223.95 296.17 C 218.70 296.20 213.45 296.22 208.19 296.16 C 208.93 294.05 209.51 291.78 210.99 290.03 Z" />
<path fill="#b22c20" opacity="1.00" d=" M 268.99 290.02 C 271.38 287.22 276.07 286.67 278.92 289.10 C 280.99 290.85 281.31 293.70 281.95 296.17 C 276.70 296.20 271.45 296.22 266.19 296.16 C 266.93 294.04 267.51 291.77 268.99 290.02 Z" />
<path fill="#b22c20" opacity="1.00" d=" M 305.37 288.22 C 308.61 287.43 312.19 289.24 313.71 292.18 C 316.30 296.98 316.08 303.36 312.88 307.83 C 309.84 311.66 303.35 311.46 300.42 307.60 C 297.97 304.62 298.54 300.52 298.60 296.94 C 298.73 292.99 301.40 289.11 305.37 288.22 Z" />
<path fill="#b22c20" opacity="1.00" d=" M 419.75 288.84 C 422.71 287.50 426.03 287.85 429.20 287.94 C 429.19 291.19 429.20 294.44 429.18 297.70 C 425.39 297.49 420.67 298.31 417.88 295.07 C 416.04 293.07 417.37 289.71 419.75 288.84 Z" />
<path fill="#b22c20" opacity="1.00" d=" M 493.43 288.40 C 496.94 286.80 501.36 288.46 503.25 291.75 C 506.36 297.10 505.93 304.86 501.05 309.03 C 497.41 311.97 491.53 310.61 489.45 306.46 C 486.07 300.79 486.95 291.46 493.43 288.40 Z" />
<path fill="#b22c20" opacity="1.00" d=" M 689.75 288.84 C 692.71 287.50 696.03 287.85 699.19 287.94 C 699.19 291.19 699.20 294.44 699.18 297.70 C 695.39 297.49 690.66 298.31 687.88 295.07 C 686.04 293.06 687.38 289.71 689.75 288.84 Z" />
<path fill="#b22c20" opacity="1.00" d=" M 83.83 292.17 C 88.06 291.82 92.85 291.83 96.30 294.69 C 100.31 298.18 99.70 305.38 95.22 308.21 C 91.85 310.42 87.66 310.27 83.81 310.09 C 83.81 304.11 83.78 298.14 83.83 292.17 Z" />
<path fill="#b22c20" opacity="1.00" d=" M 386.36 305.01 C 387.20 299.28 394.20 299.24 398.68 298.84 C 398.66 302.52 399.24 307.28 395.49 309.48 C 391.98 312.23 385.39 310.16 386.36 305.01 Z" />
<path fill="#b22c20" opacity="1.00" d=" M 592.40 301.33 C 595.30 299.09 599.21 299.27 602.68 298.84 C 602.61 301.07 602.79 303.34 602.38 305.55 C 601.39 309.53 596.57 311.74 592.86 310.17 C 589.61 308.56 589.48 303.35 592.40 301.33 Z" />
<path fill="#b22c20" opacity="1.00" d=" M 103.11 358.72 C 110.31 358.05 118.30 358.03 124.32 362.65 C 130.76 367.59 129.78 378.97 122.53 382.70 C 117.39 386.38 110.87 385.49 104.93 385.55 C 102.86 385.88 100.42 384.26 100.47 382.06 C 100.46 375.68 100.45 369.29 100.49 362.91 C 100.27 361.03 101.92 359.86 103.11 358.72 Z" />
<path fill="#b22c20" opacity="1.00" d=" M 287.96 367.49 C 289.68 366.68 291.24 367.55 291.79 369.30 C 295.52 377.88 296.93 387.36 301.41 395.65 C 302.69 398.26 303.56 402.30 301.06 404.43 C 293.36 404.67 285.62 404.63 277.92 404.47 C 275.33 402.41 276.24 398.25 277.47 395.61 C 282.11 386.68 283.55 376.47 287.96 367.49 Z" />
</g>
<g id="#f1e401ff">
<path fill="#f1e401" opacity="1.00" d=" M 981.32 337.89 C 990.14 337.17 999.44 336.56 1007.85 339.92 C 1023.62 345.21 1037.31 357.49 1042.95 373.30 C 1044.79 378.33 1046.61 383.53 1046.56 388.96 C 1046.51 394.38 1046.96 399.90 1045.55 405.19 C 1042.32 417.87 1035.04 429.73 1024.36 437.46 C 1018.63 442.01 1011.81 444.93 1004.91 447.19 C 998.79 449.26 992.27 448.39 985.95 448.56 C 980.56 448.69 975.40 446.80 970.51 444.74 C 963.96 442.00 957.72 438.34 952.52 433.48 C 941.45 422.43 934.55 406.98 934.81 391.25 C 935.74 377.96 941.18 365.01 950.03 355.04 C 958.50 346.44 969.46 340.31 981.32 337.89 Z" />
</g>
</svg>
