<svg width="1240" height="802" xmlns="http://www.w3.org/2000/svg" style="vector-effect: non-scaling-stroke;" stroke="null">

 <g stroke="null">
  <title stroke="null">background</title>
  <rect stroke="null" fill="none" id="canvas_background" height="804" width="1242" y="-1" x="-1"/>
 </g>
 <g stroke="null">
  <title stroke="null">Layer 1</title>
  <g stroke="null" id="svg_8">
   <path stroke="null" id="svg_2" fill="#ffffff" d="m876.646463,170.080098c0.010746,-0.241012 0.13794,-0.442988 0.13794,-0.685316c0,-0.792335 -0.342548,-1.472388 -0.451103,-2.235337c-0.160528,-1.147164 -0.279828,-2.260776 -0.675886,-3.347632c-0.369522,-1.009224 -0.930276,-1.860551 -1.480502,-2.766704c-0.539262,-0.898038 -1.023917,-1.78555 -1.735988,-2.575254c-0.777642,-0.862073 -1.710549,-1.489713 -2.652886,-2.172397c-0.622377,-0.452418 -1.062733,-1.072163 -1.762743,-1.444317l-246.713815,-130.5956c-0.476541,-0.250223 -0.998698,-0.236845 -1.485765,-0.43619c-1.028084,-0.424348 -2.042571,-0.708123 -3.13491,-0.91953c-1.039926,-0.198248 -2.033141,-0.334654 -3.074602,-0.330706c-1.03861,-0.003947 -2.028974,0.131142 -3.066488,0.329171c-1.10155,0.211626 -2.125467,0.499349 -3.16013,0.92896c-0.477857,0.196713 -0.989268,0.183336 -1.455063,0.428295l-246.713815,130.5956c-0.700009,0.372154 -1.140366,0.991899 -1.762743,1.444317c-0.942337,0.682685 -1.875244,1.310324 -2.652886,2.172397c-0.712071,0.789704 -1.196726,1.677215 -1.735988,2.575254c-0.550227,0.906152 -1.11098,1.75748 -1.480502,2.766704c-0.396058,1.086857 -0.515358,2.200468 -0.675886,3.347632c-0.108335,0.762949 -0.451103,1.443002 -0.451103,2.235337c0,0.242328 0.127195,0.444304 0.13794,0.685316c0.04408,1.088172 0.382681,2.126783 0.647816,3.205744c0.269083,1.073479 0.453734,2.145643 0.922161,3.123945c0.103072,0.218205 0.084431,0.457901 0.198029,0.673255c0.208994,0.394961 0.637289,0.544963 0.872819,0.915582c1.165805,1.841911 2.6235,3.366492 4.402252,4.617825c0.59299,0.414918 1.096287,0.83795 1.734892,1.169972c2.28468,1.203306 4.770239,2.055948 7.531679,2.055948l493.42763,0c2.76144,0 5.247,-0.852643 7.531679,-2.055948c0.638605,-0.332022 1.141901,-0.755054 1.734892,-1.169972c1.778752,-1.251332 3.236447,-2.775914 4.402252,-4.617825c0.235529,-0.370619 0.663825,-0.520621 0.872819,-0.915582c0.113598,-0.215354 0.094957,-0.45505 0.198029,-0.673255c0.468427,-0.978303 0.653079,-2.050466 0.922161,-3.123945c0.265135,-1.078962 0.603736,-2.117572 0.647816,-3.205744zm-263.023462,-112.669046l180.483108,95.536142l-360.966215,0l180.483108,-95.536142z"/>
   <path stroke="null" id="svg_3" fill="#ffffff" d="m554.514537,427.180674c0,9.080384 7.367203,16.447588 16.447588,16.447588l85.321751,0c9.080603,0 16.447588,-7.367203 16.447588,-16.447588c0,-7.029918 -4.458612,-12.927365 -10.665274,-15.279151l0,-176.835471c6.206662,-2.351786 10.665274,-8.249233 10.665274,-15.279151c0,-9.080384 -7.366984,-16.447588 -16.447588,-16.447588l-85.321751,0c-9.080384,0 -16.447588,7.367203 -16.447588,16.447588c0,7.029918 4.458612,12.927365 10.665274,15.279151l0,176.835471c-6.206662,2.351786 -10.665274,8.249233 -10.665274,15.279151zm43.560449,-16.447588l0,-174.498598l31.096029,0l0,174.498598l-31.096029,0z"/>
   <path stroke="null" id="svg_4" fill="#ffffff" d="m412.311326,425.912481c0,9.080384 7.367203,16.447588 16.447588,16.447588l85.321971,0c9.080384,0 16.447588,-7.367203 16.447588,-16.447588c0,-7.029918 -4.458612,-12.927365 -10.665274,-15.279151l0,-176.835471c6.206662,-2.351786 10.665274,-8.249233 10.665274,-15.279151c0,-9.080384 -7.367203,-16.447588 -16.447588,-16.447588l-85.321971,0c-9.080384,0 -16.447588,7.367203 -16.447588,16.447588c0,7.029918 4.458612,12.927365 10.665274,15.279151l0,176.835471c-6.206662,2.351786 -10.665274,8.249233 -10.665274,15.279151zm43.560449,-16.447588l0,-174.498598l31.096248,0l0,174.498598l-31.096248,0z"/>
   <path stroke="null" id="svg_5" fill="#ffffff" d="m696.717529,425.912481c0,9.080384 7.367203,16.447588 16.447588,16.447588l85.321971,0c9.080384,0 16.447588,-7.367203 16.447588,-16.447588c0,-7.029918 -4.458612,-12.927365 -10.665274,-15.279151l0,-176.835471c6.206662,-2.351786 10.665274,-8.249233 10.665274,-15.279151c0,-9.080384 -7.367203,-16.447588 -16.447588,-16.447588l-85.321971,0c-9.080384,0 -16.447588,7.367203 -16.447588,16.447588c0,7.029918 4.458612,12.927365 10.665274,15.279151l0,176.835471c-6.206662,2.351786 -10.665274,8.249233 -10.665274,15.279151zm43.560449,-16.447588l0,-174.498598l31.096248,0l0,174.498598l-31.096248,0z"/>
   <path stroke="null" id="svg_6" fill="#ffffff" d="m372.027675,478.253529c0,9.080384 7.367203,16.447588 16.447588,16.447588l450.295476,0c9.080384,0 16.447588,-7.367203 16.447588,-16.447588s-7.367203,-16.447588 -16.447588,-16.447588l-450.295476,0c-9.080384,0 -16.447588,7.367203 -16.447588,16.447588z"/>
   <path stroke="null" id="svg_7" fill="#ffffff" d="m857.814388,514.51103l-485.846388,0c-9.080384,0 -16.447588,7.367203 -16.447588,16.447588s7.367203,16.447588 16.447588,16.447588l485.846388,0c9.080384,0 16.447588,-7.367203 16.447588,-16.447588s-7.367203,-16.447588 -16.447588,-16.447588z"/>
  </g>
 </g>
</svg>