<svg width="1240" height="802" xmlns="http://www.w3.org/2000/svg">

 <g>
  <title>background</title>
  <rect fill="none" id="canvas_background" height="804" width="1242" y="-1" x="-1"/>
 </g>
 <g>
  <title>Layer 1</title>
  <circle fill="none" id="svg_2" r="122.6" cy="189.9" cx="289" class="st0"/>
  <g stroke="null" id="svg_24">
   <path fill="#ffffff" stroke="null" id="svg_3" d="m686.574783,383.150111c-99.428852,0 -180.297652,-80.8688 -180.297652,-180.297652c0,-99.428852 80.8688,-180.430224 180.297652,-180.430224c99.428852,0 180.430224,80.8688 180.430224,180.430224c0,99.428852 -80.8688,180.297652 -180.430224,180.297652zm0,-324.933489c-79.675654,0 -144.635837,64.827612 -144.635837,144.635837c0,79.675654 64.827612,144.635837 144.635837,144.635837c79.808225,0 144.635837,-64.960183 144.635837,-144.635837c0,-79.808225 -64.827612,-144.635837 -144.635837,-144.635837z"/>
   <path fill="#ffffff" stroke="null" id="svg_5" d="m693.468517,291.14531l-47.328134,0l0,-35.794387l47.328134,0c8.882311,0 16.041188,-7.158877 16.041188,-16.041188c0,-8.749739 -7.158877,-15.908616 -16.041188,-15.908616l-13.522324,0c-28.502938,0 -51.703003,-23.200066 -51.703003,-51.703003c0,-28.502938 23.200066,-51.703003 51.703003,-51.703003l47.328134,0l0,35.794387l-47.328134,0c-8.882311,0 -16.041188,7.158877 -16.041188,15.908616c0,8.882311 7.158877,16.041188 16.041188,16.041188l13.522324,0c28.502938,0 51.703003,23.200066 51.703003,51.703003c0,28.370366 -23.200066,51.703003 -51.703003,51.703003z"/>
   <rect fill="#ffffff" stroke="null" id="svg_7" y="97.192762" x="668.810161" width="35.794387" height="40.699544"/>
   <rect fill="#ffffff" stroke="null" id="svg_9" y="273.248117" x="668.810161" width="35.794387" height="40.699544"/>
   <polyline fill="#ffffff" stroke="null" id="svg_19" points="617.5055768489838,366.44598388671875 492.3575360774994,366.44598388671875 492.3575360774994,330.6517333984375 577.3363873958588,330.6517333984375 "/>
   <polyline fill="#ffffff" stroke="null" id="svg_21" points="541.542014837265,294.85736083984375 492.3575360774994,294.85736083984375 492.3575360774994,259.1955261230469 526.5614240169525,259.1955261230469 "/>
   <g stroke="null" id="svg_23">
    <path fill="#ffffff" stroke="null" id="svg_15" d="m760.549854,360.347788l0,184.805093l-357.546153,0l0,-464.796741l171.017626,0l-29.033225,35.794387l-106.190014,0l0,393.34054l286.089951,0l0,-141.454114l35.661815,-7.689165z"/>
    <rect fill="#ffffff" stroke="null" id="svg_17" y="402.240481" x="495.008558" width="178.839362" height="35.794387"/>
   </g>
  </g>
 </g>
</svg>