<?xml version="1.0" encoding="UTF-8" ?>
<!DOCTYPE svg PUBLIC "-//W3C//DTD SVG 1.1//EN" "http://www.w3.org/Graphics/SVG/1.1/DTD/svg11.dtd">
<svg width="1658pt" height="720pt" viewBox="0 0 1658 720" version="1.1" xmlns="http://www.w3.org/2000/svg">
<g id="#ff8000ff">
<path fill="#ff8000" opacity="1.00" d=" M 205.50 157.74 C 210.32 156.79 215.59 156.62 220.13 158.76 C 272.47 182.52 324.95 205.99 377.36 229.60 C 384.10 232.73 391.35 235.08 397.27 239.73 C 406.20 245.99 405.16 261.41 396.45 267.48 C 391.89 271.26 385.54 270.73 380.03 271.00 C 266.68 271.04 153.32 270.92 39.97 271.06 C 31.86 272.10 22.83 268.04 19.87 260.12 C 18.41 254.20 17.75 247.08 22.25 242.24 C 27.14 236.03 34.95 233.92 41.80 230.76 C 90.56 208.88 139.28 186.92 188.02 164.98 C 193.79 162.47 199.32 159.18 205.50 157.74 Z" />
<path fill="#ff8000" opacity="1.00" d=" M 561.00 223.00 C 591.00 222.99 621.00 223.00 651.00 223.00 C 650.99 231.33 650.99 239.67 651.00 248.01 C 631.33 247.95 611.66 248.05 592.00 248.00 C 591.99 255.63 591.99 263.28 592.01 270.92 C 613.65 268.17 639.56 270.46 654.16 288.82 C 666.46 305.59 664.42 331.73 648.74 345.72 C 637.78 354.59 623.81 358.67 609.97 360.05 C 593.68 361.72 577.22 361.39 561.03 358.97 C 560.96 313.65 561.01 268.32 561.00 223.00 M 591.02 293.84 C 590.98 308.39 590.99 322.95 591.00 337.51 C 601.86 337.89 614.16 338.68 622.82 330.82 C 632.85 322.70 632.44 304.70 620.97 298.06 C 612.11 292.16 601.11 292.58 591.02 293.84 Z" />
<path fill="#ff8000" opacity="1.00" d=" M 681.85 266.28 C 696.35 260.20 712.09 256.78 727.87 258.22 C 737.63 259.51 747.61 263.13 754.10 270.91 C 760.03 278.22 762.48 287.74 762.76 297.02 C 763.78 318.00 761.86 339.08 764.08 360.01 C 755.10 359.98 746.14 359.97 737.18 359.96 C 736.54 356.67 735.89 353.37 735.23 350.09 C 723.23 362.19 702.88 366.42 688.19 356.81 C 671.43 346.30 670.68 319.12 685.72 306.73 C 698.31 295.08 716.59 294.15 732.78 293.64 C 731.96 289.54 731.59 283.88 726.97 282.06 C 714.16 275.41 699.60 281.36 687.25 286.15 C 685.51 279.50 683.70 272.89 681.85 266.28 M 708.69 319.68 C 702.16 325.31 704.50 337.70 713.10 339.89 C 719.09 340.80 726.48 339.42 730.03 334.01 C 735.33 328.19 732.16 319.67 733.25 312.70 C 724.86 313.76 715.10 313.17 708.69 319.68 Z" />
<path fill="#ff8000" opacity="1.00" d=" M 1046.44 258.48 C 1068.03 254.81 1091.74 266.33 1099.85 287.14 C 1107.79 307.24 1104.68 332.43 1089.14 348.14 C 1071.67 364.26 1043.10 366.73 1023.11 353.85 C 1013.79 348.44 1007.60 338.88 1004.05 328.92 C 1000.05 313.17 1000.33 295.24 1009.06 281.06 C 1016.98 268.07 1031.31 259.61 1046.44 258.48 M 1049.44 280.50 C 1039.24 282.12 1034.69 293.34 1033.43 302.39 C 1032.39 314.25 1033.04 329.55 1044.00 336.97 C 1051.89 342.88 1064.27 338.86 1067.92 329.95 C 1073.52 320.56 1072.27 309.04 1071.29 298.67 C 1069.49 288.60 1060.90 277.13 1049.44 280.50 Z" />
<path fill="#ff8000" opacity="1.00" d=" M 1256.97 262.94 C 1272.53 256.63 1290.22 256.52 1306.12 261.75 C 1304.42 269.33 1302.90 276.96 1301.12 284.53 C 1289.29 281.53 1274.59 279.34 1265.33 289.30 C 1253.95 301.93 1255.36 325.44 1270.73 334.30 C 1280.44 339.82 1292.05 337.74 1302.34 335.20 C 1303.34 342.79 1304.50 350.37 1305.85 357.92 C 1288.34 362.41 1268.49 365.10 1251.97 356.05 C 1235.01 348.37 1226.02 329.03 1226.98 311.00 C 1225.96 290.90 1237.88 270.27 1256.97 262.94 Z" />
<path fill="#ff8000" opacity="1.00" d=" M 1563.11 267.09 C 1580.99 254.23 1609.45 254.04 1624.39 271.63 C 1635.87 284.79 1636.94 303.42 1635.17 320.00 C 1613.89 320.02 1592.63 319.91 1571.37 320.11 C 1573.72 327.42 1578.20 334.79 1586.13 336.89 C 1599.38 341.05 1613.62 338.63 1626.71 334.92 C 1627.91 341.99 1629.29 349.03 1630.79 356.06 C 1614.39 361.45 1596.69 363.73 1579.62 360.47 C 1565.96 357.47 1553.09 348.40 1547.72 335.22 C 1537.87 312.51 1543.02 282.61 1563.11 267.09 M 1583.97 279.95 C 1576.45 283.12 1572.92 291.37 1571.55 298.93 C 1583.84 299.02 1596.15 299.02 1608.47 298.90 C 1606.67 293.29 1606.27 286.57 1601.60 282.40 C 1596.90 278.12 1589.67 278.36 1583.97 279.95 Z" />
<path fill="#ff8000" opacity="1.00" d=" M 1122.02 261.15 C 1144.28 260.05 1167.11 256.20 1189.04 261.91 C 1198.69 264.69 1209.44 270.75 1209.92 282.11 C 1211.69 293.77 1201.56 303.24 1190.95 305.69 C 1196.24 307.57 1201.39 309.81 1206.07 312.97 C 1216.03 321.09 1216.79 337.65 1207.74 346.75 C 1198.96 356.46 1185.37 358.88 1173.01 360.14 C 1156.04 361.66 1138.91 361.39 1122.03 359.11 C 1121.96 326.45 1121.99 293.80 1122.02 261.15 M 1152.01 278.82 C 1152.01 285.67 1152.00 292.51 1152.00 299.37 C 1160.23 298.47 1169.62 300.03 1176.77 294.77 C 1181.39 291.61 1181.08 283.51 1176.06 280.91 C 1168.60 276.82 1160.05 278.19 1152.01 278.82 M 1152.00 316.65 C 1151.99 325.18 1151.99 333.71 1152.00 342.25 C 1160.31 341.60 1169.32 342.92 1177.07 339.08 C 1183.56 335.86 1185.07 325.41 1178.73 321.30 C 1171.19 315.59 1160.72 317.69 1152.00 316.65 Z" />
<path fill="#ff8000" opacity="1.00" d=" M 786.00 259.98 C 796.33 260.02 806.65 260.02 816.99 259.99 C 816.96 271.99 817.02 284.00 817.01 296.01 C 826.99 295.98 836.99 295.98 846.99 296.01 C 846.96 284.00 847.02 272.00 847.01 259.99 C 857.33 260.02 867.66 260.02 878.00 259.99 C 878.01 293.33 878.00 326.67 878.00 360.02 C 867.66 359.98 857.33 359.97 847.01 360.01 C 847.01 346.67 846.98 333.33 846.99 319.99 C 836.99 320.01 827.00 320.01 817.01 319.99 C 817.00 333.33 816.98 346.67 816.99 360.02 C 806.65 359.98 796.32 359.97 786.00 360.01 C 785.99 326.67 785.99 293.32 786.00 259.98 Z" />
<path fill="#ff8000" opacity="1.00" d=" M 902.00 259.99 C 911.99 260.01 921.98 260.01 931.99 259.99 C 931.98 273.34 932.00 286.69 932.03 300.05 C 933.30 300.00 934.59 299.96 935.89 299.92 C 943.74 286.48 952.03 273.32 960.13 260.03 C 971.87 259.99 983.62 259.99 995.38 260.20 C 983.86 274.44 972.05 288.44 960.25 302.45 C 966.50 306.04 973.41 309.37 977.03 315.99 C 985.61 329.61 989.06 345.60 996.20 359.93 C 985.48 359.98 974.76 359.98 964.06 359.97 C 959.09 349.17 956.58 337.11 949.69 327.28 C 945.86 321.22 938.35 321.29 932.02 320.61 C 931.99 333.74 931.99 346.87 931.99 360.01 C 921.98 359.98 911.99 359.98 902.00 360.01 C 901.99 326.67 901.99 293.33 902.00 259.99 Z" />
<path fill="#ff8000" opacity="1.00" d=" M 1323.00 259.99 C 1332.98 260.01 1342.98 260.01 1352.99 259.99 C 1352.97 273.34 1353.00 286.69 1353.03 300.05 C 1354.30 300.00 1355.59 299.96 1356.89 299.92 C 1364.74 286.48 1373.03 273.32 1381.13 260.03 C 1392.87 259.99 1404.62 259.99 1416.38 260.20 C 1404.86 274.44 1393.05 288.44 1381.25 302.45 C 1387.50 306.04 1394.41 309.37 1398.03 315.99 C 1406.61 329.61 1410.06 345.60 1417.20 359.93 C 1406.47 359.98 1395.76 359.98 1385.06 359.97 C 1380.08 349.17 1377.58 337.11 1370.69 327.28 C 1366.86 321.22 1359.35 321.29 1353.02 320.61 C 1352.99 333.74 1352.99 346.87 1352.99 360.01 C 1342.98 359.98 1332.99 359.98 1323.00 360.01 C 1322.99 326.67 1322.99 293.33 1323.00 259.99 Z" />
<path fill="#ff8000" opacity="1.00" d=" M 1429.00 259.98 C 1438.65 260.01 1448.32 260.03 1458.00 259.99 C 1458.42 283.83 1457.58 307.66 1456.55 331.47 C 1460.48 323.99 1462.83 315.83 1466.12 308.06 C 1472.82 291.92 1480.62 276.26 1487.24 260.09 C 1499.81 259.99 1512.40 260.00 1525.00 259.99 C 1525.00 293.33 1525.00 326.67 1525.00 360.02 C 1515.31 359.98 1505.66 359.97 1496.00 360.01 C 1495.69 335.23 1496.15 310.45 1497.53 285.70 C 1488.21 310.96 1476.73 335.32 1466.03 360.01 C 1453.68 360.00 1441.33 359.99 1429.00 360.00 C 1428.99 326.66 1428.99 293.32 1429.00 259.98 Z" />
<path fill="#ff8000" opacity="1.00" d=" M 49.64 298.33 C 45.80 290.65 54.93 283.84 62.00 285.16 C 160.33 284.71 258.69 285.23 357.03 284.90 C 361.57 284.78 367.09 284.83 370.29 288.71 C 373.82 291.62 373.99 297.61 370.82 300.83 C 368.09 303.78 363.72 303.65 360.10 304.64 C 359.91 356.21 359.98 407.78 360.06 459.35 C 368.21 459.25 376.71 463.16 380.01 470.99 C 386.03 482.09 375.59 497.32 363.04 495.92 C 261.37 496.00 159.67 496.18 57.99 495.83 C 43.59 497.23 34.17 477.36 44.13 467.11 C 47.88 460.94 55.52 460.25 61.95 459.54 C 62.00 407.98 62.11 356.41 61.89 304.85 C 57.47 304.14 51.39 303.28 49.64 298.33 M 98.00 304.00 C 97.99 356.00 98.00 408.00 98.00 459.99 C 115.00 460.01 132.00 460.00 149.00 460.00 C 149.00 408.00 149.00 356.00 149.00 304.01 C 132.00 303.99 115.00 303.99 98.00 304.00 M 185.00 304.00 C 184.99 356.00 185.00 407.99 185.00 459.99 C 202.19 460.00 219.38 460.01 236.57 460.03 C 235.27 408.04 236.36 356.01 236.00 304.01 C 219.00 303.99 202.00 303.99 185.00 304.00 M 273.00 304.00 C 272.61 356.01 273.79 408.03 272.38 460.02 C 289.58 460.01 306.79 460.00 324.00 459.99 C 324.00 408.00 324.00 356.00 324.00 304.00 C 307.00 303.99 290.00 303.99 273.00 304.00 Z" />
<path fill="#ff8000" opacity="1.00" d=" M 947.97 412.94 C 963.53 406.63 981.22 406.52 997.12 411.75 C 995.42 419.33 993.90 426.96 992.12 434.53 C 982.48 432.59 971.91 429.76 962.65 434.63 C 944.34 444.12 944.17 474.96 962.34 484.65 C 972.01 489.73 983.24 487.68 993.34 485.20 C 994.34 492.79 995.50 500.37 996.85 507.92 C 979.34 512.41 959.49 515.10 942.97 506.05 C 926.01 498.37 917.03 479.03 917.98 461.00 C 916.96 440.90 928.89 420.27 947.97 412.94 Z" />
<path fill="#ff8000" opacity="1.00" d=" M 810.09 409.98 C 821.42 409.97 832.75 410.02 844.09 409.99 C 850.69 432.44 857.66 454.77 863.59 477.41 C 869.51 455.05 874.88 432.55 880.26 410.06 C 891.21 410.01 902.17 410.00 913.14 410.03 C 902.57 438.70 893.74 467.99 882.46 496.39 C 875.59 513.00 868.37 530.43 854.45 542.46 C 846.48 549.40 836.38 552.81 826.29 555.24 C 824.31 546.35 822.17 537.50 820.08 528.65 C 830.23 525.67 840.41 520.28 845.86 510.84 C 848.71 504.43 844.86 498.20 842.60 492.37 C 831.58 464.98 821.16 437.35 810.09 409.98 Z" />
<path fill="#ff8000" opacity="1.00" d=" M 1024.00 410.00 C 1050.66 409.99 1077.32 410.00 1104.00 410.00 C 1104.00 443.34 1104.00 476.68 1104.00 510.02 C 1093.65 509.97 1083.32 509.97 1073.00 510.01 C 1072.99 484.67 1073.00 459.33 1073.00 433.99 C 1065.98 434.00 1058.99 434.00 1052.01 434.00 C 1051.45 454.12 1054.69 476.19 1044.68 494.71 C 1040.07 501.32 1033.99 507.83 1025.91 509.93 C 1020.68 511.25 1015.30 511.71 1009.97 512.31 C 1008.82 504.43 1007.77 496.55 1007.04 488.63 C 1013.70 485.63 1021.44 481.22 1021.89 473.02 C 1025.70 452.25 1023.42 430.97 1024.00 410.00 Z" />
<path fill="#ff8000" opacity="1.00" d=" M 1116.09 409.98 C 1127.41 409.97 1138.75 410.02 1150.09 409.99 C 1156.69 432.44 1163.66 454.77 1169.59 477.41 C 1175.51 455.05 1180.88 432.55 1186.26 410.06 C 1197.21 410.01 1208.17 410.00 1219.14 410.03 C 1209.35 436.81 1200.83 464.04 1190.72 490.70 C 1183.64 508.19 1176.75 526.53 1163.08 540.08 C 1154.76 548.40 1143.54 552.66 1132.29 555.24 C 1130.31 546.35 1128.17 537.50 1126.08 528.65 C 1136.23 525.67 1146.41 520.28 1151.86 510.84 C 1154.71 504.43 1150.86 498.20 1148.60 492.37 C 1137.58 464.98 1127.16 437.35 1116.09 409.98 Z" />
<path fill="#ff8000" opacity="1.00" d=" M 1231.00 410.01 C 1254.00 409.99 1277.00 409.98 1300.00 410.01 C 1299.96 417.99 1300.00 425.99 1300.00 433.99 C 1287.32 433.98 1274.66 434.02 1262.00 434.01 C 1261.99 459.34 1262.00 484.67 1262.00 510.01 C 1251.65 509.97 1241.32 509.98 1231.00 510.01 C 1230.99 476.68 1230.99 443.34 1231.00 410.01 Z" />
<path fill="#ff8000" opacity="1.00" d=" M 1313.00 409.98 C 1322.65 410.01 1332.32 410.02 1342.00 409.99 C 1342.42 433.83 1341.58 457.66 1340.55 481.47 C 1344.48 473.99 1346.83 465.83 1350.12 458.06 C 1356.82 441.92 1364.62 426.26 1371.24 410.09 C 1383.81 409.99 1396.40 409.99 1409.00 409.99 C 1409.00 443.33 1409.00 476.67 1409.00 510.02 C 1399.31 509.98 1389.66 509.97 1380.00 510.01 C 1379.69 485.23 1380.15 460.45 1381.53 435.70 C 1372.21 460.96 1360.73 485.32 1350.03 510.01 C 1337.68 510.00 1325.34 509.99 1313.00 510.00 C 1312.99 476.66 1312.99 443.32 1313.00 409.98 Z" />
<path fill="#ff8000" opacity="1.00" d=" M 34.42 505.53 C 47.59 504.48 60.81 505.04 74.00 504.98 C 177.35 505.06 280.69 504.94 384.04 505.02 C 390.01 505.02 395.53 508.20 399.67 512.31 C 406.77 520.72 403.25 535.83 392.90 539.87 C 387.44 541.43 381.59 540.73 376.01 541.09 C 262.66 540.86 149.31 541.10 35.96 540.98 C 26.79 542.10 17.85 533.12 18.84 524.00 C 17.41 514.82 25.53 506.25 34.42 505.53 Z" />
</g>
</svg>
