<?xml version="1.0" encoding="utf-8"?>
<!-- Generator: Adobe Illustrator 22.1.0, SVG Export Plug-In . SVG Version: 6.00 Build 0)  -->
<svg version="1.1" id="Слой_1" xmlns="http://www.w3.org/2000/svg" xmlns:xlink="http://www.w3.org/1999/xlink" x="0px" y="0px"
	 viewBox="0 0 2157 703" style="enable-background:new 0 0 2157 703;" xml:space="preserve">
<style type="text/css">
	.st0{fill:#FF6C2F;}
</style>
<g>
	<path class="st0" d="M337.9,13.6C151.6,13.6,0,165.2,0,351.5c0,186.3,151.6,337.9,337.9,337.9c186.3,0,337.9-151.6,337.9-337.9
		C675.8,165.2,524.2,13.6,337.9,13.6 M377.1,483.4c-58.1,72.4-136.8,77.8-136.8,77.8s39.3-14.8,76.6-76.5
		c35.8-65.3,38.8-114.3,72.4-156.6c56.9-71.4,130.1-54.5,130.1-54.5c-8.4-26.7-33.3-43.2-68.5-41.7c-11.5-37.2-61.1-50.9-96.5-32.6
		c-26.3,13.7-54.5,33.4-86,32.8c-3.5,0-7-0.1-10.6-0.5c-19.5-2.3-38.7-13.4-51.7-26.5c-2.2,30.7,17.6,59.4,40.9,69
		c39.7,16.3,68.1-3.5,68.1-3.5c-21.9,59.6-67.1,121.6-129.6,162.9c-66.6-33-110.5-93.1-119.6-175.8c39.2-112,145.8-192.5,271-192.5
		c158.3,0,287,128.8,287,287c0,3.2-0.1,6.4-0.2,9.5C567.4,441.9,477.3,487,377.1,483.4"/>
	<path class="st0" d="M1342.2,379.7c0,26.1-6.6,45.9-19.8,59.6c-13.2,13.7-31,20.5-53.4,20.5c-20,0-35.5-5.9-46.3-17.8
		c-10.9-11.8-16.3-29.6-16.3-53.3V259.5h-62.6v137.3c0,39.4,10.3,69,30.8,88.7c20.5,19.7,48.7,29.6,84.4,29.6
		c16.7,0,32.2-2.9,46.6-8.8c14.4-5.9,26.5-14.3,36.6-25.3v18.6c0,27.4-6.4,47.7-19.3,60.9c-12.9,13.2-33,19.8-60.4,19.8
		c-18,0-26.7-2.8-43.1-8.5c-16.4-5.7-30.2-13.4-41.6-23l-28,47.1c14.4,12.3,32.6,21.8,54.9,28.3c22.2,6.5,37,9.8,61.4,9.8
		c92.5,0,138.8-47.1,138.8-141.3V259.5h-62.6V379.7z"/>
	<polygon class="st0" points="1749.3,259.5 1649.6,426.8 1554.4,259.5 1488.8,259.5 1488.8,527 1545.9,527 1545.9,349.1 
		1634.6,498.9 1661.6,498.9 1751.8,349.6 1751.8,527 1808.4,527 1807.9,259.5 	"/>
	<path class="st0" d="M2138.7,322.6c-12.2-20.7-29.1-36.9-50.8-48.6c-21.7-11.7-46.3-17.5-73.6-17.5c-27.1,0-51.4,5.9-73.1,17.5
		c-21.7,11.7-38.7,27.9-50.8,48.6c-12.2,20.7-18.3,44.3-18.3,70.7c0,26.4,6.1,50,18.3,70.9c12.2,20.9,29.1,37.1,50.8,48.8
		c21.7,11.7,46.1,17.6,73.1,17.6c27.4,0,51.9-5.9,73.6-17.6c21.7-11.7,38.6-28,50.8-48.8c12.2-20.9,18.3-44.5,18.3-70.9
		C2157,366.8,2150.9,343.3,2138.7,322.6 M2071.3,453.8c-15,15.4-34.1,23-57.1,23c-23.1,0-42-7.7-56.9-23
		c-14.8-15.3-22.3-35.6-22.3-60.6c0-25.1,7.4-45.3,22.3-60.6c14.9-15.4,33.8-23,56.9-23c23,0,42.1,7.7,57.1,23
		c15,15.4,22.6,35.6,22.6,60.6C2093.9,418.3,2086.4,438.5,2071.3,453.8"/>
	<polygon class="st0" points="968.4,344.6 1076.8,189.6 1000.6,189.6 927.3,293.5 854,189.6 778.7,189.6 888.2,347.1 769.4,515.8 
		844.6,515.8 927.3,399.2 1010.5,515.8 1049.9,515.8 1049.9,527 1050,527 1050,596 1105.7,596 1105.7,471.9 1057.2,471.9 	"/>
</g>
</svg>
