<?xml version="1.0" encoding="UTF-8" ?>
<!DOCTYPE svg PUBLIC "-//W3C//DTD SVG 1.1//EN" "http://www.w3.org/Graphics/SVG/1.1/DTD/svg11.dtd">
<svg width="1658pt" height="720pt" viewBox="0 0 1658 720" version="1.1" xmlns="http://www.w3.org/2000/svg">
<g id="#ff8000ff">
<path fill="#ff8000" opacity="1.00" d=" M 288.68 110.74 C 320.08 107.84 352.20 110.25 382.08 120.73 C 395.59 123.99 407.85 130.67 420.19 136.84 C 446.95 151.41 470.76 171.39 489.82 195.15 C 507.84 217.94 521.26 244.25 529.86 271.97 C 537.31 301.26 541.27 331.90 536.98 362.00 C 534.95 388.36 525.62 413.52 514.11 437.11 C 509.53 447.21 502.85 456.12 497.41 465.74 C 517.23 484.18 535.63 504.10 555.13 522.87 C 564.01 531.66 572.46 540.87 581.62 549.38 C 587.39 554.97 593.85 561.39 593.93 570.03 C 594.00 577.33 595.38 585.56 591.01 592.02 C 587.95 598.68 581.65 602.89 575.71 606.73 C 569.37 610.90 561.26 610.32 554.06 609.83 C 546.69 607.98 540.52 603.02 535.20 597.81 C 507.19 569.67 479.17 541.54 450.98 513.59 C 431.43 528.04 410.11 540.28 387.08 548.23 C 361.11 556.81 333.73 561.53 306.33 560.65 C 280.29 560.51 254.67 554.10 230.55 544.62 C 207.07 536.13 186.05 521.97 167.00 506.06 C 143.54 487.04 125.66 462.06 111.54 435.56 C 104.18 419.10 97.31 402.29 93.69 384.55 C 91.52 372.45 88.48 360.41 88.95 348.01 C 89.15 330.03 87.47 311.72 91.86 294.08 C 99.32 253.61 118.46 215.57 145.89 184.95 C 153.92 173.99 165.31 166.31 175.31 157.32 C 187.53 148.23 200.23 139.59 213.98 132.96 C 237.28 121.03 263.05 115.14 288.68 110.74 M 311.37 164.44 C 259.45 165.15 208.17 190.28 177.36 232.30 C 171.50 240.88 165.61 249.50 160.63 258.64 C 143.43 293.96 137.71 335.28 147.41 373.59 C 151.38 394.99 161.35 414.76 173.27 432.77 C 195.74 465.23 229.97 489.16 267.82 500.07 C 283.30 503.54 299.04 506.86 315.01 506.12 C 330.63 506.33 345.95 502.75 361.04 499.15 C 373.88 496.22 385.59 490.09 397.21 484.11 C 409.31 477.37 420.10 468.53 430.75 459.74 C 442.63 446.65 454.88 433.38 462.81 417.40 C 476.53 392.63 484.60 364.43 484.14 336.00 C 484.63 317.10 480.58 298.48 475.40 280.43 C 466.89 259.99 457.57 239.17 441.94 223.05 C 410.15 185.19 360.56 163.96 311.37 164.44 Z" />
<path fill="#ff8000" opacity="1.00" d=" M 297.43 189.51 C 321.64 187.50 345.52 195.32 366.88 206.16 C 390.43 220.09 411.06 240.16 422.91 265.06 C 426.42 271.75 428.54 279.99 425.11 287.16 C 420.26 301.48 401.83 310.84 388.03 303.07 C 377.47 298.65 373.54 287.28 367.51 278.57 C 360.51 267.30 349.64 259.12 338.16 252.82 C 330.05 248.06 320.63 246.39 311.45 245.08 C 303.97 243.82 295.79 244.92 288.92 241.14 C 281.69 237.28 274.99 230.95 273.52 222.56 C 269.31 207.25 281.97 190.68 297.43 189.51 Z" />
<path fill="#ff8000" opacity="1.00" d=" M 859.01 194.01 C 895.34 193.99 931.66 193.99 967.99 194.01 C 968.01 239.68 968.01 285.35 967.99 331.02 C 957.65 330.99 947.33 330.98 937.02 331.00 C 936.94 294.01 937.05 257.02 936.99 220.03 C 921.32 219.95 905.66 219.96 890.01 220.02 C 889.95 257.02 890.05 294.01 889.99 331.01 C 879.65 330.99 869.33 330.99 859.02 331.00 C 858.98 285.34 858.98 239.67 859.01 194.01 Z" />
<path fill="#ff8000" opacity="1.00" d=" M 1072.44 229.48 C 1092.45 226.21 1114.56 235.57 1123.88 254.04 C 1134.47 274.66 1131.59 302.35 1115.15 319.14 C 1094.75 338.10 1058.95 337.92 1039.83 317.18 C 1034.36 310.28 1029.67 302.29 1028.66 293.39 C 1026.10 278.33 1027.73 261.61 1037.12 249.08 C 1045.20 237.66 1058.56 230.59 1072.44 229.48 M 1075.44 251.49 C 1065.24 253.12 1060.70 264.34 1059.42 273.40 C 1058.40 285.24 1059.04 300.57 1070.01 307.97 C 1077.89 313.89 1090.28 309.86 1093.92 300.95 C 1099.50 291.55 1098.32 280.05 1097.29 269.68 C 1095.48 259.60 1086.91 248.14 1075.44 251.49 Z" />
<path fill="#ff8000" opacity="1.00" d=" M 1358.30 243.30 C 1375.29 227.98 1401.00 225.78 1422.10 232.78 C 1420.47 240.38 1418.92 247.99 1417.11 255.55 C 1405.30 252.46 1390.59 250.37 1381.33 260.30 C 1369.96 272.93 1371.34 296.45 1386.73 305.29 C 1396.44 310.86 1408.06 308.73 1418.34 306.19 C 1419.39 313.78 1420.49 321.36 1421.84 328.91 C 1404.34 333.47 1384.49 336.08 1367.97 327.04 C 1358.10 322.74 1351.04 313.92 1346.68 304.32 C 1339.26 283.99 1342.04 258.64 1358.30 243.30 Z" />
<path fill="#ff8000" opacity="1.00" d=" M 1189.02 230.97 C 1198.65 231.02 1208.32 231.03 1217.98 230.99 C 1218.47 254.84 1217.57 278.67 1216.52 302.50 C 1220.53 295.03 1222.81 286.83 1226.11 279.05 C 1232.86 262.94 1240.56 247.24 1247.26 231.10 C 1259.83 230.95 1272.41 230.96 1284.99 231.01 C 1285.01 264.35 1285.02 297.68 1284.98 331.03 C 1275.31 330.97 1265.66 330.96 1256.02 331.01 C 1255.65 306.22 1256.17 281.43 1257.54 256.67 C 1248.19 281.94 1236.77 306.34 1226.01 331.01 C 1213.67 331.04 1201.33 331.01 1189.01 330.99 C 1188.98 297.65 1188.97 264.31 1189.02 230.97 Z" />
<path fill="#ff8000" opacity="1.00" d=" M 1478.02 230.98 C 1487.99 231.03 1497.98 231.03 1507.98 230.98 C 1507.92 244.34 1508.04 257.71 1508.05 271.08 C 1509.30 271.01 1510.57 270.95 1511.87 270.89 C 1519.82 257.52 1527.96 244.27 1536.15 231.04 C 1547.88 230.95 1559.62 230.96 1571.37 231.19 C 1559.89 245.48 1547.99 259.44 1536.23 273.50 C 1542.50 277.04 1549.48 280.29 1553.04 286.99 C 1561.59 300.63 1565.08 316.60 1572.20 330.94 C 1561.47 331.02 1550.77 331.01 1540.07 330.96 C 1535.03 320.19 1532.58 308.10 1525.69 298.28 C 1521.86 292.10 1514.40 292.25 1508.02 291.66 C 1508.05 304.78 1507.93 317.90 1508.00 331.03 C 1497.99 330.98 1487.99 330.97 1478.02 331.02 C 1477.98 297.67 1477.98 264.32 1478.02 230.98 Z" />
<path fill="#ff8000" opacity="1.00" d=" M 1060.97 383.95 C 1076.53 377.67 1094.23 377.42 1110.10 382.78 C 1108.48 390.37 1106.92 397.99 1105.11 405.55 C 1095.28 403.46 1084.33 400.66 1075.02 405.99 C 1063.47 412.10 1059.98 427.19 1062.90 439.05 C 1064.89 449.29 1074.21 457.56 1084.60 458.43 C 1091.95 459.86 1099.19 457.62 1106.34 456.19 C 1107.39 463.77 1108.50 471.36 1109.84 478.91 C 1092.34 483.47 1072.49 486.08 1055.97 477.04 C 1039.00 469.37 1030.05 450.02 1030.97 432.00 C 1029.98 411.91 1041.87 391.25 1060.97 383.95 Z" />
<path fill="#ff8000" opacity="1.00" d=" M 883.09 380.96 C 894.40 380.95 905.72 380.97 917.05 381.00 C 923.76 403.42 930.61 425.80 936.59 448.43 C 942.54 426.07 947.84 403.55 953.27 381.07 C 964.21 380.98 975.16 380.97 986.12 381.03 C 975.10 410.91 966.04 441.51 953.98 471.00 C 946.55 488.67 938.03 507.68 920.99 518.04 C 914.49 522.49 906.72 524.11 899.28 526.24 C 897.29 517.34 895.17 508.49 893.09 499.63 C 902.82 496.83 912.42 491.76 918.13 483.09 C 920.54 479.69 920.23 475.02 918.80 471.28 C 906.58 441.30 895.21 410.98 883.09 380.96 Z" />
<path fill="#ff8000" opacity="1.00" d=" M 1177.00 381.00 C 1203.66 380.98 1230.32 380.98 1256.98 381.02 C 1257.02 414.35 1257.01 447.68 1256.98 481.02 C 1246.65 480.98 1236.33 480.97 1226.02 481.01 C 1225.94 455.67 1226.05 430.33 1225.98 405.00 C 1218.98 405.02 1211.99 405.01 1205.02 404.99 C 1204.44 425.12 1207.68 447.18 1197.69 465.71 C 1192.95 472.57 1186.53 479.20 1178.12 481.17 C 1173.13 482.28 1168.05 482.73 1163.00 483.28 C 1161.76 475.42 1160.71 467.53 1160.07 459.60 C 1166.73 456.65 1174.46 452.20 1174.89 444.01 C 1178.72 423.25 1176.37 401.97 1177.00 381.00 Z" />
<path fill="#ff8000" opacity="1.00" d=" M 1309.09 380.96 C 1320.40 380.95 1331.72 380.97 1343.05 381.00 C 1349.76 403.42 1356.61 425.80 1362.59 448.43 C 1368.53 426.07 1373.83 403.55 1379.27 381.07 C 1390.21 380.98 1401.16 380.97 1412.12 381.03 C 1399.14 415.83 1389.27 451.87 1373.52 485.60 C 1367.31 498.18 1359.31 510.69 1346.99 518.04 C 1340.49 522.49 1332.72 524.11 1325.28 526.24 C 1323.29 517.34 1321.17 508.49 1319.09 499.63 C 1329.45 496.64 1339.94 491.02 1345.18 481.18 C 1347.54 474.62 1343.50 468.60 1341.30 462.69 C 1330.44 435.50 1320.04 408.12 1309.09 380.96 Z" />
<path fill="#ff8000" opacity="1.00" d=" M 1464.02 381.01 C 1487.02 380.98 1510.02 380.97 1533.04 381.00 C 1532.95 388.99 1532.92 396.99 1533.03 404.98 C 1520.34 404.95 1507.67 405.04 1495.01 405.01 C 1494.95 430.34 1495.05 455.68 1494.98 481.01 C 1484.64 480.99 1474.32 480.98 1464.02 481.00 C 1463.97 447.67 1463.98 414.34 1464.02 381.01 Z" />
</g>
</svg>
