<svg width="57" height="60" viewBox="0 0 57 60" fill="none" xmlns="http://www.w3.org/2000/svg">
<path d="M28.1926 0C22.6167 0 17.1659 1.75947 12.5297 5.05591C7.8934 8.35235 4.27988 13.0377 2.14605 18.5195C0.012214 24.0013 -0.546092 30.0333 0.541726 35.8527C1.62954 41.6721 4.31463 47.0176 8.25744 51.2132C12.2002 55.4088 17.2237 58.266 22.6925 59.4235C28.1613 60.5811 33.83 59.987 38.9815 57.7164C44.133 55.4457 48.5361 51.6006 51.6339 46.6671C54.7318 41.7336 56.3852 35.9334 56.3852 30C56.376 22.0465 53.4027 14.4216 48.1176 8.79769C42.8324 3.17374 35.6669 0.00986579 28.1926 0ZM31.4685 41.7129C28.6529 45.5089 24.5577 47.9875 20.0525 48.6226C20.0525 48.6226 23.3343 47.3053 26.4758 41.831C29.4598 36.0273 29.7109 31.6777 32.5196 27.9246C37.2612 21.5804 43.3692 23.0841 43.3692 23.0841C42.6685 20.7104 40.5955 19.244 37.6525 19.3869C36.6948 16.0812 32.5547 14.8571 29.5941 16.4913C27.4043 17.734 25.051 19.4615 22.4175 19.4055C22.123 19.4095 21.8286 19.395 21.5357 19.362C19.8956 19.0989 18.3808 18.2743 17.2204 17.0132C17.1512 18.2804 17.4395 19.5407 18.0481 20.6324C18.6568 21.724 19.5581 22.5973 20.6364 23.14C21.5387 23.576 22.5261 23.7753 23.5158 23.7213C24.5054 23.6672 25.4684 23.3613 26.324 22.8293C24.2199 28.732 20.4373 33.7889 15.5036 37.2949C9.94451 34.3621 6.28321 29.0306 5.52409 21.6798C7.39168 15.9993 11.0888 11.2057 15.9602 8.14849C20.8316 5.09127 26.5628 3.96782 32.1382 4.97722C37.7136 5.98662 42.7732 9.0637 46.4204 13.6632C50.0676 18.2626 52.067 24.0875 52.0641 30.1056C52.0641 30.3915 52.0641 30.6711 52.0641 30.9507C49.7713 34.4528 46.6819 37.2795 43.0844 39.1669C39.4869 41.0544 35.4986 41.941 31.4919 41.744" fill="white"/>
</svg>
