<svg xmlns="http://www.w3.org/2000/svg" width="256" height="256" viewBox="0 0 256 256">
    <g>
        <g>
            <!-- Primary System Gear (Solid White) -->
            <path fill="#FFFFFF"
                d="M138.6,104.2c-12.2-3.3-14.9-10.1-8.5-21.5c1.7-3,4.1-5.8,4-9.5c-0.5-8.2-9.9-12.2-18.4-7.9c-14.8,7.5-18.9,5.8-23.9-9.9c-1.7-5.5-3.9-9.8-11.1-9.8c-7,0-9.6,3.8-11.4,9.4C63.9,71.1,59.9,73,45.6,65.4c-5.7-3-10.3-4.5-15.5,1.2c-4.8,5.3-3.1,9.5-0.2,14.7c7.6,13.6,5.4,18.9-9.5,23.2c-6,1.8-10.5,4-10.4,11.8c0.1,7.2,4.5,9.2,9.9,10.9c15.2,4.7,17.6,9.9,10.1,22.9c-3.2,5.6-4.9,10,0.5,15.6c5.6,5.8,10.3,3.2,15.6,0.3c13.1-7,18.7-4.7,22.7,9.3c1.7,5.8,3.4,10.9,11.3,11c7.8,0.1,9.9-4.6,11.7-10.5c4.2-14.5,9.7-17,23.3-9.2c7.9,4.5,13.2,2.7,17.7-4.1c3.5-5.4-0.8-9.5-3.2-13.8c-5.7-10.5-2.9-17.8,8.5-20.8c6.6-1.7,12.8-3,12.6-12.2C150.6,106.9,144.7,105.9,138.6,104.2z M80.5,146.3c-16.8,0.1-30.5-13.4-30.5-30.2c-0.1-16.9,13.4-30.4,30.2-30.5c16.8-0.1,30.5,13.4,30.5,30.2C110.9,132.7,97.4,146.2,80.5,146.3z" />

            <!-- Secondary Brand Gear (Humo Orange) -->
            <path fill="#FA5300"
                d="M238.6,158.9c-8.8-5.3-9.4-11.2-1.9-18.7c2-2,4.5-3.6,5.3-6.5c1.4-6.5-5-11.7-12.6-10.3c-13.2,2.6-16.1,0.3-16.5-13c-0.1-4.6-0.8-8.5-6.4-10.1c-5.5-1.6-8.3,0.8-11,4.8c-7.8,11.5-11.3,12-20.7,2.9c-3.7-3.6-7.1-5.8-12.4-2.5c-5,3-4.6,6.7-3.4,11.4c2.9,12.3,0,15.9-12.5,16c-5.1,0-9.1,0.8-10.7,6.9c-1.5,5.7,1.5,8.2,5.3,10.7c10.8,7,11.6,11.7,2.8,20.2c-3.8,3.6-6,6.7-3.1,12.3c3.1,5.7,7.3,4.8,12.1,3.7c11.8-2.6,15.6,0.5,15.6,12.3c0,4.9,0.2,9.2,6.4,11.1c6,1.8,8.8-1.3,11.5-5.6c6.5-10.4,11.4-11.1,20.2-2c5.2,5.3,9.7,5.1,14.7,0.7c4-3.4,1.5-7.6,0.6-11.5c-2.1-9.5,1.7-14.6,11.2-14.4c5.6,0.1,10.7,0.6,12.6-6.7C247.4,163.8,243,161.6,238.6,158.9z M183.9,178.9c-13.1-3.7-20.8-17.3-17.1-30.4c3.7-13.2,17.2-20.8,30.4-17.1c13.1,3.7,20.8,17.3,17.1,30.4C210.6,175,197.1,182.6,183.9,178.9z" />

            <!-- Midnight Black Centers for "Rich" Depth -->
            <circle cx="80.5" cy="116.1" r="14" fill="#1C1C1E" />
            <circle cx="201.2" cy="148.5" r="14" fill="#1C1C1E" />
        </g>
    </g>
</svg>