<svg xmlns="http://www.w3.org/2000/svg" width="256" height="256" viewBox="0 0 256 256">
    <g>
        <!-- The Main "Level Up" Arrow: Solid White for Sunlight Contrast -->
        <path fill="#FFFFFF" d="M128,20 L230,130 H170 V230 H86 V130 H26 Z" />

        <!-- The Humo Brand Accent: Solid Orange (The "Brand Pulse") -->
        <path fill="#FA5300" d="M128,50 L195,122 H162 V222 H94 V122 H61 Z" opacity="0.9" />

        <!-- Internal Detail: Midnight Black Cut-out (Rich UI Depth) -->
        <g transform="translate(100, 100) scale(0.4)" fill="#1C1C1E">
            <path
                d="M69.75.64a67.71,67.71,0,1,0,67.72,67.71A67.79,67.79,0,0,0,69.75.64m7.87,94.14a41.93,41.93,0,0,1-27.42,15.6s7.88-3,15.36-15.33C72.72,82,73.33,72.14,80.07,63.67c11.39-14.32,26.07-10.93,26.07-10.93-1.69-5.36-6.67-8.66-13.74-8.35-2.3-7.45-12.25-10.21-19.34-6.52-5.27,2.73-10.93,6.69-17.25,6.56a16.63,16.63,0,0,1-2.11-.09A18.36,18.36,0,0,1,43.34,39c-.44,6.15,3.52,11.91,8.2,13.83,8,3.27,13.65-.7,13.65-.7a68.36,68.36,0,0,1-26,32.64c-13.35-6.61-22.15-18.65-24-35.24A57.52,57.52,0,0,1,127.08,68.52c0,.64,0,1.27,0,1.91A57,57,0,0,1,77.62,94.78" />
        </g>
    </g>
</svg>