<?xml version="1.0" encoding="UTF-8" ?>
<!DOCTYPE svg PUBLIC "-//W3C//DTD SVG 1.1//EN" "http://www.w3.org/Graphics/SVG/1.1/DTD/svg11.dtd">
<svg width="1280pt" height="720pt" viewBox="0 0 1280 720" version="1.1" xmlns="http://www.w3.org/2000/svg">
<g id="#00a1c9ff">
<path fill="#00a1c9" opacity="1.00" d=" M 534.04 39.17 C 546.32 38.06 558.67 37.97 570.93 36.52 C 595.27 35.45 619.64 36.21 644.00 36.00 C 672.33 36.22 700.75 35.05 729.00 37.77 C 810.02 42.33 890.87 52.36 969.92 70.99 C 1002.24 78.68 1034.33 87.61 1065.50 99.15 C 1054.96 117.18 1048.38 137.55 1047.58 158.51 C 1022.49 151.74 997.63 144.00 972.16 138.69 C 896.24 121.44 818.62 112.98 741.01 108.11 C 718.78 107.22 696.54 106.60 674.32 105.54 C 633.72 103.70 593.13 106.14 552.55 107.36 C 465.06 111.60 377.64 122.00 292.37 142.45 C 244.37 154.82 196.27 169.33 152.97 193.99 C 131.95 206.29 111.16 221.36 99.21 243.14 C 97.97 245.10 96.75 247.47 94.30 248.08 C 82.40 251.21 69.96 253.07 58.98 258.96 C 46.77 264.21 36.89 273.25 26.16 280.85 C 24.93 268.74 23.89 256.26 27.50 244.43 C 35.32 211.85 59.29 186.11 84.82 165.82 C 130.63 130.86 184.56 108.70 238.97 90.97 C 334.44 60.52 434.28 45.89 534.04 39.17 Z" />
<path fill="#00a1c9" opacity="1.00" d=" M 1063.67 125.67 C 1077.22 86.71 1114.11 56.86 1155.19 52.33 C 1169.97 51.63 1185.30 51.10 1199.61 55.60 C 1225.94 62.69 1249.55 79.86 1264.05 102.99 C 1271.98 114.90 1276.71 128.64 1280.00 142.48 L 1280.00 183.48 C 1278.21 193.04 1274.98 202.26 1271.16 211.17 C 1253.10 250.21 1210.99 276.30 1168.07 275.66 C 1135.00 274.79 1102.11 259.64 1081.72 233.27 C 1057.45 203.80 1050.54 161.47 1063.67 125.67 M 1176.30 60.35 C 1183.75 66.22 1193.29 68.64 1202.72 66.33 C 1194.39 62.59 1185.37 60.84 1176.30 60.35 M 1162.35 62.42 C 1157.86 63.89 1157.98 69.85 1156.43 73.58 C 1165.89 74.80 1175.67 75.43 1185.11 73.63 C 1185.06 72.03 1185.02 70.43 1185.00 68.83 C 1177.67 66.03 1170.41 62.02 1162.35 62.42 M 1105.73 90.82 C 1118.06 85.83 1133.23 80.68 1137.78 66.74 C 1124.11 68.45 1109.07 76.41 1105.73 90.82 M 1195.51 70.57 C 1197.87 71.98 1200.27 73.34 1202.70 74.65 C 1202.79 73.69 1202.95 71.79 1203.03 70.83 C 1200.50 70.74 1197.99 70.65 1195.51 70.57 M 1188.98 71.97 C 1189.00 72.74 1189.04 74.30 1189.06 75.08 C 1190.57 75.30 1192.08 75.52 1193.61 75.73 C 1193.41 74.51 1193.20 73.29 1193.01 72.07 C 1191.65 72.04 1190.31 72.00 1188.98 71.97 M 1207.06 71.86 C 1207.02 73.24 1206.99 74.63 1206.98 76.02 C 1207.77 76.00 1209.36 75.96 1210.15 75.93 C 1209.93 74.80 1209.72 73.67 1209.53 72.53 C 1208.91 72.36 1207.68 72.03 1207.06 71.86 M 1176.92 76.93 C 1177.08 78.11 1177.25 79.30 1177.45 80.49 C 1178.11 80.64 1179.42 80.93 1180.08 81.07 C 1179.89 79.88 1179.72 78.70 1179.55 77.51 C 1178.89 77.36 1177.58 77.07 1176.92 76.93 M 1192.14 79.12 C 1190.63 79.51 1191.44 81.84 1192.87 81.28 C 1194.36 80.91 1193.50 78.57 1192.14 79.12 M 1211.09 79.47 C 1214.25 81.43 1217.72 82.85 1221.36 83.70 C 1219.10 80.37 1215.71 77.57 1211.09 79.47 M 1224.32 82.34 C 1225.82 87.69 1231.17 90.06 1235.71 92.46 C 1233.87 87.38 1228.97 84.52 1224.32 82.34 M 1084.87 105.52 C 1094.35 101.47 1102.53 93.74 1105.86 83.84 C 1096.61 88.36 1090.60 97.33 1084.87 105.52 M 1174.15 84.40 C 1173.29 88.38 1178.13 83.59 1174.15 84.40 M 1212.29 85.10 C 1213.99 88.47 1217.39 92.47 1221.17 89.00 C 1218.21 87.65 1215.25 86.35 1212.29 85.10 M 1165.00 86.00 C 1165.00 86.75 1165.00 88.25 1165.00 89.00 C 1166.32 89.00 1167.65 89.00 1169.00 89.00 C 1169.00 88.25 1169.00 86.75 1169.00 86.00 C 1167.65 86.00 1166.32 86.00 1165.00 86.00 M 1186.76 87.82 C 1185.09 94.75 1187.26 101.69 1187.44 108.62 C 1186.88 112.45 1182.62 113.63 1179.65 115.04 C 1178.69 109.04 1179.15 102.91 1177.59 97.00 C 1172.48 100.24 1168.13 105.70 1161.43 104.79 C 1161.25 105.80 1161.09 106.81 1160.95 107.82 C 1162.96 109.27 1164.99 110.71 1167.02 112.16 C 1168.84 110.58 1170.66 109.00 1172.50 107.43 C 1174.70 111.10 1176.49 114.98 1178.40 118.81 C 1180.01 118.65 1181.63 118.48 1183.26 118.33 C 1185.84 122.53 1190.18 125.05 1195.02 125.93 C 1196.42 121.28 1197.10 116.45 1196.83 111.58 C 1196.35 106.27 1198.01 100.06 1194.62 95.37 C 1192.33 92.52 1189.64 90.05 1186.76 87.82 M 1219.69 94.31 C 1226.56 105.13 1231.66 116.88 1237.07 128.46 C 1240.43 127.07 1243.89 125.74 1246.81 123.51 C 1244.06 115.52 1238.79 108.50 1235.34 100.77 C 1233.39 96.16 1229.23 93.20 1225.30 90.40 C 1223.43 91.71 1221.56 93.01 1219.69 94.31 M 1108.61 95.93 C 1110.53 94.67 1112.35 93.26 1114.09 91.74 C 1112.13 92.97 1110.29 94.36 1108.61 95.93 M 1080.47 116.45 C 1075.42 127.19 1080.50 139.12 1085.58 148.81 C 1087.34 139.67 1086.92 130.13 1090.25 121.30 C 1092.55 112.70 1098.13 105.59 1103.16 98.43 C 1094.27 102.37 1086.60 108.98 1080.47 116.45 M 1219.65 101.98 C 1217.66 106.63 1213.96 110.03 1210.58 113.61 C 1207.64 116.72 1207.03 121.18 1205.70 125.07 C 1202.82 124.42 1199.94 123.73 1197.05 123.19 C 1198.64 125.40 1200.16 128.22 1203.08 128.82 C 1212.99 130.82 1223.23 131.07 1233.18 129.14 C 1229.74 119.59 1225.24 110.45 1219.65 101.98 M 1156.40 108.38 C 1155.17 113.89 1156.12 119.55 1156.62 125.08 C 1159.90 122.34 1162.66 119.02 1165.57 115.88 C 1162.56 113.31 1159.52 110.79 1156.40 108.38 M 1139.42 125.15 C 1138.46 128.09 1137.62 131.05 1136.54 133.94 C 1138.81 133.87 1141.10 133.81 1143.39 133.83 C 1143.23 136.51 1142.94 139.18 1142.63 141.86 C 1144.23 141.64 1145.83 141.40 1147.45 141.16 C 1146.68 135.58 1145.28 130.12 1143.15 124.91 C 1141.89 124.99 1140.65 125.07 1139.42 125.15 M 1073.65 125.48 C 1068.94 137.19 1065.40 149.81 1066.59 162.55 C 1068.70 176.22 1076.38 188.15 1085.11 198.56 C 1087.50 191.78 1090.34 185.16 1093.87 178.89 C 1091.32 175.87 1088.52 172.99 1086.55 169.56 C 1083.99 163.35 1085.08 156.17 1081.98 150.12 C 1077.99 142.34 1076.39 133.71 1073.65 125.48 M 1187.24 125.94 C 1187.00 133.04 1187.32 140.15 1187.73 147.24 C 1192.21 143.37 1193.37 137.02 1192.67 131.37 C 1191.73 128.86 1189.23 127.51 1187.24 125.94 M 1237.82 132.04 C 1241.80 144.69 1244.36 157.68 1246.94 170.66 C 1249.05 169.76 1251.16 168.82 1253.24 167.80 C 1251.04 164.70 1246.92 161.16 1249.24 157.01 C 1251.39 152.81 1249.99 148.12 1249.15 143.77 C 1248.86 138.16 1249.61 132.54 1249.58 126.93 C 1245.61 128.54 1241.72 130.30 1237.82 132.04 M 1197.87 130.91 C 1193.55 143.57 1191.22 156.80 1187.03 169.50 C 1204.78 175.83 1225.04 177.73 1243.06 171.47 C 1240.86 158.54 1238.66 145.57 1234.16 133.19 C 1222.03 134.81 1209.83 132.91 1197.87 130.91 M 1173.36 141.98 C 1175.02 144.65 1176.87 147.21 1178.57 149.87 C 1175.23 151.09 1171.88 152.29 1168.50 153.37 C 1167.94 151.37 1167.39 149.38 1166.83 147.39 C 1161.94 149.96 1157.30 152.95 1152.49 155.62 C 1162.62 160.84 1172.91 166.23 1184.18 168.57 C 1185.17 164.16 1187.02 159.76 1187.08 155.24 C 1184.38 150.31 1182.96 145.04 1183.34 139.40 C 1179.96 140.06 1176.65 140.99 1173.36 141.98 M 1266.82 152.34 C 1264.46 150.82 1262.18 149.17 1259.86 147.60 C 1258.74 153.17 1257.74 158.77 1257.07 164.41 C 1261.76 160.33 1267.42 156.98 1270.27 151.21 C 1272.12 148.52 1271.39 145.18 1270.94 142.19 C 1268.78 145.20 1267.38 148.67 1266.82 152.34 M 1100.76 154.74 C 1097.40 157.28 1096.60 161.78 1095.29 165.49 C 1096.63 166.46 1097.99 167.44 1099.35 168.41 C 1102.74 163.57 1105.83 158.52 1108.66 153.33 C 1106.00 153.46 1103.02 153.07 1100.76 154.74 M 1103.36 168.38 C 1102.79 169.57 1101.45 171.05 1102.84 172.19 C 1109.26 179.38 1116.73 185.74 1125.21 190.40 C 1122.10 185.40 1117.85 181.26 1114.35 176.56 C 1125.03 178.69 1129.24 190.49 1136.68 197.15 C 1146.95 203.69 1158.48 207.84 1170.05 211.43 C 1174.72 198.82 1178.90 186.03 1182.39 173.04 C 1172.40 169.15 1162.30 165.37 1153.01 159.94 C 1149.32 156.78 1145.02 159.96 1141.27 161.14 C 1137.05 163.03 1131.14 163.39 1129.25 168.30 C 1126.91 172.81 1131.07 176.87 1132.43 180.94 C 1129.56 179.29 1126.67 177.68 1123.66 176.31 C 1123.16 172.02 1124.47 167.37 1122.71 163.29 C 1119.69 160.54 1116.45 157.27 1112.13 157.09 C 1108.19 159.91 1106.03 164.51 1103.36 168.38 M 1272.12 158.53 C 1269.82 161.97 1276.04 159.31 1272.12 158.53 M 1246.68 185.72 C 1250.60 182.43 1251.16 176.90 1252.00 172.17 C 1247.25 174.96 1245.41 180.28 1246.68 185.72 M 1186.43 173.59 C 1181.83 186.32 1178.43 199.43 1173.79 212.15 C 1184.80 215.77 1196.40 217.56 1208.01 217.10 C 1217.18 216.76 1226.96 217.19 1235.63 213.65 C 1242.06 202.40 1243.88 189.07 1242.79 176.22 C 1224.11 180.72 1204.76 178.58 1186.43 173.59 M 1067.87 180.83 C 1068.89 193.40 1074.33 204.91 1079.89 216.01 C 1080.74 216.01 1082.42 216.00 1083.26 216.00 C 1082.51 210.01 1083.83 203.19 1079.98 198.10 C 1075.98 192.31 1071.90 186.58 1067.87 180.83 M 1102.40 182.23 C 1104.41 185.28 1107.00 187.87 1109.33 190.68 C 1112.27 194.10 1107.58 198.55 1108.83 202.26 C 1111.67 205.95 1116.26 208.06 1120.69 209.28 C 1133.68 211.03 1144.63 219.35 1154.10 227.91 C 1156.53 230.14 1159.35 231.78 1162.43 233.01 C 1164.55 227.09 1166.62 221.14 1168.46 215.12 C 1153.89 210.34 1139.77 204.32 1126.56 196.51 C 1118.10 192.37 1112.33 182.84 1102.40 182.23 M 1095.48 183.32 C 1092.64 189.68 1088.01 196.11 1089.42 203.51 C 1094.05 209.49 1099.74 214.86 1106.12 218.94 C 1109.55 218.73 1115.20 216.58 1114.72 212.47 C 1111.97 209.51 1108.39 207.35 1106.26 203.83 C 1101.60 197.57 1099.83 189.76 1095.48 183.32 M 1089.80 229.19 C 1097.64 238.50 1107.14 246.74 1118.25 251.90 C 1115.72 245.53 1109.46 241.89 1105.94 236.22 C 1104.10 231.50 1103.09 226.53 1101.53 221.73 C 1097.42 216.26 1092.28 211.72 1087.26 207.15 C 1083.90 214.25 1084.54 223.15 1089.80 229.19 M 1172.33 215.89 C 1169.93 223.22 1164.85 230.23 1166.63 238.33 C 1167.15 241.14 1168.08 244.77 1171.34 245.44 C 1190.15 250.19 1210.90 251.04 1228.90 242.89 C 1232.57 240.35 1234.25 235.89 1236.10 232.02 C 1238.71 227.58 1236.29 222.44 1235.10 217.95 C 1214.42 223.32 1192.83 220.74 1172.33 215.89 M 1236.94 238.76 C 1243.00 235.36 1252.54 230.33 1249.96 222.04 C 1244.36 226.50 1238.90 231.64 1236.94 238.76 M 1193.76 254.28 C 1187.07 258.06 1180.36 261.88 1173.04 264.34 C 1173.17 264.91 1173.43 266.06 1173.57 266.63 C 1191.19 265.08 1210.44 262.05 1223.80 249.34 C 1213.73 250.62 1203.73 252.45 1193.76 254.28 Z" />
<path fill="#00a1c9" opacity="1.00" d=" M 1128.18 182.32 C 1129.52 181.24 1131.00 183.60 1129.61 184.47 C 1128.24 185.56 1126.79 183.19 1128.18 182.32 Z" />
<path fill="#00a1c9" opacity="1.00" d=" M 288.94 212.74 C 303.34 211.42 319.11 211.49 331.93 219.12 C 337.56 222.98 343.02 228.71 343.13 235.99 C 345.43 244.50 340.70 254.00 332.90 257.81 C 329.69 259.62 326.29 261.03 322.88 262.40 C 330.73 265.24 339.80 267.94 344.74 275.24 C 352.97 285.67 350.17 302.78 339.05 310.05 C 329.68 315.94 318.28 316.47 307.59 317.50 C 289.01 318.32 270.35 318.59 251.78 317.32 C 254.32 312.52 260.20 310.51 262.52 305.62 C 263.55 292.78 263.76 279.69 261.76 266.93 C 257.26 267.25 252.77 267.61 248.27 267.84 C 250.02 265.50 251.81 263.15 254.08 261.28 C 256.74 259.51 260.16 259.55 262.82 257.78 C 263.42 249.66 263.44 241.48 262.56 233.40 C 260.46 229.49 256.15 227.54 253.05 224.53 C 264.23 218.67 276.23 213.73 288.94 212.74 M 290.02 221.07 C 286.77 222.01 281.64 222.81 281.19 227.08 C 280.27 238.12 281.12 249.23 281.61 260.28 C 290.75 259.88 300.09 260.39 309.02 258.03 C 315.50 255.95 321.91 251.55 323.55 244.57 C 324.35 238.19 323.69 230.80 319.14 225.84 C 311.44 218.64 299.66 217.96 290.02 221.07 M 283.25 266.98 C 282.54 267.74 281.84 268.51 281.13 269.27 C 280.97 282.65 280.95 296.03 281.02 309.41 C 292.15 309.91 303.56 310.51 314.43 307.59 C 321.28 305.57 328.39 300.73 329.10 293.03 C 329.12 287.05 329.58 279.72 324.70 275.28 C 313.76 264.70 296.99 267.60 283.25 266.98 Z" />
<path fill="#00a1c9" opacity="1.00" d=" M 464.05 224.53 C 480.80 215.03 500.30 210.82 519.48 212.31 C 528.31 213.20 537.32 215.20 544.82 220.17 C 554.76 227.01 558.18 242.02 551.13 252.10 C 546.77 257.49 540.24 260.19 533.86 262.31 C 541.12 265.42 549.97 267.40 554.95 274.09 C 563.12 283.60 562.41 299.57 553.08 308.07 C 546.51 313.66 537.60 315.20 529.34 316.42 C 507.22 318.99 484.84 318.35 462.65 317.20 C 465.95 313.28 470.02 310.11 473.85 306.72 C 473.74 293.49 475.21 280.01 472.74 266.92 C 468.27 267.25 463.79 267.61 459.31 267.86 C 462.72 263.23 466.46 257.36 473.31 259.06 C 473.83 250.52 474.50 241.92 473.60 233.39 C 471.43 229.51 467.17 227.53 464.05 224.53 M 499.64 221.55 C 496.66 222.53 492.39 223.27 492.20 227.08 C 491.38 238.11 492.06 249.19 492.75 260.21 C 505.71 259.55 521.27 261.65 531.26 251.26 C 536.86 244.17 535.93 233.32 530.76 226.22 C 522.80 218.02 509.79 218.11 499.64 221.55 M 493.24 266.73 C 490.57 280.19 492.39 294.10 492.15 307.72 C 492.83 308.49 493.51 309.27 494.20 310.04 C 506.72 309.42 520.47 311.12 531.94 304.85 C 541.54 299.84 542.55 286.04 537.58 277.49 C 527.13 264.19 507.93 267.74 493.24 266.73 Z" />
<path fill="#00a1c9" opacity="1.00" d=" M 738.43 212.45 C 748.06 211.02 757.88 212.56 766.88 216.14 C 781.50 222.86 790.45 238.39 792.06 254.03 C 793.31 265.87 794.19 278.40 789.66 289.72 C 785.52 301.58 776.73 312.20 764.68 316.56 C 747.54 322.23 726.95 321.33 712.50 309.52 C 702.49 300.96 697.91 287.82 696.81 275.02 C 694.32 256.78 698.10 236.08 712.17 223.17 C 719.19 216.31 728.94 213.55 738.43 212.45 M 742.33 219.35 C 730.70 219.83 722.30 229.77 719.14 240.26 C 715.69 252.16 715.74 264.78 716.79 277.02 C 717.92 285.07 718.53 293.82 723.27 300.75 C 731.20 312.56 749.81 316.40 760.92 306.90 C 766.99 302.99 769.18 295.56 771.19 289.05 C 774.00 277.42 773.11 265.27 772.46 253.44 C 771.40 243.78 769.34 233.06 761.66 226.36 C 756.37 221.83 749.35 218.95 742.33 219.35 Z" />
<path fill="#00a1c9" opacity="1.00" d=" M 388.86 215.60 C 400.31 214.55 411.85 214.82 423.31 215.60 C 421.47 218.28 419.36 220.79 417.77 223.63 C 417.33 228.10 419.09 232.27 420.66 236.32 C 423.77 243.95 426.54 251.71 429.87 259.25 C 433.52 256.38 437.09 253.40 440.77 250.55 C 442.94 255.49 445.06 260.45 447.31 265.36 C 442.66 266.05 438.04 266.66 433.44 267.50 C 437.08 279.52 441.35 291.37 446.20 302.95 C 448.21 309.23 455.08 311.80 458.18 317.36 C 445.62 318.49 433.00 318.07 420.43 317.70 C 420.38 317.15 420.28 316.05 420.23 315.49 C 422.53 312.18 430.03 309.94 428.20 304.76 C 425.45 296.49 421.70 288.59 419.06 280.27 C 413.37 285.62 408.08 291.40 403.21 297.50 C 397.42 289.98 393.26 280.88 385.51 275.09 C 381.59 284.96 377.22 295.55 379.69 306.42 C 381.43 310.31 384.07 313.75 386.20 317.44 C 373.76 318.18 361.27 318.21 348.84 317.28 C 354.32 311.98 360.69 307.41 364.95 300.97 C 371.99 291.72 375.14 280.22 378.16 269.20 C 374.35 267.72 370.55 266.28 366.74 264.82 C 368.93 260.74 371.09 256.63 373.33 252.57 C 376.40 254.97 379.44 257.45 382.59 259.75 C 386.56 247.79 392.19 236.35 394.97 224.02 C 392.84 221.28 390.31 218.79 388.86 215.60 M 388.68 265.80 C 393.55 271.65 398.27 277.63 402.84 283.72 C 407.16 279.80 411.13 275.53 415.34 271.51 C 411.92 258.62 406.50 246.36 401.31 234.11 C 395.96 244.17 392.78 255.20 388.68 265.80 Z" />
<path fill="#00a1c9" opacity="1.00" d=" M 565.03 215.64 C 578.47 214.88 592.00 214.49 605.45 215.66 C 600.99 220.10 592.76 223.21 594.14 230.99 C 593.96 255.85 593.43 280.77 594.45 305.62 C 597.56 310.16 602.59 313.08 605.96 317.46 C 592.32 318.08 578.63 318.37 564.99 317.61 C 568.20 313.87 571.99 310.68 575.74 307.50 C 576.21 279.81 576.05 252.10 575.88 224.40 C 572.22 221.53 568.54 218.67 565.03 215.64 Z" />
<path fill="#00a1c9" opacity="1.00" d=" M 614.78 215.78 C 628.15 214.74 641.59 214.72 654.99 215.40 C 651.80 219.12 647.84 222.08 644.15 225.28 C 643.93 246.85 643.98 268.43 643.90 290.00 C 644.04 296.78 643.84 303.67 645.22 310.35 C 655.32 309.40 666.42 311.34 675.91 306.89 C 683.70 303.19 686.18 294.81 689.60 287.66 C 693.71 298.16 699.55 307.78 705.42 317.37 C 675.15 318.31 644.79 318.55 614.53 317.38 C 617.98 313.51 622.00 310.21 625.86 306.76 C 625.98 281.82 626.21 256.89 625.98 231.95 C 627.86 223.77 619.34 220.62 614.78 215.78 Z" />
<path fill="#00a1c9" opacity="1.00" d=" M 792.20 215.49 C 806.55 214.83 820.95 214.63 835.30 215.69 C 831.85 218.70 828.29 221.55 824.82 224.51 C 838.34 247.59 850.94 271.25 865.32 293.81 C 866.24 276.88 866.23 259.92 865.99 242.97 C 865.57 237.96 866.17 232.62 864.09 227.90 C 861.71 222.29 856.17 219.39 851.65 215.78 C 863.78 214.96 876.03 214.39 888.16 215.68 C 884.65 218.29 880.65 220.41 878.11 224.09 C 874.47 228.55 874.63 234.60 874.19 240.01 C 873.52 265.25 874.34 290.50 873.88 315.75 C 873.14 316.59 872.41 317.44 871.70 318.30 C 866.75 317.57 859.55 319.87 857.10 313.95 C 841.45 288.00 827.51 261.00 811.69 235.17 C 810.66 255.77 810.75 276.42 811.07 297.03 C 811.44 305.84 818.59 312.25 825.23 317.12 C 812.97 318.00 800.53 318.92 788.34 316.97 C 793.00 312.74 799.39 309.64 801.13 303.13 C 803.45 294.29 802.83 285.04 803.08 276.00 C 802.84 259.42 803.62 242.81 802.62 226.25 C 799.62 222.21 795.63 219.11 792.20 215.49 Z" />
<path fill="#00a1c9" opacity="1.00" d=" M 925.85 215.57 C 961.47 214.45 997.13 215.01 1032.77 215.25 C 1029.15 222.86 1024.07 229.74 1021.38 237.78 C 1020.87 237.81 1019.83 237.87 1019.31 237.90 C 1017.26 234.26 1015.07 230.65 1012.62 227.29 C 1007.03 220.81 997.70 222.81 990.22 221.84 C 989.52 222.66 988.83 223.48 988.15 224.30 C 987.95 249.21 987.90 274.13 987.93 299.04 C 985.63 308.15 995.68 311.32 999.97 317.46 C 986.31 318.08 972.63 318.37 958.99 317.61 C 962.20 313.87 965.98 310.68 969.74 307.50 C 970.27 279.22 969.92 250.93 969.98 222.64 C 963.52 222.51 956.84 221.16 950.68 223.70 C 944.64 226.97 941.91 233.52 938.58 239.16 C 934.42 231.25 930.33 223.30 925.85 215.57 Z" />
<path fill="#00a1c9" opacity="1.00" d=" M 1223.02 273.04 C 1234.83 267.79 1244.66 259.29 1254.95 251.66 C 1258.98 269.06 1255.34 287.20 1248.47 303.40 C 1241.48 320.14 1230.10 334.62 1217.47 347.48 C 1196.39 368.61 1171.03 384.85 1144.79 398.79 C 1122.89 411.02 1099.48 420.13 1076.17 429.24 C 968.31 468.86 853.55 485.81 739.32 493.31 C 722.53 494.05 705.84 496.36 689.01 495.95 C 639.85 495.54 590.60 497.61 541.55 493.56 C 431.17 486.34 320.43 469.82 215.77 432.96 C 226.62 414.96 232.72 394.41 233.96 373.45 C 245.49 375.93 256.60 380.00 268.02 382.93 C 357.34 407.34 449.76 418.26 541.99 423.89 C 572.32 425.00 602.66 426.03 633.00 427.03 C 741.43 426.18 850.37 419.18 956.67 396.66 C 990.93 389.39 1024.92 380.63 1057.97 368.97 C 1089.69 358.24 1120.69 344.47 1148.15 325.12 C 1162.52 314.27 1176.08 301.42 1184.16 285.08 C 1197.41 282.24 1210.97 279.54 1223.02 273.04 Z" />
<path fill="#00a1c9" opacity="1.00" d=" M 83.54 260.45 C 100.45 255.79 118.38 256.38 135.49 259.65 C 164.20 265.47 190.23 283.33 205.98 308.04 C 223.57 335.23 228.79 370.28 219.25 401.31 C 205.83 449.09 156.87 484.57 107.06 480.69 C 72.14 479.81 38.32 461.11 18.96 432.03 C 9.12 418.44 4.55 402.11 0.00 386.21 L 0.00 351.66 C 4.36 335.75 9.08 319.43 19.03 305.99 C 34.21 283.76 57.46 267.20 83.54 260.45 M 89.57 273.14 C 89.41 273.93 89.08 275.51 88.92 276.30 C 92.08 275.74 95.24 275.16 98.38 274.51 C 95.45 274.02 92.50 273.55 89.57 273.14 M 102.07 275.51 C 107.62 277.01 113.61 277.08 118.88 274.58 C 113.31 273.34 107.31 272.91 102.07 275.51 M 47.97 295.83 C 57.88 291.42 67.94 287.40 78.27 284.10 C 82.69 282.80 83.79 277.62 84.83 273.82 C 70.18 274.32 51.58 279.45 47.97 295.83 M 139.48 273.90 C 139.35 274.98 139.09 277.15 138.96 278.23 C 141.29 278.83 143.63 279.40 145.99 279.86 C 144.30 277.40 142.03 275.43 139.48 273.90 M 130.04 276.86 C 130.04 277.66 130.05 279.24 130.05 280.04 C 132.02 280.44 133.99 280.84 135.96 281.22 C 135.95 280.44 135.93 278.90 135.92 278.12 C 133.96 277.71 132.00 277.28 130.04 276.86 M 147.22 279.71 C 148.93 280.64 150.68 281.47 152.44 282.30 C 152.30 280.73 152.14 279.16 151.99 277.59 C 150.39 278.28 148.80 278.99 147.22 279.71 M 85.87 286.02 C 86.61 295.14 93.44 302.12 98.14 309.45 C 107.79 302.90 117.78 296.85 127.21 290.00 C 118.92 289.61 110.59 289.14 102.45 287.36 C 97.04 286.52 91.36 284.50 85.87 286.02 M 134.27 284.89 C 132.33 285.84 134.31 288.39 135.91 287.29 C 137.86 286.36 135.84 283.73 134.27 284.89 M 154.43 285.28 C 156.96 286.99 159.54 288.61 162.16 290.17 C 162.44 289.23 163.00 287.37 163.28 286.43 C 160.36 285.98 157.36 285.56 154.43 285.28 M 165.27 284.36 C 166.14 287.05 166.64 290.07 168.56 292.28 C 174.18 294.44 179.79 296.78 185.70 298.09 C 180.65 291.36 173.64 286.08 165.27 284.36 M 79.40 287.52 C 68.21 290.04 58.02 295.63 47.64 300.31 C 49.26 310.56 51.66 321.81 60.08 328.76 C 63.99 330.48 68.08 331.80 72.14 333.15 C 73.65 327.68 78.52 325.04 83.10 322.38 C 85.43 318.46 82.61 314.79 80.54 311.58 C 84.72 310.60 89.00 310.46 93.26 310.25 C 90.48 304.32 86.44 299.06 84.12 292.91 C 83.01 291.67 82.44 286.35 79.40 287.52 M 136.35 291.28 C 138.84 292.36 141.33 293.43 143.86 294.43 C 143.80 292.61 143.69 288.95 143.63 287.13 C 141.17 288.45 138.74 289.83 136.35 291.28 M 154.28 290.47 C 155.50 292.31 156.72 294.15 157.96 295.99 C 159.31 296.00 160.67 296.00 162.03 296.01 C 162.00 295.26 161.94 293.78 161.92 293.04 C 159.37 292.17 156.83 291.31 154.28 290.47 M 147.17 294.95 C 149.12 296.31 151.49 296.83 153.73 297.52 C 152.31 294.75 150.55 292.18 148.57 289.79 C 148.02 291.48 147.45 293.18 147.17 294.95 M 28.87 309.36 C 36.04 305.30 44.32 300.54 45.40 291.53 C 38.46 295.92 33.30 302.54 28.87 309.36 M 127.65 294.57 C 118.64 299.31 110.06 305.03 102.45 311.82 C 112.49 315.40 121.10 308.02 130.63 306.38 C 133.15 310.34 135.62 314.38 138.75 317.90 C 140.92 311.66 141.93 305.11 143.36 298.69 C 138.64 296.39 133.27 291.72 127.65 294.57 M 161.46 298.47 C 162.30 300.88 163.18 303.28 164.11 305.67 C 167.95 304.26 171.67 302.52 175.11 300.31 C 170.81 298.24 166.11 296.70 161.46 298.47 M 146.26 299.32 C 145.21 305.82 144.04 312.31 143.15 318.85 C 149.26 318.39 155.33 317.56 161.42 316.95 C 161.68 312.73 162.79 307.84 159.82 304.21 C 157.22 299.43 150.60 300.94 146.26 299.32 M 26.71 316.73 C 23.65 319.80 20.22 323.38 20.15 328.01 C 20.18 335.98 22.70 343.62 25.13 351.12 C 36.04 346.61 48.65 342.65 59.99 347.82 C 60.28 347.19 60.57 346.56 60.86 345.93 C 58.15 344.44 55.51 342.87 52.91 341.21 C 53.54 337.83 55.19 334.61 55.31 331.14 C 54.56 328.13 52.47 325.67 51.04 322.98 C 47.12 317.11 45.47 310.16 43.44 303.50 C 37.65 307.63 32.02 311.99 26.71 316.73 M 86.59 325.52 C 89.95 326.29 93.29 327.14 96.65 327.90 C 98.15 323.96 101.77 322.03 105.12 320.06 C 102.67 318.20 100.22 316.35 97.78 314.49 C 93.79 317.90 90.23 321.74 86.59 325.52 M 99.28 330.04 C 104.47 331.68 109.99 331.04 115.21 329.83 C 115.11 328.14 115.01 326.45 114.91 324.76 C 109.71 326.55 104.46 328.20 99.28 330.04 M 15.69 332.42 C 9.52 349.98 4.77 370.99 15.08 387.94 C 18.86 393.60 21.80 400.80 28.41 403.74 C 24.47 394.24 16.41 385.92 17.14 374.95 C 16.04 367.44 20.85 361.10 22.27 354.12 C 20.67 346.75 18.07 339.58 15.69 332.42 M 73.36 343.94 C 77.28 347.70 81.74 350.84 86.34 353.70 C 85.03 351.08 86.02 346.08 82.70 344.47 C 79.67 343.71 76.40 344.19 73.36 343.94 M 63.85 350.49 C 67.10 352.79 70.73 354.54 73.67 357.28 C 74.64 363.56 73.52 370.61 78.15 375.82 C 81.73 377.80 86.36 376.81 89.78 379.22 C 94.12 383.20 97.46 388.33 102.36 391.72 C 109.49 393.25 112.36 384.98 115.51 380.05 C 109.89 378.97 104.00 378.10 99.46 374.33 C 100.66 371.89 101.92 369.49 103.17 367.08 C 101.75 367.05 100.32 367.01 98.90 366.99 C 98.48 368.61 98.08 370.23 97.68 371.86 C 97.00 371.90 95.65 371.98 94.98 372.01 C 93.94 368.69 92.92 365.37 91.86 362.07 C 87.74 362.62 83.63 363.19 79.50 363.69 C 79.30 362.57 79.11 361.45 78.92 360.34 C 81.54 360.20 84.16 360.02 86.77 359.69 C 80.95 354.04 73.98 349.76 68.09 344.19 C 66.46 346.13 64.68 348.05 63.85 350.49 M 88.51 349.18 C 89.15 350.92 89.81 352.66 90.50 354.39 C 90.73 352.58 90.96 350.77 91.18 348.96 C 90.52 349.01 89.18 349.13 88.51 349.18 M 113.06 359.19 C 111.06 361.09 109.70 363.52 108.25 365.84 C 113.76 369.00 119.73 371.33 125.98 372.56 C 126.35 371.17 126.72 369.79 127.08 368.41 C 122.16 365.71 117.74 362.25 113.06 359.19 M 12.10 390.36 C 13.69 401.06 17.37 411.34 23.06 420.54 C 24.35 415.92 25.89 410.74 23.85 406.09 C 20.27 400.61 16.28 395.39 12.10 390.36 M 106.02 400.25 C 105.30 404.69 105.63 409.19 106.45 413.60 C 107.93 415.35 110.21 416.06 112.18 417.09 C 111.77 411.04 110.17 404.85 106.02 400.25 M 133.56 401.55 C 134.59 406.04 136.38 410.40 139.17 414.09 C 141.68 413.74 143.97 412.59 146.21 411.48 C 141.72 408.51 137.85 404.76 133.56 401.55 M 30.72 404.09 C 30.53 411.64 37.29 415.51 43.07 418.76 C 40.52 412.72 36.13 407.71 30.72 404.09 M 28.39 413.12 C 28.11 418.45 27.36 424.05 28.77 429.28 C 31.24 433.59 34.89 437.10 37.95 440.99 C 38.76 440.99 40.39 440.99 41.21 440.99 C 41.94 437.30 42.68 433.51 42.16 429.73 C 40.95 423.63 36.17 419.18 32.09 414.87 C 31.17 413.76 29.80 413.21 28.39 413.12 M 148.83 413.27 C 149.88 416.50 150.97 419.71 152.03 422.95 C 157.73 422.19 163.45 421.65 169.16 420.98 C 168.11 419.20 166.01 415.63 164.96 413.85 C 159.58 413.68 154.20 413.60 148.83 413.27 M 189.65 420.66 C 184.80 427.95 180.60 435.88 178.75 444.50 C 189.16 438.06 198.66 428.02 201.36 415.83 C 196.83 413.65 192.25 417.05 189.65 420.66 M 107.33 419.43 C 107.30 420.77 107.28 422.11 107.28 423.46 C 107.98 423.62 109.40 423.95 110.10 424.11 C 109.93 422.53 109.76 420.95 109.57 419.38 C 109.01 419.40 107.89 419.42 107.33 419.43 M 144.06 427.23 C 135.31 430.16 126.81 434.99 117.30 434.63 C 114.04 433.26 113.09 429.48 111.38 426.71 C 110.73 428.60 110.10 430.49 109.47 432.40 C 115.26 436.46 122.17 437.65 129.00 438.63 C 124.25 445.42 115.38 447.03 107.98 449.31 C 108.11 449.88 108.39 451.02 108.52 451.59 C 123.72 455.01 139.53 456.05 154.87 452.78 C 162.37 451.24 171.81 449.69 175.48 441.87 C 172.72 436.42 171.51 430.48 171.12 424.37 C 162.12 425.43 152.97 425.55 144.06 427.23 M 100.70 452.96 C 97.38 458.07 94.18 463.29 91.51 468.78 C 96.96 467.56 102.48 466.67 108.02 465.89 C 107.66 468.01 107.30 470.14 106.95 472.27 C 126.92 471.31 148.87 468.82 164.88 455.58 C 143.55 458.58 121.54 459.28 100.70 452.96 M 75.46 463.44 C 78.73 465.14 82.04 467.37 85.84 467.45 C 88.90 466.65 89.56 462.99 91.01 460.64 C 85.56 460.10 80.67 462.53 75.46 463.44 Z" />
<path fill="#00a1c9" opacity="1.00" d=" M 892.77 261.50 C 906.18 260.86 919.61 260.94 933.05 261.01 C 934.05 264.17 935.11 267.33 936.06 270.53 C 923.16 270.80 910.13 271.96 897.30 270.63 C 894.69 268.30 893.98 264.64 892.77 261.50 Z" />
<path fill="#00a1c9" opacity="1.00" d=" M 209.01 543.00 C 218.33 542.99 227.66 542.99 236.99 543.00 C 236.86 577.16 237.69 611.35 235.71 645.48 C 252.11 610.61 271.44 577.24 289.38 543.16 C 299.92 543.01 310.45 542.99 321.00 542.98 C 321.00 588.66 321.01 634.33 320.99 680.00 C 311.66 679.99 302.33 679.99 293.01 680.00 C 293.18 647.24 292.03 614.43 294.89 581.75 C 289.24 594.70 283.78 607.75 277.29 620.31 C 266.29 640.27 255.21 660.18 243.92 679.98 C 232.28 680.00 220.64 680.00 209.01 680.00 C 208.99 634.33 208.99 588.66 209.01 543.00 Z" />
<path fill="#00a1c9" opacity="1.00" d=" M 552.89 600.91 C 563.27 581.70 587.83 574.06 608.14 579.78 C 617.66 582.75 626.13 589.23 630.90 598.07 C 638.39 610.58 638.48 625.89 637.17 639.98 C 615.90 640.06 594.63 639.86 573.37 640.13 C 575.74 647.42 580.22 654.78 588.13 656.89 C 601.39 661.05 615.61 658.61 628.70 654.93 C 629.93 661.99 631.31 669.03 632.79 676.05 C 616.62 681.39 599.21 683.63 582.34 680.61 C 570.76 678.30 559.91 671.57 553.19 661.81 C 542.01 643.55 542.26 619.37 552.89 600.91 M 585.96 599.95 C 578.46 603.13 574.93 611.36 573.54 618.92 C 585.85 619.02 598.16 619.02 610.47 618.89 C 608.70 613.27 608.26 606.58 603.59 602.40 C 598.90 598.10 591.70 598.39 585.96 599.95 Z" />
<path fill="#00a1c9" opacity="1.00" d=" M 698.09 581.11 C 707.60 576.93 718.68 577.41 728.45 580.46 C 738.34 584.51 746.06 592.81 750.58 602.38 C 756.88 616.99 757.38 633.74 752.85 648.92 C 750.73 658.28 744.79 666.42 737.68 672.66 C 723.23 684.88 700.03 685.18 685.91 672.26 C 686.01 688.17 686.00 704.08 686.00 720.00 L 655.00 720.00 C 654.52 673.33 656.11 626.63 653.94 580.00 C 662.92 580.01 671.89 580.01 680.88 580.02 C 681.24 584.59 681.62 589.18 681.97 593.77 C 686.81 588.94 692.02 584.35 698.09 581.11 M 702.40 602.53 C 696.94 603.02 691.82 606.31 688.99 610.99 C 683.49 619.64 686.31 630.41 686.08 640.01 C 685.42 652.09 698.81 661.53 710.16 657.22 C 724.38 652.10 727.05 633.85 723.97 620.98 C 722.98 610.50 713.25 600.99 702.40 602.53 Z" />
<path fill="#00a1c9" opacity="1.00" d=" M 893.89 600.91 C 904.27 581.70 928.83 574.06 949.14 579.78 C 958.66 582.75 967.13 589.23 971.90 598.07 C 979.39 610.58 979.48 625.89 978.17 639.98 C 956.89 640.06 935.63 639.86 914.37 640.13 C 916.73 647.42 921.22 654.78 929.13 656.89 C 942.39 661.05 956.61 658.61 969.70 654.93 C 970.92 661.99 972.31 669.03 973.79 676.05 C 957.62 681.39 940.21 683.63 923.34 680.61 C 911.76 678.30 900.91 671.57 894.19 661.81 C 883.01 643.55 883.26 619.37 893.89 600.91 M 926.96 599.95 C 919.46 603.13 915.93 611.36 914.54 618.92 C 926.84 619.02 939.15 619.02 951.47 618.89 C 949.69 613.27 949.26 606.58 944.59 602.40 C 939.91 598.10 932.69 598.39 926.96 599.95 Z" />
<path fill="#00a1c9" opacity="1.00" d=" M 345.01 580.00 C 355.33 579.99 365.65 579.99 375.98 580.00 C 376.01 592.00 375.99 604.00 376.01 616.00 C 386.00 615.99 395.99 615.99 405.98 616.00 C 406.01 603.99 405.98 591.99 406.01 580.00 C 416.34 579.99 426.66 579.99 436.99 580.00 C 437.01 613.33 437.01 646.66 436.99 680.00 C 426.66 679.99 416.33 679.99 406.01 680.00 C 406.00 666.66 405.99 653.33 405.99 640.00 C 395.99 639.99 386.00 639.99 376.01 640.00 C 376.00 653.33 375.99 666.66 375.99 680.00 C 365.66 679.99 355.33 679.99 345.01 680.00 C 344.99 646.66 344.99 613.33 345.01 580.00 Z" />
<path fill="#00a1c9" opacity="1.00" d=" M 451.00 580.01 C 480.00 579.99 509.00 579.99 538.01 580.01 C 537.99 587.99 537.99 595.99 538.00 603.99 C 528.66 603.99 519.33 604.00 510.00 604.01 C 509.99 629.34 510.01 654.67 509.99 680.00 C 499.66 679.99 489.33 679.99 479.01 680.00 C 478.99 654.67 479.01 629.34 478.99 604.02 C 469.65 604.00 460.32 603.99 450.99 603.99 C 450.99 595.98 451.00 588.00 451.00 580.01 Z" />
<path fill="#00a1c9" opacity="1.00" d=" M 775.01 580.00 C 785.32 579.99 795.65 579.99 805.98 580.00 C 806.00 592.00 805.98 604.00 806.01 616.00 C 815.99 615.99 825.98 615.99 835.98 616.00 C 836.00 603.99 835.98 591.99 836.01 580.00 C 846.33 579.99 856.66 579.99 866.99 580.00 C 867.01 613.33 867.00 646.66 866.99 680.00 C 856.66 679.99 846.33 679.99 836.01 680.00 C 835.99 666.66 835.99 653.33 835.99 640.00 C 825.99 639.99 816.00 639.99 806.01 640.00 C 806.00 653.33 805.99 666.66 805.99 680.00 C 795.65 679.99 785.32 679.99 775.01 680.00 C 774.99 646.66 774.99 613.33 775.01 580.00 Z" />
<path fill="#00a1c9" opacity="1.00" d=" M 985.00 580.01 C 1014.00 579.99 1043.00 579.99 1072.01 580.01 C 1071.98 587.99 1071.98 595.99 1072.00 603.99 C 1062.65 603.99 1053.33 604.00 1044.00 604.01 C 1043.98 629.34 1044.01 654.67 1043.99 680.00 C 1033.65 679.99 1023.32 679.99 1013.01 680.00 C 1012.98 654.67 1013.01 629.34 1012.99 604.02 C 1003.65 604.00 994.32 603.99 984.99 603.99 C 984.98 595.98 985.00 588.00 985.00 580.01 Z" />
</g>
<g id="#ff0000ff">
<path fill="#ff0000" opacity="1.00" d=" M 519.33 115.60 C 560.86 113.41 602.41 111.50 644.00 110.93 C 777.26 112.89 912.15 123.43 1040.00 163.44 C 1039.87 163.97 1039.60 165.03 1039.47 165.56 C 973.00 177.78 905.35 181.44 837.99 185.12 C 805.03 187.16 771.99 186.64 739.00 187.91 C 681.02 189.80 623.00 188.81 564.99 188.92 C 515.99 186.91 466.91 187.33 417.96 184.15 C 400.32 182.82 382.59 182.80 364.99 181.00 C 323.55 177.46 281.83 174.70 241.07 165.96 C 245.76 163.36 250.79 161.38 255.94 159.91 C 341.52 134.43 430.48 122.33 519.33 115.60 M 529.95 147.12 C 528.93 156.05 530.04 165.15 529.31 174.13 C 531.06 174.39 532.81 174.62 534.58 174.84 C 534.20 164.90 534.39 154.95 534.72 145.01 C 533.52 145.54 531.14 146.59 529.95 147.12 M 544.47 144.95 C 544.89 154.11 544.31 163.28 543.89 172.43 C 543.55 174.43 546.02 174.72 547.25 175.64 C 547.23 167.81 547.26 159.98 547.66 152.16 C 552.35 159.28 556.49 166.75 560.81 174.10 C 561.81 173.99 563.82 173.77 564.82 173.66 C 560.40 165.01 555.20 156.78 550.68 148.18 C 549.68 145.89 545.80 146.30 544.47 144.95 M 560.60 147.40 C 562.03 148.43 563.47 149.46 564.93 150.47 C 565.35 148.85 565.75 147.24 566.15 145.62 C 564.28 146.18 562.43 146.77 560.60 147.40 M 571.85 149.01 C 574.95 149.72 577.79 148.45 580.06 146.41 C 577.05 146.76 574.45 147.65 571.85 149.01 M 584.97 147.11 C 583.87 155.99 585.08 165.06 584.32 174.00 C 586.04 174.43 587.76 174.85 589.50 175.28 C 590.07 165.09 590.10 154.88 589.70 144.69 C 588.52 145.29 586.15 146.51 584.97 147.11 M 594.62 146.26 C 595.43 147.50 596.24 148.73 597.07 149.96 C 597.77 149.96 599.16 149.94 599.86 149.94 C 600.27 148.64 600.70 147.35 601.14 146.06 C 599.51 146.11 596.25 146.21 594.62 146.26 M 608.49 146.08 C 607.86 155.38 606.95 164.63 608.36 173.94 C 609.69 173.94 612.36 173.94 613.70 173.94 C 613.37 169.56 613.13 165.17 612.92 160.80 C 616.25 160.76 619.60 160.76 622.95 160.80 C 622.95 159.62 622.96 158.44 622.98 157.27 C 619.63 157.66 616.18 157.92 612.86 158.19 C 613.17 154.14 613.54 150.09 613.94 146.04 C 612.58 146.05 609.85 146.07 608.49 146.08 M 622.63 146.25 C 623.44 147.53 624.27 148.80 625.11 150.07 C 626.24 149.91 627.38 149.74 628.53 149.58 C 628.73 148.40 628.94 147.22 629.15 146.03 C 627.52 146.09 624.26 146.20 622.63 146.25 M 637.40 146.48 C 637.45 155.70 636.83 164.90 637.22 174.12 C 639.01 174.38 640.80 174.62 642.60 174.84 C 642.42 165.18 641.79 155.46 643.45 145.89 C 641.94 146.04 638.91 146.33 637.40 146.48 M 652.28 145.46 C 653.22 148.15 654.75 150.78 654.70 153.71 C 653.43 156.50 650.56 157.94 648.21 159.67 C 650.77 165.06 653.13 170.56 655.31 176.12 C 657.01 175.65 658.71 175.17 660.43 174.69 C 657.70 170.22 653.99 166.22 652.11 161.30 C 655.22 157.74 658.84 154.56 661.02 150.27 C 658.11 148.62 655.23 146.98 652.28 145.46 M 668.79 146.22 C 675.22 155.48 680.88 165.21 686.56 174.95 C 687.67 174.09 688.81 173.24 689.86 172.28 C 688.56 168.83 685.81 166.17 684.03 162.99 C 680.51 158.06 678.56 152.18 674.91 147.36 C 673.38 147.08 670.32 146.51 668.79 146.22 M 686.45 146.19 C 687.41 147.97 688.42 149.73 689.43 151.49 C 690.15 149.70 690.82 147.90 691.51 146.09 C 689.82 146.12 688.13 146.15 686.45 146.19 M 700.77 146.96 C 696.90 155.73 699.53 165.23 700.45 174.25 C 702.12 174.24 703.78 174.19 705.46 174.14 C 705.31 169.54 705.30 164.93 705.31 160.34 C 708.01 160.38 710.73 160.44 713.46 160.49 C 713.69 159.48 713.93 158.46 714.17 157.45 C 711.20 157.75 708.07 157.93 705.14 158.16 C 704.88 153.61 704.60 149.07 704.31 144.54 L 700.77 146.96 M 714.64 146.22 C 715.43 147.47 716.24 148.72 717.05 149.97 C 717.78 149.96 719.23 149.95 719.96 149.94 C 720.19 148.80 720.45 147.67 720.71 146.53 C 719.19 146.46 716.16 146.30 714.64 146.22 M 725.63 146.08 C 726.15 147.56 726.69 149.03 727.24 150.50 C 729.01 149.19 730.77 147.85 732.50 146.47 C 730.79 146.37 727.35 146.18 725.63 146.08 M 737.55 146.02 C 737.77 155.52 737.63 165.03 737.33 174.54 C 738.71 174.75 740.11 174.97 741.51 175.18 C 742.01 165.45 742.08 155.71 742.10 145.97 C 740.57 145.98 739.06 146.00 737.55 146.02 M 747.38 146.54 C 749.09 147.93 750.86 149.25 752.66 150.55 C 752.80 148.97 752.95 147.40 753.10 145.82 C 751.19 146.05 749.27 146.29 747.38 146.54 M 667.82 174.44 C 669.68 174.65 671.55 174.85 673.43 175.05 C 672.54 172.49 671.59 169.95 670.60 167.43 C 669.60 169.73 668.68 172.07 667.82 174.44 M 621.52 174.10 C 624.38 174.32 627.25 174.44 630.13 174.46 C 629.28 172.76 628.42 171.06 627.57 169.37 C 625.51 170.90 623.50 172.48 621.52 174.10 M 712.41 173.93 C 714.85 174.22 717.31 174.44 719.79 174.60 C 720.46 173.01 720.78 171.31 721.22 169.64 C 718.08 170.62 715.16 172.14 712.41 173.93 Z" />
</g>
<g id="#00892cff">
<path fill="#00892c" opacity="1.00" d=" M 463.01 345.58 C 499.01 345.12 535.01 344.09 571.00 343.01 C 621.00 343.08 671.01 342.78 721.02 343.17 C 762.33 345.24 803.71 344.62 845.01 347.06 C 903.84 350.00 962.79 353.62 1021.02 362.92 C 1027.64 364.18 1034.62 364.80 1040.75 367.89 C 1013.73 377.10 985.93 383.85 958.10 390.06 C 871.78 408.23 783.67 417.22 695.55 419.41 C 666.72 420.61 637.84 421.92 609.01 420.20 C 492.02 417.48 374.11 406.42 261.37 373.57 C 254.47 371.37 247.24 369.70 241.05 365.84 C 260.16 361.65 279.65 359.57 299.05 357.24 C 353.51 351.01 408.29 348.35 463.01 345.58 M 501.09 369.13 C 500.85 374.05 499.93 379.69 503.00 384.02 C 505.31 388.42 510.58 389.30 514.89 390.58 C 510.47 387.31 504.98 383.38 505.95 376.98 C 504.25 369.39 507.57 360.69 515.90 359.28 C 509.66 360.01 503.29 362.60 501.09 369.13 M 533.82 363.81 C 530.03 368.48 530.87 375.06 531.41 380.60 C 532.13 386.22 538.14 388.75 542.75 390.82 C 534.31 384.00 532.36 370.87 539.13 362.15 C 541.93 361.11 545.50 360.68 548.23 361.87 C 555.04 369.80 551.10 380.48 549.26 389.58 C 552.07 386.22 555.72 383.10 556.72 378.69 C 557.82 371.73 555.90 363.01 548.62 360.30 C 543.61 359.66 537.53 359.90 533.82 363.81 M 723.82 360.16 C 723.06 361.59 725.56 362.64 726.31 361.34 C 727.17 359.85 724.57 358.87 723.82 360.16 M 752.99 362.17 C 759.31 370.84 758.89 383.17 767.85 389.96 C 766.96 384.43 765.77 378.92 766.07 373.28 C 760.58 370.89 759.29 364.31 756.11 359.79 C 755.05 360.57 754.02 361.37 752.99 362.17 M 812.97 381.02 C 813.64 386.63 819.26 388.62 823.63 390.66 C 820.89 386.78 816.94 383.09 816.93 378.02 C 817.34 372.76 816.05 364.94 821.36 361.54 C 825.29 360.67 830.78 361.47 832.11 365.93 C 835.99 374.62 833.15 384.48 826.38 390.73 C 831.87 388.45 837.67 384.58 838.25 378.14 C 840.03 369.91 834.62 358.87 825.01 360.00 C 814.15 359.06 809.58 372.51 812.97 381.02 M 871.71 363.74 C 868.43 367.53 871.86 373.40 876.00 374.84 C 881.05 376.50 886.33 377.63 891.13 380.03 C 889.92 384.20 887.45 387.73 884.37 390.69 C 888.05 388.38 894.72 386.73 893.90 381.13 C 892.52 372.20 881.34 372.33 874.83 369.30 C 875.23 366.56 875.65 363.83 876.09 361.11 C 880.20 360.93 884.09 362.20 887.76 363.88 C 889.38 364.78 890.80 363.00 892.24 362.47 C 885.81 360.41 876.49 357.42 871.71 363.74 M 388.74 360.93 C 389.11 362.32 389.50 363.72 389.89 365.12 C 391.44 363.89 392.95 362.62 394.44 361.33 C 392.53 361.19 390.64 361.05 388.74 360.93 M 400.00 361.00 C 399.99 370.33 399.99 379.66 400.00 389.00 L 405.00 389.00 C 405.00 379.66 405.00 370.33 405.00 361.00 L 400.00 361.00 M 410.66 361.19 C 411.90 362.62 413.14 364.05 414.43 365.45 C 415.02 363.96 415.62 362.49 416.21 361.01 C 414.36 361.06 412.50 361.12 410.66 361.19 M 422.61 361.46 C 422.62 370.62 422.49 379.78 422.28 388.94 L 427.02 388.98 C 427.24 379.59 427.42 370.21 426.97 360.83 C 425.51 361.03 424.06 361.24 422.61 361.46 M 436.89 361.05 C 437.63 362.35 438.37 363.65 439.11 364.95 C 439.80 364.95 441.17 364.94 441.85 364.93 C 442.27 363.64 442.70 362.36 443.12 361.08 C 441.57 361.07 438.45 361.06 436.89 361.05 M 451.17 360.01 C 450.95 369.67 451.00 379.32 451.00 388.99 C 452.38 389.01 455.15 389.04 456.53 389.05 C 456.13 380.05 456.65 371.01 456.15 362.03 C 454.90 361.52 452.41 360.51 451.17 360.01 M 478.98 361.01 C 478.36 370.82 478.67 380.63 479.57 390.41 C 480.59 389.68 482.62 388.22 483.64 387.49 C 485.23 378.78 484.41 369.80 484.01 361.02 L 478.98 361.01 M 493.92 361.03 C 494.64 362.33 495.36 363.62 496.09 364.92 C 496.81 364.95 498.26 365.01 498.99 365.04 C 498.99 363.69 498.99 362.34 499.00 360.99 C 497.30 361.00 495.61 361.02 493.92 361.03 M 520.31 361.29 C 521.60 363.14 522.97 364.93 524.38 366.69 C 524.63 365.10 524.88 363.52 525.13 361.94 C 523.52 361.72 521.91 361.50 520.31 361.29 M 563.18 361.35 C 565.27 366.22 568.53 370.47 570.55 375.38 C 572.56 380.15 574.33 385.02 576.56 389.70 C 577.64 387.86 578.88 386.07 579.51 384.02 C 576.08 376.56 572.19 369.21 570.51 361.09 C 568.68 361.15 565.01 361.28 563.18 361.35 M 586.00 361.04 C 588.34 370.58 587.88 380.41 587.76 390.14 L 591.43 388.05 C 592.99 379.20 591.72 369.97 592.04 361.00 C 590.53 361.01 587.51 361.03 586.00 361.04 M 601.31 361.35 C 602.47 363.60 603.69 365.83 605.03 367.98 C 609.49 374.88 610.76 383.42 616.00 389.88 C 616.62 387.14 618.15 384.09 616.57 381.39 C 613.26 374.89 610.44 368.14 608.57 361.09 C 606.76 361.15 603.12 361.28 601.31 361.35 M 625.07 361.03 C 625.81 370.33 625.97 379.66 626.17 388.99 L 630.85 388.97 C 630.24 379.66 630.24 370.32 630.87 361.02 C 629.42 361.02 626.52 361.03 625.07 361.03 M 640.29 361.46 C 640.50 369.65 639.80 378.02 642.08 385.99 C 643.79 388.52 647.07 389.31 649.68 390.67 C 642.31 382.49 645.46 370.79 644.82 360.83 C 643.30 361.03 641.79 361.24 640.29 361.46 M 658.31 361.15 C 659.01 362.96 659.69 364.80 660.60 366.54 C 662.69 366.28 662.58 362.71 663.69 361.15 C 661.89 361.14 660.09 361.14 658.31 361.15 M 671.02 360.61 C 672.11 362.88 673.24 365.16 674.81 367.15 C 680.18 373.93 683.82 381.85 688.19 389.27 C 689.69 388.77 691.19 388.26 692.70 387.75 C 689.02 381.38 684.56 375.49 681.17 368.94 C 678.78 365.05 677.44 359.13 671.02 360.61 M 688.86 361.05 C 689.30 362.38 689.74 363.70 690.19 365.04 C 690.77 364.91 691.93 364.64 692.52 364.50 C 692.72 363.34 692.93 362.19 693.15 361.04 C 691.71 361.04 690.28 361.04 688.86 361.05 M 702.00 361.00 C 701.99 370.33 701.99 379.66 702.00 389.00 L 707.00 389.00 C 707.00 379.66 706.99 370.33 707.00 361.00 L 702.00 361.00 M 714.02 382.01 C 715.63 386.80 720.41 388.83 724.65 390.65 C 722.13 386.67 718.31 383.18 717.58 378.35 C 716.82 372.17 719.35 366.35 720.77 360.47 C 712.89 364.24 710.20 374.36 714.02 382.01 M 731.34 361.10 C 732.57 362.67 733.78 364.29 735.21 365.70 C 736.20 364.67 737.05 363.51 737.95 362.39 C 735.75 361.91 733.55 361.48 731.34 361.10 M 766.86 361.05 C 767.05 362.19 767.26 363.35 767.48 364.50 C 768.07 364.64 769.26 364.92 769.85 365.06 C 770.59 363.71 771.33 362.36 772.08 361.01 C 770.33 361.02 768.59 361.03 766.86 361.05 M 777.55 360.98 C 777.97 370.31 777.99 379.65 778.10 389.00 L 783.01 389.00 C 782.99 379.66 782.98 370.33 782.98 361.01 C 781.62 361.00 778.91 360.99 777.55 360.98 M 788.77 360.75 C 789.51 362.24 790.27 363.73 791.05 365.23 C 792.12 364.24 793.19 363.24 794.28 362.26 C 792.45 361.72 790.60 361.22 788.77 360.75 M 800.00 361.00 C 799.99 370.33 799.99 379.66 800.00 389.00 L 805.00 389.00 C 804.99 379.66 804.99 370.33 805.00 361.00 L 800.00 361.00 M 843.19 360.56 C 848.16 370.41 855.23 379.05 860.04 389.02 C 861.66 388.91 863.29 388.80 864.94 388.69 C 862.49 381.78 857.10 376.56 854.06 369.96 C 851.31 365.80 850.05 359.12 843.19 360.56 M 860.78 360.95 C 861.36 362.46 861.95 363.96 862.56 365.47 C 863.91 364.12 865.24 362.75 866.55 361.36 C 864.62 361.21 862.70 361.08 860.78 360.95 M 434.00 372.00 C 433.99 373.33 433.99 374.66 434.00 376.00 C 434.75 376.00 436.25 376.00 437.00 376.00 C 437.00 374.66 437.00 373.33 437.00 372.00 C 436.25 372.00 434.75 372.00 434.00 372.00 M 491.33 372.57 C 491.34 373.56 491.36 374.55 491.39 375.54 C 491.92 375.56 492.97 375.60 493.50 375.62 C 493.70 374.38 493.89 373.14 494.10 371.91 C 493.40 372.07 492.02 372.41 491.33 372.57 M 745.60 373.16 C 747.49 375.30 749.61 377.23 751.99 378.83 C 751.17 376.41 750.26 374.04 749.28 371.69 C 748.36 372.06 746.52 372.79 745.60 373.16 M 742.94 388.97 C 744.49 388.96 747.58 388.94 749.13 388.93 C 748.67 386.22 747.92 383.37 747.58 380.71 C 746.03 383.46 744.50 386.22 742.94 388.97 M 524.08 381.75 C 522.95 384.19 521.85 386.66 520.82 389.15 C 522.99 387.78 525.11 386.33 527.22 384.86 C 526.17 383.81 525.13 382.78 524.08 381.75 M 562.20 388.85 C 564.06 388.85 565.93 388.85 567.80 388.85 C 567.09 386.99 566.45 385.09 565.51 383.34 C 563.14 383.34 563.33 387.22 562.20 388.85 M 603.40 382.54 C 602.40 384.62 601.44 386.72 600.51 388.83 C 602.12 388.87 603.73 388.92 605.35 388.97 C 604.71 386.81 604.06 384.67 603.40 382.54 M 672.60 382.41 C 671.90 384.58 671.23 386.76 670.56 388.95 C 672.22 388.91 673.88 388.87 675.55 388.83 C 674.59 386.68 673.63 384.53 672.60 382.41 M 735.39 382.05 C 734.91 384.24 734.47 386.44 734.10 388.66 C 735.67 387.42 737.28 386.21 738.70 384.79 C 737.66 383.79 736.51 382.93 735.39 382.05 M 493.52 388.68 C 495.27 388.70 498.78 388.73 500.53 388.74 C 499.64 387.02 498.73 385.32 497.80 383.63 C 496.34 385.29 494.91 386.97 493.52 388.68 M 845.43 383.51 C 844.41 385.27 843.41 387.02 842.45 388.81 C 844.13 388.84 845.81 388.87 847.51 388.91 C 846.82 387.10 846.14 385.30 845.43 383.51 M 871.03 383.74 C 870.60 385.09 870.19 386.44 869.79 387.81 C 871.67 388.06 873.56 388.33 875.45 388.59 C 875.58 388.01 875.82 386.85 875.95 386.27 C 874.30 385.43 872.67 384.58 871.03 383.74 M 439.05 385.01 C 438.34 386.44 437.63 387.87 436.92 389.30 C 439.30 389.11 441.69 388.92 444.07 388.62 C 443.65 387.43 443.24 386.23 442.83 385.04 C 441.57 385.03 440.31 385.02 439.05 385.01 M 468.08 384.91 C 467.28 386.21 466.48 387.51 465.69 388.82 C 467.32 388.85 470.57 388.91 472.19 388.94 C 471.96 387.76 471.74 386.59 471.52 385.42 C 470.37 385.25 469.22 385.08 468.08 384.91 M 545.53 389.12 C 545.67 389.44 545.96 390.08 546.10 390.41 C 548.70 391.02 546.94 386.94 545.53 389.12 M 727.53 389.12 C 727.67 389.44 727.96 390.08 728.10 390.41 C 730.69 391.02 728.94 386.94 727.53 389.12 Z" />
</g>
</svg>
