<?xml version="1.0" encoding="UTF-8" ?>
<!DOCTYPE svg PUBLIC "-//W3C//DTD SVG 1.1//EN" "http://www.w3.org/Graphics/SVG/1.1/DTD/svg11.dtd">
<svg width="1240pt" height="802pt" viewBox="0 0 1240 802" version="1.1" xmlns="http://www.w3.org/2000/svg">
<g id="#ffffffff">
<g xmlns="http://www.w3.org/2000/svg" id="#ffffffff">
<path fill="#ffffff" opacity="1.00" d=" M 428.50 61.55 C 434.08 53.11 442.99 45.49 453.96 47.05 C 515.65 46.89 577.34 47.06 639.03 46.97 C 647.62 45.91 655.13 51.51 660.41 57.62 C 667.09 66.92 666.46 79.15 666.98 89.99 C 666.80 119.84 667.63 149.73 666.44 179.56 C 675.75 179.21 686.28 180.59 692.21 188.77 C 703.59 200.29 697.76 222.67 682.17 227.04 C 663.87 228.99 645.35 228.04 626.97 227.84 C 616.81 228.10 608.00 219.49 606.12 209.81 C 602.74 197.93 610.27 184.52 621.99 181.01 C 629.54 179.58 637.33 180.14 644.99 179.80 C 645.02 150.53 645.01 121.27 644.99 92.00 C 578.66 92.00 512.34 91.99 446.01 92.01 C 445.97 107.53 445.89 123.06 446.19 138.59 C 452.67 135.82 458.46 131.74 464.74 128.59 C 472.75 123.89 481.22 120.01 489.12 115.12 C 496.20 110.76 505.11 108.69 513.27 110.64 C 525.83 113.67 530.98 129.39 526.76 140.59 C 523.86 147.51 518.48 153.02 513.19 158.16 C 491.88 176.20 469.62 193.10 446.04 208.07 C 445.95 273.71 446.01 339.35 446.01 404.99 C 512.34 405.01 578.67 405.01 645.00 404.99 C 644.99 401.06 644.99 397.13 645.00 393.21 C 634.62 392.34 621.99 395.49 613.74 387.25 C 603.26 378.96 602.97 362.17 611.48 352.41 C 614.77 347.80 620.42 345.30 626.02 345.32 C 642.67 344.56 659.36 344.75 676.03 345.15 C 682.99 344.42 688.87 348.90 693.30 353.71 C 698.50 359.78 698.93 368.70 697.05 376.16 C 694.64 382.68 689.48 388.21 683.23 391.21 C 677.58 393.27 671.39 392.78 665.49 393.46 C 665.98 407.64 666.50 421.85 665.92 436.04 C 662.78 448.69 650.77 459.72 637.04 457.96 C 575.35 458.08 513.65 457.97 451.96 458.01 C 441.18 458.97 432.44 450.19 427.52 441.57 C 424.35 427.81 426.65 413.32 425.79 399.31 C 408.98 397.98 391.80 401.06 375.22 397.47 C 363.25 394.20 351.04 390.45 340.98 382.95 C 335.77 378.87 330.38 374.99 325.56 370.46 C 309.49 353.00 300.91 329.45 299.48 305.96 C 297.70 285.86 299.28 265.27 306.07 246.16 C 312.63 225.70 325.54 206.38 344.65 195.80 C 368.17 183.56 390.83 169.79 414.09 157.07 C 418.14 154.86 422.03 152.37 425.98 149.97 C 426.06 126.65 426.00 103.32 425.89 79.99 C 426.14 73.87 425.14 67.07 428.50 61.55 M 513.96 68.99 C 513.98 69.80 514.02 71.43 514.04 72.25 C 534.85 73.53 555.72 73.14 576.55 72.68 C 576.73 71.46 576.93 70.24 577.13 69.03 C 556.07 68.95 535.01 69.01 513.96 68.99 M 540.37 418.32 C 533.35 421.25 530.26 430.95 534.70 437.37 C 537.86 443.31 545.80 443.65 551.63 442.78 C 554.54 440.32 557.17 437.30 558.69 433.77 C 559.82 428.66 558.02 422.48 553.50 419.53 C 549.63 417.06 544.64 418.02 540.37 418.32 Z"/>
<path fill="#ffffff" opacity="1.00" d=" M 994.45 47.57 C 1001.28 46.56 1008.88 46.28 1015.06 49.93 C 1028.77 56.23 1034.35 75.42 1026.11 88.09 C 1019.44 100.06 1002.10 106.29 989.97 99.02 C 976.81 93.36 970.12 75.71 976.89 62.95 C 980.23 55.72 986.71 49.73 994.45 47.57 Z"/>
<path fill="#ffffff" opacity="1.00" d=" M 833.01 64.11 C 835.26 58.13 842.91 59.13 847.97 58.97 C 879.94 59.18 911.95 58.57 943.92 59.23 C 948.44 59.42 948.65 65.35 950.13 68.27 C 942.22 71.61 933.37 70.98 925.00 71.13 C 896.64 70.76 868.29 71.23 839.94 71.03 C 836.15 71.47 832.90 67.70 833.01 64.11 Z"/>
<path fill="#ffffff" opacity="1.00" d=" M 913.68 91.67 C 923.63 86.89 935.11 87.03 945.89 87.14 C 963.75 88.34 978.49 99.16 993.76 107.26 C 1001.28 111.37 1010.20 111.95 1018.60 111.56 C 1030.82 111.49 1039.54 101.33 1046.60 92.57 C 1051.76 85.52 1063.52 85.15 1069.31 91.69 C 1075.15 96.08 1073.76 105.32 1069.11 110.10 C 1054.85 129.48 1030.85 143.59 1006.19 140.54 C 1001.77 139.98 997.50 138.80 993.17 137.84 C 984.43 153.39 975.45 168.84 967.66 184.90 C 979.76 191.52 991.04 199.61 1001.59 208.45 C 1014.02 220.93 1019.80 237.96 1027.56 253.41 C 1030.59 259.26 1033.49 266.40 1031.00 273.01 C 1025.87 282.13 1009.32 283.43 1005.03 273.01 C 996.25 257.25 992.20 238.16 978.20 225.82 C 966.07 216.11 952.12 208.95 937.99 202.64 C 929.44 212.21 919.11 220.84 906.71 224.77 C 893.10 229.56 877.75 230.96 863.97 226.10 C 857.27 223.64 849.93 221.42 844.78 216.23 C 840.90 210.58 840.82 201.79 845.73 196.72 C 849.68 193.72 855.08 191.08 860.12 192.82 C 867.29 195.26 874.12 199.39 881.89 199.66 C 895.45 198.70 907.82 190.54 915.89 179.87 C 923.97 168.92 928.98 156.17 935.33 144.21 C 940.25 135.14 944.99 125.96 950.10 116.98 C 942.99 115.98 935.64 113.89 928.61 116.48 C 917.69 119.29 910.44 128.30 903.43 136.46 C 895.12 145.81 876.05 137.97 878.82 124.90 C 885.32 109.73 899.24 98.92 913.68 91.67 Z"/>
<path fill="#ffffff" opacity="1.00" d=" M 744.40 108.54 C 777.57 107.20 810.83 108.37 844.04 107.94 C 848.72 107.13 857.38 109.06 855.06 115.99 C 854.80 119.09 848.66 118.32 847.00 118.84 C 813.67 119.20 780.32 119.10 746.99 118.89 C 743.46 120.12 738.26 117.14 739.04 113.12 C 739.85 110.82 742.01 109.02 744.40 108.54 Z"/>
<path fill="#ffffff" opacity="1.00" d=" M 771.87 166.73 C 781.37 162.81 791.97 164.17 802.00 163.89 C 828.69 164.29 855.38 163.67 882.07 164.02 C 885.78 163.97 887.66 167.78 889.95 170.09 C 887.80 172.21 885.84 175.10 882.62 175.53 C 864.43 176.73 846.20 175.74 828.00 175.99 C 811.10 175.73 794.15 176.75 777.29 175.59 C 773.25 174.96 773.52 169.24 771.87 166.73 Z"/>
<path fill="#ffffff" opacity="1.00" d=" M 734.14 230.24 C 737.29 225.92 743.43 227.56 747.97 226.96 C 777.76 227.27 807.60 226.24 837.38 227.66 C 837.10 230.84 839.12 234.99 836.28 237.28 C 832.82 239.85 827.92 238.30 824.03 239.04 C 797.34 238.98 770.65 239.15 743.96 238.98 C 739.02 240.02 731.08 236.88 734.14 230.24 Z"/>
<path fill="#ffffff" opacity="1.00" d=" M 621.69 236.01 C 639.69 233.92 657.94 235.03 676.05 235.12 C 687.00 235.32 697.63 244.73 697.94 256.04 C 700.00 269.07 688.55 283.66 674.99 282.82 C 658.38 283.23 641.73 283.46 625.13 282.69 C 611.83 281.04 602.37 266.08 606.00 253.30 C 608.02 245.49 613.66 238.13 621.69 236.01 Z"/>
<path fill="#ffffff" opacity="1.00" d=" M 624.38 290.53 C 639.22 289.37 654.13 290.03 669.01 289.88 C 673.30 290.30 677.96 289.29 682.12 290.87 C 690.12 294.97 697.88 302.38 697.95 312.04 C 699.74 320.87 694.08 328.48 687.86 333.83 C 683.74 337.26 678.01 336.71 673.03 336.99 C 656.06 337.06 639.07 337.52 622.12 336.67 C 606.21 333.32 599.57 310.29 610.69 298.70 C 614.32 294.74 618.76 290.99 624.38 290.53 Z"/>
</g>
</g>
</svg>
