<?xml version="1.0" encoding="UTF-8" ?>
<!DOCTYPE svg PUBLIC "-//W3C//DTD SVG 1.1//EN" "http://www.w3.org/Graphics/SVG/1.1/DTD/svg11.dtd">
<svg width="1280pt" height="720pt" viewBox="0 0 1280 720" version="1.1" xmlns="http://www.w3.org/2000/svg">
<g id="#0072b2ff">
<path fill="#0072b2" opacity="1.00" d=" M 631.20 15.20 C 670.75 13.65 710.67 22.14 746.07 39.90 C 779.44 56.49 808.74 81.11 830.97 111.01 C 850.81 137.63 864.98 168.45 872.19 200.85 C 881.93 244.54 879.23 290.99 864.11 333.15 C 853.04 364.18 835.40 392.84 812.72 416.73 C 787.75 443.15 756.64 463.74 722.53 476.33 C 681.66 491.53 636.57 494.90 593.81 486.54 C 557.81 479.48 523.55 463.83 494.57 441.34 C 465.84 419.11 442.27 390.27 426.32 357.63 C 401.99 308.32 395.88 250.47 408.78 197.08 C 421.62 143.02 454.33 94.10 499.10 61.26 C 537.17 33.09 583.85 16.73 631.20 15.20 M 478.24 166.41 C 470.63 167.23 464.03 173.47 462.79 181.02 C 461.11 189.28 466.18 198.20 474.06 201.11 C 478.14 202.84 482.65 202.25 486.96 202.33 C 571.93 202.33 656.90 202.35 741.87 202.32 C 751.11 202.36 759.46 194.29 759.63 185.03 C 760.43 174.89 751.13 165.66 741.03 166.28 C 653.44 166.38 565.83 166.13 478.24 166.41 M 532.39 220.56 C 525.43 222.78 520.18 229.60 520.09 236.95 C 520.03 264.64 520.10 292.34 520.06 320.04 C 519.75 327.27 524.32 334.39 531.04 337.08 C 536.82 339.66 543.86 338.65 548.86 334.85 C 553.49 331.45 556.19 325.75 556.13 320.03 C 556.10 292.36 556.20 264.69 556.08 237.03 C 555.99 225.52 543.25 216.53 532.39 220.56 M 634.35 220.51 C 626.89 222.74 621.57 230.26 621.79 238.02 C 621.83 265.65 621.78 293.28 621.81 320.91 C 621.91 327.63 626.12 334.07 632.24 336.84 C 637.95 339.59 645.06 338.87 650.19 335.19 C 655.05 331.83 658.02 325.97 657.86 320.06 C 657.84 292.35 657.93 264.63 657.82 236.92 C 657.74 225.53 645.11 216.61 634.35 220.51 M 723.62 237.05 C 723.57 264.36 723.64 291.68 723.58 319.00 C 722.89 329.56 732.20 340.07 742.97 339.78 C 760.64 339.80 778.31 339.76 795.99 339.80 C 799.96 339.87 804.15 339.83 807.73 337.83 C 814.89 334.39 819.03 325.78 817.21 318.04 C 815.63 310.12 808.19 303.75 800.06 303.75 C 786.61 303.84 773.16 303.61 759.72 303.87 C 759.45 281.56 759.71 259.23 759.59 236.92 C 759.49 227.36 750.52 219.22 741.04 219.64 C 731.88 219.80 723.74 227.87 723.62 237.05 Z" />
<path fill="#0072b2" opacity="1.00" d=" M 209.00 491.00 C 218.33 491.00 227.67 491.00 237.00 491.00 C 237.01 525.32 237.32 559.65 235.56 593.93 C 237.01 592.07 237.79 589.82 238.77 587.70 C 245.88 572.18 253.70 556.99 261.94 542.04 C 271.23 525.02 280.45 507.97 289.78 490.98 C 300.19 491.03 310.59 490.98 321.00 491.00 C 321.00 536.67 321.00 582.33 321.00 628.00 C 311.67 628.00 302.33 628.00 293.00 628.00 C 293.19 598.68 292.34 569.31 294.31 540.03 C 294.43 536.56 295.24 533.09 294.82 529.62 C 288.10 546.42 280.43 562.86 271.59 578.66 C 262.37 595.11 253.13 611.56 243.90 628.00 C 232.26 628.00 220.63 628.00 209.00 628.00 C 209.00 582.33 209.00 536.67 209.00 491.00 Z" />
<path fill="#0072b2" opacity="1.00" d=" M 564.01 536.02 C 575.09 527.04 590.31 524.46 604.12 526.91 C 614.12 528.66 623.37 534.46 629.00 542.95 C 637.78 556.04 639.32 572.74 637.03 588.00 C 616.00 588.02 594.97 587.96 573.94 588.03 C 574.59 597.23 582.62 603.95 591.23 605.73 C 603.62 608.36 616.61 606.50 628.61 602.88 C 629.90 609.92 631.40 616.93 632.56 624.00 C 619.95 628.75 606.34 630.42 592.93 629.87 C 580.01 629.29 566.67 624.96 557.65 615.33 C 547.98 605.18 544.49 590.60 545.05 576.92 C 545.55 561.54 551.80 545.79 564.01 536.02 M 580.49 551.51 C 576.46 555.55 574.50 561.18 573.77 566.74 C 585.78 566.75 597.78 566.76 609.78 566.74 C 609.58 561.07 608.20 555.03 604.05 550.91 C 597.77 544.80 586.51 545.21 580.49 551.51 Z" />
<path fill="#0072b2" opacity="1.00" d=" M 682.11 542.33 C 693.63 524.88 720.26 520.64 736.83 533.20 C 748.10 541.49 754.05 555.31 755.37 568.95 C 756.73 583.49 754.61 599.02 746.26 611.32 C 739.13 622.00 726.95 629.14 714.10 629.86 C 703.54 630.66 692.09 627.19 685.52 618.48 C 685.48 634.98 685.51 651.49 685.50 668.00 C 675.33 668.00 665.17 668.00 655.00 668.00 C 655.00 636.01 655.00 604.01 655.00 572.02 C 655.09 557.35 654.86 542.67 654.20 528.01 C 663.03 527.99 671.86 527.99 680.70 528.01 C 681.16 532.78 681.64 537.55 682.11 542.33 M 700.44 550.74 C 691.74 552.72 685.72 561.34 685.57 570.06 C 685.46 576.03 685.40 582.01 685.62 587.98 C 685.88 594.66 689.82 601.13 695.80 604.20 C 703.24 608.07 713.25 606.09 718.55 599.54 C 723.71 593.29 725.09 584.83 724.96 576.95 C 724.76 569.55 723.09 561.66 717.95 556.04 C 713.65 551.24 706.66 549.34 700.44 550.74 Z" />
<path fill="#0072b2" opacity="1.00" d=" M 910.35 532.36 C 921.04 526.17 934.10 524.75 946.11 527.12 C 956.48 529.14 965.83 535.69 971.21 544.81 C 978.90 557.67 980.22 573.43 978.03 588.00 C 957.00 588.02 935.97 587.96 914.94 588.03 C 915.61 597.54 924.11 604.29 932.99 605.92 C 945.17 608.24 957.85 606.45 969.61 602.88 C 970.97 609.84 972.19 616.82 973.66 623.76 C 960.52 629.19 945.97 630.50 931.88 629.74 C 917.34 628.81 902.40 622.38 894.27 609.82 C 886.43 597.95 884.74 582.92 886.81 569.09 C 889.08 554.34 897.16 539.93 910.35 532.36 M 921.48 551.52 C 917.46 555.56 915.48 561.18 914.79 566.75 C 926.78 566.75 938.78 566.76 950.78 566.74 C 950.58 561.31 949.33 555.58 945.57 551.45 C 939.44 544.78 927.66 545.03 921.48 551.52 Z" />
<path fill="#0072b2" opacity="1.00" d=" M 345.00 528.00 C 355.17 528.01 365.34 527.97 375.52 528.03 C 375.48 540.02 375.51 552.01 375.50 564.00 C 385.83 564.00 396.16 564.00 406.50 564.00 C 406.49 552.01 406.51 540.01 406.49 528.02 C 416.66 527.97 426.83 528.01 437.00 528.00 C 437.00 561.33 437.00 594.67 437.00 628.00 C 426.81 627.95 416.62 628.11 406.44 627.92 C 406.57 614.61 406.46 601.31 406.50 588.00 C 396.17 588.00 385.83 588.00 375.50 588.00 C 375.52 600.68 375.46 613.36 375.54 626.04 C 375.46 626.52 375.30 627.46 375.22 627.94 C 365.15 628.09 355.07 627.95 345.00 628.00 C 345.00 594.67 345.00 561.33 345.00 528.00 Z" />
<path fill="#0072b2" opacity="1.00" d=" M 450.57 527.94 C 479.69 527.93 508.81 527.94 537.94 527.94 C 537.94 535.86 537.94 543.77 537.93 551.69 C 528.46 551.69 518.98 551.68 509.51 551.69 C 509.52 577.10 509.44 602.52 509.55 627.93 C 499.37 628.09 489.18 627.96 479.00 628.00 C 479.00 602.56 479.01 577.13 479.00 551.69 C 469.51 551.67 460.03 551.71 450.55 551.67 C 450.57 543.76 450.55 535.85 450.57 527.94 Z" />
<path fill="#0072b2" opacity="1.00" d=" M 775.00 528.00 C 785.18 528.04 795.37 527.90 805.55 528.08 C 805.43 540.05 805.53 552.02 805.50 564.00 C 815.83 564.00 826.16 564.00 836.50 564.00 C 836.47 552.02 836.55 540.04 836.46 528.07 C 846.63 527.92 856.82 528.04 867.00 528.00 C 867.00 561.33 867.00 594.67 867.00 628.00 C 856.85 628.03 846.71 627.94 836.56 628.05 C 836.41 614.70 836.54 601.35 836.50 588.00 C 826.16 588.00 815.83 588.00 805.50 588.00 C 805.51 599.98 805.47 611.96 805.53 623.94 C 805.36 625.22 805.86 626.78 805.23 627.94 C 795.15 628.09 785.07 627.95 775.00 628.00 C 775.00 594.67 775.00 561.33 775.00 528.00 Z" />
<path fill="#0072b2" opacity="1.00" d=" M 984.57 527.94 C 1013.69 527.93 1042.81 527.93 1071.94 527.94 C 1071.93 535.86 1071.95 543.78 1071.93 551.69 C 1062.45 551.68 1052.98 551.69 1043.51 551.69 C 1043.49 577.13 1043.51 602.56 1043.49 628.00 C 1033.33 628.00 1023.16 628.00 1013.00 628.00 C 1012.99 602.56 1013.01 577.13 1013.00 551.69 C 1003.51 551.67 994.03 551.72 984.55 551.66 C 984.58 543.75 984.54 535.85 984.57 527.94 Z" />
</g>
<g id="#ffffffff">
<path fill="#ffffff" opacity="1.00" d=" M 478.24 166.41 C 565.83 166.13 653.44 166.38 741.03 166.28 C 751.13 165.66 760.43 174.89 759.63 185.03 C 759.46 194.29 751.11 202.36 741.87 202.32 C 656.90 202.35 571.93 202.33 486.96 202.33 C 482.65 202.25 478.14 202.84 474.06 201.11 C 466.18 198.20 461.11 189.28 462.79 181.02 C 464.03 173.47 470.63 167.23 478.24 166.41 Z" />
<path fill="#ffffff" opacity="1.00" d=" M 532.39 220.56 C 543.25 216.53 555.99 225.52 556.08 237.03 C 556.20 264.69 556.10 292.36 556.13 320.03 C 556.19 325.75 553.49 331.45 548.86 334.85 C 543.86 338.65 536.82 339.66 531.04 337.08 C 524.32 334.39 519.75 327.27 520.06 320.04 C 520.10 292.34 520.03 264.64 520.09 236.95 C 520.18 229.60 525.43 222.78 532.39 220.56 Z" />
<path fill="#ffffff" opacity="1.00" d=" M 634.35 220.51 C 645.11 216.61 657.74 225.53 657.82 236.92 C 657.93 264.63 657.84 292.35 657.86 320.06 C 658.02 325.97 655.05 331.83 650.19 335.19 C 645.06 338.87 637.95 339.59 632.24 336.84 C 626.12 334.07 621.91 327.63 621.81 320.91 C 621.78 293.28 621.83 265.65 621.79 238.02 C 621.57 230.26 626.89 222.74 634.35 220.51 Z" />
<path fill="#ffffff" opacity="1.00" d=" M 723.62 237.05 C 723.74 227.87 731.88 219.80 741.04 219.64 C 750.52 219.22 759.49 227.36 759.59 236.92 C 759.71 259.23 759.45 281.56 759.72 303.87 C 773.16 303.61 786.61 303.84 800.06 303.75 C 808.19 303.75 815.63 310.12 817.21 318.04 C 819.03 325.78 814.89 334.39 807.73 337.83 C 804.15 339.83 799.96 339.87 795.99 339.80 C 778.31 339.76 760.64 339.80 742.97 339.78 C 732.20 340.07 722.89 329.56 723.58 319.00 C 723.64 291.68 723.57 264.36 723.62 237.05 Z" />
</g>
</svg>
