<?xml version="1.0" encoding="UTF-8" ?>
<!DOCTYPE svg PUBLIC "-//W3C//DTD SVG 1.1//EN" "http://www.w3.org/Graphics/SVG/1.1/DTD/svg11.dtd">
<svg width="1240pt" height="802pt" viewBox="0 0 1240 802" version="1.1" xmlns="http://www.w3.org/2000/svg">
<g xmlns="http://www.w3.org/2000/svg" id="#ffffffff">
<path fill="#ffffff" opacity="1.00" d=" M 538.02 21.04 C 567.26 11.38 598.57 13.91 628.88 14.34 C 647.15 17.00 665.32 20.75 683.00 26.14 C 699.78 31.15 715.39 39.26 731.02 47.01 C 772.24 70.44 807.71 104.17 832.13 144.90 C 839.92 156.52 845.56 169.35 850.77 182.28 C 862.47 207.85 866.81 235.99 870.23 263.67 C 873.31 298.27 868.20 333.18 858.52 366.40 C 855.95 375.62 851.68 384.22 848.03 393.03 C 837.70 419.27 820.93 442.41 802.90 463.89 C 770.95 500.33 728.94 527.73 682.95 542.89 C 659.21 549.57 634.83 555.53 610.00 555.08 C 586.95 555.16 563.17 556.48 541.04 548.83 C 527.40 544.09 521.56 526.47 528.03 514.00 C 531.19 507.29 537.85 502.99 544.72 500.80 C 554.59 499.03 564.24 502.22 573.97 503.30 C 574.04 458.82 573.99 414.35 573.99 369.87 C 564.36 370.07 554.74 371.12 545.11 370.74 C 539.48 369.92 535.09 365.62 531.21 361.81 C 526.20 357.01 525.65 349.52 526.01 343.02 C 525.64 334.19 532.04 326.38 539.68 322.67 C 550.79 319.31 562.52 319.40 573.97 318.02 C 574.02 295.67 574.04 273.31 573.97 250.96 C 562.63 249.47 550.47 250.66 539.71 246.25 C 525.96 240.60 521.93 222.18 529.10 210.06 C 532.72 205.11 537.44 200.12 543.66 198.71 C 553.74 197.44 563.90 198.49 574.00 199.08 C 573.99 154.56 574.03 110.05 573.97 65.54 C 564.30 66.45 554.82 69.35 545.03 68.92 C 534.66 66.39 524.73 57.31 524.99 45.98 C 523.16 35.78 528.93 25.50 538.02 21.04 M 625.33 73.38 C 624.59 115.31 625.17 157.26 625.01 199.20 C 645.79 198.17 666.40 195.09 686.77 190.93 C 682.32 171.53 677.30 152.16 669.00 134.00 C 658.83 111.13 645.95 88.42 625.33 73.38 M 704.03 90.89 C 710.91 101.12 715.15 112.78 719.89 124.08 C 727.21 140.44 731.77 157.88 735.48 175.36 C 749.96 170.05 763.24 162.04 776.29 153.92 C 757.48 127.76 732.48 106.02 704.03 90.89 M 744.93 226.95 C 749.29 265.19 748.71 303.82 744.85 342.07 C 764.94 349.42 783.96 359.53 802.01 370.96 C 807.08 358.99 811.22 346.62 813.86 333.87 C 817.82 314.54 821.54 294.86 819.70 275.03 C 817.26 248.76 812.71 222.33 802.01 198.04 C 784.08 209.68 764.80 219.12 744.93 226.95 M 625.03 250.97 C 624.97 273.35 624.96 295.74 625.04 318.13 C 648.48 319.94 671.85 322.74 694.96 327.17 C 697.90 298.78 697.11 270.20 694.89 241.79 C 671.86 246.58 648.48 249.41 625.03 250.97 M 625.01 369.72 C 625.17 411.68 624.60 453.65 625.33 495.61 C 635.87 487.77 644.69 477.85 651.94 466.94 C 669.40 440.03 680.22 409.37 686.76 378.10 C 666.46 373.56 645.81 370.53 625.01 369.72 M 735.95 393.68 C 732.02 408.25 728.78 423.05 723.11 437.08 C 717.23 451.00 712.23 465.37 704.22 478.27 C 732.40 462.73 757.45 441.23 776.30 415.09 C 763.44 406.89 750.13 399.36 735.95 393.68 Z"/>
<path fill="#ffffff" opacity="1.00" d=" M 458.45 69.60 C 472.33 67.81 486.43 67.32 500.39 68.56 C 513.67 71.21 525.58 82.72 526.39 96.62 C 528.29 109.59 519.96 120.75 515.05 132.03 C 507.69 146.74 502.57 162.64 493.46 176.43 C 488.55 184.14 479.63 187.56 470.98 188.95 C 450.03 192.61 428.80 194.86 408.14 200.05 C 399.87 228.82 397.82 258.88 397.35 288.67 C 397.95 315.70 400.24 342.97 408.22 368.93 C 429.79 374.07 451.91 376.20 473.67 380.39 C 481.59 382.05 489.38 386.10 493.85 393.09 C 503.11 407.42 508.46 423.77 516.05 438.98 C 520.07 447.60 525.32 456.02 526.41 465.68 C 527.75 476.40 523.08 487.91 513.98 493.97 C 504.33 502.78 490.01 500.92 477.99 501.08 C 456.22 501.11 434.68 494.84 415.76 484.24 C 387.94 467.49 367.16 440.50 355.52 410.40 C 342.68 381.67 338.44 350.12 335.57 319.06 C 333.17 298.53 333.58 277.77 334.59 257.17 C 337.04 230.80 340.02 204.29 347.88 178.89 C 356.68 152.76 368.56 126.99 388.06 107.05 C 406.34 86.91 431.76 74.09 458.45 69.60 Z"/>

</g>
</svg>
