<?xml version="1.0" encoding="UTF-8" ?>
<!DOCTYPE svg PUBLIC "-//W3C//DTD SVG 1.1//EN" "http://www.w3.org/Graphics/SVG/1.1/DTD/svg11.dtd">
<svg width="611pt" height="169pt" viewBox="0 0 611 169" version="1.1" xmlns="http://www.w3.org/2000/svg">
<g id="#00985fff">
<path fill="#00985f" opacity="1.00" d=" M 22.31 36.29 C 31.64 28.12 43.88 23.49 56.27 23.25 C 56.22 40.69 56.23 58.14 56.26 75.59 C 53.77 75.62 51.26 75.53 48.77 75.78 C 45.90 76.24 43.84 79.05 44.10 81.92 C 44.06 97.60 44.11 113.28 44.08 128.96 C 27.11 124.60 12.60 111.57 6.87 94.96 C 4.71 88.52 3.07 81.74 3.44 74.90 C 4.49 60.27 11.03 45.85 22.31 36.29 M 43.36 55.35 C 39.17 57.60 39.06 64.47 43.33 66.69 C 47.47 69.45 53.50 65.83 53.32 60.96 C 53.35 56.20 47.45 52.61 43.36 55.35 Z" />
<path fill="#00985f" opacity="1.00" d=" M 65.37 23.72 C 78.67 25.81 91.09 32.87 99.44 43.46 C 109.22 55.49 113.13 71.93 110.13 87.11 C 107.37 102.45 97.26 116.12 83.72 123.73 C 74.53 128.92 63.84 131.19 53.32 130.60 C 53.25 115.35 53.32 100.11 53.29 84.87 C 56.07 84.79 58.92 85.12 61.65 84.47 C 64.31 83.60 65.64 80.67 65.39 78.02 C 65.38 59.92 65.39 41.82 65.37 23.72 M 60.33 93.40 C 55.59 95.05 54.80 102.28 59.05 104.94 C 63.29 108.13 70.04 104.25 69.41 98.99 C 69.10 94.64 64.33 91.95 60.33 93.40 M 73.22 96.24 C 71.02 99.66 73.04 104.81 77.00 105.76 C 81.58 107.46 86.76 102.62 85.35 97.92 C 84.65 94.86 81.65 93.49 79.00 92.49 C 76.91 93.39 74.30 93.99 73.22 96.24 M 92.43 93.46 C 87.55 95.29 87.06 102.87 91.76 105.22 C 96.06 107.94 102.26 104.03 101.60 98.96 C 101.34 94.51 96.43 91.91 92.43 93.46 Z" />
<path fill="#00985f" opacity="1.00" d=" M 142.57 46.59 C 146.09 43.06 151.96 42.59 156.32 44.75 C 159.99 46.68 162.20 50.44 163.74 54.16 C 169.20 67.47 174.80 80.73 180.23 94.06 C 185.96 80.77 191.33 67.32 196.97 53.99 C 198.47 50.45 200.45 46.77 203.99 44.91 C 208.63 42.40 215.28 43.04 218.65 47.36 C 220.95 50.37 221.31 54.33 221.31 57.99 C 221.26 74.30 221.29 90.62 221.29 106.94 C 217.02 106.94 212.75 106.94 208.48 106.94 C 208.43 90.76 208.58 74.58 208.40 58.40 C 202.71 71.78 197.09 85.18 191.48 98.59 C 189.80 103.05 186.44 108.02 181.10 107.89 C 175.93 108.68 171.53 104.74 169.85 100.16 C 164.03 86.28 157.95 72.51 152.46 58.50 C 151.99 74.62 152.37 90.76 152.26 106.89 C 147.95 106.96 143.63 106.94 139.32 106.93 C 139.32 90.61 139.33 74.29 139.31 57.98 C 139.27 54.00 139.78 49.65 142.57 46.59 Z" />
<path fill="#00985f" opacity="1.00" d=" M 404.64 47.77 C 414.15 43.40 424.87 45.13 434.99 44.77 C 444.74 44.85 455.71 43.76 463.94 50.07 C 471.19 56.05 472.08 66.25 471.68 75.00 C 471.75 83.13 468.81 92.12 461.41 96.38 C 454.59 100.33 446.38 100.08 438.76 100.20 C 438.76 102.44 438.77 104.69 438.78 106.93 C 434.57 106.94 430.36 106.94 426.15 106.93 C 426.16 104.69 426.17 102.46 426.18 100.22 C 417.09 100.10 406.52 100.35 399.64 93.36 C 392.87 86.38 392.86 75.97 393.39 66.90 C 393.76 59.27 397.36 51.09 404.64 47.77 M 410.50 58.43 C 406.18 61.42 405.60 67.18 405.55 72.00 C 405.54 77.11 405.95 83.30 410.55 86.50 C 415.21 89.40 420.97 88.61 426.19 88.59 C 426.15 77.81 426.13 67.04 426.21 56.27 C 420.95 56.11 415.16 55.50 410.50 58.43 M 438.76 56.17 C 438.77 66.99 438.79 77.81 438.76 88.63 C 443.98 88.57 449.78 89.42 454.43 86.46 C 459.00 83.24 459.38 77.05 459.37 71.95 C 459.29 67.17 458.75 61.50 454.52 58.49 C 449.87 55.46 444.03 56.21 438.76 56.17 Z" />
<path fill="#00985f" opacity="1.00" d=" M 350.42 59.36 C 352.00 55.50 355.52 52.13 359.91 52.13 C 364.47 51.51 369.27 53.90 371.08 58.22 C 378.46 74.38 385.35 90.76 392.72 106.93 C 388.12 106.95 383.53 106.95 378.93 106.92 C 377.43 103.15 375.94 99.37 374.40 95.62 C 365.53 95.63 356.66 95.64 347.79 95.61 C 346.20 99.37 344.62 103.14 343.13 106.94 C 338.58 106.94 334.03 106.94 329.48 106.94 C 336.43 91.07 343.47 75.24 350.42 59.36 M 352.12 84.88 C 358.09 84.88 364.06 84.91 370.04 84.85 C 366.93 77.82 364.66 70.42 361.02 63.64 C 357.61 70.52 355.04 77.78 352.12 84.88 Z" />
<path fill="#00985f" opacity="1.00" d=" M 236.97 54.90 C 238.52 53.30 240.88 53.36 242.94 53.32 C 255.26 53.36 267.58 53.32 279.90 53.35 C 279.86 57.09 279.86 60.83 279.91 64.57 C 268.86 64.63 257.81 64.54 246.76 64.63 C 246.70 67.72 246.69 70.81 246.69 73.90 C 257.52 73.90 268.36 73.90 279.19 73.90 C 279.19 77.55 279.19 81.21 279.19 84.86 C 268.36 84.89 257.53 84.86 246.70 84.87 C 246.70 88.43 246.69 91.98 246.71 95.54 C 257.76 95.77 268.82 95.58 279.88 95.64 C 279.87 99.40 279.87 103.17 279.88 106.94 C 266.92 106.89 253.95 107.04 241.00 106.88 C 236.96 106.86 234.17 102.83 234.27 99.04 C 234.13 87.01 234.27 74.97 234.21 62.94 C 234.15 60.07 234.65 56.86 236.97 54.90 Z" />
<path fill="#00985f" opacity="1.00" d=" M 292.35 61.06 C 292.20 57.31 295.03 53.23 299.06 53.39 C 311.98 53.27 324.92 53.37 337.84 53.35 C 337.80 57.09 337.80 60.83 337.85 64.58 C 326.80 64.64 315.75 64.51 304.70 64.65 C 304.54 78.74 304.66 92.84 304.63 106.93 C 300.52 106.94 296.41 106.94 292.31 106.94 C 292.35 91.64 292.24 76.35 292.35 61.06 Z" />
<path fill="#00985f" opacity="1.00" d=" M 501.20 53.15 C 508.54 52.19 516.09 52.12 523.41 53.28 C 530.57 54.38 537.24 59.24 539.42 66.31 C 542.30 75.71 542.35 86.30 538.65 95.48 C 535.30 103.55 526.27 107.21 518.05 107.60 C 509.17 107.93 499.47 108.38 491.72 103.26 C 485.44 99.05 482.97 91.18 482.60 83.96 C 482.22 75.97 482.55 67.15 487.64 60.54 C 490.88 56.29 496.04 53.99 501.20 53.15 M 502.50 64.77 C 497.75 66.17 495.29 71.26 495.22 75.92 C 495.14 81.36 494.37 87.52 497.84 92.15 C 500.96 96.12 506.43 96.44 511.08 96.46 C 516.28 96.48 522.57 96.58 526.14 92.10 C 529.40 87.44 528.86 81.35 528.67 75.95 C 528.55 71.31 526.29 66.15 521.48 64.78 C 515.32 63.24 508.66 63.25 502.50 64.77 Z" />
<path fill="#00985f" opacity="1.00" d=" M 591.21 53.35 C 595.42 53.33 599.64 53.33 603.87 53.35 C 603.79 71.21 603.84 89.07 603.84 106.93 C 599.63 106.94 595.43 106.94 591.23 106.93 C 591.25 99.74 591.22 92.54 591.25 85.34 C 582.27 85.30 573.29 85.34 564.31 85.32 C 564.33 92.52 564.31 99.72 564.33 106.92 C 560.14 106.95 555.96 106.95 551.78 106.92 C 551.78 89.06 551.79 71.21 551.77 53.36 C 555.96 53.33 560.14 53.33 564.33 53.36 C 564.31 60.11 564.32 66.87 564.32 73.62 C 573.29 73.60 582.27 73.62 591.24 73.61 C 591.22 66.85 591.26 60.10 591.21 53.35 Z" />
<path fill="#00985f" opacity="1.00" d=" M 425.70 122.84 C 431.09 122.85 436.48 122.84 441.88 122.84 C 441.76 123.69 441.53 125.40 441.42 126.25 C 439.44 126.25 437.47 126.25 435.50 126.25 C 435.53 132.97 435.52 139.68 435.51 146.39 C 434.54 146.40 432.61 146.42 431.64 146.43 C 431.63 139.70 431.62 132.97 431.65 126.25 C 429.67 126.25 427.69 126.26 425.72 126.27 C 425.72 125.41 425.71 123.70 425.70 122.84 Z" />
<path fill="#00985f" opacity="1.00" d=" M 448.31 129.38 C 452.25 127.47 457.48 129.80 458.51 134.10 C 459.16 137.61 459.39 141.92 456.65 144.66 C 453.68 147.94 447.67 147.45 445.35 143.64 C 442.60 139.19 443.24 131.87 448.31 129.38 M 449.34 132.34 C 447.29 135.00 447.76 138.85 448.57 141.92 C 449.04 144.54 453.46 144.61 454.25 142.17 C 455.02 139.41 454.95 136.39 454.32 133.62 C 453.73 131.55 450.78 130.69 449.34 132.34 Z" />
<path fill="#00985f" opacity="1.00" d=" M 463.13 129.54 C 464.31 129.29 465.50 129.03 466.69 128.78 C 466.65 131.70 466.60 134.67 467.53 137.48 C 468.58 137.44 470.69 137.35 471.74 137.31 C 471.80 134.76 471.82 132.21 471.83 129.66 C 473.08 129.33 474.35 129.00 475.61 128.67 C 475.84 133.66 475.36 138.68 475.86 143.65 C 476.24 143.96 476.99 144.56 477.37 144.87 C 477.39 146.41 477.40 147.96 477.42 149.51 C 476.71 149.50 475.29 149.49 474.58 149.48 C 474.60 148.73 474.64 147.22 474.66 146.47 C 473.95 146.43 472.53 146.34 471.82 146.30 C 471.82 144.14 471.82 141.98 471.84 139.82 C 469.14 140.19 465.57 140.85 463.81 138.16 C 462.65 135.47 463.30 132.39 463.13 129.54 Z" />
<path fill="#00985f" opacity="1.00" d=" M 481.75 129.56 C 482.99 129.28 484.24 129.00 485.50 128.72 C 485.51 133.00 485.52 137.28 485.43 141.56 C 487.26 137.41 489.55 133.48 491.80 129.54 C 493.07 129.25 494.34 128.96 495.61 128.67 C 495.71 134.59 495.66 140.50 495.65 146.42 C 494.77 146.41 493.01 146.40 492.12 146.40 C 492.10 142.30 492.04 138.20 492.31 134.12 C 490.28 138.29 487.89 142.27 485.72 146.37 C 484.40 146.38 483.07 146.40 481.76 146.41 C 481.75 140.79 481.76 135.17 481.75 129.56 Z" />
<path fill="#00985f" opacity="1.00" d=" M 501.84 129.60 C 503.06 129.31 504.28 129.02 505.51 128.73 C 505.51 131.14 505.52 133.56 505.54 135.97 C 506.77 135.85 508.01 135.73 509.25 135.60 C 509.80 133.75 510.14 131.81 511.01 130.08 C 512.15 129.10 513.80 129.14 515.18 128.67 C 515.34 129.41 515.51 130.15 515.69 130.89 C 513.44 132.36 512.74 135.01 511.45 137.21 C 512.53 139.11 513.37 141.14 514.16 143.19 C 514.59 143.45 515.45 143.98 515.88 144.25 C 515.79 144.93 515.62 146.31 515.54 147.00 C 513.92 146.54 512.31 146.07 510.72 145.54 C 510.11 143.46 509.93 141.19 508.80 139.30 C 508.00 139.05 506.41 138.54 505.61 138.29 C 505.52 141.00 505.51 143.72 505.50 146.44 C 504.28 146.41 503.06 146.39 501.85 146.37 C 501.84 140.78 501.85 135.19 501.84 129.60 Z" />
<path fill="#00985f" opacity="1.00" d=" M 520.56 129.50 C 521.77 129.24 522.99 128.99 524.21 128.74 C 524.22 133.03 524.25 137.32 524.17 141.61 C 525.97 137.42 528.28 133.47 530.52 129.50 C 531.80 129.24 533.09 128.98 534.39 128.72 C 534.40 134.62 534.40 140.51 534.39 146.41 C 533.48 146.41 531.66 146.41 530.75 146.41 C 530.74 142.36 530.72 138.31 530.84 134.27 C 528.90 138.43 526.62 142.42 524.34 146.41 C 523.39 146.41 521.51 146.41 520.57 146.41 C 520.56 140.77 520.56 135.13 520.56 129.50 Z" />
<path fill="#00985f" opacity="1.00" d=" M 544.34 129.41 C 546.88 128.02 549.66 129.16 552.13 130.12 C 551.51 131.08 550.90 132.04 550.28 133.00 C 549.19 132.49 548.10 131.99 547.02 131.49 C 546.43 131.85 545.25 132.57 544.66 132.93 C 543.82 136.23 543.11 139.93 544.93 143.05 C 546.83 144.61 549.19 143.39 551.09 142.51 C 551.46 143.13 552.21 144.39 552.59 145.01 C 549.45 146.93 544.96 147.84 542.09 144.97 C 538.22 140.62 538.83 132.14 544.34 129.41 Z" />
<path fill="#00985f" opacity="1.00" d=" M 554.51 129.20 C 558.96 129.25 563.42 129.19 567.89 129.27 C 567.78 132.26 564.81 131.88 562.66 132.33 C 562.73 137.02 562.72 141.71 562.70 146.40 C 561.82 146.40 560.05 146.40 559.17 146.40 C 559.15 141.71 559.14 137.01 559.19 132.31 C 557.60 132.10 556.02 131.89 554.45 131.69 C 554.46 131.07 554.49 129.82 554.51 129.20 Z" />
<path fill="#00985f" opacity="1.00" d=" M 574.33 129.51 C 577.77 127.70 582.59 129.10 584.20 132.73 C 585.88 136.55 585.75 141.62 582.80 144.79 C 579.52 148.20 573.01 147.21 571.15 142.77 C 569.37 138.40 569.69 131.97 574.33 129.51 M 575.48 132.41 C 573.67 135.04 574.11 138.58 574.70 141.54 C 574.98 144.53 579.92 144.80 580.57 141.90 C 581.49 139.02 581.56 135.67 580.17 132.94 C 579.42 131.20 576.51 130.96 575.48 132.41 Z" />
<path fill="#00985f" opacity="1.00" d=" M 590.39 129.45 C 591.66 129.29 592.94 129.14 594.23 129.00 C 594.22 131.27 594.21 133.55 594.21 135.82 C 596.07 135.82 597.94 135.82 599.82 135.82 C 599.80 133.75 599.78 131.69 599.78 129.63 C 601.09 129.33 602.41 129.02 603.74 128.72 C 603.75 134.63 603.79 140.54 603.72 146.45 C 602.74 146.42 600.78 146.37 599.80 146.34 C 599.79 143.74 599.79 141.15 599.78 138.56 C 597.92 138.56 596.08 138.56 594.24 138.56 C 594.22 141.16 594.22 143.75 594.22 146.35 C 593.27 146.37 591.36 146.41 590.41 146.43 C 590.38 140.77 590.40 135.11 590.39 129.45 Z" />
</g>
</svg>
