<?xml version="1.0" encoding="UTF-8" ?>
<!DOCTYPE svg PUBLIC "-//W3C//DTD SVG 1.1//EN" "http://www.w3.org/Graphics/SVG/1.1/DTD/svg11.dtd">
<svg width="1240pt" height="802pt" viewBox="0 0 1240 802" version="1.1" xmlns="http://www.w3.org/2000/svg">
<g xmlns="http://www.w3.org/2000/svg" id="#ffffffff">
    <path fill="#ffffff" opacity="1.00" d=" M 461.45 87.64 C 472.92 86.77 484.80 85.63 496.01 88.98 C 509.36 92.06 521.65 98.47 533.01 105.99 C 543.91 113.91 558.26 113.10 571.02 112.95 C 578.80 112.60 586.41 110.25 592.93 105.96 C 610.12 94.67 629.95 85.74 650.99 86.81 C 665.14 85.61 679.17 90.36 690.82 98.17 C 709.33 110.76 721.32 130.21 731.19 149.82 C 746.14 181.00 754.57 215.38 755.01 249.99 C 755.37 273.12 755.77 296.94 748.13 319.11 C 745.27 326.25 740.69 332.88 734.21 337.18 C 727.87 341.73 719.56 342.40 712.04 341.91 C 705.84 340.11 700.25 336.67 695.00 333.00 C 674.52 318.41 658.12 299.14 641.31 280.67 C 633.36 272.20 620.66 272.93 610.01 272.89 C 574.99 273.24 539.98 272.69 504.97 273.12 C 496.52 272.62 488.24 276.33 482.74 282.72 C 463.28 303.53 444.95 326.93 419.03 340.02 C 402.67 347.52 383.64 335.86 378.09 319.91 C 369.15 292.36 370.73 262.85 371.37 234.31 C 375.25 195.68 387.47 157.45 409.02 124.98 C 421.41 107.13 439.27 91.02 461.45 87.64 M 635.37 130.41 C 625.32 130.94 616.42 140.84 617.89 151.01 C 616.80 162.63 628.59 171.83 639.59 170.43 C 650.81 169.66 660.07 157.77 657.32 146.68 C 655.88 136.58 645.53 128.86 635.37 130.41 M 465.01 146.69 C 465.00 155.79 464.98 164.88 464.99 173.98 C 455.95 173.98 446.92 174.03 437.90 174.04 C 436.44 182.01 434.39 191.05 438.65 198.26 C 447.18 200.01 456.30 198.73 465.03 199.09 C 465.18 207.68 463.81 216.45 465.04 224.95 C 472.40 230.62 481.96 227.50 490.02 225.32 C 489.99 216.55 490.01 207.79 490.01 199.02 C 499.01 199.01 508.01 198.96 517.01 198.95 C 520.51 191.04 520.47 181.97 517.11 174.02 C 508.40 174.02 499.71 173.98 491.02 173.98 C 491.01 164.89 490.97 155.80 490.99 146.72 C 482.44 144.61 473.56 144.94 465.01 146.69 M 685.42 161.47 C 674.60 163.36 666.50 175.37 669.88 186.05 C 671.68 194.90 680.77 202.26 689.96 201.02 C 700.84 201.69 711.01 190.91 709.01 180.03 C 709.94 168.07 696.59 158.55 685.42 161.47 M 631.45 188.57 C 622.71 190.58 616.41 200.10 617.99 208.97 C 617.06 220.93 630.41 230.44 641.58 227.54 C 652.10 225.45 660.50 213.56 657.02 202.98 C 655.27 191.67 642.04 184.93 631.45 188.57 Z"/>
    <path fill="#ffffff" opacity="1.00" d=" M 616.05 344.08 C 625.79 337.99 637.70 335.51 649.03 337.99 C 690.73 348.86 732.35 360.06 774.03 371.00 C 778.16 371.62 782.52 374.47 786.77 372.79 C 811.79 363.04 837.23 353.94 863.60 348.58 C 876.80 345.72 890.37 345.77 903.79 346.59 C 890.91 354.32 876.75 359.63 863.15 365.95 C 862.78 369.91 862.49 373.91 862.12 377.89 C 881.26 369.16 900.29 360.19 919.40 351.41 C 926.08 348.31 933.18 352.91 938.67 356.38 C 948.97 362.96 950.08 378.65 943.00 388.01 C 930.68 405.76 911.25 416.61 892.58 426.50 C 860.54 442.80 826.67 455.11 792.63 466.47 C 736.71 484.34 679.99 499.91 622.38 511.30 C 609.44 513.45 595.41 516.49 582.91 511.08 C 576.83 508.87 571.65 503.04 573.04 496.18 C 575.58 489.71 580.82 484.86 585.98 480.42 C 579.71 468.38 572.75 456.74 566.11 444.91 C 563.23 440.09 560.95 432.86 565.21 428.21 C 573.10 421.06 585.76 419.69 595.01 424.97 C 607.88 431.24 620.15 438.72 633.15 444.70 C 636.64 447.20 640.03 443.41 643.10 442.17 C 657.39 433.37 672.65 426.29 687.07 417.71 C 661.73 401.49 636.60 384.93 611.26 368.72 C 607.48 365.90 602.52 362.60 603.92 356.95 C 604.07 350.44 611.32 347.05 616.05 344.08 Z"/>
    <path fill="#ffffff" opacity="1.00" d=" M 854.97 455.87 C 858.27 454.49 861.88 454.58 865.35 455.19 C 867.74 471.30 869.21 487.53 871.34 503.67 C 871.60 513.02 873.94 523.84 867.97 532.00 C 863.38 540.60 854.29 545.24 845.51 548.40 C 839.15 551.22 835.32 544.13 831.24 540.78 C 816.81 524.52 802.57 508.09 788.07 491.90 C 786.15 489.47 783.32 486.68 784.25 483.30 C 785.56 479.37 790.43 479.06 793.66 477.54 C 814.16 470.52 834.60 463.30 854.97 455.87 Z"/>
</g>
</svg>
