<?xml version="1.0" encoding="UTF-8" ?>
<!DOCTYPE svg PUBLIC "-//W3C//DTD SVG 1.1//EN" "http://www.w3.org/Graphics/SVG/1.1/DTD/svg11.dtd">
<svg width="126pt" height="64pt" viewBox="0 0 126 64" version="1.1" xmlns="http://www.w3.org/2000/svg">
<g id="#ffffffff">
<path fill="#ffffff" opacity="1.00" d=" M 46.19 21.99 C 47.91 20.78 49.79 19.15 52.09 19.82 C 53.88 19.96 54.48 21.83 55.45 23.02 C 52.56 25.11 48.13 25.61 46.19 21.99 Z" />
<path fill="#ffffff" opacity="1.00" d=" M 11.11 26.00 C 12.25 22.71 16.09 22.19 18.77 20.66 C 18.77 22.51 18.76 24.36 18.75 26.22 C 19.49 26.22 20.97 26.24 21.71 26.25 C 21.71 27.69 21.71 29.13 21.72 30.58 C 20.97 30.58 19.46 30.59 18.71 30.60 C 18.78 32.20 18.83 33.81 18.84 35.41 C 19.58 35.40 21.05 35.37 21.79 35.35 C 21.75 36.77 21.71 38.20 21.67 39.62 C 19.00 40.20 15.89 41.35 13.42 39.56 C 10.78 37.64 11.87 33.96 11.52 31.18 C 9.57 30.40 9.81 28.29 9.55 26.57 C 9.94 26.42 10.72 26.14 11.11 26.00 Z" />
<path fill="#ffffff" opacity="1.00" d=" M 29.32 26.45 C 34.79 24.39 44.13 26.74 43.49 33.96 C 41.95 41.69 30.35 42.52 25.58 37.40 C 22.28 33.71 24.71 27.60 29.32 26.45 M 31.34 33.84 C 31.05 36.06 34.18 37.58 35.50 35.67 C 37.32 33.52 35.84 30.71 34.04 29.11 C 32.58 30.32 30.77 31.66 31.34 33.84 Z" />
<path fill="#ffffff" opacity="1.00" d=" M 45.91 26.26 C 48.80 26.24 51.70 26.23 54.60 26.23 C 54.40 31.57 55.00 36.97 54.21 42.27 C 53.22 46.53 48.08 46.16 44.70 46.29 C 44.67 45.32 44.60 43.37 44.56 42.39 C 45.23 42.21 46.56 41.86 47.23 41.69 C 47.40 38.26 47.39 34.83 47.45 31.40 C 47.06 31.04 46.28 30.34 45.89 29.99 C 45.90 28.74 45.90 27.50 45.91 26.26 Z" />
</g>
<g id="#f66202ff">
<path fill="#f66202" opacity="1.00" d=" M 24.50 3.83 C 37.95 -0.33 53.49 7.32 58.61 20.37 C 64.00 32.76 59.00 48.47 47.42 55.43 C 37.70 61.73 24.13 61.11 15.03 53.94 C 6.48 47.51 2.10 36.04 4.39 25.57 C 6.38 15.33 14.44 6.60 24.50 3.83 M 46.19 21.99 C 48.13 25.61 52.56 25.11 55.45 23.02 C 54.48 21.83 53.88 19.96 52.09 19.82 C 49.79 19.15 47.91 20.78 46.19 21.99 M 11.11 26.00 C 10.72 26.14 9.94 26.42 9.55 26.57 C 9.81 28.29 9.57 30.40 11.52 31.18 C 11.87 33.96 10.78 37.64 13.42 39.56 C 15.89 41.35 19.00 40.20 21.67 39.62 C 21.71 38.20 21.75 36.77 21.79 35.35 C 21.05 35.37 19.58 35.40 18.84 35.41 C 18.83 33.81 18.78 32.20 18.71 30.60 C 19.46 30.59 20.97 30.58 21.72 30.58 C 21.71 29.13 21.71 27.69 21.71 26.25 C 20.97 26.24 19.49 26.22 18.75 26.22 C 18.76 24.36 18.77 22.51 18.77 20.66 C 16.09 22.19 12.25 22.71 11.11 26.00 M 29.32 26.45 C 24.71 27.60 22.28 33.71 25.58 37.40 C 30.35 42.52 41.95 41.69 43.49 33.96 C 44.13 26.74 34.79 24.39 29.32 26.45 M 45.91 26.26 C 45.90 27.50 45.90 28.74 45.89 29.99 C 46.28 30.34 47.06 31.04 47.45 31.40 C 47.39 34.83 47.40 38.26 47.23 41.69 C 46.56 41.86 45.23 42.21 44.56 42.39 C 44.60 43.37 44.67 45.32 44.70 46.29 C 48.08 46.16 53.22 46.53 54.21 42.27 C 55.00 36.97 54.40 31.57 54.60 26.23 C 51.70 26.23 48.80 26.24 45.91 26.26 Z" />
<path fill="#f66202" opacity="1.00" d=" M 31.34 33.84 C 30.77 31.66 32.58 30.32 34.04 29.11 C 35.84 30.71 37.32 33.52 35.50 35.67 C 34.18 37.58 31.05 36.06 31.34 33.84 Z" />
</g>
<g id="#b2b3b3ff">
<path fill="#b2b3b3" opacity="1.00" d=" M 62.04 22.86 C 65.10 22.86 68.17 22.82 71.23 22.74 C 73.83 26.22 76.26 29.83 78.83 33.33 C 78.91 31.48 78.97 29.62 79.02 27.76 C 78.59 27.45 77.74 26.83 77.32 26.52 C 77.30 25.32 77.27 24.11 77.25 22.91 C 79.96 22.92 82.66 22.80 85.37 22.84 C 85.15 24.70 85.04 26.72 83.40 27.95 C 83.31 32.88 83.45 37.81 83.20 42.73 C 81.17 42.69 79.14 42.66 77.12 42.63 C 74.14 38.56 71.43 34.29 68.32 30.30 C 68.24 32.56 68.20 34.82 68.23 37.08 C 70.03 38.29 70.19 40.40 70.50 42.34 C 67.52 42.36 64.55 42.33 61.57 42.24 C 60.97 43.33 60.37 44.42 59.77 45.51 C 60.89 42.58 61.40 39.23 63.71 36.93 C 63.73 33.87 63.69 30.82 63.75 27.76 C 63.37 27.49 62.62 26.96 62.25 26.69 C 62.18 25.42 62.11 24.14 62.04 22.86 Z" />
<path fill="#b2b3b3" opacity="1.00" d=" M 109.75 26.33 C 111.78 25.35 113.82 24.39 115.86 23.42 C 115.85 25.16 115.86 26.90 115.86 28.65 C 116.60 28.69 118.08 28.78 118.83 28.82 C 118.83 30.12 118.84 31.41 118.85 32.71 C 118.08 32.75 116.56 32.83 115.79 32.87 C 115.87 34.47 115.94 36.08 116.00 37.68 C 116.74 37.83 118.22 38.14 118.96 38.30 C 118.88 39.54 118.79 40.79 118.71 42.03 C 116.01 42.38 112.72 43.62 110.46 41.48 C 108.09 38.81 110.29 34.40 107.39 31.94 C 107.37 31.19 107.36 30.44 107.36 29.69 C 108.15 28.57 108.95 27.45 109.75 26.33 Z" />
<path fill="#b2b3b3" opacity="1.00" d=" M 88.83 31.83 C 91.57 27.93 97.42 27.65 101.42 29.59 C 103.95 30.79 104.62 33.70 105.56 36.07 C 101.60 36.13 97.63 36.11 93.68 36.31 C 94.62 37.58 94.84 40.11 96.95 39.78 C 97.98 39.40 98.99 38.97 99.99 38.51 C 101.67 38.70 103.34 38.91 105.02 39.14 C 101.63 43.36 95.30 43.75 90.78 41.29 C 87.55 39.45 86.65 34.81 88.83 31.83 M 93.77 34.71 C 95.65 34.72 97.52 34.72 99.40 34.70 C 98.65 32.97 97.52 31.49 96.03 30.35 C 95.29 31.81 94.54 33.26 93.77 34.71 Z" />
</g>
<g id="#ebded6ff">
<path fill="#ebded6" opacity="1.00" d=" M 47.56 57.49 C 52.67 54.80 55.85 49.84 59.87 45.89 C 55.08 57.40 41.39 64.85 29.16 62.19 C 35.43 61.34 42.08 61.05 47.56 57.49 Z" />
</g>
</svg>
