<?xml version="1.0" encoding="UTF-8" ?>
<!DOCTYPE svg PUBLIC "-//W3C//DTD SVG 1.1//EN" "http://www.w3.org/Graphics/SVG/1.1/DTD/svg11.dtd">
<svg width="250pt" height="170pt" viewBox="0 0 250 170" version="1.1" xmlns="http://www.w3.org/2000/svg">
<g id="#1f6cb5ff">
<path fill="#1f6cb5" opacity="1.00" d=" M 16.99 57.10 C 23.34 54.79 30.87 54.77 36.83 58.16 C 40.76 60.49 42.11 65.15 42.69 69.40 C 40.22 69.26 37.58 69.80 35.23 68.86 C 33.16 67.00 31.89 63.97 28.87 63.44 C 25.67 62.83 21.65 62.56 19.20 65.13 C 17.27 67.35 18.09 70.99 20.77 72.19 C 27.08 75.42 34.74 75.26 40.75 79.22 C 46.82 84.31 45.00 95.52 38.06 99.03 C 33.77 101.29 28.73 101.54 23.98 101.25 C 19.56 100.91 14.80 99.66 11.87 96.09 C 9.58 93.53 9.16 90.00 8.45 86.78 C 11.42 86.77 14.38 86.77 17.34 86.78 C 18.03 89.06 18.75 91.73 21.17 92.74 C 24.74 94.26 29.06 94.23 32.65 92.77 C 35.82 91.52 36.35 86.36 33.16 84.82 C 26.77 81.94 19.14 81.97 13.46 77.54 C 6.50 72.36 9.07 59.95 16.99 57.10 Z" />
</g>
<g id="#305a84ff">
<path fill="#305a84" opacity="1.00" d=" M 215.18 56.32 C 217.96 56.51 221.82 55.55 223.36 58.64 C 224.18 61.06 223.73 63.69 223.83 66.20 C 225.65 66.21 227.48 66.23 229.31 66.25 C 228.93 68.03 229.15 70.33 227.46 71.50 C 226.31 72.09 225.04 72.34 223.81 72.68 C 223.94 79.16 223.57 85.66 223.96 92.13 C 224.52 94.41 227.43 93.36 229.12 93.84 C 229.11 96.01 229.11 98.18 229.12 100.35 C 225.49 100.39 221.75 100.84 218.20 99.82 C 215.79 99.04 215.10 96.30 215.21 94.05 C 215.17 81.47 215.25 68.90 215.18 56.32 Z" />
<path fill="#305a84" opacity="1.00" d=" M 232.70 56.32 C 235.07 56.43 237.57 56.07 239.85 56.89 C 241.88 58.34 241.44 61.01 241.66 63.16 C 238.68 63.16 235.69 63.16 232.71 63.16 C 232.71 60.88 232.70 58.60 232.70 56.32 Z" />
<path fill="#305a84" opacity="1.00" d=" M 232.70 66.17 C 234.96 66.27 237.30 65.97 239.50 66.60 C 241.49 67.61 241.59 70.07 241.57 72.02 C 241.53 83.00 241.55 93.99 241.56 104.98 C 241.57 107.73 240.99 110.88 238.59 112.57 C 235.74 114.48 232.18 114.52 228.88 114.73 C 228.88 112.16 228.88 109.60 228.89 107.04 C 230.01 106.86 231.12 106.62 232.21 106.33 C 232.91 105.03 232.63 103.46 232.74 102.04 C 232.67 90.09 232.73 78.13 232.70 66.17 Z" />
<path fill="#305a84" opacity="1.00" d=" M 204.63 94.74 C 206.62 93.19 209.34 93.99 211.67 93.78 C 211.67 96.08 211.67 98.38 211.68 100.68 C 209.20 100.67 206.71 100.67 204.23 100.68 C 204.30 98.70 204.13 96.67 204.63 94.74 Z" />
</g>
<g id="#60b146ff">
<path fill="#60b146" opacity="1.00" d=" M 57.35 66.49 C 62.20 65.14 67.74 65.25 72.23 67.73 C 76.85 70.36 78.66 75.88 79.00 80.90 C 79.34 86.45 78.86 92.68 75.05 97.06 C 70.09 102.33 61.48 102.56 55.20 99.75 C 48.46 96.32 47.27 87.81 47.78 81.02 C 47.96 74.95 51.03 68.19 57.35 66.49 M 61.41 73.52 C 58.17 74.38 56.87 77.98 56.63 80.99 C 56.35 84.52 56.38 88.46 58.49 91.48 C 60.90 94.83 66.80 94.36 68.58 90.60 C 70.41 86.62 70.26 81.89 69.27 77.70 C 68.45 74.31 64.65 72.51 61.41 73.52 Z" />
</g>
<g id="#ffc30dff">
<path fill="#ffc30d" opacity="1.00" d=" M 89.79 67.06 C 95.59 64.78 102.49 65.16 107.86 68.41 C 113.22 65.28 120.05 64.92 125.79 67.19 C 130.20 68.94 132.53 73.72 132.68 78.26 C 132.89 85.78 132.68 93.30 132.78 100.82 C 129.87 100.61 125.10 101.74 124.16 97.91 C 123.41 91.04 124.36 84.08 123.72 77.19 C 122.90 73.13 117.41 72.58 114.32 74.26 C 112.22 75.36 112.12 77.93 112.14 80.00 C 112.15 86.89 112.15 93.79 112.16 100.69 C 109.22 100.68 106.29 100.68 103.36 100.68 C 103.33 93.12 103.52 85.55 103.29 77.99 C 103.18 71.65 91.63 71.58 91.59 77.98 C 91.40 85.54 91.57 93.12 91.54 100.68 C 88.59 100.68 85.64 100.68 82.69 100.68 C 82.77 93.45 82.61 86.21 82.75 78.98 C 82.81 74.16 85.10 68.97 89.79 67.06 Z" />
</g>
<g id="#d74d4dff">
<path fill="#d74d4d" opacity="1.00" d=" M 146.29 66.52 C 151.17 65.14 156.76 65.23 161.27 67.73 C 165.92 70.39 167.72 75.95 168.05 81.00 C 168.38 86.52 167.88 92.72 164.08 97.08 C 159.12 102.30 150.55 102.57 144.28 99.76 C 137.53 96.36 136.30 87.82 136.82 81.04 C 137.02 75.00 140.01 68.26 146.29 66.52 M 150.36 73.55 C 147.56 74.31 146.19 77.29 145.81 79.93 C 145.33 83.59 145.32 87.59 147.13 90.90 C 149.24 94.80 155.76 94.62 157.63 90.59 C 159.52 86.38 159.57 81.35 158.03 77.01 C 157.00 73.91 153.32 72.62 150.36 73.55 Z" />
</g>
<g id="#a0cf0aff">
<path fill="#a0cf0a" opacity="1.00" d=" M 175.30 69.27 C 178.37 66.29 182.88 65.56 187.00 65.65 C 190.77 65.76 194.84 66.66 197.51 69.52 C 200.13 72.31 200.88 76.28 200.86 79.99 C 200.90 86.90 200.82 93.81 200.89 100.72 C 198.02 100.51 193.33 101.57 192.37 97.84 C 191.83 91.20 192.54 84.51 192.07 77.86 C 191.79 71.54 180.21 71.69 180.37 78.14 C 180.20 85.65 180.36 93.17 180.32 100.68 C 177.37 100.68 174.43 100.68 171.48 100.68 C 171.55 93.78 171.46 86.89 171.51 79.99 C 171.54 76.16 172.42 72.02 175.30 69.27 Z" />
</g>
</svg>
