<?xml version="1.0" encoding="UTF-8" ?>
<!DOCTYPE svg PUBLIC "-//W3C//DTD SVG 1.1//EN" "http://www.w3.org/Graphics/SVG/1.1/DTD/svg11.dtd">
<svg width="1240pt" height="802pt" viewBox="0 0 1240 802" version="1.1" xmlns="http://www.w3.org/2000/svg">
<g id="#ffffffff">
    <path fill="#ffffff" opacity="1.00" d=" M 327.62 35.52 C 330.81 30.13 336.26 24.66 343.01 25.19 C 369.65 24.84 396.34 24.67 422.98 25.28 C 432.09 25.28 440.42 31.95 443.32 40.45 C 448.89 54.54 451.43 69.59 456.14 83.96 C 458.08 89.73 459.59 95.64 461.15 101.53 C 469.85 97.45 479.23 94.45 488.97 94.97 C 602.32 95.13 715.68 94.79 829.02 95.14 C 851.32 94.91 872.55 111.16 878.08 132.75 C 879.63 144.80 880.23 157.44 876.36 169.15 C 864.00 217.19 852.29 265.40 840.40 313.56 C 834.73 330.63 834.44 350.21 822.72 364.75 C 814.93 375.18 802.93 381.70 790.32 384.21 C 778.59 385.51 766.76 384.99 755.00 385.05 C 674.99 384.87 594.99 385.16 514.99 384.89 C 506.31 384.94 496.04 384.55 489.78 391.75 C 483.32 399.33 483.52 411.97 491.33 418.63 C 498.19 425.67 509.03 424.87 517.99 425.07 C 591.33 424.90 664.67 425.10 738.01 424.93 C 759.59 424.26 781.01 436.87 791.04 455.97 C 798.25 467.12 799.21 481.12 798.09 494.02 C 794.44 520.70 770.78 542.75 743.96 544.79 C 721.23 547.57 698.12 534.95 686.43 515.62 C 678.01 500.80 675.02 482.28 680.86 466.02 C 658.68 465.96 636.51 466.02 614.34 465.97 C 617.74 479.65 618.48 494.65 612.77 507.82 C 603.66 529.32 581.65 545.22 558.01 545.07 C 538.31 546.42 519.83 535.05 508.00 520.01 C 496.41 504.94 494.85 484.19 499.58 466.29 C 486.02 464.37 472.50 459.11 462.77 449.23 C 439.21 428.31 437.10 387.72 458.59 364.61 C 466.19 354.96 477.22 349.03 488.63 345.11 C 477.23 300.83 463.63 257.15 451.94 212.94 C 437.36 163.46 424.18 113.58 409.55 64.11 C 388.03 63.71 366.51 64.43 345.00 63.86 C 337.14 64.54 330.30 58.56 327.14 51.83 C 326.97 46.47 326.04 40.74 327.62 35.52 M 485.64 136.65 C 478.77 137.41 475.02 145.98 478.12 151.96 C 480.85 161.62 483.91 171.17 486.10 180.98 C 501.98 181.01 517.87 181.03 533.76 181.03 C 530.24 166.07 527.21 151.01 523.69 136.05 C 511.00 136.06 498.27 135.33 485.64 136.65 M 566.75 136.05 C 569.55 151.10 573.78 165.84 576.29 180.95 C 596.85 181.05 617.42 181.02 637.99 180.98 C 638.01 165.99 638.01 151.00 638.00 136.01 C 614.24 136.00 590.49 135.94 566.75 136.05 M 680.01 136.00 C 679.99 151.00 679.98 165.99 680.00 180.99 C 701.24 181.01 722.48 181.06 743.72 180.93 C 746.36 165.86 750.49 151.10 753.16 136.03 C 728.77 135.94 704.39 136.01 680.01 136.00 M 796.23 136.07 C 792.23 150.50 789.94 165.31 786.91 179.95 C 801.25 179.97 815.61 179.86 829.96 180.58 C 832.39 169.98 836.21 159.67 837.54 148.84 C 838.90 143.59 835.67 138.05 830.62 136.47 C 819.18 135.44 807.68 136.01 796.23 136.07 M 497.83 222.02 C 501.52 235.69 506.23 249.08 509.16 262.96 C 523.47 263.02 537.78 263.05 552.09 262.95 C 548.06 249.55 545.68 235.74 542.84 222.06 C 527.83 221.96 512.83 221.97 497.83 222.02 M 585.11 221.99 C 589.31 235.37 591.33 249.28 594.25 262.96 C 608.83 263.02 623.41 263.03 638.00 262.99 C 638.00 249.33 638.01 235.67 638.00 222.01 C 620.37 222.00 602.74 221.96 585.11 221.99 M 680.00 222.02 C 679.99 235.67 679.98 249.33 680.00 262.99 C 695.58 263.02 711.16 263.03 726.75 262.94 C 729.43 249.29 731.77 235.55 735.26 222.07 C 716.83 221.94 698.42 221.98 680.00 222.02 M 777.52 222.34 C 774.87 235.92 772.63 249.61 768.97 262.97 C 782.34 263.01 795.72 263.01 809.11 263.03 C 813.90 249.69 815.86 235.55 820.06 222.03 C 805.87 221.92 791.69 221.90 777.52 222.34 M 520.92 304.42 C 524.08 315.18 527.34 325.91 530.48 336.67 C 531.50 340.03 534.61 342.46 538.10 342.76 C 548.44 343.43 558.82 343.01 569.18 342.96 C 566.59 330.12 563.26 317.44 560.78 304.59 C 547.50 305.27 534.19 305.08 520.92 304.42 M 603.85 305.04 C 606.34 317.74 608.92 330.42 612.17 342.95 C 620.77 342.96 629.38 342.97 638.00 343.03 C 638.00 330.35 638.00 317.67 638.01 305.00 C 626.62 305.00 615.23 305.00 603.85 305.04 M 680.00 304.99 C 680.00 317.67 680.00 330.35 680.00 343.04 C 689.89 342.97 699.80 342.95 709.72 342.95 C 712.29 330.32 715.08 317.74 717.21 305.03 C 704.80 304.99 692.40 304.99 680.00 304.99 M 760.34 305.05 C 758.15 317.82 754.93 330.38 752.12 343.02 C 762.68 343.04 773.27 343.47 783.82 342.63 C 786.56 342.07 789.78 340.65 790.61 337.71 C 794.25 327.03 796.83 316.03 799.30 305.03 C 786.31 304.97 773.32 304.98 760.34 305.05 M 553.43 466.47 C 545.41 468.03 539.08 475.40 538.52 483.54 C 537.56 493.90 547.32 504.45 557.97 502.98 C 568.46 503.55 576.80 492.33 575.47 482.40 C 574.63 472.17 563.46 463.96 553.43 466.47 M 734.41 466.44 C 724.88 468.33 718.62 478.20 720.47 487.57 C 721.24 496.15 729.21 503.74 738.04 503.01 C 747.66 504.07 755.78 495.63 756.52 486.43 C 758.06 474.75 746.08 463.06 734.41 466.44 Z"/>
</g>
</svg>
