<?xml version="1.0" encoding="UTF-8" ?>
<!DOCTYPE svg PUBLIC "-//W3C//DTD SVG 1.1//EN" "http://www.w3.org/Graphics/SVG/1.1/DTD/svg11.dtd">
<svg width="1240pt" height="802pt" viewBox="0 0 1240 802" version="1.1" xmlns="http://www.w3.org/2000/svg">
<g id="#ffffffff">
    <path xmlns="http://www.w3.org/2000/svg" fill="#ffffff" opacity="1.00" d=" M 594.44 43.62 C 609.27 42.57 624.16 42.81 639.02 43.05 C 650.96 43.14 662.57 46.24 674.16 48.76 C 733.53 62.91 786.21 102.35 817.09 154.94 C 833.43 182.51 843.86 213.58 847.38 245.44 C 848.44 261.92 848.29 278.47 847.75 294.97 C 841.09 357.45 807.55 416.60 757.03 454.05 C 723.49 479.33 682.84 495.18 640.97 498.69 C 619.44 499.03 597.48 500.80 576.35 495.56 C 517.19 484.29 463.17 448.26 429.99 398.01 C 412.65 373.12 401.38 344.26 395.42 314.62 C 390.55 292.44 391.87 269.55 392.25 247.03 C 399.45 179.31 438.29 115.42 496.01 79.01 C 525.28 59.37 559.55 47.80 594.44 43.62 M 485.44 231.59 C 465.75 235.65 452.18 256.86 455.48 276.57 C 457.55 295.94 475.99 313.33 496.01 311.10 C 519.08 312.97 539.49 289.61 535.86 267.02 C 535.21 250.47 522.13 235.82 506.38 231.61 C 499.45 230.54 492.36 230.72 485.44 231.59 M 610.43 231.50 C 592.96 235.30 578.18 252.64 579.92 271.00 C 578.30 284.16 586.28 296.09 596.09 303.94 C 607.40 312.60 623.35 313.24 636.34 308.36 C 650.42 301.91 661.43 286.95 660.08 271.00 C 661.67 253.49 648.38 236.92 632.00 231.99 C 624.94 230.40 617.55 230.82 610.43 231.50 M 734.43 231.56 C 715.43 235.63 701.12 255.57 704.14 274.98 C 704.96 295.26 724.49 313.29 745.01 311.10 C 762.33 312.51 778.76 299.49 783.01 282.98 C 788.42 265.83 781.42 244.52 765.02 235.97 C 756.32 229.35 744.61 230.66 734.43 231.56 Z"/>
</g>
</svg>
