<?xml version="1.0" encoding="UTF-8" ?>
<!DOCTYPE svg PUBLIC "-//W3C//DTD SVG 1.1//EN" "http://www.w3.org/Graphics/SVG/1.1/DTD/svg11.dtd">
<svg width="560pt" height="170pt" viewBox="0 0 560 170" version="1.1" xmlns="http://www.w3.org/2000/svg">
<g id="#f2812eff">
<path fill="#f2812e" opacity="1.00" d=" M 31.10 20.58 C 33.07 20.38 34.94 19.68 36.90 19.46 C 198.84 19.37 360.79 19.49 522.74 19.40 L 522.38 20.54 C 523.28 20.48 525.07 20.36 525.97 20.30 L 525.43 21.86 C 526.01 21.62 527.18 21.16 527.76 20.92 L 527.39 22.19 C 530.95 22.78 534.08 26.08 534.82 29.57 L 536.06 29.28 C 535.84 29.84 535.40 30.96 535.17 31.53 L 536.62 31.17 C 536.63 31.86 536.65 33.25 536.66 33.94 C 537.29 35.18 537.65 36.55 537.59 37.95 C 537.55 69.00 537.58 100.04 537.57 131.08 C 537.52 132.09 537.29 133.05 536.86 133.97 C 536.46 135.75 536.00 137.52 535.44 139.26 C 535.28 139.28 534.94 139.33 534.77 139.36 C 533.98 140.82 533.10 142.23 532.18 143.60 L 531.17 143.37 L 531.49 144.93 C 531.11 144.78 530.36 144.48 529.99 144.32 C 529.77 146.33 527.94 146.59 526.36 146.81 L 526.76 147.59 C 524.48 147.76 522.35 148.80 520.04 148.68 C 447.69 148.71 375.35 148.68 303.00 148.69 C 213.08 148.62 123.16 148.84 33.25 148.58 L 33.63 147.72 C 32.19 147.83 31.02 147.39 30.12 146.39 L 29.50 146.65 C 26.40 144.92 24.00 142.31 22.26 139.25 L 22.77 138.36 C 22.42 138.34 21.71 138.30 21.36 138.28 C 21.40 137.56 21.48 136.14 21.52 135.43 L 20.44 135.56 C 20.14 103.05 20.39 70.53 20.30 38.01 C 20.06 35.33 21.12 32.84 21.39 30.23 L 22.14 30.64 C 22.45 28.58 23.75 26.95 24.89 25.29 L 26.02 25.78 L 25.05 24.22 L 26.71 24.75 L 26.53 23.13 C 26.91 23.26 27.66 23.52 28.03 23.65 C 28.20 21.44 30.43 21.51 32.02 21.26 L 31.10 20.58 M 79.40 39.45 C 68.00 42.30 60.14 54.54 62.33 66.09 C 63.89 76.18 72.67 84.61 82.86 85.59 C 90.30 86.51 98.07 83.63 103.05 78.01 C 108.86 71.78 110.70 62.27 107.77 54.29 C 104.05 42.89 90.87 36.16 79.40 39.45 M 142.41 69.62 C 137.04 71.03 134.27 76.72 134.32 81.93 C 134.16 87.11 134.20 93.81 139.32 96.75 C 143.93 99.20 150.27 98.88 154.30 95.41 C 157.26 92.86 157.72 88.74 157.96 85.09 C 158.11 81.10 157.94 76.79 155.68 73.35 C 152.75 69.29 147.00 68.18 142.41 69.62 M 167.36 69.31 C 166.97 75.89 167.22 82.56 166.01 89.06 C 165.60 91.99 163.07 93.80 160.30 94.26 C 160.29 98.07 160.30 101.89 160.30 105.70 C 161.86 105.70 163.42 105.70 164.99 105.70 C 164.99 103.14 165.00 100.57 165.00 98.00 C 171.93 98.00 178.86 98.00 185.78 98.00 C 185.78 100.56 185.79 103.12 185.78 105.69 C 187.42 105.70 189.06 105.70 190.70 105.71 C 190.70 101.66 190.70 97.61 190.70 93.56 C 189.95 93.55 188.46 93.54 187.71 93.53 C 187.69 85.45 187.70 77.38 187.70 69.30 C 180.92 69.31 174.14 69.29 167.36 69.31 M 213.30 69.30 C 213.30 73.37 213.30 77.45 213.31 81.53 C 208.94 81.56 204.58 81.56 200.22 81.55 C 200.22 77.47 200.21 73.39 200.22 69.31 C 198.66 69.30 197.10 69.30 195.55 69.30 C 195.56 78.86 195.55 88.43 195.55 98.00 C 197.10 98.00 198.66 98.00 200.21 98.00 C 200.21 93.82 200.22 89.64 200.21 85.46 C 204.57 85.44 208.93 85.44 213.29 85.46 C 213.30 89.63 213.31 93.81 213.29 97.99 C 214.93 98.00 216.57 98.00 218.21 98.00 C 218.21 88.43 218.22 78.87 218.21 69.30 C 216.57 69.30 214.93 69.30 213.30 69.30 M 231.48 69.68 C 226.22 71.19 223.43 76.82 223.54 82.00 C 223.41 87.11 223.41 93.62 228.36 96.64 C 233.54 99.49 241.21 98.90 244.87 93.85 C 246.90 91.00 247.03 87.33 247.22 83.97 C 247.22 80.09 247.02 75.73 244.31 72.67 C 241.23 69.08 235.83 68.26 231.48 69.68 M 252.30 69.30 C 252.30 78.86 252.30 88.43 252.29 97.99 C 253.93 98.00 255.57 98.00 257.22 98.00 C 257.20 93.90 257.22 89.80 257.22 85.70 C 260.35 85.93 264.28 84.76 266.72 87.31 C 268.73 90.53 269.21 94.41 270.30 97.99 C 272.00 98.00 273.71 98.00 275.42 97.99 C 273.46 92.96 273.26 86.88 269.15 82.95 C 272.65 79.24 273.26 73.96 274.85 69.32 C 273.21 69.30 271.57 69.30 269.93 69.29 C 268.71 72.90 268.07 76.78 266.12 80.09 C 263.82 82.43 260.15 81.34 257.22 81.56 C 257.22 77.47 257.20 73.39 257.21 69.30 C 255.57 69.30 253.93 69.30 252.30 69.30 M 284.30 69.30 C 284.09 76.07 284.90 82.94 283.54 89.63 C 283.04 92.37 280.31 93.58 278.11 94.74 C 278.56 96.15 279.00 97.57 279.45 98.99 C 282.29 98.00 285.62 97.00 286.98 94.01 C 290.01 87.69 288.73 80.45 289.00 73.70 C 292.43 73.70 295.86 73.70 299.29 73.71 C 299.31 81.80 299.30 89.90 299.29 97.99 C 300.93 98.00 302.57 98.00 304.21 98.00 C 304.21 88.43 304.22 78.86 304.21 69.30 C 297.57 69.30 290.93 69.30 284.30 69.30 M 309.95 72.73 C 311.02 73.83 312.10 74.93 313.18 76.02 C 316.31 73.41 320.81 72.96 324.53 74.46 C 326.98 75.80 326.41 78.98 326.68 81.30 C 322.20 81.54 317.47 80.58 313.18 82.17 C 307.38 84.54 306.83 93.74 312.27 96.81 C 316.69 99.18 322.33 98.66 326.59 96.13 C 326.59 96.60 326.59 97.54 326.58 98.01 C 328.20 98.00 329.82 98.00 331.45 97.99 C 331.40 91.34 331.54 84.68 331.42 78.03 C 331.52 74.80 329.83 71.43 326.72 70.22 C 321.23 67.98 314.41 68.62 309.95 72.73 M 337.47 75.43 C 334.53 82.00 334.85 91.38 341.03 96.03 C 346.30 99.79 353.70 98.63 358.43 94.51 C 357.37 93.28 356.30 92.05 355.25 90.82 C 352.61 92.78 349.36 94.52 346.02 93.21 C 341.74 91.94 340.40 86.95 340.66 82.98 C 340.55 79.03 342.73 74.51 347.01 73.90 C 350.07 72.99 352.85 74.89 355.25 76.51 C 356.27 75.32 357.28 74.13 358.30 72.93 C 352.53 67.09 341.28 67.72 337.47 75.43 M 362.28 75.31 C 359.44 81.58 359.57 90.20 364.75 95.25 C 369.97 99.85 378.11 98.92 383.17 94.54 C 382.11 93.29 381.05 92.04 380.00 90.78 C 377.26 93.02 373.59 94.63 370.13 92.97 C 365.25 90.87 364.80 84.56 365.78 80.03 C 366.34 76.52 369.49 73.76 373.06 73.72 C 375.71 73.41 377.86 75.17 379.92 76.55 C 380.97 75.35 382.02 74.16 383.07 72.96 C 377.36 67.12 366.15 67.70 362.28 75.31 M 387.01 69.30 C 386.99 78.86 387.00 88.43 387.00 98.00 C 388.66 98.00 390.33 98.00 392.00 98.00 C 391.99 93.81 392.00 89.63 392.01 85.44 C 396.27 85.45 400.52 85.45 404.78 85.45 C 404.78 89.63 404.79 93.81 404.78 98.00 C 406.42 98.00 408.06 98.00 409.71 97.99 C 409.69 88.44 409.69 78.89 409.71 69.34 C 408.07 69.29 406.44 69.23 404.81 69.17 C 404.84 73.30 404.71 77.42 404.79 81.55 C 400.53 81.55 396.27 81.55 392.01 81.56 C 392.00 77.47 391.99 73.38 391.99 69.30 C 390.33 69.29 388.67 69.29 387.01 69.30 M 416.29 69.30 C 416.30 78.86 416.30 88.43 416.29 97.99 C 417.87 97.99 419.44 98.00 421.03 98.00 C 425.66 91.26 430.28 84.51 434.99 77.82 C 435.01 84.55 434.99 91.27 435.00 98.00 C 436.66 98.00 438.33 98.00 440.00 98.00 C 440.00 88.42 440.01 78.84 439.99 69.26 C 438.56 69.30 437.14 69.33 435.73 69.38 C 430.97 76.31 426.00 83.09 421.23 90.01 C 421.20 83.10 421.22 76.20 421.21 69.30 C 419.56 69.30 417.93 69.30 416.29 69.30 M 446.01 69.30 C 445.99 78.86 446.00 88.43 446.00 98.00 C 447.66 98.00 449.33 98.00 451.00 98.00 C 450.99 93.90 451.00 89.79 451.00 85.69 C 454.17 85.95 458.24 84.73 460.63 87.44 C 462.54 90.65 463.05 94.47 464.14 98.00 C 465.83 98.00 467.53 98.00 469.23 98.00 C 467.32 92.93 467.02 86.92 463.03 82.90 C 466.55 79.20 467.05 73.90 468.72 69.28 C 467.05 69.29 465.39 69.30 463.73 69.31 C 462.54 72.86 461.95 76.69 459.99 79.93 C 457.81 82.56 453.96 81.28 451.01 81.57 C 451.00 77.48 450.99 73.39 450.99 69.30 C 449.33 69.29 447.66 69.29 446.01 69.30 M 473.54 69.31 C 473.57 78.86 473.54 88.42 473.55 97.98 C 475.10 98.00 476.65 98.02 478.21 98.06 C 482.96 91.35 487.54 84.52 492.30 77.81 C 492.30 84.53 492.30 91.26 492.29 97.99 C 493.93 98.00 495.57 98.00 497.21 98.00 C 497.21 88.44 497.22 78.87 497.21 69.31 C 495.86 69.30 494.51 69.28 493.17 69.27 C 488.25 76.23 483.24 83.13 478.46 90.18 C 478.44 83.22 478.44 76.27 478.46 69.31 C 476.81 69.30 475.17 69.30 473.54 69.31 M 63.72 86.74 C 58.90 88.18 57.63 95.33 61.45 98.48 C 65.68 101.65 70.74 103.47 75.79 104.91 C 71.63 109.07 67.44 113.19 63.30 117.36 C 60.86 119.56 59.99 123.42 61.80 126.28 C 63.88 130.14 69.63 130.83 72.70 127.77 C 77.15 123.65 81.28 119.18 85.63 114.95 C 89.92 119.15 94.04 123.52 98.39 127.66 C 101.04 130.45 105.97 130.38 108.47 127.42 C 110.99 124.80 110.84 120.27 108.25 117.76 C 104.12 113.33 99.64 109.24 95.48 104.83 C 100.64 103.37 105.95 101.59 110.12 98.11 C 113.70 94.62 111.89 87.76 106.99 86.61 C 104.03 85.48 101.32 87.56 98.75 88.75 C 90.42 93.12 79.92 92.96 71.70 88.38 C 69.30 87.06 66.50 85.50 63.72 86.74 Z" />
<path fill="#f2812e" opacity="1.00" d=" M 82.23 53.22 C 87.39 51.10 93.74 54.53 94.89 59.96 C 96.68 65.91 91.06 72.39 84.96 71.79 C 79.97 71.56 75.75 66.92 75.98 61.94 C 76.04 58.10 78.67 54.57 82.23 53.22 Z" />
<path fill="#f2812e" opacity="1.00" d=" M 143.28 74.31 C 146.30 72.66 150.62 73.78 152.00 77.06 C 153.45 80.54 153.18 84.49 152.69 88.15 C 152.28 91.82 148.51 94.42 144.92 93.76 C 141.24 93.39 139.14 89.45 139.20 86.05 C 139.05 81.96 138.98 76.41 143.28 74.31 Z" />
<path fill="#f2812e" opacity="1.00" d=" M 169.52 93.60 C 171.86 87.23 171.17 80.34 171.77 73.70 C 175.36 73.70 178.95 73.70 182.54 73.70 C 182.57 80.31 182.55 86.93 182.55 93.55 C 178.20 93.55 173.86 93.53 169.52 93.60 Z" />
<path fill="#f2812e" opacity="1.00" d=" M 232.40 74.38 C 235.54 72.52 240.16 73.90 241.39 77.43 C 242.78 81.33 242.62 85.72 241.46 89.66 C 240.00 94.16 233.18 95.33 230.28 91.62 C 228.10 88.91 228.30 85.21 228.46 81.94 C 228.61 79.05 229.56 75.72 232.40 74.38 Z" />
<path fill="#f2812e" opacity="1.00" d=" M 315.80 85.87 C 319.33 85.00 323.04 85.56 326.65 85.47 C 326.44 87.69 326.97 90.41 325.01 92.01 C 322.30 94.13 318.20 94.42 315.14 92.95 C 312.26 91.48 312.60 86.73 315.80 85.87 Z" />
</g>
<g id="#ffffffff">
<path fill="#ffffff" opacity="1.00" d=" M 79.40 39.45 C 90.87 36.16 104.05 42.89 107.77 54.29 C 110.70 62.27 108.86 71.78 103.05 78.01 C 98.07 83.63 90.30 86.51 82.86 85.59 C 72.67 84.61 63.89 76.18 62.33 66.09 C 60.14 54.54 68.00 42.30 79.40 39.45 M 82.23 53.22 C 78.67 54.57 76.04 58.10 75.98 61.94 C 75.75 66.92 79.97 71.56 84.96 71.79 C 91.06 72.39 96.68 65.91 94.89 59.96 C 93.74 54.53 87.39 51.10 82.23 53.22 Z" />
<path fill="#ffffff" opacity="1.00" d=" M 142.41 69.62 C 147.00 68.18 152.75 69.29 155.68 73.35 C 157.94 76.79 158.11 81.10 157.96 85.09 C 157.72 88.74 157.26 92.86 154.30 95.41 C 150.27 98.88 143.93 99.20 139.32 96.75 C 134.20 93.81 134.16 87.11 134.32 81.93 C 134.27 76.72 137.04 71.03 142.41 69.62 M 143.28 74.31 C 138.98 76.41 139.05 81.96 139.20 86.05 C 139.14 89.45 141.24 93.39 144.92 93.76 C 148.51 94.42 152.28 91.82 152.69 88.15 C 153.18 84.49 153.45 80.54 152.00 77.06 C 150.62 73.78 146.30 72.66 143.28 74.31 Z" />
<path fill="#ffffff" opacity="1.00" d=" M 167.36 69.31 C 174.14 69.29 180.92 69.31 187.70 69.30 C 187.70 77.38 187.69 85.45 187.71 93.53 C 188.46 93.54 189.95 93.55 190.70 93.56 C 190.70 97.61 190.70 101.66 190.70 105.71 C 189.06 105.70 187.42 105.70 185.78 105.69 C 185.79 103.12 185.78 100.56 185.78 98.00 C 178.86 98.00 171.93 98.00 165.00 98.00 C 165.00 100.57 164.99 103.14 164.99 105.70 C 163.42 105.70 161.86 105.70 160.30 105.70 C 160.30 101.89 160.29 98.07 160.30 94.26 C 163.07 93.80 165.60 91.99 166.01 89.06 C 167.22 82.56 166.97 75.89 167.36 69.31 M 169.52 93.60 C 173.86 93.53 178.20 93.55 182.55 93.55 C 182.55 86.93 182.57 80.31 182.54 73.70 C 178.95 73.70 175.36 73.70 171.77 73.70 C 171.17 80.34 171.86 87.23 169.52 93.60 Z" />
<path fill="#ffffff" opacity="1.00" d=" M 213.30 69.30 C 214.93 69.30 216.57 69.30 218.21 69.30 C 218.22 78.87 218.21 88.43 218.21 98.00 C 216.57 98.00 214.93 98.00 213.29 97.99 C 213.31 93.81 213.30 89.63 213.29 85.46 C 208.93 85.44 204.57 85.44 200.21 85.46 C 200.22 89.64 200.21 93.82 200.21 98.00 C 198.66 98.00 197.10 98.00 195.55 98.00 C 195.55 88.43 195.56 78.86 195.55 69.30 C 197.10 69.30 198.66 69.30 200.22 69.31 C 200.21 73.39 200.22 77.47 200.22 81.55 C 204.58 81.56 208.94 81.56 213.31 81.53 C 213.30 77.45 213.30 73.37 213.30 69.30 Z" />
<path fill="#ffffff" opacity="1.00" d=" M 231.48 69.68 C 235.83 68.26 241.23 69.08 244.31 72.67 C 247.02 75.73 247.22 80.09 247.22 83.97 C 247.03 87.33 246.90 91.00 244.87 93.85 C 241.21 98.90 233.54 99.49 228.36 96.64 C 223.41 93.62 223.41 87.11 223.54 82.00 C 223.43 76.82 226.22 71.19 231.48 69.68 M 232.40 74.38 C 229.56 75.72 228.61 79.05 228.46 81.94 C 228.30 85.21 228.10 88.91 230.28 91.62 C 233.18 95.33 240.00 94.16 241.46 89.66 C 242.62 85.72 242.78 81.33 241.39 77.43 C 240.16 73.90 235.54 72.52 232.40 74.38 Z" />
<path fill="#ffffff" opacity="1.00" d=" M 252.30 69.30 C 253.93 69.30 255.57 69.30 257.21 69.30 C 257.20 73.39 257.22 77.47 257.22 81.56 C 260.15 81.34 263.82 82.43 266.12 80.09 C 268.07 76.78 268.71 72.90 269.93 69.29 C 271.57 69.30 273.21 69.30 274.85 69.32 C 273.26 73.96 272.65 79.24 269.15 82.95 C 273.26 86.88 273.46 92.96 275.42 97.99 C 273.71 98.00 272.00 98.00 270.30 97.99 C 269.21 94.41 268.73 90.53 266.72 87.31 C 264.28 84.76 260.35 85.93 257.22 85.70 C 257.22 89.80 257.20 93.90 257.22 98.00 C 255.57 98.00 253.93 98.00 252.29 97.99 C 252.30 88.43 252.30 78.86 252.30 69.30 Z" />
<path fill="#ffffff" opacity="1.00" d=" M 284.30 69.30 C 290.93 69.30 297.57 69.30 304.21 69.30 C 304.22 78.86 304.21 88.43 304.21 98.00 C 302.57 98.00 300.93 98.00 299.29 97.99 C 299.30 89.90 299.31 81.80 299.29 73.71 C 295.86 73.70 292.43 73.70 289.00 73.70 C 288.73 80.45 290.01 87.69 286.98 94.01 C 285.62 97.00 282.29 98.00 279.45 98.99 C 279.00 97.57 278.56 96.15 278.11 94.74 C 280.31 93.58 283.04 92.37 283.54 89.63 C 284.90 82.94 284.09 76.07 284.30 69.30 Z" />
<path fill="#ffffff" opacity="1.00" d=" M 309.95 72.73 C 314.41 68.62 321.23 67.98 326.72 70.22 C 329.83 71.43 331.52 74.80 331.42 78.03 C 331.54 84.68 331.40 91.34 331.45 97.99 C 329.82 98.00 328.20 98.00 326.58 98.01 C 326.59 97.54 326.59 96.60 326.59 96.13 C 322.33 98.66 316.69 99.18 312.27 96.81 C 306.83 93.74 307.38 84.54 313.18 82.17 C 317.47 80.58 322.20 81.54 326.68 81.30 C 326.41 78.98 326.98 75.80 324.53 74.46 C 320.81 72.96 316.31 73.41 313.18 76.02 C 312.10 74.93 311.02 73.83 309.95 72.73 M 315.80 85.87 C 312.60 86.73 312.26 91.48 315.14 92.95 C 318.20 94.42 322.30 94.13 325.01 92.01 C 326.97 90.41 326.44 87.69 326.65 85.47 C 323.04 85.56 319.33 85.00 315.80 85.87 Z" />
<path fill="#ffffff" opacity="1.00" d=" M 337.47 75.43 C 341.28 67.72 352.53 67.09 358.30 72.93 C 357.28 74.13 356.27 75.32 355.25 76.51 C 352.85 74.89 350.07 72.99 347.01 73.90 C 342.73 74.51 340.55 79.03 340.66 82.98 C 340.40 86.95 341.74 91.94 346.02 93.21 C 349.36 94.52 352.61 92.78 355.25 90.82 C 356.30 92.05 357.37 93.28 358.43 94.51 C 353.70 98.63 346.30 99.79 341.03 96.03 C 334.85 91.38 334.53 82.00 337.47 75.43 Z" />
<path fill="#ffffff" opacity="1.00" d=" M 362.28 75.31 C 366.15 67.70 377.36 67.12 383.07 72.96 C 382.02 74.16 380.97 75.35 379.92 76.55 C 377.86 75.17 375.71 73.41 373.06 73.72 C 369.49 73.76 366.34 76.52 365.78 80.03 C 364.80 84.56 365.25 90.87 370.13 92.97 C 373.59 94.63 377.26 93.02 380.00 90.78 C 381.05 92.04 382.11 93.29 383.17 94.54 C 378.11 98.92 369.97 99.85 364.75 95.25 C 359.57 90.20 359.44 81.58 362.28 75.31 Z" />
<path fill="#ffffff" opacity="1.00" d=" M 387.01 69.30 C 388.67 69.29 390.33 69.29 391.99 69.30 C 391.99 73.38 392.00 77.47 392.01 81.56 C 396.27 81.55 400.53 81.55 404.79 81.55 C 404.71 77.42 404.84 73.30 404.81 69.17 C 406.44 69.23 408.07 69.29 409.71 69.34 C 409.69 78.89 409.69 88.44 409.71 97.99 C 408.06 98.00 406.42 98.00 404.78 98.00 C 404.79 93.81 404.78 89.63 404.78 85.45 C 400.52 85.45 396.27 85.45 392.01 85.44 C 392.00 89.63 391.99 93.81 392.00 98.00 C 390.33 98.00 388.66 98.00 387.00 98.00 C 387.00 88.43 386.99 78.86 387.01 69.30 Z" />
<path fill="#ffffff" opacity="1.00" d=" M 416.29 69.30 C 417.93 69.30 419.56 69.30 421.21 69.30 C 421.22 76.20 421.20 83.10 421.23 90.01 C 426.00 83.09 430.97 76.31 435.73 69.38 C 437.14 69.33 438.56 69.30 439.99 69.26 C 440.01 78.84 440.00 88.42 440.00 98.00 C 438.33 98.00 436.66 98.00 435.00 98.00 C 434.99 91.27 435.01 84.55 434.99 77.82 C 430.28 84.51 425.66 91.26 421.03 98.00 C 419.44 98.00 417.87 97.99 416.29 97.99 C 416.30 88.43 416.30 78.86 416.29 69.30 Z" />
<path fill="#ffffff" opacity="1.00" d=" M 446.01 69.30 C 447.66 69.29 449.33 69.29 450.99 69.30 C 450.99 73.39 451.00 77.48 451.01 81.57 C 453.96 81.28 457.81 82.56 459.99 79.93 C 461.95 76.69 462.54 72.86 463.73 69.31 C 465.39 69.30 467.05 69.29 468.72 69.28 C 467.05 73.90 466.55 79.20 463.03 82.90 C 467.02 86.92 467.32 92.93 469.23 98.00 C 467.53 98.00 465.83 98.00 464.14 98.00 C 463.05 94.47 462.54 90.65 460.63 87.44 C 458.24 84.73 454.17 85.95 451.00 85.69 C 451.00 89.79 450.99 93.90 451.00 98.00 C 449.33 98.00 447.66 98.00 446.00 98.00 C 446.00 88.43 445.99 78.86 446.01 69.30 Z" />
<path fill="#ffffff" opacity="1.00" d=" M 473.54 69.31 C 475.17 69.30 476.81 69.30 478.46 69.31 C 478.44 76.27 478.44 83.22 478.46 90.18 C 483.24 83.13 488.25 76.23 493.17 69.27 C 494.51 69.28 495.86 69.30 497.21 69.31 C 497.22 78.87 497.21 88.44 497.21 98.00 C 495.57 98.00 493.93 98.00 492.29 97.99 C 492.30 91.26 492.30 84.53 492.30 77.81 C 487.54 84.52 482.96 91.35 478.21 98.06 C 476.65 98.02 475.10 98.00 473.55 97.98 C 473.54 88.42 473.57 78.86 473.54 69.31 Z" />
<path fill="#ffffff" opacity="1.00" d=" M 63.72 86.74 C 66.50 85.50 69.30 87.06 71.70 88.38 C 79.92 92.96 90.42 93.12 98.75 88.75 C 101.32 87.56 104.03 85.48 106.99 86.61 C 111.89 87.76 113.70 94.62 110.12 98.11 C 105.95 101.59 100.64 103.37 95.48 104.83 C 99.64 109.24 104.12 113.33 108.25 117.76 C 110.84 120.27 110.99 124.80 108.47 127.42 C 105.97 130.38 101.04 130.45 98.39 127.66 C 94.04 123.52 89.92 119.15 85.63 114.95 C 81.28 119.18 77.15 123.65 72.70 127.77 C 69.63 130.83 63.88 130.14 61.80 126.28 C 59.99 123.42 60.86 119.56 63.30 117.36 C 67.44 113.19 71.63 109.07 75.79 104.91 C 70.74 103.47 65.68 101.65 61.45 98.48 C 57.63 95.33 58.90 88.18 63.72 86.74 Z" />
</g>
</svg>
