<svg xmlns="http://www.w3.org/2000/svg" width="768.001" height="844.193" viewBox="479 371.718 768.001 844.193"><g transform="translate(479 281)"><path fill="#1B4160" d="M730.719 865.94H37.282C16.692 865.94 0 849.248 0 828.658V383.751c0-20.59 16.692-37.282 37.282-37.282h693.437c20.59 0 37.282 16.691 37.282 37.282v444.907c-.001 20.59-16.692 37.282-37.282 37.282z"/><path opacity=".26" fill="#61BFE6" d="M692.445 812.594H422.363c-10.295 0-18.641-8.346-18.641-18.641l-.239-376.943c0-10.295 8.346-18.641 18.641-18.641h270.082c10.295 0 18.641 8.346 18.641 18.641l.239 376.943c0 10.295-8.346 18.641-18.641 18.641z"/><path fill="#1B4160" d="M53.398 327.691h29.825v18.641H53.398z"/><path fill="#1B4160" d="M58.991 317.435h18.641v12.117H58.991z"/><path fill="#1B4160" d="M65.049 111.454h6.524v209.709h-6.524z"/><circle fill="#1B4160" cx="68.155" cy="102.018" r="11.3"/><path fill="#61BFE6" d="M669.823 522.812H445.72c-6.177 0-11.184-5.008-11.184-11.184v-70.835c0-6.177 5.007-11.184 11.184-11.184h224.103c6.177 0 11.184 5.007 11.184 11.184v70.835c0 6.176-5.007 11.184-11.184 11.184z"/><path opacity=".4" fill="#FFF" d="M463.958 510.863c-5.872.001-10.633-4.759-10.634-10.632 0-2.542.91-5 2.566-6.928l42.564-49.64c3.757-4.515 10.464-5.13 14.979-1.372 4.515 3.757 5.13 10.464 1.372 14.979a9.521 9.521 0 0 1-.205.239l-42.564 49.644a10.608 10.608 0 0 1-8.078 3.71z"/><path fill="#1B4160" d="M669.823 785.009H445.72c-6.177 0-11.184-5.007-11.184-11.185V557.592c0-6.177 5.007-11.185 11.184-11.185h224.103c6.177 0 11.184 5.008 11.184 11.185v216.233c0 6.177-5.007 11.184-11.184 11.184z"/><path fill="#E3E3E3" d="M496.259 624.698h-24.856c-6.177 0-11.184-5.007-11.184-11.185v-24.856c0-6.177 5.007-11.184 11.184-11.184h24.856c6.177 0 11.184 5.007 11.184 11.184v24.856c0 6.178-5.007 11.185-11.184 11.185zm72.08 0h-24.856c-6.177 0-11.184-5.007-11.184-11.185v-24.856c0-6.177 5.007-11.184 11.184-11.184h24.856c6.177 0 11.185 5.007 11.185 11.184v24.856c-.001 6.178-5.008 11.185-11.185 11.185zm-72.08 65.881h-24.856c-6.177 0-11.184-5.007-11.184-11.185v-24.856c0-6.177 5.007-11.184 11.184-11.184h24.856c6.177 0 11.184 5.007 11.184 11.184v24.856c0 6.177-5.007 11.185-11.184 11.185zm72.08 0h-24.856c-6.177 0-11.184-5.007-11.184-11.185v-24.856c0-6.177 5.007-11.184 11.184-11.184h24.856c6.177 0 11.185 5.007 11.185 11.184v24.856c-.001 6.177-5.008 11.185-11.185 11.185zm-72.08 65.85h-24.856c-6.177 0-11.184-5.007-11.184-11.184v-24.841c0-6.177 5.007-11.184 11.184-11.184h24.856c6.177 0 11.184 5.007 11.184 11.184v24.856c-.008 6.171-5.013 11.169-11.184 11.169zm72.08 0h-24.856c-6.177 0-11.184-5.007-11.184-11.184v-24.841c0-6.177 5.007-11.184 11.184-11.184h24.856c6.177 0 11.185 5.007 11.185 11.184v24.856c-.009 6.171-5.014 11.169-11.185 11.169zm72.076-131.731H615.56c-6.177 0-11.184-5.007-11.184-11.185v-24.856c0-6.177 5.007-11.184 11.184-11.184h24.856c6.177 0 11.184 5.007 11.184 11.184v24.856c0 6.178-5.008 11.185-11.185 11.185zm0 65.881H615.56c-6.177 0-11.184-5.007-11.184-11.185v-24.856c0-6.177 5.007-11.184 11.184-11.184h24.856c6.177 0 11.184 5.007 11.184 11.184v24.856c0 6.177-5.008 11.185-11.185 11.185zm0 65.85H615.56c-6.177 0-11.184-5.007-11.184-11.184v-24.841c0-6.177 5.007-11.184 11.184-11.184h24.856c6.177 0 11.184 5.007 11.184 11.184v24.856c-.009 6.171-5.014 11.169-11.185 11.169z"/><path fill="#61BFE6" d="M274.642 934.911H151.613c-20.59 0-37.282-16.692-37.282-37.282V314.781c0-20.59 16.692-37.282 37.282-37.282h123.029c20.59 0 37.282 16.692 37.282 37.282V897.63c0 20.589-16.692 37.281-37.282 37.281z"/><path opacity=".4" fill="#FFF" d="M301.981 451.932V320.078c-.601-16.676-14.381-29.835-31.067-29.669H155.341c-15.828.031-28.633 12.887-28.602 28.715.001.318.007.636.018.954v286.408a314.474 314.474 0 0 1 175.224-154.554z"/></g></svg>