<svg xmlns="http://www.w3.org/2000/svg" width="512" height="512" viewBox="0 0 512 512">
    <defs>
        <linearGradient id="bg" x1="0%" y1="0%" x2="100%" y2="100%">
            <stop offset="0%" stop-color="#FF7D40" />
            <stop offset="100%" stop-color="#FA5300" />
        </linearGradient>
        <linearGradient id="frostedGlass" x1="0%" y1="0%" x2="0%" y2="100%">
            <stop offset="0%" stop-color="#FFFFFF" stop-opacity="0.9" />
            <stop offset="100%" stop-color="#FFFFFF" stop-opacity="0.7" />
        </linearGradient>
        <linearGradient id="specular" x1="0%" y1="0%" x2="0%" y2="100%">
            <stop offset="0%" stop-color="#FFFFFF" stop-opacity="1" />
            <stop offset="50%" stop-color="#FFFFFF" stop-opacity="0" />
        </linearGradient>
    </defs>
    <rect width="512" height="512" rx="112" fill="url(#bg)" />
    <g opacity="0.88">
        <!-- Frosted Ring & Arrow -->
        <path fill="url(#frostedGlass)"
            d="M256,80c-97,0-176,79-176,176s79,176,176,176s176-79,176-176S353,80,256,80z M256,392c-75,0-136-61-136-136s61-136,136-136s136,61,136,136S331,392,256,392z" />
        <path fill="url(#frostedGlass)" d="M256,150l-70,70h40v100h60V220h40L256,150z" />
    </g>
    <!-- Surface Glint -->
    <path fill="url(#specular)" opacity="0.4"
        d="M256,80c-97,0-176,79-176,176s79,176,176,176s176-79,176-176S353,80,256,80z" />
</svg>
