<svg xmlns="http://www.w3.org/2000/svg" width="512" height="512" viewBox="0 0 512 512">
    <defs>
        <linearGradient id="bg" x1="0%" y1="0%" x2="100%" y2="100%">
            <stop offset="0%" stop-color="#FF7D40" />
            <stop offset="100%" stop-color="#FA5300" />
        </linearGradient>
        <linearGradient id="topGlow" x1="0%" y1="0%" x2="100%" y2="100%">
            <stop offset="0%" stop-color="#FFFFFF" stop-opacity="0.8" />
            <stop offset="40%" stop-color="#FFFFFF" stop-opacity="0" />
        </linearGradient>
        <linearGradient id="bottomGlow" x1="100%" y1="100%" x2="0%" y2="0%">
            <stop offset="0%" stop-color="#FFFFFF" stop-opacity="0.4" />
            <stop offset="40%" stop-color="#FFFFFF" stop-opacity="0" />
        </linearGradient>
    </defs>
    <rect width="512" height="512" rx="112" fill="url(#bg)" />
    <rect x="2" y="1" width="508" height="508" rx="111" fill="none" stroke="url(#topGlow)" stroke-width="1.5" />
    <rect x="2" y="2" width="508" height="508" rx="111" fill="none" stroke="url(#bottomGlow)" stroke-width="1.2" />
    <path fill="#FFFFFF"
        d="M256,80c-50,0-120-30-120-30s0,120,0,200c0,100,120,180,120,180s120-80,120-180c0-80,0-200,0-200S306,80,256,80z" />
    <circle cx="256" cy="230" r="45" fill="#FA5300" />
    <circle cx="256" cy="230" r="20" fill="#FFFFFF" />
</svg>