<svg xmlns="http://www.w3.org/2000/svg" width="512" height="512" viewBox="0 0 512 512">
    <defs>
        <linearGradient id="bg" x1="0%" y1="0%" x2="100%" y2="100%">
            <stop offset="0%" stop-color="#FF7D40" />
            <stop offset="100%" stop-color="#FA5300" />
        </linearGradient>
        <linearGradient id="topGlow" x1="0%" y1="0%" x2="100%" y2="100%">
            <stop offset="0%" stop-color="#FFFFFF" stop-opacity="0.8" />
            <stop offset="40%" stop-color="#FFFFFF" stop-opacity="0" />
        </linearGradient>
        <linearGradient id="bottomGlow" x1="100%" y1="100%" x2="0%" y2="0%">
            <stop offset="0%" stop-color="#FFFFFF" stop-opacity="0.4" />
            <stop offset="40%" stop-color="#FFFFFF" stop-opacity="0" />
        </linearGradient>
    </defs>
    <rect width="512" height="512" rx="112" fill="url(#bg)" />
    <rect x="2" y="1" width="508" height="508" rx="111" fill="none" stroke="url(#topGlow)" stroke-width="1.5" />
    <rect x="2" y="2" width="508" height="508" rx="111" fill="none" stroke="url(#bottomGlow)" stroke-width="1.2" />

    <!-- Dashboard / Gauge Glyph -->
    <g fill="#FFFFFF">
        <path
            d="M256,100c-88.4,0-160,71.6-160,160c0,21.5,4.2,42,11.9,60.8l28.6-11.4c-6.1-15-9.5-31.3-9.5-48.4c0-71.2,57.8-129,129-129s129,57.8,129,129c0,17.1-3.4,33.4-9.5,48.4l28.6,11.4c7.7-18.8,11.9-39.3,11.9-60.8C416,171.6,344.4,100,256,100z" />
        <!-- Meter/Dial Needle -->
        <path d="M256,190l-30,90h60L256,190z" />
        <circle cx="256" cy="300" r="40" />
        <circle cx="256" cy="300" r="15" fill="#FA5300" />
    </g>
</svg>