<svg width="16" height="16" viewBox="0 0 16 16" xmlns="http://www.w3.org/2000/svg">
    <g fill="#000000" transform="translate(8,8)">
        <!-- The Center Ring -->
        <path d="M-3.5,0 A3.5,3.5 0 1,1 3.5,0 A3.5,3.5 0 1,1 -3.5,0 M-2,0 A2,2 0 1,0 2,0 A2,2 0 1,0 -2,0"
            fill-rule="evenodd" />
        <!-- 8 Identical Teeth -->
        <rect x="-1" y="-6" width="2" height="2" rx="0.3" />
        <rect x="-1" y="-6" width="2" height="2" rx="0.3" transform="rotate(45)" />
        <rect x="-1" y="-6" width="2" height="2" rx="0.3" transform="rotate(90)" />
        <rect x="-1" y="-6" width="2" height="2" rx="0.3" transform="rotate(135)" />
        <rect x="-1" y="-6" width="2" height="2" rx="0.3" transform="rotate(180)" />
        <rect x="-1" y="-6" width="2" height="2" rx="0.3" transform="rotate(225)" />
        <rect x="-1" y="-6" width="2" height="2" rx="0.3" transform="rotate(270)" />
        <rect x="-1" y="-6" width="2" height="2" rx="0.3" transform="rotate(315)" />
    </g>
</svg>