<svg width="24" height="24" viewBox="0 0 24 24" fill="none" xmlns="http://www.w3.org/2000/svg">
<path fill-rule="evenodd" clip-rule="evenodd" d="M2 6.375C2 3.95876 3.95874 2 6.37498 2L17.625 2C20.0413 2 22 3.95876 22 6.375V17.625C22 20.0412 20.0413 22 17.625 22L6.37498 22C3.95874 22 2 20.0412 2 17.625L2 6.375ZM6.37498 4C5.06332 4 4 5.06332 4 6.375L4 17.625C4 18.9367 5.06332 20 6.37498 20L17.625 20C18.9367 20 20 18.9367 20 17.625V6.375C20 5.06332 18.9367 4 17.625 4L6.37498 4ZM8.65625 8.75772C8.65625 8.20543 9.10396 7.75772 9.65625 7.75772H15.2813C15.8335 7.75772 16.2813 8.20543 16.2813 8.75772V14.3828C16.2813 14.935 15.8335 15.3828 15.2813 15.3828C14.729 15.3828 14.2813 14.935 14.2813 14.3828V11.1719L9.89461 15.5586C9.50408 15.9491 8.87092 15.9491 8.48039 15.5586C8.08987 15.1681 8.08987 14.5349 8.48039 14.1444L12.8671 9.75772H9.65625C9.10396 9.75772 8.65625 9.31 8.65625 8.75772Z" fill="#2563EB"/>
</svg>
