<svg width="64" height="64" viewBox="0 0 64 64" fill="none" xmlns="http://www.w3.org/2000/svg">
<path fill-rule="evenodd" clip-rule="evenodd" d="M29.8266 3.97967C30.5121 3.66196 31.3001 3.64992 31.995 3.94655L58.647 15.3243C59.6294 15.7437 60.2667 16.7088 60.2667 17.7769V23.4658C60.2667 24.9385 59.0728 26.1324 57.6001 26.1324H6.40007C4.92731 26.1324 3.7334 24.9385 3.7334 23.4658V17.7769C3.7334 16.7383 4.33639 15.7942 5.27868 15.3574L29.8266 3.97967ZM30.9926 9.31761L9.06673 19.4801V20.7991H54.9334V19.538L30.9926 9.31761ZM10.6667 30.216C12.1395 30.216 13.3334 31.4099 13.3334 32.8827V39.9991C13.3334 41.4718 12.1395 42.6658 10.6667 42.6658C9.19397 42.6658 8.00006 41.4718 8.00006 39.9991V32.8827C8.00006 31.4099 9.19397 30.216 10.6667 30.216ZM24.889 30.216C26.3617 30.216 27.5556 31.4099 27.5556 32.8827V39.9991C27.5556 41.4718 26.3617 42.6658 24.889 42.6658C23.4162 42.6658 22.2223 41.4718 22.2223 39.9991V32.8827C22.2223 31.4099 23.4162 30.216 24.889 30.216ZM39.1112 30.216C40.5839 30.216 41.7778 31.4099 41.7778 32.8827V39.9991C41.7778 41.4718 40.5839 42.6658 39.1112 42.6658C37.6384 42.6658 36.4445 41.4718 36.4445 39.9991V32.8827C36.4445 31.4099 37.6384 30.216 39.1112 30.216ZM53.3334 30.216C54.8062 30.216 56.0001 31.4099 56.0001 32.8827V39.9991C56.0001 41.4718 54.8062 42.6658 53.3334 42.6658C51.8606 42.6658 50.6667 41.4718 50.6667 39.9991V32.8827C50.6667 31.4099 51.8606 30.216 53.3334 30.216ZM3.7334 49.0658C3.7334 47.593 4.92731 46.3991 6.40007 46.3991H57.6001C59.0728 46.3991 60.2667 47.593 60.2667 49.0658V57.5991C60.2667 59.0718 59.0728 60.2657 57.6001 60.2657H6.40007C4.92731 60.2657 3.7334 59.0718 3.7334 57.5991V49.0658ZM9.06673 51.7324V54.9324H54.9334V51.7324H9.06673Z" fill="#293547"/>
</svg>
