<svg width="64" height="64" viewBox="0 0 64 64" fill="none" xmlns="http://www.w3.org/2000/svg">
<path fill-rule="evenodd" clip-rule="evenodd" d="M5.33398 32.0007C5.33398 17.2731 17.2731 5.33398 32.0007 5.33398C46.7282 5.33398 58.6673 17.2731 58.6673 32.0007C58.6673 46.7282 46.7282 58.6673 32.0007 58.6673C17.2731 58.6673 5.33398 46.7282 5.33398 32.0007ZM32.0007 10.6673C20.2186 10.6673 10.6673 20.2186 10.6673 32.0007C10.6673 43.7827 20.2186 53.334 32.0007 53.334C43.7827 53.334 53.334 43.7827 53.334 32.0007C53.334 20.2186 43.7827 10.6673 32.0007 10.6673ZM42.2649 24.7364C43.3064 25.7778 43.3064 27.4662 42.2649 28.5076L30.8863 39.8863C29.8449 40.9277 28.1564 40.9277 27.115 39.8863L23.2364 36.0076C22.195 34.9662 22.195 33.2778 23.2364 32.2364C24.2778 31.195 25.9662 31.195 27.0076 32.2364L29.0007 34.2294L38.4937 24.7364C39.5351 23.695 41.2236 23.695 42.2649 24.7364Z" fill="#16A34A"/>
</svg>
