<svg width="64" height="64" viewBox="0 0 64 64" fill="none" xmlns="http://www.w3.org/2000/svg">
<path fill-rule="evenodd" clip-rule="evenodd" d="M33.3327 10.6654C21.5506 10.6654 11.9993 20.2166 11.9993 31.9987C11.9993 43.7808 21.5506 53.332 33.3327 53.332C45.1148 53.332 54.666 43.7808 54.666 31.9987C54.666 20.2166 45.1148 10.6654 33.3327 10.6654ZM6.66602 31.9987C6.66602 17.2711 18.6051 5.33203 33.3327 5.33203C48.0603 5.33203 59.9993 17.2711 59.9993 31.9987C59.9993 46.7263 48.0603 58.6654 33.3327 58.6654C18.6051 58.6654 6.66602 46.7263 6.66602 31.9987ZM33.3327 19.7877C34.8054 19.7877 35.9993 20.9816 35.9993 22.4543V33.0767L43.176 35.4689C44.5731 35.9346 45.3282 37.4448 44.8625 38.842C44.3968 40.2392 42.8866 40.9942 41.4894 40.5285L32.4894 37.5285C31.4005 37.1656 30.666 36.1465 30.666 34.9987V22.4543C30.666 20.9816 31.8599 19.7877 33.3327 19.7877Z" fill="#293547"/>
</svg>
