<svg width="44" height="44" viewBox="0 0 44 44" fill="none" xmlns="http://www.w3.org/2000/svg">
<path fill-rule="evenodd" clip-rule="evenodd" d="M11.7752 9.89608C12.1216 9.43636 12.6638 9.16602 13.2394 9.16602L37.2518 9.16602C39.5604 9.16602 41.4318 11.0375 41.4318 13.346V32.1194C41.4318 34.4279 39.5604 36.2994 37.2518 36.2994L13.2394 36.2994C12.6638 36.2994 12.1216 36.029 11.7752 35.5693L3.76559 24.9392C2.78126 23.6329 2.78126 21.8325 3.76559 20.5262L11.7752 9.89608ZM14.1535 12.8327L6.69401 22.7327L14.1535 32.6327L37.2518 32.6327C37.5353 32.6327 37.7652 32.4029 37.7652 32.1194V13.346C37.7652 13.0625 37.5353 12.8327 37.2518 12.8327L14.1535 12.8327ZM18.3555 16.743C19.0714 16.027 20.2322 16.027 20.9482 16.743L24.3452 20.14L27.7421 16.743C28.4581 16.027 29.6189 16.027 30.3349 16.743C31.0508 17.459 31.0508 18.6198 30.3349 19.3357L26.9379 22.7327L30.3349 26.1297C31.0508 26.8456 31.0508 28.0064 30.3349 28.7224C29.6189 29.4383 28.4581 29.4383 27.7421 28.7224L24.3452 25.3254L20.9482 28.7224C20.2322 29.4383 19.0714 29.4383 18.3555 28.7224C17.6395 28.0064 17.6395 26.8456 18.3555 26.1297L21.7524 22.7327L18.3555 19.3357C17.6395 18.6198 17.6395 17.459 18.3555 16.743Z" fill="#293547"/>
</svg>
