<svg width="64" height="64" viewBox="0 0 64 64" fill="none" xmlns="http://www.w3.org/2000/svg">
<path fill-rule="evenodd" clip-rule="evenodd" d="M33.8864 4.51446L32.0007 6.40006L30.1151 4.51443C30.6152 4.01434 31.2935 3.73339 32.0008 3.7334C32.708 3.7334 33.3863 4.01436 33.8864 4.51446ZM32.0007 10.2763C31.6929 10.6117 31.3544 10.985 30.9905 11.3929C29.2296 13.3665 26.8869 16.1342 24.5503 19.3175C22.208 22.5087 19.9093 26.0669 18.2054 29.6233C16.4861 33.2118 15.4671 36.6045 15.4671 39.5166C15.4671 47.8668 22.7337 54.9334 32.0006 54.9334C41.2674 54.9334 48.5338 47.8669 48.5338 39.5166C48.5338 36.6045 47.5148 33.2117 45.7956 29.6233C44.0917 26.0669 41.7931 22.5087 39.4508 19.3175C37.1143 16.1342 34.7717 13.3664 33.0109 11.3928C32.647 10.985 32.3085 10.6116 32.0007 10.2763ZM32.0007 6.40006C30.1151 4.51443 30.1156 4.51395 30.1151 4.51443L30.0958 4.53382L30.0491 4.58093C30.0091 4.62145 29.9514 4.68009 29.8771 4.7561C29.7287 4.9081 29.5142 5.12966 29.2432 5.41478C28.7011 5.98485 27.9318 6.81 27.0109 7.84216C25.1718 9.90346 22.7144 12.8055 20.2509 16.1617C17.7931 19.5101 15.2917 23.3613 13.3956 27.3189C11.5148 31.2445 10.1338 35.4704 10.1338 39.5166C10.1338 51.1089 20.0938 60.2667 32.0006 60.2667C43.9074 60.2667 53.8671 51.109 53.8671 39.5166C53.8671 35.4704 52.4861 31.2445 50.6054 27.3189C48.7093 23.3613 46.208 19.5101 43.7503 16.1618C41.2869 12.8055 38.8296 9.90349 36.9905 7.84219C36.0696 6.81002 35.3003 5.98488 34.7583 5.41481C34.4872 5.12969 34.2728 4.90813 34.1244 4.75612C34.0501 4.68011 33.9924 4.62147 33.9524 4.58095L33.9057 4.53385L33.8926 4.52065L33.8886 4.51668C33.8881 4.5162 33.8864 4.51446 32.0007 6.40006ZM42.4123 35.86C43.8151 36.3083 44.5889 37.809 44.1405 39.2119C42.4427 44.524 38.2022 48.7105 32.8578 50.5251C31.4633 50.9987 29.9489 50.252 29.4754 48.8574C29.0019 47.4629 29.7485 45.9485 31.1431 45.475C34.959 44.1793 37.9006 41.2169 39.0604 37.5882C39.5087 36.1854 41.0094 35.4116 42.4123 35.86Z" fill="#293547"/>
</svg>
