<svg width="64" height="64" viewBox="0 0 64 64" fill="none" xmlns="http://www.w3.org/2000/svg">
<path fill-rule="evenodd" clip-rule="evenodd" d="M31.9997 10.6654C20.2176 10.6654 10.6663 20.2166 10.6663 31.9987C10.6663 43.7808 20.2176 53.332 31.9997 53.332C43.7818 53.332 53.333 43.7808 53.333 31.9987C53.333 20.2166 43.7818 10.6654 31.9997 10.6654ZM5.33301 31.9987C5.33301 17.2711 17.2721 5.33203 31.9997 5.33203C46.7273 5.33203 58.6663 17.2711 58.6663 31.9987C58.6663 46.7263 46.7273 58.6654 31.9997 58.6654C17.2721 58.6654 5.33301 46.7263 5.33301 31.9987ZM21.6288 21.6278C22.6702 20.5864 24.3586 20.5864 25.4 21.6278L31.9997 28.2275L38.5993 21.6278C39.6407 20.5864 41.3292 20.5864 42.3706 21.6278C43.412 22.6692 43.412 24.3576 42.3706 25.399L35.7709 31.9987L42.3706 38.5984C43.412 39.6398 43.412 41.3282 42.3706 42.3696C41.3292 43.411 39.6407 43.411 38.5993 42.3696L31.9997 35.7699L25.4 42.3696C24.3586 43.411 22.6702 43.411 21.6288 42.3696C20.5874 41.3282 20.5874 39.6398 21.6288 38.5984L28.2284 31.9987L21.6288 25.399C20.5874 24.3576 20.5874 22.6692 21.6288 21.6278Z" fill="#CF3333"/>
</svg>
