<svg width="64" height="64" viewBox="0 0 64 64" fill="none" xmlns="http://www.w3.org/2000/svg">
<path fill-rule="evenodd" clip-rule="evenodd" d="M33.8864 4.51348L32.0007 6.39909L30.1151 4.51346C30.6152 4.01336 31.2935 3.73242 32.0008 3.73242C32.708 3.73243 33.3863 4.01338 33.8864 4.51348ZM32.0007 10.2753C31.6929 10.6107 31.3544 10.984 30.9905 11.3919C29.2296 13.3655 26.8869 16.1332 24.5503 19.3166C22.208 22.5077 19.9093 26.0659 18.2054 29.6223C16.4861 33.2108 15.4671 36.6036 15.4671 39.5156C15.4671 43.4789 17.1041 47.1531 19.8151 49.9197C19.7614 49.4738 19.7338 49.0192 19.7338 48.5574C19.7338 46.2507 20.5148 43.9295 21.4956 41.8824C22.4917 39.8033 23.7931 37.8045 25.0508 36.091C26.3143 34.3696 27.5716 32.885 28.5108 31.8325C28.9817 31.3047 29.376 30.8817 29.6555 30.5877C29.7954 30.4406 29.9067 30.3256 29.9848 30.2456L30.0765 30.1522L30.1026 30.1259L30.1106 30.1179L30.1132 30.1152C30.1136 30.1148 30.115 30.1135 32.0006 31.9991C33.8862 30.1135 33.8866 30.1139 33.887 30.1143L33.8907 30.1179L33.8986 30.1259L33.9247 30.1522L34.0164 30.2456C34.0945 30.3256 34.2059 30.4407 34.3457 30.5877C34.6252 30.8817 35.0195 31.3047 35.4904 31.8325C36.4295 32.8851 37.6868 34.3696 38.9503 36.091C40.2079 37.8045 41.5093 39.8033 42.5054 41.8824C43.4861 43.9295 44.2671 46.2508 44.2671 48.5574C44.2671 49.0193 44.2395 49.4739 44.1858 49.9199C46.8968 47.1533 48.5338 43.4791 48.5338 39.5156C48.5338 36.6035 47.5148 33.2108 45.7956 29.6223C44.0917 26.0659 41.7931 22.5077 39.4508 19.3165C37.1143 16.1332 34.7717 13.3654 33.0109 11.3919C32.647 10.984 32.3085 10.6107 32.0007 10.2753ZM32.0006 31.9991L33.887 30.1143C33.3869 29.6142 32.7079 29.3324 32.0006 29.3324C31.2934 29.3324 30.6133 29.6151 30.1132 30.1152L32.0006 31.9991ZM32.0006 35.9396C31.2189 36.8398 30.2825 37.9766 29.3503 39.2468C28.2079 40.8031 27.1093 42.5089 26.3054 44.1868C25.4861 45.8967 25.0671 47.3849 25.0671 48.5574C25.0671 51.9219 28.0271 54.9324 32.0006 54.9324C35.974 54.9324 38.9338 51.922 38.9338 48.5574C38.9338 47.3848 38.5148 45.8967 37.6956 44.1868C36.8917 42.5089 35.7931 40.803 34.6508 39.2467C33.7185 37.9766 32.7822 36.8398 32.0006 35.9396ZM32.0006 60.2658C43.9074 60.2658 53.8671 51.108 53.8671 39.5156C53.8671 35.4695 52.4861 31.2436 50.6054 27.318C48.7093 23.3604 46.208 19.5092 43.7503 16.1608C41.2869 12.8045 38.8296 9.90252 36.9905 7.84122C36.0696 6.80905 35.3003 5.9839 34.7583 5.41383C34.4872 5.12871 34.2728 4.90715 34.1244 4.75515C34.0501 4.67914 33.9924 4.6205 33.9524 4.57998L33.9057 4.53287L33.8926 4.51968L33.8886 4.5157C33.8881 4.51522 33.8864 4.51348 32.0007 6.39909C30.1151 4.51346 30.1156 4.51298 30.1151 4.51346L30.0958 4.53284L30.0491 4.57995C30.0091 4.62047 29.9514 4.67911 29.8771 4.75512C29.7287 4.90712 29.5142 5.12868 29.2432 5.4138C28.7011 5.98387 27.9318 6.80902 27.0109 7.84119C25.1718 9.90249 22.7144 12.8045 20.2509 16.1608C17.7931 19.5091 15.2917 23.3603 13.3956 27.3179C11.5148 31.2435 10.1338 35.4695 10.1338 39.5156C10.1338 51.1079 20.0938 60.2658 32.0006 60.2658Z" fill="#293547"/>
</svg>
