<svg width="64" height="64" viewBox="0 0 64 64" fill="none" xmlns="http://www.w3.org/2000/svg">
<path fill-rule="evenodd" clip-rule="evenodd" d="M13.333 5.33398L21.333 5.33398C25.7165 5.33398 29.333 8.84843 29.333 13.2609L29.333 22.2404C29.333 26.6529 25.7165 30.1674 21.333 30.1674H13.333C8.94956 30.1674 5.33303 26.6529 5.33303 22.2405L5.33301 13.2609C5.33301 8.84844 8.94953 5.33398 13.333 5.33398ZM21.333 10.6673L13.333 10.6673C11.8254 10.6673 10.6663 11.8631 10.6663 13.2609L10.6664 22.2404C10.6664 23.6383 11.8255 24.834 13.333 24.834H21.333C22.8406 24.834 23.9997 23.6383 23.9997 22.2405L23.9997 13.2609C23.9997 11.8631 22.8406 10.6673 21.333 10.6673ZM42.6663 10.6673C41.1588 10.6673 39.9997 11.8631 39.9997 13.2609L39.9997 22.2404C39.9997 23.6383 41.1588 24.834 42.6664 24.834H50.6664C52.1739 24.834 53.333 23.6383 53.333 22.2405L53.333 13.2609C53.333 11.8631 52.1739 10.6673 50.6663 10.6673L42.6663 10.6673ZM34.6663 13.2609C34.6663 8.84843 38.2829 5.33398 42.6663 5.33398L50.6663 5.33398C55.0498 5.33398 58.6663 8.84843 58.6663 13.2609L58.6663 22.2404C58.6663 26.6529 55.0498 30.1674 50.6664 30.1674H42.6664C38.2829 30.1674 34.6664 26.6529 34.6664 22.2405L34.6663 13.2609ZM13.333 39.1674C11.8255 39.1674 10.6664 40.3631 10.6664 41.7609L10.6664 50.7404C10.6664 52.1382 11.8255 53.334 13.333 53.334H21.333C22.8406 53.334 23.9997 52.1382 23.9997 50.7404L23.9997 41.7609C23.9997 40.3631 22.8406 39.1674 21.333 39.1674H13.333ZM5.33303 41.7609C5.33303 37.3485 8.94955 33.834 13.333 33.834H21.333C25.7165 33.834 29.333 37.3485 29.333 41.7609L29.333 50.7404C29.333 55.1529 25.7165 58.6673 21.333 58.6673H13.333C8.94956 58.6673 5.33304 55.1529 5.33304 50.7404L5.33303 41.7609ZM42.6664 39.1674C41.1588 39.1674 39.9997 40.3631 39.9997 41.7609L39.9997 50.7404C39.9997 52.1382 41.1588 53.334 42.6664 53.334H50.6664C52.1739 53.334 53.333 52.1382 53.333 50.7404V41.7609C53.333 40.3631 52.1739 39.1674 50.6664 39.1674H42.6664ZM34.6664 41.7609C34.6664 37.3485 38.2829 33.834 42.6664 33.834H50.6664C55.0499 33.834 58.6663 37.3485 58.6663 41.7609V50.7404C58.6663 55.1528 55.0499 58.6673 50.6664 58.6673H42.6664C38.2829 58.6673 34.6664 55.1529 34.6664 50.7404L34.6664 41.7609Z" fill="#293547"/>
</svg>
