<svg width="64" height="64" viewBox="0 0 64 64" fill="none" xmlns="http://www.w3.org/2000/svg">
<path fill-rule="evenodd" clip-rule="evenodd" d="M57.5025 51.2178C57.5025 51.2178 57.5018 51.2192 55.1019 50.0567L44.1871 36.606C43.5688 36.9596 43.1139 37.3754 42.8498 37.6391L40.456 40.028L40.4404 40.0435C40.0051 39.7812 39.5351 39.5468 39.1578 39.3586L39.1093 39.3344C38.605 39.0828 38.2114 38.884 37.8426 38.6506L37.8398 38.6489C34.1993 36.3513 30.8566 33.3273 27.6405 29.3737L27.6003 29.3253C25.9032 27.167 24.8512 25.4427 24.1142 23.6861L24.098 23.6318L24.1056 23.6241C24.3243 23.4291 24.4326 23.3368 24.4827 23.2952C24.5052 23.2765 24.5175 23.2669 24.5175 23.2669L24.542 23.2479C24.5559 23.2371 24.5848 23.2146 24.619 23.1866C24.7704 23.0626 24.8928 22.9379 24.9645 22.8648L24.9756 22.8535L25.1421 22.683L25.4363 22.3818C25.6852 22.1412 25.9452 21.8788 26.1803 21.6415C26.2905 21.5302 26.3953 21.4244 26.4909 21.329C27.3914 20.4304 28.2448 19.1689 28.2448 17.5524C28.2448 17.3288 28.2284 17.1119 28.1979 16.9018L22.0269 9.29703L12.4156 7.00194L12.3551 7.06046L8.19062 11.2164L5.73204 16.4961L5.73126 16.5054L7.25792 25.2841L16.4992 40.6708L35.4155 55.456L55.351 53.5678C55.7791 53.1384 56.1845 52.7357 56.4832 52.4401L56.8394 52.0882L56.9371 51.992L56.9623 51.9672L56.9686 51.961L57.5025 51.2178ZM11.958 14.9915L16.0648 10.893L16.0961 10.9227C16.7895 11.5693 17.4597 12.2488 18.1996 13.0114C18.3976 13.2153 18.5986 13.4191 18.7913 13.6144C18.986 13.8118 19.1739 14.0022 19.3607 14.1945L19.3895 14.2237L22.7235 17.5509V17.554C22.5799 17.6973 22.4516 17.8269 22.3307 17.949C22.1141 18.1677 21.9213 18.3625 21.7066 18.5693C21.6879 18.5874 21.6694 18.6058 21.6512 18.6244L21.319 18.9644L21.1793 19.1074C21.149 19.1316 21.1147 19.1595 21.075 19.1925C20.9509 19.2956 20.7778 19.4452 20.5075 19.6869L16.0648 10.893L20.5046 19.6894C20.4602 19.7273 20.3526 19.8194 20.2249 19.9646C19.3646 20.8644 18.8939 21.891 18.7707 22.9537C18.6509 23.9864 18.8868 24.8448 19.0359 25.3162L19.049 25.3565L19.0857 25.4662C19.1053 25.5251 19.1271 25.5833 19.1508 25.6407C20.1388 28.0293 21.509 30.216 23.4663 32.6962C23.4949 32.7325 23.5244 32.7679 23.5548 32.8026C27.0648 37.1061 30.8131 40.5207 34.9919 43.1582C35.6076 43.5477 36.2228 43.8546 36.6908 44.088L36.7281 44.1067C37.1964 44.3403 37.4938 44.4912 37.7235 44.6335C37.7549 44.6529 37.7867 44.6717 37.8188 44.6898L37.8783 44.7258C37.9232 44.7524 37.9948 44.7936 38.0837 44.8379C38.8185 45.2046 39.6144 45.4232 40.4833 45.4232C42.607 45.4232 43.9101 44.117 44.2049 43.8215L44.2233 43.8031L46.547 41.4841L52.9796 47.9036C52.9741 47.9626 52.9643 48.0316 52.9492 48.1098C52.9199 48.2616 52.8773 48.4137 52.8324 48.5497L52.7314 48.6495C52.4271 48.9506 52.0127 49.3622 51.5737 49.8027C50.7659 50.6131 49.7593 51.6355 49.2744 52.1944C48.5776 52.9234 47.8442 53.2522 46.663 53.2522C46.4624 53.2522 46.3575 53.2512 46.2783 53.2459L46.2712 53.2455C43.181 53.0482 40.1974 51.8284 37.73 50.651C31.1679 47.4799 25.4004 42.978 20.5961 37.2561C16.5851 32.4307 13.9752 28.0586 12.2571 23.4259L12.2543 23.4184C11.2038 20.6117 10.9067 18.657 11.0463 16.9469C11.1154 16.1492 11.3919 15.5565 11.958 14.9915Z" fill="#293547"/>
<path d="M57.5025 51.2178L57.5047 51.2132L57.5081 51.2062L57.5162 51.1891L57.5376 51.1433C57.554 51.1076 57.5748 51.0616 57.5988 51.0064C57.6466 50.8963 57.7084 50.7471 57.7755 50.567C57.9069 50.2147 58.0726 49.7072 58.1858 49.1212C58.3718 48.1579 58.6081 45.9754 56.9697 44.3508L56.9641 44.3453L50.2568 37.6515C49.6594 37.0135 48.3928 35.9459 46.5776 35.9459C45.6282 35.9459 44.8216 36.2432 44.1871 36.606L55.1019 50.0567L57.5025 51.2178Z" fill="#293547"/>
<path d="M53.2857 55.7094C53.5803 55.3633 54.4537 54.468 55.351 53.5678L35.4155 55.456L35.4269 55.4614C38.0128 56.6957 41.7655 58.3004 45.9242 58.5675C46.1979 58.5857 46.4703 58.5856 46.6388 58.5856L46.663 58.5856C49.2725 58.5856 51.441 57.6824 53.2008 55.8045C53.2298 55.7735 53.2582 55.7418 53.2857 55.7094Z" fill="#293547"/>
<path d="M16.5074 40.6805C21.7885 46.9718 28.157 51.9493 35.4155 55.456L16.4992 40.6708L16.5074 40.6805Z" fill="#293547"/>
<path d="M7.25792 25.2841C9.22741 30.5933 12.1848 35.4813 16.4992 40.6708L7.25792 25.2841Z" fill="#293547"/>
<path d="M5.73126 16.5054C5.50552 19.2538 6.0388 22.0257 7.25792 25.2841L5.73126 16.5054Z" fill="#293547"/>
<path d="M8.19062 11.2164C6.73048 12.6736 5.90778 14.4441 5.73204 16.4961L8.19062 11.2164Z" fill="#293547"/>
<path d="M16.0951 5.41602C14.5747 5.41602 13.3197 6.15496 12.4156 7.00194L22.0269 9.29703C21.2876 8.53505 20.5508 7.78605 19.767 7.05349L19.7618 7.04827C19.2045 6.49206 17.9325 5.41602 16.0951 5.41602Z" fill="#293547"/>
<path d="M20.5075 19.6869C20.7778 19.4452 20.9509 19.2956 21.075 19.1925C21.1147 19.1595 21.149 19.1316 21.1793 19.1074L21.319 18.9644L21.6512 18.6244C21.6694 18.6058 21.6879 18.5874 21.7066 18.5693C21.9213 18.3625 22.1141 18.1677 22.3307 17.949C22.4516 17.8269 22.5799 17.6973 22.7235 17.554V17.5509L19.3895 14.2237L19.3607 14.1945C19.1739 14.0022 18.986 13.8118 18.7913 13.6144C18.5986 13.4191 18.3976 13.2153 18.1996 13.0114C17.4597 12.2488 16.7895 11.5693 16.0961 10.9227L16.0648 10.893L20.5075 19.6869Z" fill="#293547"/>
</svg>
