<svg width="24" height="24" viewBox="0 0 24 24" fill="none" xmlns="http://www.w3.org/2000/svg">
<path fill-rule="evenodd" clip-rule="evenodd" d="M12 4C7.58172 4 4 7.58172 4 12C4 16.4183 7.58172 20 12 20C16.4183 20 20 16.4183 20 12C20 7.58172 16.4183 4 12 4ZM2 12C2 6.47715 6.47715 2 12 2C17.5228 2 22 6.47715 22 12C22 17.5228 17.5228 22 12 22C6.47715 22 2 17.5228 2 12Z" fill="#2563EB"/>
<path fill-rule="evenodd" clip-rule="evenodd" d="M12 16.875C11.4477 16.875 11 16.4273 11 15.875V11.375C11 10.8227 11.4477 10.375 12 10.375C12.5523 10.375 13 10.8227 13 11.375V15.875C13 16.4273 12.5523 16.875 12 16.875ZM12 9.03955C11.4477 9.03955 11 8.59184 11 8.03955V8C11 7.44771 11.4477 7 12 7C12.5523 7 13 7.44771 13 8V8.03955C13 8.59184 12.5523 9.03955 12 9.03955Z" fill="#2563EB"/>
</svg>
