<svg width="64" height="64" viewBox="0 0 64 64" fill="none" xmlns="http://www.w3.org/2000/svg">
<path fill-rule="evenodd" clip-rule="evenodd" d="M31.9997 9.06673C24.6359 9.06673 18.6663 15.0363 18.6663 22.4001C18.6663 27.8634 21.9527 32.5652 26.6673 34.6251C27.6386 35.0495 28.2663 36.0088 28.2663 37.0687V46.4001C28.2663 46.6946 28.5051 46.9334 28.7997 46.9334H35.1997C35.4942 46.9334 35.733 46.6946 35.733 46.4001V36.8001C35.733 35.7401 36.3607 34.7808 37.332 34.3565C42.0962 32.2749 45.333 27.8118 45.333 22.4001C45.333 15.0363 39.3635 9.06673 31.9997 9.06673ZM13.333 22.4001C13.333 12.0907 21.6904 3.7334 31.9997 3.7334C42.309 3.7334 50.6663 12.0907 50.6663 22.4001C50.6663 29.4656 46.7519 35.3275 41.0663 38.4565V46.4001C41.0663 49.6401 38.4397 52.2667 35.1997 52.2667H28.7997C25.5596 52.2667 22.933 49.6401 22.933 46.4001V38.7201C17.2106 35.5345 13.333 29.4226 13.333 22.4001ZM22.933 57.6001C22.933 56.1273 24.1269 54.9334 25.5997 54.9334H38.3997C39.8724 54.9334 41.0663 56.1273 41.0663 57.6001C41.0663 59.0728 39.8724 60.2667 38.3997 60.2667H25.5997C24.1269 60.2667 22.933 59.0728 22.933 57.6001Z" fill="#293547"/>
</svg>
