<svg width="120" height="52" viewBox="0 0 120 52" fill="none" xmlns="http://www.w3.org/2000/svg">
<path d="M8.60302 43.8896C10.0735 43.8896 11.2656 42.6975 11.2656 41.227C11.2656 39.7565 10.0735 38.5645 8.60302 38.5645C7.13251 38.5645 5.94043 39.7565 5.94043 41.227C5.94043 42.6975 7.13251 43.8896 8.60302 43.8896Z" fill="#FF5A1E"/>
<path d="M15.5093 39.3526C18.4495 39.3526 20.8331 36.9691 20.8331 34.0288C20.8331 31.0886 18.4495 28.7051 15.5093 28.7051C12.5691 28.7051 10.1855 31.0886 10.1855 34.0288C10.1855 36.9691 12.5691 39.3526 15.5093 39.3526Z" fill="#FF5A1E"/>
<path d="M16.9504 19.7235C16.9402 18.1706 17.2516 16.6324 17.8653 15.2058C19.0533 12.4263 21.267 10.2116 24.046 9.02227C25.4719 8.41853 27.0046 8.10742 28.553 8.10742C30.1015 8.10742 31.6342 8.41853 33.0601 9.02227C34.4364 9.60925 35.6865 10.4563 36.742 11.5169C37.7949 12.5805 38.6375 13.8336 39.2253 15.21C39.8283 16.6364 40.139 18.1692 40.139 19.7178C40.139 21.2664 39.8283 22.7992 39.2253 24.2256C38.0412 26.9952 35.8322 29.1997 33.0601 30.378C31.6339 30.9808 30.1013 31.2914 28.553 31.2914C27.0047 31.2914 25.4721 30.9808 24.046 30.378C22.6737 29.7887 21.4247 28.9462 20.3641 27.8947C19.3053 26.8422 18.4584 25.5961 17.8695 24.2242C17.2544 22.8039 16.9414 21.2712 16.9504 19.7235ZM22.2248 19.7235C22.2182 20.5648 22.3879 21.3983 22.7231 22.17C23.3727 23.6772 24.5751 24.8782 26.0831 25.5258C26.8572 25.8602 27.6923 26.0299 28.5354 26.0242C29.3895 26.0307 30.2359 25.8611 31.0215 25.5258C31.7715 25.2055 32.4541 24.7461 33.0333 24.1719C33.6057 23.5994 34.0621 22.9215 34.3773 22.1757C34.7059 21.4022 34.8722 20.5695 34.8657 19.7291C34.8719 18.8876 34.7016 18.0542 34.366 17.2825C34.0437 16.5379 33.5833 15.8611 33.0093 15.2877C31.8216 14.1119 30.2179 13.4524 28.5467 13.4524C26.8755 13.4524 25.2718 14.1119 24.0841 15.2877C23.5105 15.8614 23.0502 16.5382 22.7274 17.2825C22.393 18.0525 22.2232 18.884 22.229 19.7235H22.2248Z" fill="#0068FF"/>
<path d="M44.3389 10.8633C44.3361 10.4962 44.4087 10.1325 44.5521 9.79458C44.8279 9.13876 45.3508 8.61789 46.0077 8.3447C46.3376 8.20275 46.6932 8.13019 47.0524 8.13152V8.10752H53.6566C54.8372 8.10188 56.006 8.34228 57.0886 8.8134C59.1969 9.71955 60.8709 11.4092 61.7573 13.5259C62.2168 14.6075 62.4507 15.7714 62.4448 16.9466C62.4448 18.5786 62.0491 20.0002 61.2575 21.2115C60.4691 22.4196 59.3913 23.4115 58.122 24.0972L60.522 26.6158C61.0604 27.2021 61.3295 27.8355 61.3295 28.516C61.3319 28.8677 61.2588 29.2158 61.1149 29.5367C60.9764 29.8487 60.7789 30.1311 60.5333 30.3682C60.2871 30.6097 59.9966 30.8014 59.6778 30.9329C59.358 31.0663 59.0149 31.135 58.6684 31.1348C57.9549 31.1659 57.3295 30.8967 56.7921 30.3273L51.8749 25.1715H49.6161V28.3791C49.6193 28.7402 49.5552 29.0988 49.4269 29.4365C49.3061 29.7508 49.1286 30.0403 48.9032 30.2906C48.6779 30.5395 48.4028 30.7381 48.0956 30.8736C47.7667 31.0186 47.4104 31.0913 47.0509 31.0868C46.6918 31.0881 46.3362 31.0156 46.0062 30.8736C45.356 30.5991 44.8366 30.0843 44.5564 29.4365C44.4122 29.1028 44.3396 28.7425 44.3432 28.3791L44.3389 10.8633ZM49.6119 13.2633V19.9861H53.5154C54.0083 19.991 54.4983 19.9108 54.9639 19.7489C55.3867 19.6027 55.7777 19.377 56.1159 19.084C56.4383 18.8026 56.7009 18.4594 56.8881 18.0746C57.0792 17.6786 57.1758 17.2436 57.1705 16.804C57.1717 16.3457 57.0754 15.8924 56.8881 15.4741C56.7033 15.0528 56.4414 14.6698 56.1159 14.3447C55.7835 14.0147 55.3929 13.7491 54.9639 13.5612C54.5156 13.3619 54.03 13.2604 53.5394 13.2633H49.6119Z" fill="#0068FF"/>
<path d="M84.8689 8.10742C85.1822 8.10981 85.4924 8.17012 85.7838 8.2853C86.0944 8.40364 86.3813 8.57673 86.6308 8.79636C86.8854 9.02031 87.0952 9.29049 87.2492 9.5926C87.4118 9.92048 87.4931 10.2827 87.4864 10.6486V10.7022C87.4891 11.1012 87.3997 11.4955 87.2252 11.8542C87.0617 12.1969 86.8268 12.5006 86.5362 12.7451L73.8035 25.9055H85.4209C86.1225 25.8817 86.8053 26.1353 87.3212 26.6114C87.5695 26.8406 87.766 27.1204 87.8972 27.4318C88.0285 27.7433 88.0915 28.0792 88.0821 28.4171C88.0869 28.9332 87.9366 29.4389 87.6507 29.8685C87.3647 30.2982 86.9563 30.6321 86.4783 30.827C86.1431 30.965 85.7835 31.0346 85.4209 31.0317H68.1692C67.8045 31.0349 67.4436 30.9583 67.1118 30.8072C66.4851 30.5203 65.986 30.0127 65.7099 29.3813C65.577 29.0782 65.5083 28.7509 65.508 28.4199C65.4933 28.0972 65.5547 27.7756 65.6873 27.4811C65.8325 27.1564 66.038 26.8622 66.2929 26.6142L79.14 13.3352H68.4064C68.0547 13.3376 67.7066 13.2644 67.3856 13.1206C67.0763 12.9848 66.7944 12.7934 66.5541 12.5559C66.3145 12.3173 66.1228 12.0351 65.9894 11.7244C65.72 11.0701 65.72 10.3358 65.9894 9.68154C66.1205 9.37288 66.3125 9.09388 66.5541 8.8613C66.7951 8.62926 67.077 8.444 67.3856 8.31495C67.7087 8.17925 68.056 8.11056 68.4064 8.11307L84.8689 8.10742Z" fill="#0068FF"/>
<path d="M92.2091 10.72C92.206 10.3691 92.2747 10.0213 92.411 9.69793C92.5437 9.38687 92.7355 9.10449 92.9757 8.8664C93.219 8.62341 93.5081 8.43115 93.8263 8.30076C94.1445 8.17038 94.4855 8.10448 94.8293 8.10687C95.1838 8.10523 95.535 8.17384 95.8627 8.30875C96.1799 8.43874 96.4678 8.63073 96.7098 8.87346C96.9466 9.11434 97.1379 9.39604 97.2745 9.70499C97.4177 10.0266 97.4904 10.3751 97.4877 10.7271V20.1337C97.48 20.9322 97.6336 21.724 97.9394 22.4617C98.5233 23.8669 99.6401 24.9837 101.045 25.5676C101.783 25.8741 102.575 26.0278 103.373 26.0193C104.116 26.0332 104.853 25.8864 105.533 25.5892C106.214 25.2919 106.822 24.8511 107.316 24.297C107.802 23.75 108.173 23.1117 108.409 22.4193C108.667 21.6667 108.796 20.8757 108.789 20.08V10.72C108.785 10.3683 108.856 10.0198 108.998 9.69793C109.139 9.38436 109.34 9.10176 109.591 8.8664C109.84 8.62909 110.13 8.43789 110.446 8.30169C111.101 8.03225 111.835 8.03225 112.489 8.30169C112.798 8.43213 113.077 8.62429 113.309 8.8664C113.54 9.10819 113.725 9.38994 113.856 9.69793C113.991 10.0215 114.06 10.3692 114.058 10.72V20.08C114.069 21.5709 113.795 23.0502 113.25 24.4382C112.735 25.7549 111.977 26.9635 111.017 28.0015C110.041 29.0516 108.856 29.8866 107.539 30.453C106.222 31.0194 104.801 31.3048 103.368 31.2909C101.869 31.302 100.385 31.003 99.0082 30.4128C96.3295 29.2658 94.2007 27.1238 93.0703 24.4382C92.487 23.0598 92.192 21.5767 92.2034 20.08L92.2091 10.72Z" fill="#0068FF"/>
</svg>
