<svg width="28" height="28" viewBox="0 0 28 28" fill="none" xmlns="http://www.w3.org/2000/svg">
<path fill-rule="evenodd" clip-rule="evenodd" d="M14.0002 3.96615C9.80368 3.96615 6.40169 7.36813 6.40169 11.5647C6.40169 12.7539 6.85491 14.1397 7.63568 15.6145C8.4085 17.0743 9.45307 18.5299 10.5206 19.8346C11.585 21.1356 12.6527 22.2629 13.4556 23.0658C13.6554 23.2656 13.8383 23.4448 14.0002 23.6012C14.1622 23.4448 14.3451 23.2656 14.5449 23.0658C15.3478 22.2629 16.4155 21.1356 17.4799 19.8346C18.5474 18.5299 19.592 17.0743 20.3648 15.6145C21.1456 14.1397 21.5988 12.7539 21.5988 11.5647C21.5988 7.36813 18.1968 3.96615 14.0002 3.96615ZM14.0002 25.1995C13.2252 26.0715 13.225 26.0713 13.2247 26.0711L13.2223 26.0689L13.2162 26.0635L13.1948 26.0443C13.1765 26.0278 13.15 26.0039 13.1161 25.9729C13.0482 25.9111 12.9501 25.8209 12.8261 25.7048C12.5783 25.4728 12.2267 25.1367 11.8057 24.7157C10.9652 23.8752 9.84157 22.6895 8.71468 21.3122C7.5909 19.9387 6.44416 18.3508 5.57351 16.7062C4.71079 15.0766 4.06836 13.2973 4.06836 11.5647C4.06836 6.07947 8.51502 1.63281 14.0002 1.63281C19.4855 1.63281 23.9321 6.07947 23.9321 11.5647C23.9321 13.2973 23.2897 15.0766 22.427 16.7062C21.5563 18.3508 20.4096 19.9387 19.2858 21.3122C18.1589 22.6895 17.0353 23.8752 16.1948 24.7157C15.7738 25.1367 15.4222 25.4728 15.1744 25.7048C15.0504 25.8209 14.9523 25.9111 14.8844 25.9729C14.8505 26.0039 14.824 26.0278 14.8057 26.0443L14.7843 26.0635L14.7782 26.0689L14.7764 26.0705C14.7761 26.0707 14.7753 26.0715 14.0002 25.1995ZM14.0002 25.1995L14.7753 26.0715L14.0002 26.7604L13.2247 26.0711L14.0002 25.1995ZM14.0006 9.56632C13.0985 9.56632 12.3673 10.2976 12.3673 11.1997C12.3673 12.1017 13.0985 12.833 14.0006 12.833C14.9027 12.833 15.6339 12.1017 15.6339 11.1997C15.6339 10.2976 14.9027 9.56632 14.0006 9.56632ZM10.0339 11.1997C10.0339 9.00893 11.8099 7.23299 14.0006 7.23299C16.1913 7.23299 17.9673 9.00893 17.9673 11.1997C17.9673 13.3904 16.1913 15.1663 14.0006 15.1663C11.8099 15.1663 10.0339 13.3904 10.0339 11.1997Z" fill="#2563EB"/>
</svg>
