<svg width="64" height="64" viewBox="0 0 64 64" fill="none" xmlns="http://www.w3.org/2000/svg">
<path fill-rule="evenodd" clip-rule="evenodd" d="M3.7334 20.8007C3.7334 16.6769 7.07634 13.334 11.2001 13.334H52.8001C56.9238 13.334 60.2667 16.6769 60.2667 20.8007V43.2007C60.2667 47.3244 56.9238 50.6673 52.8001 50.6673H11.2001C7.07634 50.6673 3.7334 47.3244 3.7334 43.2007V20.8007ZM11.2001 18.6673C10.0219 18.6673 9.06673 19.6224 9.06673 20.8007V43.2007C9.06673 44.3789 10.0219 45.334 11.2001 45.334H52.8001C53.9783 45.334 54.9334 44.3789 54.9334 43.2007V20.8007C54.9334 19.6224 53.9783 18.6673 52.8001 18.6673H11.2001ZM32.0001 28.2673C29.9382 28.2673 28.2667 29.9388 28.2667 32.0007C28.2667 34.0625 29.9382 35.734 32.0001 35.734C34.0619 35.734 35.7334 34.0625 35.7334 32.0007C35.7334 29.9388 34.0619 28.2673 32.0001 28.2673ZM22.9334 32.0007C22.9334 26.9933 26.9927 22.934 32.0001 22.934C37.0074 22.934 41.0667 26.9933 41.0667 32.0007C41.0667 37.008 37.0074 41.0673 32.0001 41.0673C26.9927 41.0673 22.9334 37.008 22.9334 32.0007ZM49.885 30.0516C50.9264 31.0929 50.9265 32.7814 49.8851 33.8228L49.8225 33.8854C48.7811 34.9269 47.0926 34.9269 46.0512 33.8855C45.0098 32.8442 45.0098 31.1557 46.0511 30.1143L46.1138 30.0516C47.1552 29.0102 48.8436 29.0102 49.885 30.0516ZM17.9477 30.0517C18.9891 31.0931 18.9891 32.7815 17.9478 33.8229L17.8851 33.8856C16.8437 34.927 15.1553 34.9271 14.1139 33.8857C13.0725 32.8443 13.0724 31.1559 14.1138 30.1145L14.1764 30.0518C15.2178 29.0104 16.9063 29.0103 17.9477 30.0517Z" fill="#293547"/>
</svg>
