<svg width="64" height="64" viewBox="0 0 64 64" fill="none" xmlns="http://www.w3.org/2000/svg">
<path fill-rule="evenodd" clip-rule="evenodd" d="M19.2005 9.06673C17.1386 9.06673 15.4671 10.7382 15.4671 12.8001V51.2001C15.4671 53.262 17.1386 54.9334 19.2005 54.9334H44.8005C46.8623 54.9334 48.5338 53.262 48.5338 51.2001V12.8001C48.5338 10.7382 46.8623 9.06677 44.8005 9.06677L19.2005 9.06673ZM10.1338 12.8001C10.1338 7.79268 14.1931 3.73339 19.2005 3.7334L44.8005 3.73344C49.8078 3.73344 53.8671 7.79272 53.8671 12.8001V51.2001C53.8671 56.2075 49.8078 60.2668 44.8005 60.2668H19.2005C14.1931 60.2668 10.1338 56.2075 10.1338 51.2001V12.8001ZM21.3338 16.0001C21.3338 14.5274 22.5277 13.3334 24.0005 13.3334H40.0005C41.4732 13.3334 42.6671 14.5274 42.6671 16.0001C42.6671 17.4729 41.4732 18.6668 40.0005 18.6668H24.0005C22.5277 18.6668 21.3338 17.4729 21.3338 16.0001ZM29.3338 44.8001C29.3338 43.3274 30.5277 42.1334 32.0005 42.1334H32.2271C33.6999 42.1334 34.8938 43.3274 34.8938 44.8001V45.0051C34.8938 46.4779 33.6999 47.6718 32.2271 47.6718H32.0005C30.5277 47.6718 29.3338 46.4779 29.3338 45.0051V44.8001Z" fill="#293547"/>
</svg>
