<svg width="20" height="20" viewBox="0 0 20 20" fill="none" xmlns="http://www.w3.org/2000/svg">
<path fill-rule="evenodd" clip-rule="evenodd" d="M9.43961 2.59961C5.66198 2.59961 2.59961 5.66198 2.59961 9.43961C2.59961 13.2172 5.66198 16.2796 9.43961 16.2796C11.3022 16.2796 12.9909 15.5351 14.2244 14.3275C14.2261 14.3259 14.2277 14.3242 14.2294 14.3226C15.4947 13.0813 16.2796 11.3521 16.2796 9.43961C16.2796 5.66198 13.2172 2.59961 9.43961 2.59961ZM16.3173 14.9937C17.5446 13.4759 18.2796 11.5436 18.2796 9.43961C18.2796 4.55741 14.3218 0.599609 9.43961 0.599609C4.55741 0.599609 0.599609 4.55741 0.599609 9.43961C0.599609 14.3218 4.55741 18.2796 9.43961 18.2796C11.497 18.2796 13.3903 17.5767 14.8924 16.398L17.7043 19.1183C18.1012 19.5023 18.7343 19.4918 19.1183 19.0949C19.5023 18.698 19.4918 18.0649 19.0949 17.6809L16.3173 14.9937Z" fill="#2563EB"/>
</svg>
