<svg width="93" height="92" viewBox="0 0 93 92" fill="none" xmlns="http://www.w3.org/2000/svg">
<path fill-rule="evenodd" clip-rule="evenodd" d="M44.3535 17.6335C29.8726 17.6335 18.1335 29.3726 18.1335 43.8535C18.1335 58.3344 29.8726 70.0735 44.3535 70.0735C51.4934 70.0735 57.9668 67.2196 62.6951 62.5904C62.7015 62.5841 62.7079 62.5779 62.7143 62.5716C67.5646 57.8134 70.5735 51.1848 70.5735 43.8535C70.5735 29.3726 58.8344 17.6335 44.3535 17.6335ZM70.7179 65.1443C75.4225 59.3259 78.2401 51.9187 78.2401 43.8535C78.2401 25.1384 63.0686 9.9668 44.3535 9.9668C25.6384 9.9668 10.4668 25.1384 10.4668 43.8535C10.4668 62.5686 25.6384 77.7401 44.3535 77.7401C52.2403 77.7401 59.4978 75.0458 65.2558 70.5274L76.0348 80.9552C77.5564 82.4272 79.9832 82.3871 81.4552 80.8655C82.9272 79.3439 82.8871 76.9171 81.3655 75.4451L70.7179 65.1443Z" fill="#A3ADBD"/>
</svg>
