<svg width="32" height="32" viewBox="0 0 32 32" fill="none" xmlns="http://www.w3.org/2000/svg">
<path d="M28.8992 14.9525L17.0495 3.10171C16.9119 2.96361 16.7484 2.85404 16.5684 2.77927C16.3883 2.7045 16.1953 2.66602 16.0003 2.66602C15.8054 2.66602 15.6124 2.7045 15.4323 2.77927C15.2523 2.85404 15.0887 2.96361 14.9511 3.10171L3.10142 14.9525C2.89381 15.1599 2.75247 15.4243 2.69534 15.7121C2.63821 16 2.66785 16.2983 2.78052 16.5693C2.89318 16.8403 3.08379 17.0717 3.32816 17.2342C3.57253 17.3966 3.85964 17.4829 4.15308 17.4819H8.59673V26.8638C8.59673 27.5186 8.85682 28.1465 9.31979 28.6096C9.78276 29.0726 10.4107 29.3327 11.0654 29.3327H20.9402C21.5949 29.3327 22.2228 29.0726 22.6858 28.6096C23.1488 28.1465 23.4089 27.5186 23.4089 26.8638V17.4819H27.8525C28.1455 17.4819 28.432 17.395 28.6756 17.2321C28.9192 17.0693 29.109 16.8378 29.2211 16.567C29.3331 16.2963 29.3624 15.9983 29.3051 15.7109C29.2478 15.4235 29.1066 15.1596 28.8992 14.9525ZM21.9277 14.5192C21.5348 14.5192 21.1581 14.6753 20.8803 14.9531C20.6025 15.2309 20.4464 15.6077 20.4464 16.0006V26.37H11.5592V16.0006C11.5592 15.6077 11.4031 15.2309 11.1253 14.9531C10.8475 14.6753 10.4708 14.5192 10.0779 14.5192H7.73269L16.0028 6.24834L24.2729 14.5192H21.9277Z" fill="#293547"/>
</svg>
