<svg width="64" height="64" viewBox="0 0 64 64" fill="none" xmlns="http://www.w3.org/2000/svg">
<path fill-rule="evenodd" clip-rule="evenodd" d="M8.16764 20.8007C8.16764 16.6769 11.5106 13.334 15.6343 13.334L47.5343 13.334C51.658 13.334 55.001 16.6769 55.001 20.8007L60.2667 43.2007C60.2667 47.3244 56.9238 50.6673 52.8001 50.6673H11.2001C7.07634 50.6673 3.7334 47.3244 3.7334 43.2007L8.16764 20.8007ZM15.6343 18.6673C14.4561 18.6673 13.501 19.6224 13.501 20.8007L9.06673 43.2007C9.06673 44.3789 10.0219 45.334 11.2001 45.334H52.8001C53.9783 45.334 54.9334 44.3789 54.9334 43.2007L49.6676 20.8007C49.6676 19.6224 48.7125 18.6673 47.5343 18.6673L15.6343 18.6673Z" fill="#293547"/>
<path d="M25 37.5C25 38.8807 23.9451 40 22.6439 40L16.3561 40C15.0549 40 14 38.8807 14 37.5C14 36.1193 15.0549 35 16.3561 35L22.6439 35C23.9451 35 25 36.1193 25 37.5Z" fill="#293547"/>
<path d="M31 26.5C31 27.8807 29.9451 29 28.6439 29L22.3561 29C21.0549 29 20 27.8807 20 26.5C20 25.1193 21.0549 24 22.3561 24L28.6439 24C29.9451 24 31 25.1193 31 26.5Z" fill="#293547"/>
<path d="M37.5 37.5C37.5 38.8807 36.4451 40 35.1439 40L28.8561 40C27.5549 40 26.5 38.8807 26.5 37.5C26.5 36.1193 27.5549 35 28.8561 35L35.1439 35C36.4451 35 37.5 36.1193 37.5 37.5Z" fill="#293547"/>
<path d="M43.5 26.5C43.5 27.8807 42.4451 29 41.1439 29L34.8561 29C33.5549 29 32.5 27.8807 32.5 26.5C32.5 25.1193 33.5549 24 34.8561 24L41.1439 24C42.4451 24 43.5 25.1193 43.5 26.5Z" fill="#293547"/>
<path d="M50 37.5C50 38.8807 48.9451 40 47.6439 40L41.3561 40C40.0549 40 39 38.8807 39 37.5C39 36.1193 40.0549 35 41.3561 35L47.6439 35C48.9451 35 50 36.1193 50 37.5Z" fill="#293547"/>
</svg>
