<svg width="64" height="64" viewBox="0 0 64 64" fill="none" xmlns="http://www.w3.org/2000/svg">
<path fill-rule="evenodd" clip-rule="evenodd" d="M21.3333 10.8242C21.3333 7.93769 23.5796 5.33398 26.6667 5.33398H37.3333C40.4204 5.33398 42.6667 7.93769 42.6667 10.8242V13.6477C42.6667 13.7001 42.6659 13.7524 42.6645 13.8046L45.3333 13.8046C45.3353 13.8046 45.3372 13.8046 45.3392 13.8046H53.3333C54.8061 13.8046 56 14.9985 56 16.4712C56 17.944 54.8061 19.1379 53.3333 19.1379H50.6645C50.6659 19.1901 50.6667 19.2424 50.6667 19.2948V50.3536C50.6667 54.7995 47.2265 58.6673 42.6667 58.6673H21.3333C16.7735 58.6673 13.3333 54.7995 13.3333 50.3536V19.2948C13.3333 19.2424 13.3341 19.1901 13.3355 19.1379H10.6667C9.19391 19.1379 8 17.944 8 16.4712C8 14.9985 9.19391 13.8046 10.6667 13.8046L18.6639 13.8046C18.6648 13.8046 18.6657 13.8046 18.6667 13.8046L21.3355 13.8046C21.3341 13.7524 21.3333 13.7001 21.3333 13.6477V10.8242ZM45.2877 19.1379L18.7123 19.1379C18.6929 19.1628 18.6667 19.2132 18.6667 19.2948V50.3536C18.6667 52.1453 20.0021 53.334 21.3333 53.334H42.6667C43.9979 53.334 45.3333 52.1453 45.3333 50.3536V19.2948C45.3333 19.2132 45.3071 19.1628 45.2877 19.1379ZM26.7123 10.6673C26.6929 10.6922 26.6667 10.7426 26.6667 10.8242V13.6477C26.6667 13.7293 26.6929 13.7797 26.7123 13.8046L37.2877 13.8046C37.3071 13.7797 37.3333 13.7293 37.3333 13.6477V10.8242C37.3333 10.7426 37.3071 10.6922 37.2877 10.6673H26.7123Z" fill="#293547"/>
</svg>
