<svg width="32" height="32" viewBox="0 0 32 32" fill="none" xmlns="http://www.w3.org/2000/svg">
<path fill-rule="evenodd" clip-rule="evenodd" d="M7.05654 7.05849C7.57724 6.53779 8.42146 6.53779 8.94216 7.05849L15.9994 14.1157L23.0565 7.0585C23.5772 6.5378 24.4215 6.5378 24.9422 7.0585C25.4629 7.5792 25.4629 8.42342 24.9422 8.94411L17.885 16.0013L24.9422 23.0585C25.4629 23.5792 25.4629 24.4234 24.9422 24.9441C24.4215 25.4648 23.5772 25.4648 23.0565 24.9441L15.9994 17.8869L8.94216 24.9441C8.42146 25.4648 7.57724 25.4648 7.05654 24.9441C6.53584 24.4234 6.53584 23.5792 7.05654 23.0585L14.1137 16.0013L7.05654 8.94411C6.53584 8.42341 6.53584 7.57919 7.05654 7.05849Z" fill="#293547"/>
</svg>
